999
FBX AutoCAD (*.DXF) exporter
  0
SECTION
  2
HEADER
  9
$ACADVER
  1
AC1008
  9
$UCSORG
 10
0.0
 20
0.0
 30
0.0
  9
$UCSXDIR
 10
1.0
 20
0.0
 30
0.0
  9
$TILEMODE
 70
   1
  9
$UCSYDIR
 10
0.0
 20
1.0
 30
0.0
  0
ENDSEC
  0
SECTION
  2
TABLES
  0
TABLE
  2
LTYPE
 70
   1
  0
LTYPE
  2
CONTINUOUS
 70
   64
  3
Solid line
 72
   65
 73
   0
 40
0.0
  0
ENDTAB
  0
TABLE
  2
LAYER
 70
   21
  0
LAYER
  2
Body
 70
   0
 62
   250
  6
CONTINUOUS
  0
LAYER
  2
ThermalPin
 70
   0
 62
   253
  6
CONTINUOUS
  0
LAYER
  2
Triangle_Set
 70
   0
 62
   253
  6
CONTINUOUS
  0
LAYER
  2
Triangle_Set_ncl1_1
 70
   0
 62
   253
  6
CONTINUOUS
  0
LAYER
  2
Triangle_Set_ncl1_2
 70
   0
 62
   253
  6
CONTINUOUS
  0
LAYER
  2
Triangle_Set_ncl1_3
 70
   0
 62
   253
  6
CONTINUOUS
  0
LAYER
  2
Triangle_Set_ncl1_4
 70
   0
 62
   253
  6
CONTINUOUS
  0
LAYER
  2
Triangle_Set_ncl1_5
 70
   0
 62
   253
  6
CONTINUOUS
  0
LAYER
  2
Triangle_Set_ncl1_6
 70
   0
 62
   253
  6
CONTINUOUS
  0
LAYER
  2
Triangle_Set_ncl1_7
 70
   0
 62
   253
  6
CONTINUOUS
  0
LAYER
  2
Triangle_Set_ncl1_8
 70
   0
 62
   253
  6
CONTINUOUS
  0
LAYER
  2
Triangle_Set_ncl1_9
 70
   0
 62
   253
  6
CONTINUOUS
  0
LAYER
  2
Triangle_Set_ncl1_10
 70
   0
 62
   253
  6
CONTINUOUS
  0
LAYER
  2
Triangle_Set_ncl1_11
 70
   0
 62
   253
  6
CONTINUOUS
  0
LAYER
  2
Triangle_Set_ncl1_12
 70
   0
 62
   253
  6
CONTINUOUS
  0
LAYER
  2
Triangle_Set_ncl1_13
 70
   0
 62
   253
  6
CONTINUOUS
  0
LAYER
  2
Triangle_Set_ncl1_14
 70
   0
 62
   253
  6
CONTINUOUS
  0
LAYER
  2
Triangle_Set_ncl1_15
 70
   0
 62
   253
  6
CONTINUOUS
  0
ENDTAB
  0
ENDSEC
  0
SECTION
  2
BLOCKS
  0
ENDSEC
  0
SECTION
  2
ENTITIES
  0
POLYLINE
  8
Body
 62
   250
 66
   1
 10
0.0
 20
0.0
 30
0.0
 70
   64
 71
   80
 72
   156
  0
VERTEX
  8
Body
 10
-1.500000
 20
-1.500000
 30
0.050000
 70
   192
  0
VERTEX
  8
Body
 10
-1.500000
 20
-1.500000
 30
1.000000
 70
   192
  0
VERTEX
  8
Body
 10
-1.500000
 20
1.500000
 30
0.050000
 70
   192
  0
VERTEX
  8
Body
 10
-1.500000
 20
1.500000
 30
1.000000
 70
   192
  0
VERTEX
  8
Body
 10
1.500000
 20
-1.500000
 30
0.050000
 70
   192
  0
VERTEX
  8
Body
 10
1.500000
 20
-1.500000
 30
1.000000
 70
   192
  0
VERTEX
  8
Body
 10
1.500000
 20
1.500000
 30
1.000000
 70
   192
  0
VERTEX
  8
Body
 10
-0.937500
 20
1.125000
 30
1.000000
 70
   192
  0
VERTEX
  8
Body
 10
1.500000
 20
1.500000
 30
0.050000
 70
   192
  0
VERTEX
  8
Body
 10
-0.937500
 20
1.125000
 30
0.900000
 70
   192
  0
VERTEX
  8
Body
 10
-0.940349
 20
1.157559
 30
1.000000
 70
   192
  0
VERTEX
  8
Body
 10
-0.948808
 20
1.189129
 30
1.000000
 70
   192
  0
VERTEX
  8
Body
 10
-0.962620
 20
1.218750
 30
1.000000
 70
   192
  0
VERTEX
  8
Body
 10
-0.981367
 20
1.245523
 30
1.000000
 70
   192
  0
VERTEX
  8
Body
 10
-1.004477
 20
1.268633
 30
1.000000
 70
   192
  0
VERTEX
  8
Body
 10
-1.031250
 20
1.287380
 30
1.000000
 70
   192
  0
VERTEX
  8
Body
 10
-1.060871
 20
1.301192
 30
1.000000
 70
   192
  0
VERTEX
  8
Body
 10
-1.092441
 20
1.309651
 30
1.000000
 70
   192
  0
VERTEX
  8
Body
 10
-1.125000
 20
1.312500
 30
1.000000
 70
   192
  0
VERTEX
  8
Body
 10
-1.157559
 20
1.309651
 30
1.000000
 70
   192
  0
VERTEX
  8
Body
 10
-1.189129
 20
1.301192
 30
1.000000
 70
   192
  0
VERTEX
  8
Body
 10
-1.218750
 20
1.287380
 30
1.000000
 70
   192
  0
VERTEX
  8
Body
 10
-1.245523
 20
1.268633
 30
1.000000
 70
   192
  0
VERTEX
  8
Body
 10
-1.268633
 20
1.245523
 30
1.000000
 70
   192
  0
VERTEX
  8
Body
 10
-1.287380
 20
1.218750
 30
1.000000
 70
   192
  0
VERTEX
  8
Body
 10
-1.301192
 20
1.189129
 30
1.000000
 70
   192
  0
VERTEX
  8
Body
 10
-1.309651
 20
1.157559
 30
1.000000
 70
   192
  0
VERTEX
  8
Body
 10
-1.312500
 20
1.125000
 30
1.000000
 70
   192
  0
VERTEX
  8
Body
 10
-1.309651
 20
1.092441
 30
1.000000
 70
   192
  0
VERTEX
  8
Body
 10
-1.301192
 20
1.060871
 30
1.000000
 70
   192
  0
VERTEX
  8
Body
 10
-1.287380
 20
1.031250
 30
1.000000
 70
   192
  0
VERTEX
  8
Body
 10
-1.268633
 20
1.004477
 30
1.000000
 70
   192
  0
VERTEX
  8
Body
 10
-1.245523
 20
0.981367
 30
1.000000
 70
   192
  0
VERTEX
  8
Body
 10
-1.218750
 20
0.962620
 30
1.000000
 70
   192
  0
VERTEX
  8
Body
 10
-1.189129
 20
0.948808
 30
1.000000
 70
   192
  0
VERTEX
  8
Body
 10
-1.157559
 20
0.940349
 30
1.000000
 70
   192
  0
VERTEX
  8
Body
 10
-1.125000
 20
0.937500
 30
1.000000
 70
   192
  0
VERTEX
  8
Body
 10
-1.092441
 20
0.940349
 30
1.000000
 70
   192
  0
VERTEX
  8
Body
 10
-1.060871
 20
0.948808
 30
1.000000
 70
   192
  0
VERTEX
  8
Body
 10
-1.031250
 20
0.962620
 30
1.000000
 70
   192
  0
VERTEX
  8
Body
 10
-1.004477
 20
0.981367
 30
1.000000
 70
   192
  0
VERTEX
  8
Body
 10
-0.981367
 20
1.004477
 30
1.000000
 70
   192
  0
VERTEX
  8
Body
 10
-0.962620
 20
1.031250
 30
1.000000
 70
   192
  0
VERTEX
  8
Body
 10
-0.948808
 20
1.060871
 30
1.000000
 70
   192
  0
VERTEX
  8
Body
 10
-0.940349
 20
1.092441
 30
1.000000
 70
   192
  0
VERTEX
  8
Body
 10
-0.940349
 20
1.157559
 30
0.900000
 70
   192
  0
VERTEX
  8
Body
 10
-0.948808
 20
1.189129
 30
0.900000
 70
   192
  0
VERTEX
  8
Body
 10
-0.962620
 20
1.218750
 30
0.900000
 70
   192
  0
VERTEX
  8
Body
 10
-0.981367
 20
1.245523
 30
0.900000
 70
   192
  0
VERTEX
  8
Body
 10
-1.004477
 20
1.268633
 30
0.900000
 70
   192
  0
VERTEX
  8
Body
 10
-1.031250
 20
1.287380
 30
0.900000
 70
   192
  0
VERTEX
  8
Body
 10
-1.060871
 20
1.301192
 30
0.900000
 70
   192
  0
VERTEX
  8
Body
 10
-1.092441
 20
1.309651
 30
0.900000
 70
   192
  0
VERTEX
  8
Body
 10
-1.125000
 20
1.312500
 30
0.900000
 70
   192
  0
VERTEX
  8
Body
 10
-1.157559
 20
1.309651
 30
0.900000
 70
   192
  0
VERTEX
  8
Body
 10
-1.189129
 20
1.301192
 30
0.900000
 70
   192
  0
VERTEX
  8
Body
 10
-1.218750
 20
1.287380
 30
0.900000
 70
   192
  0
VERTEX
  8
Body
 10
-1.245523
 20
1.268633
 30
0.900000
 70
   192
  0
VERTEX
  8
Body
 10
-1.268633
 20
1.245523
 30
0.900000
 70
   192
  0
VERTEX
  8
Body
 10
-1.287380
 20
1.218750
 30
0.900000
 70
   192
  0
VERTEX
  8
Body
 10
-1.301192
 20
1.189129
 30
0.900000
 70
   192
  0
VERTEX
  8
Body
 10
-1.309651
 20
1.157559
 30
0.900000
 70
   192
  0
VERTEX
  8
Body
 10
-1.312500
 20
1.125000
 30
0.900000
 70
   192
  0
VERTEX
  8
Body
 10
-1.309651
 20
1.092441
 30
0.900000
 70
   192
  0
VERTEX
  8
Body
 10
-1.301192
 20
1.060871
 30
0.900000
 70
   192
  0
VERTEX
  8
Body
 10
-1.287380
 20
1.031250
 30
0.900000
 70
   192
  0
VERTEX
  8
Body
 10
-1.268633
 20
1.004477
 30
0.900000
 70
   192
  0
VERTEX
  8
Body
 10
-1.245523
 20
0.981367
 30
0.900000
 70
   192
  0
VERTEX
  8
Body
 10
-1.218750
 20
0.962620
 30
0.900000
 70
   192
  0
VERTEX
  8
Body
 10
-1.189129
 20
0.948808
 30
0.900000
 70
   192
  0
VERTEX
  8
Body
 10
-1.157559
 20
0.940349
 30
0.900000
 70
   192
  0
VERTEX
  8
Body
 10
-1.125000
 20
0.937500
 30
0.900000
 70
   192
  0
VERTEX
  8
Body
 10
-1.092441
 20
0.940349
 30
0.900000
 70
   192
  0
VERTEX
  8
Body
 10
-1.060871
 20
0.948808
 30
0.900000
 70
   192
  0
VERTEX
  8
Body
 10
-1.031250
 20
0.962620
 30
0.900000
 70
   192
  0
VERTEX
  8
Body
 10
-1.004477
 20
0.981367
 30
0.900000
 70
   192
  0
VERTEX
  8
Body
 10
-0.981367
 20
1.004477
 30
0.900000
 70
   192
  0
VERTEX
  8
Body
 10
-0.962620
 20
1.031250
 30
0.900000
 70
   192
  0
VERTEX
  8
Body
 10
-0.948808
 20
1.060871
 30
0.900000
 70
   192
  0
VERTEX
  8
Body
 10
-0.940349
 20
1.092441
 30
0.900000
 70
   192
  0
VERTEX
  8
Body
 62
   250
 10
0.0
 20
0.0
 30
0.0
 70
   128
 71
   3
 72
   2
 73
   1
  0
VERTEX
  8
Body
 62
   250
 10
0.0
 20
0.0
 30
0.0
 70
   128
 71
   2
 72
   3
 73
   4
  0
VERTEX
  8
Body
 62
   250
 10
0.0
 20
0.0
 30
0.0
 70
   128
 71
   6
 72
   5
 73
   2
  0
VERTEX
  8
Body
 62
   250
 10
0.0
 20
0.0
 30
0.0
 70
   128
 71
   5
 72
   1
 73
   2
  0
VERTEX
  8
Body
 62
   250
 10
0.0
 20
0.0
 30
0.0
 70
   128
 71
   7
 72
   6
 73
   43
  0
VERTEX
  8
Body
 62
   250
 10
0.0
 20
0.0
 30
0.0
 70
   128
 71
   6
 72
   2
 73
   40
  0
VERTEX
  8
Body
 62
   250
 10
0.0
 20
0.0
 30
0.0
 70
   128
 71
   8
 72
   7
 73
   45
  0
VERTEX
  8
Body
 62
   250
 10
0.0
 20
0.0
 30
0.0
 70
   128
 71
   45
 72
   7
 73
   44
  0
VERTEX
  8
Body
 62
   250
 10
0.0
 20
0.0
 30
0.0
 70
   128
 71
   44
 72
   7
 73
   43
  0
VERTEX
  8
Body
 62
   250
 10
0.0
 20
0.0
 30
0.0
 70
   128
 71
   43
 72
   6
 73
   42
  0
VERTEX
  8
Body
 62
   250
 10
0.0
 20
0.0
 30
0.0
 70
   128
 71
   42
 72
   6
 73
   41
  0
VERTEX
  8
Body
 62
   250
 10
0.0
 20
0.0
 30
0.0
 70
   128
 71
   41
 72
   6
 73
   40
  0
VERTEX
  8
Body
 62
   250
 10
0.0
 20
0.0
 30
0.0
 70
   128
 71
   40
 72
   2
 73
   39
  0
VERTEX
  8
Body
 62
   250
 10
0.0
 20
0.0
 30
0.0
 70
   128
 71
   39
 72
   2
 73
   38
  0
VERTEX
  8
Body
 62
   250
 10
0.0
 20
0.0
 30
0.0
 70
   128
 71
   38
 72
   2
 73
   37
  0
VERTEX
  8
Body
 62
   250
 10
0.0
 20
0.0
 30
0.0
 70
   128
 71
   37
 72
   2
 73
   36
  0
VERTEX
  8
Body
 62
   250
 10
0.0
 20
0.0
 30
0.0
 70
   128
 71
   36
 72
   2
 73
   35
  0
VERTEX
  8
Body
 62
   250
 10
0.0
 20
0.0
 30
0.0
 70
   128
 71
   35
 72
   2
 73
   34
  0
VERTEX
  8
Body
 62
   250
 10
0.0
 20
0.0
 30
0.0
 70
   128
 71
   34
 72
   2
 73
   33
  0
VERTEX
  8
Body
 62
   250
 10
0.0
 20
0.0
 30
0.0
 70
   128
 71
   33
 72
   2
 73
   32
  0
VERTEX
  8
Body
 62
   250
 10
0.0
 20
0.0
 30
0.0
 70
   128
 71
   32
 72
   2
 73
   31
  0
VERTEX
  8
Body
 62
   250
 10
0.0
 20
0.0
 30
0.0
 70
   128
 71
   2
 72
   4
 73
   30
  0
VERTEX
  8
Body
 62
   250
 10
0.0
 20
0.0
 30
0.0
 70
   128
 71
   31
 72
   2
 73
   30
  0
VERTEX
  8
Body
 62
   250
 10
0.0
 20
0.0
 30
0.0
 70
   128
 71
   30
 72
   4
 73
   29
  0
VERTEX
  8
Body
 62
   250
 10
0.0
 20
0.0
 30
0.0
 70
   128
 71
   29
 72
   4
 73
   28
  0
VERTEX
  8
Body
 62
   250
 10
0.0
 20
0.0
 30
0.0
 70
   128
 71
   28
 72
   4
 73
   27
  0
VERTEX
  8
Body
 62
   250
 10
0.0
 20
0.0
 30
0.0
 70
   128
 71
   27
 72
   4
 73
   26
  0
VERTEX
  8
Body
 62
   250
 10
0.0
 20
0.0
 30
0.0
 70
   128
 71
   26
 72
   4
 73
   25
  0
VERTEX
  8
Body
 62
   250
 10
0.0
 20
0.0
 30
0.0
 70
   128
 71
   25
 72
   4
 73
   24
  0
VERTEX
  8
Body
 62
   250
 10
0.0
 20
0.0
 30
0.0
 70
   128
 71
   24
 72
   4
 73
   23
  0
VERTEX
  8
Body
 62
   250
 10
0.0
 20
0.0
 30
0.0
 70
   128
 71
   23
 72
   4
 73
   22
  0
VERTEX
  8
Body
 62
   250
 10
0.0
 20
0.0
 30
0.0
 70
   128
 71
   22
 72
   4
 73
   21
  0
VERTEX
  8
Body
 62
   250
 10
0.0
 20
0.0
 30
0.0
 70
   128
 71
   21
 72
   4
 73
   20
  0
VERTEX
  8
Body
 62
   250
 10
0.0
 20
0.0
 30
0.0
 70
   128
 71
   4
 72
   7
 73
   17
  0
VERTEX
  8
Body
 62
   250
 10
0.0
 20
0.0
 30
0.0
 70
   128
 71
   20
 72
   4
 73
   19
  0
VERTEX
  8
Body
 62
   250
 10
0.0
 20
0.0
 30
0.0
 70
   128
 71
   19
 72
   4
 73
   18
  0
VERTEX
  8
Body
 62
   250
 10
0.0
 20
0.0
 30
0.0
 70
   128
 71
   18
 72
   4
 73
   17
  0
VERTEX
  8
Body
 62
   250
 10
0.0
 20
0.0
 30
0.0
 70
   128
 71
   17
 72
   7
 73
   16
  0
VERTEX
  8
Body
 62
   250
 10
0.0
 20
0.0
 30
0.0
 70
   128
 71
   16
 72
   7
 73
   15
  0
VERTEX
  8
Body
 62
   250
 10
0.0
 20
0.0
 30
0.0
 70
   128
 71
   15
 72
   7
 73
   14
  0
VERTEX
  8
Body
 62
   250
 10
0.0
 20
0.0
 30
0.0
 70
   128
 71
   14
 72
   7
 73
   13
  0
VERTEX
  8
Body
 62
   250
 10
0.0
 20
0.0
 30
0.0
 70
   128
 71
   13
 72
   7
 73
   12
  0
VERTEX
  8
Body
 62
   250
 10
0.0
 20
0.0
 30
0.0
 70
   128
 71
   7
 72
   8
 73
   11
  0
VERTEX
  8
Body
 62
   250
 10
0.0
 20
0.0
 30
0.0
 70
   128
 71
   12
 72
   7
 73
   11
  0
VERTEX
  8
Body
 62
   250
 10
0.0
 20
0.0
 30
0.0
 70
   128
 71
   9
 72
   7
 73
   4
  0
VERTEX
  8
Body
 62
   250
 10
0.0
 20
0.0
 30
0.0
 70
   128
 71
   3
 72
   9
 73
   4
  0
VERTEX
  8
Body
 62
   250
 10
0.0
 20
0.0
 30
0.0
 70
   128
 71
   9
 72
   3
 73
   5
  0
VERTEX
  8
Body
 62
   250
 10
0.0
 20
0.0
 30
0.0
 70
   128
 71
   3
 72
   1
 73
   5
  0
VERTEX
  8
Body
 62
   250
 10
0.0
 20
0.0
 30
0.0
 70
   128
 71
   6
 72
   9
 73
   5
  0
VERTEX
  8
Body
 62
   250
 10
0.0
 20
0.0
 30
0.0
 70
   128
 71
   9
 72
   6
 73
   7
  0
VERTEX
  8
Body
 62
   250
 10
0.0
 20
0.0
 30
0.0
 70
   128
 71
   10
 72
   8
 73
   45
  0
VERTEX
  8
Body
 62
   250
 10
0.0
 20
0.0
 30
0.0
 70
   128
 71
   10
 72
   45
 73
   80
  0
VERTEX
  8
Body
 62
   250
 10
0.0
 20
0.0
 30
0.0
 70
   128
 71
   45
 72
   44
 73
   79
  0
VERTEX
  8
Body
 62
   250
 10
0.0
 20
0.0
 30
0.0
 70
   128
 71
   44
 72
   43
 73
   78
  0
VERTEX
  8
Body
 62
   250
 10
0.0
 20
0.0
 30
0.0
 70
   128
 71
   43
 72
   42
 73
   77
  0
VERTEX
  8
Body
 62
   250
 10
0.0
 20
0.0
 30
0.0
 70
   128
 71
   42
 72
   41
 73
   76
  0
VERTEX
  8
Body
 62
   250
 10
0.0
 20
0.0
 30
0.0
 70
   128
 71
   41
 72
   40
 73
   75
  0
VERTEX
  8
Body
 62
   250
 10
0.0
 20
0.0
 30
0.0
 70
   128
 71
   40
 72
   39
 73
   74
  0
VERTEX
  8
Body
 62
   250
 10
0.0
 20
0.0
 30
0.0
 70
   128
 71
   39
 72
   38
 73
   73
  0
VERTEX
  8
Body
 62
   250
 10
0.0
 20
0.0
 30
0.0
 70
   128
 71
   38
 72
   37
 73
   72
  0
VERTEX
  8
Body
 62
   250
 10
0.0
 20
0.0
 30
0.0
 70
   128
 71
   37
 72
   36
 73
   71
  0
VERTEX
  8
Body
 62
   250
 10
0.0
 20
0.0
 30
0.0
 70
   128
 71
   36
 72
   35
 73
   70
  0
VERTEX
  8
Body
 62
   250
 10
0.0
 20
0.0
 30
0.0
 70
   128
 71
   35
 72
   34
 73
   69
  0
VERTEX
  8
Body
 62
   250
 10
0.0
 20
0.0
 30
0.0
 70
   128
 71
   34
 72
   33
 73
   68
  0
VERTEX
  8
Body
 62
   250
 10
0.0
 20
0.0
 30
0.0
 70
   128
 71
   33
 72
   32
 73
   67
  0
VERTEX
  8
Body
 62
   250
 10
0.0
 20
0.0
 30
0.0
 70
   128
 71
   32
 72
   31
 73
   66
  0
VERTEX
  8
Body
 62
   250
 10
0.0
 20
0.0
 30
0.0
 70
   128
 71
   31
 72
   30
 73
   65
  0
VERTEX
  8
Body
 62
   250
 10
0.0
 20
0.0
 30
0.0
 70
   128
 71
   30
 72
   29
 73
   64
  0
VERTEX
  8
Body
 62
   250
 10
0.0
 20
0.0
 30
0.0
 70
   128
 71
   28
 72
   27
 73
   62
  0
VERTEX
  8
Body
 62
   250
 10
0.0
 20
0.0
 30
0.0
 70
   128
 71
   27
 72
   26
 73
   61
  0
VERTEX
  8
Body
 62
   250
 10
0.0
 20
0.0
 30
0.0
 70
   128
 71
   26
 72
   25
 73
   60
  0
VERTEX
  8
Body
 62
   250
 10
0.0
 20
0.0
 30
0.0
 70
   128
 71
   25
 72
   24
 73
   59
  0
VERTEX
  8
Body
 62
   250
 10
0.0
 20
0.0
 30
0.0
 70
   128
 71
   24
 72
   23
 73
   58
  0
VERTEX
  8
Body
 62
   250
 10
0.0
 20
0.0
 30
0.0
 70
   128
 71
   22
 72
   21
 73
   56
  0
VERTEX
  8
Body
 62
   250
 10
0.0
 20
0.0
 30
0.0
 70
   128
 71
   21
 72
   20
 73
   55
  0
VERTEX
  8
Body
 62
   250
 10
0.0
 20
0.0
 30
0.0
 70
   128
 71
   20
 72
   19
 73
   54
  0
VERTEX
  8
Body
 62
   250
 10
0.0
 20
0.0
 30
0.0
 70
   128
 71
   19
 72
   18
 73
   53
  0
VERTEX
  8
Body
 62
   250
 10
0.0
 20
0.0
 30
0.0
 70
   128
 71
   17
 72
   16
 73
   51
  0
VERTEX
  8
Body
 62
   250
 10
0.0
 20
0.0
 30
0.0
 70
   128
 71
   16
 72
   15
 73
   50
  0
VERTEX
  8
Body
 62
   250
 10
0.0
 20
0.0
 30
0.0
 70
   128
 71
   47
 72
   13
 73
   12
  0
VERTEX
  8
Body
 62
   250
 10
0.0
 20
0.0
 30
0.0
 70
   128
 71
   46
 72
   11
 73
   10
  0
VERTEX
  8
Body
 62
   250
 10
0.0
 20
0.0
 30
0.0
 70
   128
 71
   12
 72
   11
 73
   46
  0
VERTEX
  8
Body
 62
   250
 10
0.0
 20
0.0
 30
0.0
 70
   128
 71
   11
 72
   8
 73
   10
  0
VERTEX
  8
Body
 62
   250
 10
0.0
 20
0.0
 30
0.0
 70
   128
 71
   15
 72
   14
 73
   49
  0
VERTEX
  8
Body
 62
   250
 10
0.0
 20
0.0
 30
0.0
 70
   128
 71
   14
 72
   13
 73
   48
  0
VERTEX
  8
Body
 62
   250
 10
0.0
 20
0.0
 30
0.0
 70
   128
 71
   18
 72
   17
 73
   52
  0
VERTEX
  8
Body
 62
   250
 10
0.0
 20
0.0
 30
0.0
 70
   128
 71
   12
 72
   46
 73
   47
  0
VERTEX
  8
Body
 62
   250
 10
0.0
 20
0.0
 30
0.0
 70
   128
 71
   23
 72
   22
 73
   57
  0
VERTEX
  8
Body
 62
   250
 10
0.0
 20
0.0
 30
0.0
 70
   128
 71
   13
 72
   47
 73
   48
  0
VERTEX
  8
Body
 62
   250
 10
0.0
 20
0.0
 30
0.0
 70
   128
 71
   29
 72
   28
 73
   63
  0
VERTEX
  8
Body
 62
   250
 10
0.0
 20
0.0
 30
0.0
 70
   128
 71
   14
 72
   48
 73
   49
  0
VERTEX
  8
Body
 62
   250
 10
0.0
 20
0.0
 30
0.0
 70
   128
 71
   15
 72
   49
 73
   50
  0
VERTEX
  8
Body
 62
   250
 10
0.0
 20
0.0
 30
0.0
 70
   128
 71
   16
 72
   50
 73
   51
  0
VERTEX
  8
Body
 62
   250
 10
0.0
 20
0.0
 30
0.0
 70
   128
 71
   17
 72
   51
 73
   52
  0
VERTEX
  8
Body
 62
   250
 10
0.0
 20
0.0
 30
0.0
 70
   128
 71
   18
 72
   52
 73
   53
  0
VERTEX
  8
Body
 62
   250
 10
0.0
 20
0.0
 30
0.0
 70
   128
 71
   19
 72
   53
 73
   54
  0
VERTEX
  8
Body
 62
   250
 10
0.0
 20
0.0
 30
0.0
 70
   128
 71
   20
 72
   54
 73
   55
  0
VERTEX
  8
Body
 62
   250
 10
0.0
 20
0.0
 30
0.0
 70
   128
 71
   21
 72
   55
 73
   56
  0
VERTEX
  8
Body
 62
   250
 10
0.0
 20
0.0
 30
0.0
 70
   128
 71
   22
 72
   56
 73
   57
  0
VERTEX
  8
Body
 62
   250
 10
0.0
 20
0.0
 30
0.0
 70
   128
 71
   23
 72
   57
 73
   58
  0
VERTEX
  8
Body
 62
   250
 10
0.0
 20
0.0
 30
0.0
 70
   128
 71
   24
 72
   58
 73
   59
  0
VERTEX
  8
Body
 62
   250
 10
0.0
 20
0.0
 30
0.0
 70
   128
 71
   25
 72
   59
 73
   60
  0
VERTEX
  8
Body
 62
   250
 10
0.0
 20
0.0
 30
0.0
 70
   128
 71
   26
 72
   60
 73
   61
  0
VERTEX
  8
Body
 62
   250
 10
0.0
 20
0.0
 30
0.0
 70
   128
 71
   27
 72
   61
 73
   62
  0
VERTEX
  8
Body
 62
   250
 10
0.0
 20
0.0
 30
0.0
 70
   128
 71
   28
 72
   62
 73
   63
  0
VERTEX
  8
Body
 62
   250
 10
0.0
 20
0.0
 30
0.0
 70
   128
 71
   29
 72
   63
 73
   64
  0
VERTEX
  8
Body
 62
   250
 10
0.0
 20
0.0
 30
0.0
 70
   128
 71
   30
 72
   64
 73
   65
  0
VERTEX
  8
Body
 62
   250
 10
0.0
 20
0.0
 30
0.0
 70
   128
 71
   31
 72
   65
 73
   66
  0
VERTEX
  8
Body
 62
   250
 10
0.0
 20
0.0
 30
0.0
 70
   128
 71
   32
 72
   66
 73
   67
  0
VERTEX
  8
Body
 62
   250
 10
0.0
 20
0.0
 30
0.0
 70
   128
 71
   33
 72
   67
 73
   68
  0
VERTEX
  8
Body
 62
   250
 10
0.0
 20
0.0
 30
0.0
 70
   128
 71
   34
 72
   68
 73
   69
  0
VERTEX
  8
Body
 62
   250
 10
0.0
 20
0.0
 30
0.0
 70
   128
 71
   35
 72
   69
 73
   70
  0
VERTEX
  8
Body
 62
   250
 10
0.0
 20
0.0
 30
0.0
 70
   128
 71
   36
 72
   70
 73
   71
  0
VERTEX
  8
Body
 62
   250
 10
0.0
 20
0.0
 30
0.0
 70
   128
 71
   37
 72
   71
 73
   72
  0
VERTEX
  8
Body
 62
   250
 10
0.0
 20
0.0
 30
0.0
 70
   128
 71
   38
 72
   72
 73
   73
  0
VERTEX
  8
Body
 62
   250
 10
0.0
 20
0.0
 30
0.0
 70
   128
 71
   39
 72
   73
 73
   74
  0
VERTEX
  8
Body
 62
   250
 10
0.0
 20
0.0
 30
0.0
 70
   128
 71
   40
 72
   74
 73
   75
  0
VERTEX
  8
Body
 62
   250
 10
0.0
 20
0.0
 30
0.0
 70
   128
 71
   41
 72
   75
 73
   76
  0
VERTEX
  8
Body
 62
   250
 10
0.0
 20
0.0
 30
0.0
 70
   128
 71
   42
 72
   76
 73
   77
  0
VERTEX
  8
Body
 62
   250
 10
0.0
 20
0.0
 30
0.0
 70
   128
 71
   43
 72
   77
 73
   78
  0
VERTEX
  8
Body
 62
   250
 10
0.0
 20
0.0
 30
0.0
 70
   128
 71
   44
 72
   78
 73
   79
  0
VERTEX
  8
Body
 62
   250
 10
0.0
 20
0.0
 30
0.0
 70
   128
 71
   45
 72
   79
 73
   80
  0
VERTEX
  8
Body
 62
   250
 10
0.0
 20
0.0
 30
0.0
 70
   128
 71
   46
 72
   10
 73
   47
  0
VERTEX
  8
Body
 62
   250
 10
0.0
 20
0.0
 30
0.0
 70
   128
 71
   47
 72
   10
 73
   48
  0
VERTEX
  8
Body
 62
   250
 10
0.0
 20
0.0
 30
0.0
 70
   128
 71
   48
 72
   10
 73
   49
  0
VERTEX
  8
Body
 62
   250
 10
0.0
 20
0.0
 30
0.0
 70
   128
 71
   49
 72
   10
 73
   50
  0
VERTEX
  8
Body
 62
   250
 10
0.0
 20
0.0
 30
0.0
 70
   128
 71
   50
 72
   10
 73
   51
  0
VERTEX
  8
Body
 62
   250
 10
0.0
 20
0.0
 30
0.0
 70
   128
 71
   51
 72
   10
 73
   52
  0
VERTEX
  8
Body
 62
   250
 10
0.0
 20
0.0
 30
0.0
 70
   128
 71
   52
 72
   10
 73
   53
  0
VERTEX
  8
Body
 62
   250
 10
0.0
 20
0.0
 30
0.0
 70
   128
 71
   53
 72
   10
 73
   54
  0
VERTEX
  8
Body
 62
   250
 10
0.0
 20
0.0
 30
0.0
 70
   128
 71
   54
 72
   10
 73
   55
  0
VERTEX
  8
Body
 62
   250
 10
0.0
 20
0.0
 30
0.0
 70
   128
 71
   55
 72
   10
 73
   56
  0
VERTEX
  8
Body
 62
   250
 10
0.0
 20
0.0
 30
0.0
 70
   128
 71
   56
 72
   10
 73
   57
  0
VERTEX
  8
Body
 62
   250
 10
0.0
 20
0.0
 30
0.0
 70
   128
 71
   57
 72
   10
 73
   58
  0
VERTEX
  8
Body
 62
   250
 10
0.0
 20
0.0
 30
0.0
 70
   128
 71
   58
 72
   10
 73
   59
  0
VERTEX
  8
Body
 62
   250
 10
0.0
 20
0.0
 30
0.0
 70
   128
 71
   59
 72
   10
 73
   60
  0
VERTEX
  8
Body
 62
   250
 10
0.0
 20
0.0
 30
0.0
 70
   128
 71
   60
 72
   10
 73
   61
  0
VERTEX
  8
Body
 62
   250
 10
0.0
 20
0.0
 30
0.0
 70
   128
 71
   61
 72
   10
 73
   62
  0
VERTEX
  8
Body
 62
   250
 10
0.0
 20
0.0
 30
0.0
 70
   128
 71
   62
 72
   10
 73
   63
  0
VERTEX
  8
Body
 62
   250
 10
0.0
 20
0.0
 30
0.0
 70
   128
 71
   63
 72
   10
 73
   64
  0
VERTEX
  8
Body
 62
   250
 10
0.0
 20
0.0
 30
0.0
 70
   128
 71
   64
 72
   10
 73
   65
  0
VERTEX
  8
Body
 62
   250
 10
0.0
 20
0.0
 30
0.0
 70
   128
 71
   65
 72
   10
 73
   66
  0
VERTEX
  8
Body
 62
   250
 10
0.0
 20
0.0
 30
0.0
 70
   128
 71
   66
 72
   10
 73
   67
  0
VERTEX
  8
Body
 62
   250
 10
0.0
 20
0.0
 30
0.0
 70
   128
 71
   67
 72
   10
 73
   68
  0
VERTEX
  8
Body
 62
   250
 10
0.0
 20
0.0
 30
0.0
 70
   128
 71
   68
 72
   10
 73
   69
  0
VERTEX
  8
Body
 62
   250
 10
0.0
 20
0.0
 30
0.0
 70
   128
 71
   69
 72
   10
 73
   70
  0
VERTEX
  8
Body
 62
   250
 10
0.0
 20
0.0
 30
0.0
 70
   128
 71
   70
 72
   10
 73
   71
  0
VERTEX
  8
Body
 62
   250
 10
0.0
 20
0.0
 30
0.0
 70
   128
 71
   71
 72
   10
 73
   72
  0
VERTEX
  8
Body
 62
   250
 10
0.0
 20
0.0
 30
0.0
 70
   128
 71
   72
 72
   10
 73
   73
  0
VERTEX
  8
Body
 62
   250
 10
0.0
 20
0.0
 30
0.0
 70
   128
 71
   73
 72
   10
 73
   74
  0
VERTEX
  8
Body
 62
   250
 10
0.0
 20
0.0
 30
0.0
 70
   128
 71
   74
 72
   10
 73
   75
  0
VERTEX
  8
Body
 62
   250
 10
0.0
 20
0.0
 30
0.0
 70
   128
 71
   75
 72
   10
 73
   76
  0
VERTEX
  8
Body
 62
   250
 10
0.0
 20
0.0
 30
0.0
 70
   128
 71
   76
 72
   10
 73
   77
  0
VERTEX
  8
Body
 62
   250
 10
0.0
 20
0.0
 30
0.0
 70
   128
 71
   77
 72
   10
 73
   78
  0
VERTEX
  8
Body
 62
   250
 10
0.0
 20
0.0
 30
0.0
 70
   128
 71
   78
 72
   10
 73
   79
  0
VERTEX
  8
Body
 62
   250
 10
0.0
 20
0.0
 30
0.0
 70
   128
 71
   79
 72
   10
 73
   80
  0
SEQEND
  0
POLYLINE
  8
ThermalPin
 62
   253
 66
   1
 10
0.0
 20
0.0
 30
0.0
 70
   64
 71
   8
 72
   12
  0
VERTEX
  8
ThermalPin
 10
-0.875000
 20
-0.875000
 30
0.000000
 70
   192
  0
VERTEX
  8
ThermalPin
 10
-0.875000
 20
-0.875000
 30
0.100000
 70
   192
  0
VERTEX
  8
ThermalPin
 10
-0.875000
 20
0.875000
 30
0.000000
 70
   192
  0
VERTEX
  8
ThermalPin
 10
-0.875000
 20
0.875000
 30
0.100000
 70
   192
  0
VERTEX
  8
ThermalPin
 10
0.875000
 20
-0.875000
 30
0.000000
 70
   192
  0
VERTEX
  8
ThermalPin
 10
0.875000
 20
-0.875000
 30
0.100000
 70
   192
  0
VERTEX
  8
ThermalPin
 10
0.875000
 20
0.875000
 30
0.000000
 70
   192
  0
VERTEX
  8
ThermalPin
 10
0.875000
 20
0.875000
 30
0.100000
 70
   192
  0
VERTEX
  8
ThermalPin
 62
   253
 10
0.0
 20
0.0
 30
0.0
 70
   128
 71
   3
 72
   2
 73
   1
  0
VERTEX
  8
ThermalPin
 62
   253
 10
0.0
 20
0.0
 30
0.0
 70
   128
 71
   2
 72
   3
 73
   4
  0
VERTEX
  8
ThermalPin
 62
   253
 10
0.0
 20
0.0
 30
0.0
 70
   128
 71
   6
 72
   7
 73
   5
  0
VERTEX
  8
ThermalPin
 62
   253
 10
0.0
 20
0.0
 30
0.0
 70
   128
 71
   7
 72
   6
 73
   8
  0
VERTEX
  8
ThermalPin
 62
   253
 10
0.0
 20
0.0
 30
0.0
 70
   128
 71
   6
 72
   5
 73
   2
  0
VERTEX
  8
ThermalPin
 62
   253
 10
0.0
 20
0.0
 30
0.0
 70
   128
 71
   5
 72
   1
 73
   2
  0
VERTEX
  8
ThermalPin
 62
   253
 10
0.0
 20
0.0
 30
0.0
 70
   128
 71
   7
 72
   8
 73
   4
  0
VERTEX
  8
ThermalPin
 62
   253
 10
0.0
 20
0.0
 30
0.0
 70
   128
 71
   3
 72
   7
 73
   4
  0
VERTEX
  8
ThermalPin
 62
   253
 10
0.0
 20
0.0
 30
0.0
 70
   128
 71
   7
 72
   3
 73
   5
  0
VERTEX
  8
ThermalPin
 62
   253
 10
0.0
 20
0.0
 30
0.0
 70
   128
 71
   3
 72
   1
 73
   5
  0
VERTEX
  8
ThermalPin
 62
   253
 10
0.0
 20
0.0
 30
0.0
 70
   128
 71
   4
 72
   8
 73
   6
  0
VERTEX
  8
ThermalPin
 62
   253
 10
0.0
 20
0.0
 30
0.0
 70
   128
 71
   2
 72
   4
 73
   6
  0
SEQEND
  0
POLYLINE
  8
Triangle_Set
 62
   253
 66
   1
 10
0.0
 20
0.0
 30
0.0
 70
   64
 71
   8
 72
   12
  0
VERTEX
  8
Triangle_Set
 10
-1.550000
 20
0.630000
 30
0.000000
 70
   192
  0
VERTEX
  8
Triangle_Set
 10
-1.550000
 20
0.630000
 30
0.100000
 70
   192
  0
VERTEX
  8
Triangle_Set
 10
-1.550000
 20
0.870000
 30
0.000000
 70
   192
  0
VERTEX
  8
Triangle_Set
 10
-1.550000
 20
0.870000
 30
0.100000
 70
   192
  0
VERTEX
  8
Triangle_Set
 10
-1.100000
 20
0.630000
 30
0.000000
 70
   192
  0
VERTEX
  8
Triangle_Set
 10
-1.100000
 20
0.630000
 30
0.100000
 70
   192
  0
VERTEX
  8
Triangle_Set
 10
-1.100000
 20
0.870000
 30
0.000000
 70
   192
  0
VERTEX
  8
Triangle_Set
 10
-1.100000
 20
0.870000
 30
0.100000
 70
   192
  0
VERTEX
  8
Triangle_Set
 62
   253
 10
0.0
 20
0.0
 30
0.0
 70
   128
 71
   3
 72
   2
 73
   1
  0
VERTEX
  8
Triangle_Set
 62
   253
 10
0.0
 20
0.0
 30
0.0
 70
   128
 71
   2
 72
   3
 73
   4
  0
VERTEX
  8
Triangle_Set
 62
   253
 10
0.0
 20
0.0
 30
0.0
 70
   128
 71
   6
 72
   7
 73
   5
  0
VERTEX
  8
Triangle_Set
 62
   253
 10
0.0
 20
0.0
 30
0.0
 70
   128
 71
   7
 72
   6
 73
   8
  0
VERTEX
  8
Triangle_Set
 62
   253
 10
0.0
 20
0.0
 30
0.0
 70
   128
 71
   6
 72
   5
 73
   2
  0
VERTEX
  8
Triangle_Set
 62
   253
 10
0.0
 20
0.0
 30
0.0
 70
   128
 71
   5
 72
   1
 73
   2
  0
VERTEX
  8
Triangle_Set
 62
   253
 10
0.0
 20
0.0
 30
0.0
 70
   128
 71
   7
 72
   8
 73
   4
  0
VERTEX
  8
Triangle_Set
 62
   253
 10
0.0
 20
0.0
 30
0.0
 70
   128
 71
   3
 72
   7
 73
   4
  0
VERTEX
  8
Triangle_Set
 62
   253
 10
0.0
 20
0.0
 30
0.0
 70
   128
 71
   3
 72
   1
 73
   5
  0
VERTEX
  8
Triangle_Set
 62
   253
 10
0.0
 20
0.0
 30
0.0
 70
   128
 71
   3
 72
   5
 73
   7
  0
VERTEX
  8
Triangle_Set
 62
   253
 10
0.0
 20
0.0
 30
0.0
 70
   128
 71
   2
 72
   4
 73
   6
  0
VERTEX
  8
Triangle_Set
 62
   253
 10
0.0
 20
0.0
 30
0.0
 70
   128
 71
   6
 72
   4
 73
   8
  0
SEQEND
  0
POLYLINE
  8
Triangle_Set_ncl1_1
 62
   253
 66
   1
 10
0.0
 20
0.0
 30
0.0
 70
   64
 71
   8
 72
   12
  0
VERTEX
  8
Triangle_Set_ncl1_1
 10
1.100000
 20
0.630000
 30
0.000000
 70
   192
  0
VERTEX
  8
Triangle_Set_ncl1_1
 10
1.100000
 20
0.630000
 30
0.100000
 70
   192
  0
VERTEX
  8
Triangle_Set_ncl1_1
 10
1.100000
 20
0.870000
 30
0.000000
 70
   192
  0
VERTEX
  8
Triangle_Set_ncl1_1
 10
1.100000
 20
0.870000
 30
0.100000
 70
   192
  0
VERTEX
  8
Triangle_Set_ncl1_1
 10
1.550000
 20
0.630000
 30
0.000000
 70
   192
  0
VERTEX
  8
Triangle_Set_ncl1_1
 10
1.550000
 20
0.630000
 30
0.100000
 70
   192
  0
VERTEX
  8
Triangle_Set_ncl1_1
 10
1.550000
 20
0.870000
 30
0.000000
 70
   192
  0
VERTEX
  8
Triangle_Set_ncl1_1
 10
1.550000
 20
0.870000
 30
0.100000
 70
   192
  0
VERTEX
  8
Triangle_Set_ncl1_1
 62
   253
 10
0.0
 20
0.0
 30
0.0
 70
   128
 71
   3
 72
   2
 73
   1
  0
VERTEX
  8
Triangle_Set_ncl1_1
 62
   253
 10
0.0
 20
0.0
 30
0.0
 70
   128
 71
   2
 72
   3
 73
   4
  0
VERTEX
  8
Triangle_Set_ncl1_1
 62
   253
 10
0.0
 20
0.0
 30
0.0
 70
   128
 71
   6
 72
   7
 73
   5
  0
VERTEX
  8
Triangle_Set_ncl1_1
 62
   253
 10
0.0
 20
0.0
 30
0.0
 70
   128
 71
   7
 72
   6
 73
   8
  0
VERTEX
  8
Triangle_Set_ncl1_1
 62
   253
 10
0.0
 20
0.0
 30
0.0
 70
   128
 71
   6
 72
   5
 73
   2
  0
VERTEX
  8
Triangle_Set_ncl1_1
 62
   253
 10
0.0
 20
0.0
 30
0.0
 70
   128
 71
   5
 72
   1
 73
   2
  0
VERTEX
  8
Triangle_Set_ncl1_1
 62
   253
 10
0.0
 20
0.0
 30
0.0
 70
   128
 71
   7
 72
   8
 73
   4
  0
VERTEX
  8
Triangle_Set_ncl1_1
 62
   253
 10
0.0
 20
0.0
 30
0.0
 70
   128
 71
   3
 72
   7
 73
   4
  0
VERTEX
  8
Triangle_Set_ncl1_1
 62
   253
 10
0.0
 20
0.0
 30
0.0
 70
   128
 71
   3
 72
   1
 73
   5
  0
VERTEX
  8
Triangle_Set_ncl1_1
 62
   253
 10
0.0
 20
0.0
 30
0.0
 70
   128
 71
   3
 72
   5
 73
   7
  0
VERTEX
  8
Triangle_Set_ncl1_1
 62
   253
 10
0.0
 20
0.0
 30
0.0
 70
   128
 71
   2
 72
   4
 73
   6
  0
VERTEX
  8
Triangle_Set_ncl1_1
 62
   253
 10
0.0
 20
0.0
 30
0.0
 70
   128
 71
   6
 72
   4
 73
   8
  0
SEQEND
  0
POLYLINE
  8
Triangle_Set_ncl1_2
 62
   253
 66
   1
 10
0.0
 20
0.0
 30
0.0
 70
   64
 71
   8
 72
   12
  0
VERTEX
  8
Triangle_Set_ncl1_2
 10
-1.550000
 20
0.130000
 30
0.000000
 70
   192
  0
VERTEX
  8
Triangle_Set_ncl1_2
 10
-1.550000
 20
0.130000
 30
0.100000
 70
   192
  0
VERTEX
  8
Triangle_Set_ncl1_2
 10
-1.550000
 20
0.370000
 30
0.000000
 70
   192
  0
VERTEX
  8
Triangle_Set_ncl1_2
 10
-1.550000
 20
0.370000
 30
0.100000
 70
   192
  0
VERTEX
  8
Triangle_Set_ncl1_2
 10
-1.100000
 20
0.130000
 30
0.000000
 70
   192
  0
VERTEX
  8
Triangle_Set_ncl1_2
 10
-1.100000
 20
0.130000
 30
0.100000
 70
   192
  0
VERTEX
  8
Triangle_Set_ncl1_2
 10
-1.100000
 20
0.370000
 30
0.000000
 70
   192
  0
VERTEX
  8
Triangle_Set_ncl1_2
 10
-1.100000
 20
0.370000
 30
0.100000
 70
   192
  0
VERTEX
  8
Triangle_Set_ncl1_2
 62
   253
 10
0.0
 20
0.0
 30
0.0
 70
   128
 71
   3
 72
   2
 73
   1
  0
VERTEX
  8
Triangle_Set_ncl1_2
 62
   253
 10
0.0
 20
0.0
 30
0.0
 70
   128
 71
   2
 72
   3
 73
   4
  0
VERTEX
  8
Triangle_Set_ncl1_2
 62
   253
 10
0.0
 20
0.0
 30
0.0
 70
   128
 71
   6
 72
   7
 73
   5
  0
VERTEX
  8
Triangle_Set_ncl1_2
 62
   253
 10
0.0
 20
0.0
 30
0.0
 70
   128
 71
   7
 72
   6
 73
   8
  0
VERTEX
  8
Triangle_Set_ncl1_2
 62
   253
 10
0.0
 20
0.0
 30
0.0
 70
   128
 71
   6
 72
   5
 73
   2
  0
VERTEX
  8
Triangle_Set_ncl1_2
 62
   253
 10
0.0
 20
0.0
 30
0.0
 70
   128
 71
   5
 72
   1
 73
   2
  0
VERTEX
  8
Triangle_Set_ncl1_2
 62
   253
 10
0.0
 20
0.0
 30
0.0
 70
   128
 71
   7
 72
   8
 73
   4
  0
VERTEX
  8
Triangle_Set_ncl1_2
 62
   253
 10
0.0
 20
0.0
 30
0.0
 70
   128
 71
   3
 72
   7
 73
   4
  0
VERTEX
  8
Triangle_Set_ncl1_2
 62
   253
 10
0.0
 20
0.0
 30
0.0
 70
   128
 71
   3
 72
   1
 73
   5
  0
VERTEX
  8
Triangle_Set_ncl1_2
 62
   253
 10
0.0
 20
0.0
 30
0.0
 70
   128
 71
   3
 72
   5
 73
   7
  0
VERTEX
  8
Triangle_Set_ncl1_2
 62
   253
 10
0.0
 20
0.0
 30
0.0
 70
   128
 71
   2
 72
   4
 73
   6
  0
VERTEX
  8
Triangle_Set_ncl1_2
 62
   253
 10
0.0
 20
0.0
 30
0.0
 70
   128
 71
   6
 72
   4
 73
   8
  0
SEQEND
  0
POLYLINE
  8
Triangle_Set_ncl1_3
 62
   253
 66
   1
 10
0.0
 20
0.0
 30
0.0
 70
   64
 71
   8
 72
   12
  0
VERTEX
  8
Triangle_Set_ncl1_3
 10
1.100000
 20
0.130000
 30
0.000000
 70
   192
  0
VERTEX
  8
Triangle_Set_ncl1_3
 10
1.100000
 20
0.130000
 30
0.100000
 70
   192
  0
VERTEX
  8
Triangle_Set_ncl1_3
 10
1.100000
 20
0.370000
 30
0.000000
 70
   192
  0
VERTEX
  8
Triangle_Set_ncl1_3
 10
1.100000
 20
0.370000
 30
0.100000
 70
   192
  0
VERTEX
  8
Triangle_Set_ncl1_3
 10
1.550000
 20
0.130000
 30
0.000000
 70
   192
  0
VERTEX
  8
Triangle_Set_ncl1_3
 10
1.550000
 20
0.130000
 30
0.100000
 70
   192
  0
VERTEX
  8
Triangle_Set_ncl1_3
 10
1.550000
 20
0.370000
 30
0.000000
 70
   192
  0
VERTEX
  8
Triangle_Set_ncl1_3
 10
1.550000
 20
0.370000
 30
0.100000
 70
   192
  0
VERTEX
  8
Triangle_Set_ncl1_3
 62
   253
 10
0.0
 20
0.0
 30
0.0
 70
   128
 71
   3
 72
   2
 73
   1
  0
VERTEX
  8
Triangle_Set_ncl1_3
 62
   253
 10
0.0
 20
0.0
 30
0.0
 70
   128
 71
   2
 72
   3
 73
   4
  0
VERTEX
  8
Triangle_Set_ncl1_3
 62
   253
 10
0.0
 20
0.0
 30
0.0
 70
   128
 71
   6
 72
   7
 73
   5
  0
VERTEX
  8
Triangle_Set_ncl1_3
 62
   253
 10
0.0
 20
0.0
 30
0.0
 70
   128
 71
   7
 72
   6
 73
   8
  0
VERTEX
  8
Triangle_Set_ncl1_3
 62
   253
 10
0.0
 20
0.0
 30
0.0
 70
   128
 71
   6
 72
   5
 73
   2
  0
VERTEX
  8
Triangle_Set_ncl1_3
 62
   253
 10
0.0
 20
0.0
 30
0.0
 70
   128
 71
   5
 72
   1
 73
   2
  0
VERTEX
  8
Triangle_Set_ncl1_3
 62
   253
 10
0.0
 20
0.0
 30
0.0
 70
   128
 71
   7
 72
   8
 73
   4
  0
VERTEX
  8
Triangle_Set_ncl1_3
 62
   253
 10
0.0
 20
0.0
 30
0.0
 70
   128
 71
   3
 72
   7
 73
   4
  0
VERTEX
  8
Triangle_Set_ncl1_3
 62
   253
 10
0.0
 20
0.0
 30
0.0
 70
   128
 71
   3
 72
   1
 73
   5
  0
VERTEX
  8
Triangle_Set_ncl1_3
 62
   253
 10
0.0
 20
0.0
 30
0.0
 70
   128
 71
   3
 72
   5
 73
   7
  0
VERTEX
  8
Triangle_Set_ncl1_3
 62
   253
 10
0.0
 20
0.0
 30
0.0
 70
   128
 71
   2
 72
   4
 73
   6
  0
VERTEX
  8
Triangle_Set_ncl1_3
 62
   253
 10
0.0
 20
0.0
 30
0.0
 70
   128
 71
   6
 72
   4
 73
   8
  0
SEQEND
  0
POLYLINE
  8
Triangle_Set_ncl1_4
 62
   253
 66
   1
 10
0.0
 20
0.0
 30
0.0
 70
   64
 71
   8
 72
   12
  0
VERTEX
  8
Triangle_Set_ncl1_4
 10
-1.550000
 20
-0.370000
 30
0.000000
 70
   192
  0
VERTEX
  8
Triangle_Set_ncl1_4
 10
-1.550000
 20
-0.370000
 30
0.100000
 70
   192
  0
VERTEX
  8
Triangle_Set_ncl1_4
 10
-1.550000
 20
-0.130000
 30
0.000000
 70
   192
  0
VERTEX
  8
Triangle_Set_ncl1_4
 10
-1.550000
 20
-0.130000
 30
0.100000
 70
   192
  0
VERTEX
  8
Triangle_Set_ncl1_4
 10
-1.100000
 20
-0.370000
 30
0.000000
 70
   192
  0
VERTEX
  8
Triangle_Set_ncl1_4
 10
-1.100000
 20
-0.370000
 30
0.100000
 70
   192
  0
VERTEX
  8
Triangle_Set_ncl1_4
 10
-1.100000
 20
-0.130000
 30
0.000000
 70
   192
  0
VERTEX
  8
Triangle_Set_ncl1_4
 10
-1.100000
 20
-0.130000
 30
0.100000
 70
   192
  0
VERTEX
  8
Triangle_Set_ncl1_4
 62
   253
 10
0.0
 20
0.0
 30
0.0
 70
   128
 71
   3
 72
   2
 73
   1
  0
VERTEX
  8
Triangle_Set_ncl1_4
 62
   253
 10
0.0
 20
0.0
 30
0.0
 70
   128
 71
   2
 72
   3
 73
   4
  0
VERTEX
  8
Triangle_Set_ncl1_4
 62
   253
 10
0.0
 20
0.0
 30
0.0
 70
   128
 71
   6
 72
   7
 73
   5
  0
VERTEX
  8
Triangle_Set_ncl1_4
 62
   253
 10
0.0
 20
0.0
 30
0.0
 70
   128
 71
   7
 72
   6
 73
   8
  0
VERTEX
  8
Triangle_Set_ncl1_4
 62
   253
 10
0.0
 20
0.0
 30
0.0
 70
   128
 71
   6
 72
   5
 73
   2
  0
VERTEX
  8
Triangle_Set_ncl1_4
 62
   253
 10
0.0
 20
0.0
 30
0.0
 70
   128
 71
   5
 72
   1
 73
   2
  0
VERTEX
  8
Triangle_Set_ncl1_4
 62
   253
 10
0.0
 20
0.0
 30
0.0
 70
   128
 71
   7
 72
   8
 73
   4
  0
VERTEX
  8
Triangle_Set_ncl1_4
 62
   253
 10
0.0
 20
0.0
 30
0.0
 70
   128
 71
   3
 72
   7
 73
   4
  0
VERTEX
  8
Triangle_Set_ncl1_4
 62
   253
 10
0.0
 20
0.0
 30
0.0
 70
   128
 71
   3
 72
   1
 73
   5
  0
VERTEX
  8
Triangle_Set_ncl1_4
 62
   253
 10
0.0
 20
0.0
 30
0.0
 70
   128
 71
   3
 72
   5
 73
   7
  0
VERTEX
  8
Triangle_Set_ncl1_4
 62
   253
 10
0.0
 20
0.0
 30
0.0
 70
   128
 71
   2
 72
   4
 73
   6
  0
VERTEX
  8
Triangle_Set_ncl1_4
 62
   253
 10
0.0
 20
0.0
 30
0.0
 70
   128
 71
   6
 72
   4
 73
   8
  0
SEQEND
  0
POLYLINE
  8
Triangle_Set_ncl1_5
 62
   253
 66
   1
 10
0.0
 20
0.0
 30
0.0
 70
   64
 71
   8
 72
   12
  0
VERTEX
  8
Triangle_Set_ncl1_5
 10
1.100000
 20
-0.370000
 30
0.000000
 70
   192
  0
VERTEX
  8
Triangle_Set_ncl1_5
 10
1.100000
 20
-0.370000
 30
0.100000
 70
   192
  0
VERTEX
  8
Triangle_Set_ncl1_5
 10
1.100000
 20
-0.130000
 30
0.000000
 70
   192
  0
VERTEX
  8
Triangle_Set_ncl1_5
 10
1.100000
 20
-0.130000
 30
0.100000
 70
   192
  0
VERTEX
  8
Triangle_Set_ncl1_5
 10
1.550000
 20
-0.370000
 30
0.000000
 70
   192
  0
VERTEX
  8
Triangle_Set_ncl1_5
 10
1.550000
 20
-0.370000
 30
0.100000
 70
   192
  0
VERTEX
  8
Triangle_Set_ncl1_5
 10
1.550000
 20
-0.130000
 30
0.000000
 70
   192
  0
VERTEX
  8
Triangle_Set_ncl1_5
 10
1.550000
 20
-0.130000
 30
0.100000
 70
   192
  0
VERTEX
  8
Triangle_Set_ncl1_5
 62
   253
 10
0.0
 20
0.0
 30
0.0
 70
   128
 71
   3
 72
   2
 73
   1
  0
VERTEX
  8
Triangle_Set_ncl1_5
 62
   253
 10
0.0
 20
0.0
 30
0.0
 70
   128
 71
   2
 72
   3
 73
   4
  0
VERTEX
  8
Triangle_Set_ncl1_5
 62
   253
 10
0.0
 20
0.0
 30
0.0
 70
   128
 71
   6
 72
   7
 73
   5
  0
VERTEX
  8
Triangle_Set_ncl1_5
 62
   253
 10
0.0
 20
0.0
 30
0.0
 70
   128
 71
   7
 72
   6
 73
   8
  0
VERTEX
  8
Triangle_Set_ncl1_5
 62
   253
 10
0.0
 20
0.0
 30
0.0
 70
   128
 71
   6
 72
   5
 73
   2
  0
VERTEX
  8
Triangle_Set_ncl1_5
 62
   253
 10
0.0
 20
0.0
 30
0.0
 70
   128
 71
   5
 72
   1
 73
   2
  0
VERTEX
  8
Triangle_Set_ncl1_5
 62
   253
 10
0.0
 20
0.0
 30
0.0
 70
   128
 71
   7
 72
   8
 73
   4
  0
VERTEX
  8
Triangle_Set_ncl1_5
 62
   253
 10
0.0
 20
0.0
 30
0.0
 70
   128
 71
   3
 72
   7
 73
   4
  0
VERTEX
  8
Triangle_Set_ncl1_5
 62
   253
 10
0.0
 20
0.0
 30
0.0
 70
   128
 71
   3
 72
   1
 73
   5
  0
VERTEX
  8
Triangle_Set_ncl1_5
 62
   253
 10
0.0
 20
0.0
 30
0.0
 70
   128
 71
   3
 72
   5
 73
   7
  0
VERTEX
  8
Triangle_Set_ncl1_5
 62
   253
 10
0.0
 20
0.0
 30
0.0
 70
   128
 71
   2
 72
   4
 73
   6
  0
VERTEX
  8
Triangle_Set_ncl1_5
 62
   253
 10
0.0
 20
0.0
 30
0.0
 70
   128
 71
   6
 72
   4
 73
   8
  0
SEQEND
  0
POLYLINE
  8
Triangle_Set_ncl1_6
 62
   253
 66
   1
 10
0.0
 20
0.0
 30
0.0
 70
   64
 71
   8
 72
   12
  0
VERTEX
  8
Triangle_Set_ncl1_6
 10
-1.550000
 20
-0.870000
 30
0.000000
 70
   192
  0
VERTEX
  8
Triangle_Set_ncl1_6
 10
-1.550000
 20
-0.870000
 30
0.100000
 70
   192
  0
VERTEX
  8
Triangle_Set_ncl1_6
 10
-1.550000
 20
-0.630000
 30
0.000000
 70
   192
  0
VERTEX
  8
Triangle_Set_ncl1_6
 10
-1.550000
 20
-0.630000
 30
0.100000
 70
   192
  0
VERTEX
  8
Triangle_Set_ncl1_6
 10
-1.100000
 20
-0.870000
 30
0.000000
 70
   192
  0
VERTEX
  8
Triangle_Set_ncl1_6
 10
-1.100000
 20
-0.870000
 30
0.100000
 70
   192
  0
VERTEX
  8
Triangle_Set_ncl1_6
 10
-1.100000
 20
-0.630000
 30
0.000000
 70
   192
  0
VERTEX
  8
Triangle_Set_ncl1_6
 10
-1.100000
 20
-0.630000
 30
0.100000
 70
   192
  0
VERTEX
  8
Triangle_Set_ncl1_6
 62
   253
 10
0.0
 20
0.0
 30
0.0
 70
   128
 71
   3
 72
   2
 73
   1
  0
VERTEX
  8
Triangle_Set_ncl1_6
 62
   253
 10
0.0
 20
0.0
 30
0.0
 70
   128
 71
   2
 72
   3
 73
   4
  0
VERTEX
  8
Triangle_Set_ncl1_6
 62
   253
 10
0.0
 20
0.0
 30
0.0
 70
   128
 71
   6
 72
   7
 73
   5
  0
VERTEX
  8
Triangle_Set_ncl1_6
 62
   253
 10
0.0
 20
0.0
 30
0.0
 70
   128
 71
   7
 72
   6
 73
   8
  0
VERTEX
  8
Triangle_Set_ncl1_6
 62
   253
 10
0.0
 20
0.0
 30
0.0
 70
   128
 71
   6
 72
   5
 73
   2
  0
VERTEX
  8
Triangle_Set_ncl1_6
 62
   253
 10
0.0
 20
0.0
 30
0.0
 70
   128
 71
   5
 72
   1
 73
   2
  0
VERTEX
  8
Triangle_Set_ncl1_6
 62
   253
 10
0.0
 20
0.0
 30
0.0
 70
   128
 71
   7
 72
   8
 73
   4
  0
VERTEX
  8
Triangle_Set_ncl1_6
 62
   253
 10
0.0
 20
0.0
 30
0.0
 70
   128
 71
   3
 72
   7
 73
   4
  0
VERTEX
  8
Triangle_Set_ncl1_6
 62
   253
 10
0.0
 20
0.0
 30
0.0
 70
   128
 71
   3
 72
   1
 73
   5
  0
VERTEX
  8
Triangle_Set_ncl1_6
 62
   253
 10
0.0
 20
0.0
 30
0.0
 70
   128
 71
   3
 72
   5
 73
   7
  0
VERTEX
  8
Triangle_Set_ncl1_6
 62
   253
 10
0.0
 20
0.0
 30
0.0
 70
   128
 71
   2
 72
   4
 73
   6
  0
VERTEX
  8
Triangle_Set_ncl1_6
 62
   253
 10
0.0
 20
0.0
 30
0.0
 70
   128
 71
   6
 72
   4
 73
   8
  0
SEQEND
  0
POLYLINE
  8
Triangle_Set_ncl1_7
 62
   253
 66
   1
 10
0.0
 20
0.0
 30
0.0
 70
   64
 71
   8
 72
   12
  0
VERTEX
  8
Triangle_Set_ncl1_7
 10
1.100000
 20
-0.870000
 30
0.000000
 70
   192
  0
VERTEX
  8
Triangle_Set_ncl1_7
 10
1.100000
 20
-0.870000
 30
0.100000
 70
   192
  0
VERTEX
  8
Triangle_Set_ncl1_7
 10
1.100000
 20
-0.630000
 30
0.000000
 70
   192
  0
VERTEX
  8
Triangle_Set_ncl1_7
 10
1.100000
 20
-0.630000
 30
0.100000
 70
   192
  0
VERTEX
  8
Triangle_Set_ncl1_7
 10
1.550000
 20
-0.870000
 30
0.000000
 70
   192
  0
VERTEX
  8
Triangle_Set_ncl1_7
 10
1.550000
 20
-0.870000
 30
0.100000
 70
   192
  0
VERTEX
  8
Triangle_Set_ncl1_7
 10
1.550000
 20
-0.630000
 30
0.000000
 70
   192
  0
VERTEX
  8
Triangle_Set_ncl1_7
 10
1.550000
 20
-0.630000
 30
0.100000
 70
   192
  0
VERTEX
  8
Triangle_Set_ncl1_7
 62
   253
 10
0.0
 20
0.0
 30
0.0
 70
   128
 71
   3
 72
   2
 73
   1
  0
VERTEX
  8
Triangle_Set_ncl1_7
 62
   253
 10
0.0
 20
0.0
 30
0.0
 70
   128
 71
   2
 72
   3
 73
   4
  0
VERTEX
  8
Triangle_Set_ncl1_7
 62
   253
 10
0.0
 20
0.0
 30
0.0
 70
   128
 71
   6
 72
   7
 73
   5
  0
VERTEX
  8
Triangle_Set_ncl1_7
 62
   253
 10
0.0
 20
0.0
 30
0.0
 70
   128
 71
   7
 72
   6
 73
   8
  0
VERTEX
  8
Triangle_Set_ncl1_7
 62
   253
 10
0.0
 20
0.0
 30
0.0
 70
   128
 71
   6
 72
   5
 73
   2
  0
VERTEX
  8
Triangle_Set_ncl1_7
 62
   253
 10
0.0
 20
0.0
 30
0.0
 70
   128
 71
   5
 72
   1
 73
   2
  0
VERTEX
  8
Triangle_Set_ncl1_7
 62
   253
 10
0.0
 20
0.0
 30
0.0
 70
   128
 71
   7
 72
   8
 73
   4
  0
VERTEX
  8
Triangle_Set_ncl1_7
 62
   253
 10
0.0
 20
0.0
 30
0.0
 70
   128
 71
   3
 72
   7
 73
   4
  0
VERTEX
  8
Triangle_Set_ncl1_7
 62
   253
 10
0.0
 20
0.0
 30
0.0
 70
   128
 71
   3
 72
   1
 73
   5
  0
VERTEX
  8
Triangle_Set_ncl1_7
 62
   253
 10
0.0
 20
0.0
 30
0.0
 70
   128
 71
   3
 72
   5
 73
   7
  0
VERTEX
  8
Triangle_Set_ncl1_7
 62
   253
 10
0.0
 20
0.0
 30
0.0
 70
   128
 71
   2
 72
   4
 73
   6
  0
VERTEX
  8
Triangle_Set_ncl1_7
 62
   253
 10
0.0
 20
0.0
 30
0.0
 70
   128
 71
   6
 72
   4
 73
   8
  0
SEQEND
  0
POLYLINE
  8
Triangle_Set_ncl1_8
 62
   253
 66
   1
 10
0.0
 20
0.0
 30
0.0
 70
   64
 71
   8
 72
   12
  0
VERTEX
  8
Triangle_Set_ncl1_8
 10
-0.870000
 20
1.100000
 30
0.000000
 70
   192
  0
VERTEX
  8
Triangle_Set_ncl1_8
 10
-0.870000
 20
1.100000
 30
0.100000
 70
   192
  0
VERTEX
  8
Triangle_Set_ncl1_8
 10
-0.870000
 20
1.550000
 30
0.000000
 70
   192
  0
VERTEX
  8
Triangle_Set_ncl1_8
 10
-0.870000
 20
1.550000
 30
0.100000
 70
   192
  0
VERTEX
  8
Triangle_Set_ncl1_8
 10
-0.630000
 20
1.100000
 30
0.000000
 70
   192
  0
VERTEX
  8
Triangle_Set_ncl1_8
 10
-0.630000
 20
1.100000
 30
0.100000
 70
   192
  0
VERTEX
  8
Triangle_Set_ncl1_8
 10
-0.630000
 20
1.550000
 30
0.000000
 70
   192
  0
VERTEX
  8
Triangle_Set_ncl1_8
 10
-0.630000
 20
1.550000
 30
0.100000
 70
   192
  0
VERTEX
  8
Triangle_Set_ncl1_8
 62
   253
 10
0.0
 20
0.0
 30
0.0
 70
   128
 71
   3
 72
   2
 73
   1
  0
VERTEX
  8
Triangle_Set_ncl1_8
 62
   253
 10
0.0
 20
0.0
 30
0.0
 70
   128
 71
   2
 72
   3
 73
   4
  0
VERTEX
  8
Triangle_Set_ncl1_8
 62
   253
 10
0.0
 20
0.0
 30
0.0
 70
   128
 71
   6
 72
   7
 73
   5
  0
VERTEX
  8
Triangle_Set_ncl1_8
 62
   253
 10
0.0
 20
0.0
 30
0.0
 70
   128
 71
   7
 72
   6
 73
   8
  0
VERTEX
  8
Triangle_Set_ncl1_8
 62
   253
 10
0.0
 20
0.0
 30
0.0
 70
   128
 71
   6
 72
   5
 73
   2
  0
VERTEX
  8
Triangle_Set_ncl1_8
 62
   253
 10
0.0
 20
0.0
 30
0.0
 70
   128
 71
   5
 72
   1
 73
   2
  0
VERTEX
  8
Triangle_Set_ncl1_8
 62
   253
 10
0.0
 20
0.0
 30
0.0
 70
   128
 71
   7
 72
   8
 73
   4
  0
VERTEX
  8
Triangle_Set_ncl1_8
 62
   253
 10
0.0
 20
0.0
 30
0.0
 70
   128
 71
   3
 72
   7
 73
   4
  0
VERTEX
  8
Triangle_Set_ncl1_8
 62
   253
 10
0.0
 20
0.0
 30
0.0
 70
   128
 71
   7
 72
   3
 73
   5
  0
VERTEX
  8
Triangle_Set_ncl1_8
 62
   253
 10
0.0
 20
0.0
 30
0.0
 70
   128
 71
   3
 72
   1
 73
   5
  0
VERTEX
  8
Triangle_Set_ncl1_8
 62
   253
 10
0.0
 20
0.0
 30
0.0
 70
   128
 71
   4
 72
   8
 73
   6
  0
VERTEX
  8
Triangle_Set_ncl1_8
 62
   253
 10
0.0
 20
0.0
 30
0.0
 70
   128
 71
   2
 72
   4
 73
   6
  0
SEQEND
  0
POLYLINE
  8
Triangle_Set_ncl1_9
 62
   253
 66
   1
 10
0.0
 20
0.0
 30
0.0
 70
   64
 71
   8
 72
   12
  0
VERTEX
  8
Triangle_Set_ncl1_9
 10
-0.870000
 20
-1.550000
 30
0.000000
 70
   192
  0
VERTEX
  8
Triangle_Set_ncl1_9
 10
-0.870000
 20
-1.550000
 30
0.100000
 70
   192
  0
VERTEX
  8
Triangle_Set_ncl1_9
 10
-0.870000
 20
-1.100000
 30
0.000000
 70
   192
  0
VERTEX
  8
Triangle_Set_ncl1_9
 10
-0.870000
 20
-1.100000
 30
0.100000
 70
   192
  0
VERTEX
  8
Triangle_Set_ncl1_9
 10
-0.630000
 20
-1.550000
 30
0.000000
 70
   192
  0
VERTEX
  8
Triangle_Set_ncl1_9
 10
-0.630000
 20
-1.550000
 30
0.100000
 70
   192
  0
VERTEX
  8
Triangle_Set_ncl1_9
 10
-0.630000
 20
-1.100000
 30
0.000000
 70
   192
  0
VERTEX
  8
Triangle_Set_ncl1_9
 10
-0.630000
 20
-1.100000
 30
0.100000
 70
   192
  0
VERTEX
  8
Triangle_Set_ncl1_9
 62
   253
 10
0.0
 20
0.0
 30
0.0
 70
   128
 71
   3
 72
   2
 73
   1
  0
VERTEX
  8
Triangle_Set_ncl1_9
 62
   253
 10
0.0
 20
0.0
 30
0.0
 70
   128
 71
   2
 72
   3
 73
   4
  0
VERTEX
  8
Triangle_Set_ncl1_9
 62
   253
 10
0.0
 20
0.0
 30
0.0
 70
   128
 71
   6
 72
   7
 73
   5
  0
VERTEX
  8
Triangle_Set_ncl1_9
 62
   253
 10
0.0
 20
0.0
 30
0.0
 70
   128
 71
   7
 72
   6
 73
   8
  0
VERTEX
  8
Triangle_Set_ncl1_9
 62
   253
 10
0.0
 20
0.0
 30
0.0
 70
   128
 71
   6
 72
   5
 73
   2
  0
VERTEX
  8
Triangle_Set_ncl1_9
 62
   253
 10
0.0
 20
0.0
 30
0.0
 70
   128
 71
   5
 72
   1
 73
   2
  0
VERTEX
  8
Triangle_Set_ncl1_9
 62
   253
 10
0.0
 20
0.0
 30
0.0
 70
   128
 71
   7
 72
   8
 73
   4
  0
VERTEX
  8
Triangle_Set_ncl1_9
 62
   253
 10
0.0
 20
0.0
 30
0.0
 70
   128
 71
   3
 72
   7
 73
   4
  0
VERTEX
  8
Triangle_Set_ncl1_9
 62
   253
 10
0.0
 20
0.0
 30
0.0
 70
   128
 71
   7
 72
   3
 73
   5
  0
VERTEX
  8
Triangle_Set_ncl1_9
 62
   253
 10
0.0
 20
0.0
 30
0.0
 70
   128
 71
   3
 72
   1
 73
   5
  0
VERTEX
  8
Triangle_Set_ncl1_9
 62
   253
 10
0.0
 20
0.0
 30
0.0
 70
   128
 71
   4
 72
   8
 73
   6
  0
VERTEX
  8
Triangle_Set_ncl1_9
 62
   253
 10
0.0
 20
0.0
 30
0.0
 70
   128
 71
   2
 72
   4
 73
   6
  0
SEQEND
  0
POLYLINE
  8
Triangle_Set_ncl1_10
 62
   253
 66
   1
 10
0.0
 20
0.0
 30
0.0
 70
   64
 71
   8
 72
   12
  0
VERTEX
  8
Triangle_Set_ncl1_10
 10
-0.370000
 20
1.100000
 30
0.000000
 70
   192
  0
VERTEX
  8
Triangle_Set_ncl1_10
 10
-0.370000
 20
1.100000
 30
0.100000
 70
   192
  0
VERTEX
  8
Triangle_Set_ncl1_10
 10
-0.370000
 20
1.550000
 30
0.000000
 70
   192
  0
VERTEX
  8
Triangle_Set_ncl1_10
 10
-0.370000
 20
1.550000
 30
0.100000
 70
   192
  0
VERTEX
  8
Triangle_Set_ncl1_10
 10
-0.130000
 20
1.100000
 30
0.000000
 70
   192
  0
VERTEX
  8
Triangle_Set_ncl1_10
 10
-0.130000
 20
1.100000
 30
0.100000
 70
   192
  0
VERTEX
  8
Triangle_Set_ncl1_10
 10
-0.130000
 20
1.550000
 30
0.000000
 70
   192
  0
VERTEX
  8
Triangle_Set_ncl1_10
 10
-0.130000
 20
1.550000
 30
0.100000
 70
   192
  0
VERTEX
  8
Triangle_Set_ncl1_10
 62
   253
 10
0.0
 20
0.0
 30
0.0
 70
   128
 71
   3
 72
   2
 73
   1
  0
VERTEX
  8
Triangle_Set_ncl1_10
 62
   253
 10
0.0
 20
0.0
 30
0.0
 70
   128
 71
   2
 72
   3
 73
   4
  0
VERTEX
  8
Triangle_Set_ncl1_10
 62
   253
 10
0.0
 20
0.0
 30
0.0
 70
   128
 71
   6
 72
   7
 73
   5
  0
VERTEX
  8
Triangle_Set_ncl1_10
 62
   253
 10
0.0
 20
0.0
 30
0.0
 70
   128
 71
   7
 72
   6
 73
   8
  0
VERTEX
  8
Triangle_Set_ncl1_10
 62
   253
 10
0.0
 20
0.0
 30
0.0
 70
   128
 71
   6
 72
   5
 73
   2
  0
VERTEX
  8
Triangle_Set_ncl1_10
 62
   253
 10
0.0
 20
0.0
 30
0.0
 70
   128
 71
   5
 72
   1
 73
   2
  0
VERTEX
  8
Triangle_Set_ncl1_10
 62
   253
 10
0.0
 20
0.0
 30
0.0
 70
   128
 71
   7
 72
   8
 73
   4
  0
VERTEX
  8
Triangle_Set_ncl1_10
 62
   253
 10
0.0
 20
0.0
 30
0.0
 70
   128
 71
   3
 72
   7
 73
   4
  0
VERTEX
  8
Triangle_Set_ncl1_10
 62
   253
 10
0.0
 20
0.0
 30
0.0
 70
   128
 71
   7
 72
   3
 73
   5
  0
VERTEX
  8
Triangle_Set_ncl1_10
 62
   253
 10
0.0
 20
0.0
 30
0.0
 70
   128
 71
   3
 72
   1
 73
   5
  0
VERTEX
  8
Triangle_Set_ncl1_10
 62
   253
 10
0.0
 20
0.0
 30
0.0
 70
   128
 71
   4
 72
   8
 73
   6
  0
VERTEX
  8
Triangle_Set_ncl1_10
 62
   253
 10
0.0
 20
0.0
 30
0.0
 70
   128
 71
   2
 72
   4
 73
   6
  0
SEQEND
  0
POLYLINE
  8
Triangle_Set_ncl1_11
 62
   253
 66
   1
 10
0.0
 20
0.0
 30
0.0
 70
   64
 71
   8
 72
   12
  0
VERTEX
  8
Triangle_Set_ncl1_11
 10
-0.370000
 20
-1.550000
 30
0.000000
 70
   192
  0
VERTEX
  8
Triangle_Set_ncl1_11
 10
-0.370000
 20
-1.550000
 30
0.100000
 70
   192
  0
VERTEX
  8
Triangle_Set_ncl1_11
 10
-0.370000
 20
-1.100000
 30
0.000000
 70
   192
  0
VERTEX
  8
Triangle_Set_ncl1_11
 10
-0.370000
 20
-1.100000
 30
0.100000
 70
   192
  0
VERTEX
  8
Triangle_Set_ncl1_11
 10
-0.130000
 20
-1.550000
 30
0.000000
 70
   192
  0
VERTEX
  8
Triangle_Set_ncl1_11
 10
-0.130000
 20
-1.550000
 30
0.100000
 70
   192
  0
VERTEX
  8
Triangle_Set_ncl1_11
 10
-0.130000
 20
-1.100000
 30
0.000000
 70
   192
  0
VERTEX
  8
Triangle_Set_ncl1_11
 10
-0.130000
 20
-1.100000
 30
0.100000
 70
   192
  0
VERTEX
  8
Triangle_Set_ncl1_11
 62
   253
 10
0.0
 20
0.0
 30
0.0
 70
   128
 71
   3
 72
   2
 73
   1
  0
VERTEX
  8
Triangle_Set_ncl1_11
 62
   253
 10
0.0
 20
0.0
 30
0.0
 70
   128
 71
   2
 72
   3
 73
   4
  0
VERTEX
  8
Triangle_Set_ncl1_11
 62
   253
 10
0.0
 20
0.0
 30
0.0
 70
   128
 71
   6
 72
   7
 73
   5
  0
VERTEX
  8
Triangle_Set_ncl1_11
 62
   253
 10
0.0
 20
0.0
 30
0.0
 70
   128
 71
   7
 72
   6
 73
   8
  0
VERTEX
  8
Triangle_Set_ncl1_11
 62
   253
 10
0.0
 20
0.0
 30
0.0
 70
   128
 71
   6
 72
   5
 73
   2
  0
VERTEX
  8
Triangle_Set_ncl1_11
 62
   253
 10
0.0
 20
0.0
 30
0.0
 70
   128
 71
   5
 72
   1
 73
   2
  0
VERTEX
  8
Triangle_Set_ncl1_11
 62
   253
 10
0.0
 20
0.0
 30
0.0
 70
   128
 71
   7
 72
   8
 73
   4
  0
VERTEX
  8
Triangle_Set_ncl1_11
 62
   253
 10
0.0
 20
0.0
 30
0.0
 70
   128
 71
   3
 72
   7
 73
   4
  0
VERTEX
  8
Triangle_Set_ncl1_11
 62
   253
 10
0.0
 20
0.0
 30
0.0
 70
   128
 71
   7
 72
   3
 73
   5
  0
VERTEX
  8
Triangle_Set_ncl1_11
 62
   253
 10
0.0
 20
0.0
 30
0.0
 70
   128
 71
   3
 72
   1
 73
   5
  0
VERTEX
  8
Triangle_Set_ncl1_11
 62
   253
 10
0.0
 20
0.0
 30
0.0
 70
   128
 71
   4
 72
   8
 73
   6
  0
VERTEX
  8
Triangle_Set_ncl1_11
 62
   253
 10
0.0
 20
0.0
 30
0.0
 70
   128
 71
   2
 72
   4
 73
   6
  0
SEQEND
  0
POLYLINE
  8
Triangle_Set_ncl1_12
 62
   253
 66
   1
 10
0.0
 20
0.0
 30
0.0
 70
   64
 71
   8
 72
   12
  0
VERTEX
  8
Triangle_Set_ncl1_12
 10
0.130000
 20
1.100000
 30
0.000000
 70
   192
  0
VERTEX
  8
Triangle_Set_ncl1_12
 10
0.130000
 20
1.100000
 30
0.100000
 70
   192
  0
VERTEX
  8
Triangle_Set_ncl1_12
 10
0.130000
 20
1.550000
 30
0.000000
 70
   192
  0
VERTEX
  8
Triangle_Set_ncl1_12
 10
0.130000
 20
1.550000
 30
0.100000
 70
   192
  0
VERTEX
  8
Triangle_Set_ncl1_12
 10
0.370000
 20
1.100000
 30
0.000000
 70
   192
  0
VERTEX
  8
Triangle_Set_ncl1_12
 10
0.370000
 20
1.100000
 30
0.100000
 70
   192
  0
VERTEX
  8
Triangle_Set_ncl1_12
 10
0.370000
 20
1.550000
 30
0.000000
 70
   192
  0
VERTEX
  8
Triangle_Set_ncl1_12
 10
0.370000
 20
1.550000
 30
0.100000
 70
   192
  0
VERTEX
  8
Triangle_Set_ncl1_12
 62
   253
 10
0.0
 20
0.0
 30
0.0
 70
   128
 71
   3
 72
   2
 73
   1
  0
VERTEX
  8
Triangle_Set_ncl1_12
 62
   253
 10
0.0
 20
0.0
 30
0.0
 70
   128
 71
   2
 72
   3
 73
   4
  0
VERTEX
  8
Triangle_Set_ncl1_12
 62
   253
 10
0.0
 20
0.0
 30
0.0
 70
   128
 71
   6
 72
   7
 73
   5
  0
VERTEX
  8
Triangle_Set_ncl1_12
 62
   253
 10
0.0
 20
0.0
 30
0.0
 70
   128
 71
   7
 72
   6
 73
   8
  0
VERTEX
  8
Triangle_Set_ncl1_12
 62
   253
 10
0.0
 20
0.0
 30
0.0
 70
   128
 71
   6
 72
   5
 73
   2
  0
VERTEX
  8
Triangle_Set_ncl1_12
 62
   253
 10
0.0
 20
0.0
 30
0.0
 70
   128
 71
   5
 72
   1
 73
   2
  0
VERTEX
  8
Triangle_Set_ncl1_12
 62
   253
 10
0.0
 20
0.0
 30
0.0
 70
   128
 71
   7
 72
   8
 73
   4
  0
VERTEX
  8
Triangle_Set_ncl1_12
 62
   253
 10
0.0
 20
0.0
 30
0.0
 70
   128
 71
   3
 72
   7
 73
   4
  0
VERTEX
  8
Triangle_Set_ncl1_12
 62
   253
 10
0.0
 20
0.0
 30
0.0
 70
   128
 71
   7
 72
   3
 73
   5
  0
VERTEX
  8
Triangle_Set_ncl1_12
 62
   253
 10
0.0
 20
0.0
 30
0.0
 70
   128
 71
   3
 72
   1
 73
   5
  0
VERTEX
  8
Triangle_Set_ncl1_12
 62
   253
 10
0.0
 20
0.0
 30
0.0
 70
   128
 71
   4
 72
   8
 73
   6
  0
VERTEX
  8
Triangle_Set_ncl1_12
 62
   253
 10
0.0
 20
0.0
 30
0.0
 70
   128
 71
   2
 72
   4
 73
   6
  0
SEQEND
  0
POLYLINE
  8
Triangle_Set_ncl1_13
 62
   253
 66
   1
 10
0.0
 20
0.0
 30
0.0
 70
   64
 71
   8
 72
   12
  0
VERTEX
  8
Triangle_Set_ncl1_13
 10
0.130000
 20
-1.550000
 30
0.000000
 70
   192
  0
VERTEX
  8
Triangle_Set_ncl1_13
 10
0.130000
 20
-1.550000
 30
0.100000
 70
   192
  0
VERTEX
  8
Triangle_Set_ncl1_13
 10
0.130000
 20
-1.100000
 30
0.000000
 70
   192
  0
VERTEX
  8
Triangle_Set_ncl1_13
 10
0.130000
 20
-1.100000
 30
0.100000
 70
   192
  0
VERTEX
  8
Triangle_Set_ncl1_13
 10
0.370000
 20
-1.550000
 30
0.000000
 70
   192
  0
VERTEX
  8
Triangle_Set_ncl1_13
 10
0.370000
 20
-1.550000
 30
0.100000
 70
   192
  0
VERTEX
  8
Triangle_Set_ncl1_13
 10
0.370000
 20
-1.100000
 30
0.000000
 70
   192
  0
VERTEX
  8
Triangle_Set_ncl1_13
 10
0.370000
 20
-1.100000
 30
0.100000
 70
   192
  0
VERTEX
  8
Triangle_Set_ncl1_13
 62
   253
 10
0.0
 20
0.0
 30
0.0
 70
   128
 71
   3
 72
   2
 73
   1
  0
VERTEX
  8
Triangle_Set_ncl1_13
 62
   253
 10
0.0
 20
0.0
 30
0.0
 70
   128
 71
   2
 72
   3
 73
   4
  0
VERTEX
  8
Triangle_Set_ncl1_13
 62
   253
 10
0.0
 20
0.0
 30
0.0
 70
   128
 71
   6
 72
   7
 73
   5
  0
VERTEX
  8
Triangle_Set_ncl1_13
 62
   253
 10
0.0
 20
0.0
 30
0.0
 70
   128
 71
   7
 72
   6
 73
   8
  0
VERTEX
  8
Triangle_Set_ncl1_13
 62
   253
 10
0.0
 20
0.0
 30
0.0
 70
   128
 71
   6
 72
   5
 73
   2
  0
VERTEX
  8
Triangle_Set_ncl1_13
 62
   253
 10
0.0
 20
0.0
 30
0.0
 70
   128
 71
   5
 72
   1
 73
   2
  0
VERTEX
  8
Triangle_Set_ncl1_13
 62
   253
 10
0.0
 20
0.0
 30
0.0
 70
   128
 71
   7
 72
   8
 73
   4
  0
VERTEX
  8
Triangle_Set_ncl1_13
 62
   253
 10
0.0
 20
0.0
 30
0.0
 70
   128
 71
   3
 72
   7
 73
   4
  0
VERTEX
  8
Triangle_Set_ncl1_13
 62
   253
 10
0.0
 20
0.0
 30
0.0
 70
   128
 71
   7
 72
   3
 73
   5
  0
VERTEX
  8
Triangle_Set_ncl1_13
 62
   253
 10
0.0
 20
0.0
 30
0.0
 70
   128
 71
   3
 72
   1
 73
   5
  0
VERTEX
  8
Triangle_Set_ncl1_13
 62
   253
 10
0.0
 20
0.0
 30
0.0
 70
   128
 71
   4
 72
   8
 73
   6
  0
VERTEX
  8
Triangle_Set_ncl1_13
 62
   253
 10
0.0
 20
0.0
 30
0.0
 70
   128
 71
   2
 72
   4
 73
   6
  0
SEQEND
  0
POLYLINE
  8
Triangle_Set_ncl1_14
 62
   253
 66
   1
 10
0.0
 20
0.0
 30
0.0
 70
   64
 71
   8
 72
   12
  0
VERTEX
  8
Triangle_Set_ncl1_14
 10
0.630000
 20
1.100000
 30
0.000000
 70
   192
  0
VERTEX
  8
Triangle_Set_ncl1_14
 10
0.630000
 20
1.100000
 30
0.100000
 70
   192
  0
VERTEX
  8
Triangle_Set_ncl1_14
 10
0.630000
 20
1.550000
 30
0.000000
 70
   192
  0
VERTEX
  8
Triangle_Set_ncl1_14
 10
0.630000
 20
1.550000
 30
0.100000
 70
   192
  0
VERTEX
  8
Triangle_Set_ncl1_14
 10
0.870000
 20
1.100000
 30
0.000000
 70
   192
  0
VERTEX
  8
Triangle_Set_ncl1_14
 10
0.870000
 20
1.100000
 30
0.100000
 70
   192
  0
VERTEX
  8
Triangle_Set_ncl1_14
 10
0.870000
 20
1.550000
 30
0.000000
 70
   192
  0
VERTEX
  8
Triangle_Set_ncl1_14
 10
0.870000
 20
1.550000
 30
0.100000
 70
   192
  0
VERTEX
  8
Triangle_Set_ncl1_14
 62
   253
 10
0.0
 20
0.0
 30
0.0
 70
   128
 71
   3
 72
   2
 73
   1
  0
VERTEX
  8
Triangle_Set_ncl1_14
 62
   253
 10
0.0
 20
0.0
 30
0.0
 70
   128
 71
   2
 72
   3
 73
   4
  0
VERTEX
  8
Triangle_Set_ncl1_14
 62
   253
 10
0.0
 20
0.0
 30
0.0
 70
   128
 71
   6
 72
   7
 73
   5
  0
VERTEX
  8
Triangle_Set_ncl1_14
 62
   253
 10
0.0
 20
0.0
 30
0.0
 70
   128
 71
   7
 72
   6
 73
   8
  0
VERTEX
  8
Triangle_Set_ncl1_14
 62
   253
 10
0.0
 20
0.0
 30
0.0
 70
   128
 71
   6
 72
   5
 73
   2
  0
VERTEX
  8
Triangle_Set_ncl1_14
 62
   253
 10
0.0
 20
0.0
 30
0.0
 70
   128
 71
   5
 72
   1
 73
   2
  0
VERTEX
  8
Triangle_Set_ncl1_14
 62
   253
 10
0.0
 20
0.0
 30
0.0
 70
   128
 71
   7
 72
   8
 73
   4
  0
VERTEX
  8
Triangle_Set_ncl1_14
 62
   253
 10
0.0
 20
0.0
 30
0.0
 70
   128
 71
   3
 72
   7
 73
   4
  0
VERTEX
  8
Triangle_Set_ncl1_14
 62
   253
 10
0.0
 20
0.0
 30
0.0
 70
   128
 71
   7
 72
   3
 73
   5
  0
VERTEX
  8
Triangle_Set_ncl1_14
 62
   253
 10
0.0
 20
0.0
 30
0.0
 70
   128
 71
   3
 72
   1
 73
   5
  0
VERTEX
  8
Triangle_Set_ncl1_14
 62
   253
 10
0.0
 20
0.0
 30
0.0
 70
   128
 71
   4
 72
   8
 73
   6
  0
VERTEX
  8
Triangle_Set_ncl1_14
 62
   253
 10
0.0
 20
0.0
 30
0.0
 70
   128
 71
   2
 72
   4
 73
   6
  0
SEQEND
  0
POLYLINE
  8
Triangle_Set_ncl1_15
 62
   253
 66
   1
 10
0.0
 20
0.0
 30
0.0
 70
   64
 71
   8
 72
   12
  0
VERTEX
  8
Triangle_Set_ncl1_15
 10
0.630000
 20
-1.550000
 30
0.000000
 70
   192
  0
VERTEX
  8
Triangle_Set_ncl1_15
 10
0.630000
 20
-1.550000
 30
0.100000
 70
   192
  0
VERTEX
  8
Triangle_Set_ncl1_15
 10
0.630000
 20
-1.100000
 30
0.000000
 70
   192
  0
VERTEX
  8
Triangle_Set_ncl1_15
 10
0.630000
 20
-1.100000
 30
0.100000
 70
   192
  0
VERTEX
  8
Triangle_Set_ncl1_15
 10
0.870000
 20
-1.550000
 30
0.000000
 70
   192
  0
VERTEX
  8
Triangle_Set_ncl1_15
 10
0.870000
 20
-1.550000
 30
0.100000
 70
   192
  0
VERTEX
  8
Triangle_Set_ncl1_15
 10
0.870000
 20
-1.100000
 30
0.000000
 70
   192
  0
VERTEX
  8
Triangle_Set_ncl1_15
 10
0.870000
 20
-1.100000
 30
0.100000
 70
   192
  0
VERTEX
  8
Triangle_Set_ncl1_15
 62
   253
 10
0.0
 20
0.0
 30
0.0
 70
   128
 71
   3
 72
   2
 73
   1
  0
VERTEX
  8
Triangle_Set_ncl1_15
 62
   253
 10
0.0
 20
0.0
 30
0.0
 70
   128
 71
   2
 72
   3
 73
   4
  0
VERTEX
  8
Triangle_Set_ncl1_15
 62
   253
 10
0.0
 20
0.0
 30
0.0
 70
   128
 71
   6
 72
   7
 73
   5
  0
VERTEX
  8
Triangle_Set_ncl1_15
 62
   253
 10
0.0
 20
0.0
 30
0.0
 70
   128
 71
   7
 72
   6
 73
   8
  0
VERTEX
  8
Triangle_Set_ncl1_15
 62
   253
 10
0.0
 20
0.0
 30
0.0
 70
   128
 71
   6
 72
   5
 73
   2
  0
VERTEX
  8
Triangle_Set_ncl1_15
 62
   253
 10
0.0
 20
0.0
 30
0.0
 70
   128
 71
   5
 72
   1
 73
   2
  0
VERTEX
  8
Triangle_Set_ncl1_15
 62
   253
 10
0.0
 20
0.0
 30
0.0
 70
   128
 71
   7
 72
   8
 73
   4
  0
VERTEX
  8
Triangle_Set_ncl1_15
 62
   253
 10
0.0
 20
0.0
 30
0.0
 70
   128
 71
   3
 72
   7
 73
   4
  0
VERTEX
  8
Triangle_Set_ncl1_15
 62
   253
 10
0.0
 20
0.0
 30
0.0
 70
   128
 71
   7
 72
   3
 73
   5
  0
VERTEX
  8
Triangle_Set_ncl1_15
 62
   253
 10
0.0
 20
0.0
 30
0.0
 70
   128
 71
   3
 72
   1
 73
   5
  0
VERTEX
  8
Triangle_Set_ncl1_15
 62
   253
 10
0.0
 20
0.0
 30
0.0
 70
   128
 71
   4
 72
   8
 73
   6
  0
VERTEX
  8
Triangle_Set_ncl1_15
 62
   253
 10
0.0
 20
0.0
 30
0.0
 70
   128
 71
   2
 72
   4
 73
   6
  0
SEQEND
  0
ENDSEC
  0
EOF
