999
FBX AutoCAD (*.DXF) exporter
  0
SECTION
  2
HEADER
  9
$ACADVER
  1
AC1008
  9
$UCSORG
 10
0.0
 20
0.0
 30
0.0
  9
$UCSXDIR
 10
1.0
 20
0.0
 30
0.0
  9
$TILEMODE
 70
   1
  9
$UCSYDIR
 10
0.0
 20
1.0
 30
0.0
  0
ENDSEC
  0
SECTION
  2
TABLES
  0
TABLE
  2
LTYPE
 70
   1
  0
LTYPE
  2
CONTINUOUS
 70
   64
  3
Solid line
 72
   65
 73
   0
 40
0.0
  0
ENDTAB
  0
TABLE
  2
LAYER
 70
   20
  0
LAYER
  2
solidbody
 70
   0
 62
   251
  6
CONTINUOUS
  0
LAYER
  2
Triangle_Set
 70
   0
 62
   255
  6
CONTINUOUS
  0
LAYER
  2
Triangle_Set_ncl2_
 70
   0
 62
   255
  6
CONTINUOUS
  0
LAYER
  2
Triangle_Set_ncl2__ncl1_1
 70
   0
 62
   255
  6
CONTINUOUS
  0
LAYER
  2
Triangle_Set_ncl2__ncl1_2
 70
   0
 62
   255
  6
CONTINUOUS
  0
LAYER
  2
Triangle_Set_ncl1_1
 70
   0
 62
   255
  6
CONTINUOUS
  0
LAYER
  2
Triangle_Set_ncl1_2
 70
   0
 62
   255
  6
CONTINUOUS
  0
LAYER
  2
Triangle_Set_ncl1_3
 70
   0
 62
   255
  6
CONTINUOUS
  0
LAYER
  2
Triangle_Set_ncl1_4
 70
   0
 62
   255
  6
CONTINUOUS
  0
LAYER
  2
Triangle_Set_ncl1_5
 70
   0
 62
   255
  6
CONTINUOUS
  0
LAYER
  2
Triangle_Set_ncl1_6
 70
   0
 62
   255
  6
CONTINUOUS
  0
LAYER
  2
Triangle_Set_ncl1_7
 70
   0
 62
   255
  6
CONTINUOUS
  0
LAYER
  2
Triangle_Set_ncl1_8
 70
   0
 62
   255
  6
CONTINUOUS
  0
LAYER
  2
Triangle_Set_ncl1_9
 70
   0
 62
   255
  6
CONTINUOUS
  0
LAYER
  2
Triangle_Set_ncl1_10
 70
   0
 62
   255
  6
CONTINUOUS
  0
LAYER
  2
Triangle_Set_ncl1_11
 70
   0
 62
   255
  6
CONTINUOUS
  0
LAYER
  2
Triangle_Set_ncl1_12
 70
   0
 62
   255
  6
CONTINUOUS
  0
LAYER
  2
solidtop
 70
   0
 62
   250
  6
CONTINUOUS
  0
ENDTAB
  0
ENDSEC
  0
SECTION
  2
BLOCKS
  0
ENDSEC
  0
SECTION
  2
ENTITIES
  0
POLYLINE
  8
solidbody
 62
   251
 66
   1
 10
0.0
 20
0.0
 30
0.0
 70
   64
 71
   128
 72
   252
  0
VERTEX
  8
solidbody
 10
-1.900000
 20
-0.790000
 30
0.010000
 70
   192
  0
VERTEX
  8
solidbody
 10
-1.550000
 20
-0.790000
 30
0.010000
 70
   192
  0
VERTEX
  8
solidbody
 10
-1.900000
 20
-0.790000
 30
0.540000
 70
   192
  0
VERTEX
  8
solidbody
 10
-1.550000
 20
-0.790000
 30
0.540000
 70
   192
  0
VERTEX
  8
solidbody
 10
-1.900000
 20
-0.600000
 30
0.010000
 70
   192
  0
VERTEX
  8
solidbody
 10
-1.550000
 20
-0.600000
 30
0.010000
 70
   192
  0
VERTEX
  8
solidbody
 10
-1.550000
 20
-0.600000
 30
0.540000
 70
   192
  0
VERTEX
  8
solidbody
 10
-1.900000
 20
-0.600000
 30
0.540000
 70
   192
  0
VERTEX
  8
solidbody
 10
-1.900000
 20
0.600000
 30
0.010000
 70
   192
  0
VERTEX
  8
solidbody
 10
-1.550000
 20
0.600000
 30
0.010000
 70
   192
  0
VERTEX
  8
solidbody
 10
-1.425000
 20
-0.600000
 30
0.010000
 70
   192
  0
VERTEX
  8
solidbody
 10
-1.425000
 20
-0.600000
 30
0.540000
 70
   192
  0
VERTEX
  8
solidbody
 10
-1.900000
 20
0.600000
 30
0.540000
 70
   192
  0
VERTEX
  8
solidbody
 10
-1.550000
 20
0.600000
 30
0.540000
 70
   192
  0
VERTEX
  8
solidbody
 10
-1.900000
 20
0.790000
 30
0.010000
 70
   192
  0
VERTEX
  8
solidbody
 10
-1.550000
 20
0.790000
 30
0.010000
 70
   192
  0
VERTEX
  8
solidbody
 10
-1.425000
 20
0.600000
 30
0.010000
 70
   192
  0
VERTEX
  8
solidbody
 10
-1.425000
 20
-0.790000
 30
0.540000
 70
   192
  0
VERTEX
  8
solidbody
 10
-1.425000
 20
-0.790000
 30
0.010000
 70
   192
  0
VERTEX
  8
solidbody
 10
-1.425000
 20
0.600000
 30
0.540000
 70
   192
  0
VERTEX
  8
solidbody
 10
-1.900000
 20
0.790000
 30
0.540000
 70
   192
  0
VERTEX
  8
solidbody
 10
-1.550000
 20
0.790000
 30
0.540000
 70
   192
  0
VERTEX
  8
solidbody
 10
-1.075000
 20
-0.600000
 30
0.010000
 70
   192
  0
VERTEX
  8
solidbody
 10
-1.075000
 20
0.600000
 30
0.010000
 70
   192
  0
VERTEX
  8
solidbody
 10
-1.075000
 20
-0.790000
 30
0.540000
 70
   192
  0
VERTEX
  8
solidbody
 10
-1.075000
 20
-0.600000
 30
0.540000
 70
   192
  0
VERTEX
  8
solidbody
 10
-1.075000
 20
-0.790000
 30
0.010000
 70
   192
  0
VERTEX
  8
solidbody
 10
-1.075000
 20
0.600000
 30
0.540000
 70
   192
  0
VERTEX
  8
solidbody
 10
-1.425000
 20
0.790000
 30
0.540000
 70
   192
  0
VERTEX
  8
solidbody
 10
-1.425000
 20
0.790000
 30
0.010000
 70
   192
  0
VERTEX
  8
solidbody
 10
-1.075000
 20
0.790000
 30
0.010000
 70
   192
  0
VERTEX
  8
solidbody
 10
-0.925000
 20
-0.600000
 30
0.010000
 70
   192
  0
VERTEX
  8
solidbody
 10
-0.925000
 20
0.600000
 30
0.010000
 70
   192
  0
VERTEX
  8
solidbody
 10
-1.075000
 20
0.790000
 30
0.540000
 70
   192
  0
VERTEX
  8
solidbody
 10
-0.925000
 20
-0.600000
 30
0.540000
 70
   192
  0
VERTEX
  8
solidbody
 10
-0.925000
 20
0.600000
 30
0.540000
 70
   192
  0
VERTEX
  8
solidbody
 10
-0.575000
 20
-0.600000
 30
0.010000
 70
   192
  0
VERTEX
  8
solidbody
 10
-0.575000
 20
0.600000
 30
0.010000
 70
   192
  0
VERTEX
  8
solidbody
 10
-0.575000
 20
-0.600000
 30
0.540000
 70
   192
  0
VERTEX
  8
solidbody
 10
-0.575000
 20
0.600000
 30
0.540000
 70
   192
  0
VERTEX
  8
solidbody
 10
-0.925000
 20
0.790000
 30
0.540000
 70
   192
  0
VERTEX
  8
solidbody
 10
-0.925000
 20
0.790000
 30
0.010000
 70
   192
  0
VERTEX
  8
solidbody
 10
-0.575000
 20
0.790000
 30
0.010000
 70
   192
  0
VERTEX
  8
solidbody
 10
-0.425000
 20
-0.600000
 30
0.010000
 70
   192
  0
VERTEX
  8
solidbody
 10
-0.425000
 20
0.600000
 30
0.010000
 70
   192
  0
VERTEX
  8
solidbody
 10
-0.925000
 20
-0.790000
 30
0.010000
 70
   192
  0
VERTEX
  8
solidbody
 10
-0.575000
 20
-0.790000
 30
0.010000
 70
   192
  0
VERTEX
  8
solidbody
 10
-0.925000
 20
-0.790000
 30
0.540000
 70
   192
  0
VERTEX
  8
solidbody
 10
-0.575000
 20
0.790000
 30
0.540000
 70
   192
  0
VERTEX
  8
solidbody
 10
-0.425000
 20
-0.600000
 30
0.540000
 70
   192
  0
VERTEX
  8
solidbody
 10
-0.425000
 20
0.600000
 30
0.540000
 70
   192
  0
VERTEX
  8
solidbody
 10
-0.575000
 20
-0.790000
 30
0.540000
 70
   192
  0
VERTEX
  8
solidbody
 10
-0.075000
 20
-0.600000
 30
0.010000
 70
   192
  0
VERTEX
  8
solidbody
 10
-0.075000
 20
0.600000
 30
0.010000
 70
   192
  0
VERTEX
  8
solidbody
 10
-0.075000
 20
-0.600000
 30
0.540000
 70
   192
  0
VERTEX
  8
solidbody
 10
-0.075000
 20
0.600000
 30
0.540000
 70
   192
  0
VERTEX
  8
solidbody
 10
-0.425000
 20
0.790000
 30
0.540000
 70
   192
  0
VERTEX
  8
solidbody
 10
-0.425000
 20
0.790000
 30
0.010000
 70
   192
  0
VERTEX
  8
solidbody
 10
-0.075000
 20
0.790000
 30
0.010000
 70
   192
  0
VERTEX
  8
solidbody
 10
0.075000
 20
-0.600000
 30
0.010000
 70
   192
  0
VERTEX
  8
solidbody
 10
0.075000
 20
0.600000
 30
0.010000
 70
   192
  0
VERTEX
  8
solidbody
 10
-0.425000
 20
-0.790000
 30
0.010000
 70
   192
  0
VERTEX
  8
solidbody
 10
-0.075000
 20
-0.790000
 30
0.010000
 70
   192
  0
VERTEX
  8
solidbody
 10
-0.425000
 20
-0.790000
 30
0.540000
 70
   192
  0
VERTEX
  8
solidbody
 10
-0.075000
 20
0.790000
 30
0.540000
 70
   192
  0
VERTEX
  8
solidbody
 10
0.075000
 20
-0.600000
 30
0.540000
 70
   192
  0
VERTEX
  8
solidbody
 10
0.075000
 20
0.600000
 30
0.540000
 70
   192
  0
VERTEX
  8
solidbody
 10
-0.075000
 20
-0.790000
 30
0.540000
 70
   192
  0
VERTEX
  8
solidbody
 10
0.425000
 20
-0.600000
 30
0.010000
 70
   192
  0
VERTEX
  8
solidbody
 10
0.425000
 20
0.600000
 30
0.010000
 70
   192
  0
VERTEX
  8
solidbody
 10
0.425000
 20
-0.600000
 30
0.540000
 70
   192
  0
VERTEX
  8
solidbody
 10
0.425000
 20
0.600000
 30
0.540000
 70
   192
  0
VERTEX
  8
solidbody
 10
0.075000
 20
0.790000
 30
0.540000
 70
   192
  0
VERTEX
  8
solidbody
 10
0.075000
 20
0.790000
 30
0.010000
 70
   192
  0
VERTEX
  8
solidbody
 10
0.425000
 20
0.790000
 30
0.010000
 70
   192
  0
VERTEX
  8
solidbody
 10
0.575000
 20
-0.600000
 30
0.010000
 70
   192
  0
VERTEX
  8
solidbody
 10
0.575000
 20
0.600000
 30
0.010000
 70
   192
  0
VERTEX
  8
solidbody
 10
0.075000
 20
-0.790000
 30
0.010000
 70
   192
  0
VERTEX
  8
solidbody
 10
0.425000
 20
-0.790000
 30
0.010000
 70
   192
  0
VERTEX
  8
solidbody
 10
0.075000
 20
-0.790000
 30
0.540000
 70
   192
  0
VERTEX
  8
solidbody
 10
0.425000
 20
0.790000
 30
0.540000
 70
   192
  0
VERTEX
  8
solidbody
 10
0.575000
 20
-0.600000
 30
0.540000
 70
   192
  0
VERTEX
  8
solidbody
 10
0.575000
 20
0.600000
 30
0.540000
 70
   192
  0
VERTEX
  8
solidbody
 10
0.425000
 20
-0.790000
 30
0.540000
 70
   192
  0
VERTEX
  8
solidbody
 10
0.925000
 20
-0.600000
 30
0.010000
 70
   192
  0
VERTEX
  8
solidbody
 10
0.925000
 20
0.600000
 30
0.010000
 70
   192
  0
VERTEX
  8
solidbody
 10
0.925000
 20
-0.600000
 30
0.540000
 70
   192
  0
VERTEX
  8
solidbody
 10
0.925000
 20
0.600000
 30
0.540000
 70
   192
  0
VERTEX
  8
solidbody
 10
0.575000
 20
0.790000
 30
0.540000
 70
   192
  0
VERTEX
  8
solidbody
 10
0.575000
 20
0.790000
 30
0.010000
 70
   192
  0
VERTEX
  8
solidbody
 10
0.925000
 20
0.790000
 30
0.010000
 70
   192
  0
VERTEX
  8
solidbody
 10
1.075000
 20
-0.600000
 30
0.010000
 70
   192
  0
VERTEX
  8
solidbody
 10
1.075000
 20
0.600000
 30
0.010000
 70
   192
  0
VERTEX
  8
solidbody
 10
0.575000
 20
-0.790000
 30
0.010000
 70
   192
  0
VERTEX
  8
solidbody
 10
0.925000
 20
-0.790000
 30
0.010000
 70
   192
  0
VERTEX
  8
solidbody
 10
0.575000
 20
-0.790000
 30
0.540000
 70
   192
  0
VERTEX
  8
solidbody
 10
0.925000
 20
0.790000
 30
0.540000
 70
   192
  0
VERTEX
  8
solidbody
 10
1.075000
 20
-0.600000
 30
0.540000
 70
   192
  0
VERTEX
  8
solidbody
 10
1.075000
 20
0.600000
 30
0.540000
 70
   192
  0
VERTEX
  8
solidbody
 10
0.925000
 20
-0.790000
 30
0.540000
 70
   192
  0
VERTEX
  8
solidbody
 10
1.425000
 20
-0.600000
 30
0.010000
 70
   192
  0
VERTEX
  8
solidbody
 10
1.425000
 20
0.600000
 30
0.010000
 70
   192
  0
VERTEX
  8
solidbody
 10
1.425000
 20
-0.600000
 30
0.540000
 70
   192
  0
VERTEX
  8
solidbody
 10
1.425000
 20
0.600000
 30
0.540000
 70
   192
  0
VERTEX
  8
solidbody
 10
1.075000
 20
0.790000
 30
0.540000
 70
   192
  0
VERTEX
  8
solidbody
 10
1.075000
 20
0.790000
 30
0.010000
 70
   192
  0
VERTEX
  8
solidbody
 10
1.425000
 20
0.790000
 30
0.010000
 70
   192
  0
VERTEX
  8
solidbody
 10
1.550000
 20
-0.600000
 30
0.010000
 70
   192
  0
VERTEX
  8
solidbody
 10
1.550000
 20
0.600000
 30
0.010000
 70
   192
  0
VERTEX
  8
solidbody
 10
1.075000
 20
-0.790000
 30
0.010000
 70
   192
  0
VERTEX
  8
solidbody
 10
1.425000
 20
-0.790000
 30
0.010000
 70
   192
  0
VERTEX
  8
solidbody
 10
1.075000
 20
-0.790000
 30
0.540000
 70
   192
  0
VERTEX
  8
solidbody
 10
1.425000
 20
0.790000
 30
0.540000
 70
   192
  0
VERTEX
  8
solidbody
 10
1.550000
 20
-0.600000
 30
0.540000
 70
   192
  0
VERTEX
  8
solidbody
 10
1.550000
 20
0.600000
 30
0.540000
 70
   192
  0
VERTEX
  8
solidbody
 10
1.425000
 20
-0.790000
 30
0.540000
 70
   192
  0
VERTEX
  8
solidbody
 10
1.900000
 20
-0.600000
 30
0.010000
 70
   192
  0
VERTEX
  8
solidbody
 10
1.900000
 20
0.600000
 30
0.010000
 70
   192
  0
VERTEX
  8
solidbody
 10
1.900000
 20
-0.600000
 30
0.540000
 70
   192
  0
VERTEX
  8
solidbody
 10
1.900000
 20
0.600000
 30
0.540000
 70
   192
  0
VERTEX
  8
solidbody
 10
1.550000
 20
0.790000
 30
0.540000
 70
   192
  0
VERTEX
  8
solidbody
 10
1.550000
 20
0.790000
 30
0.010000
 70
   192
  0
VERTEX
  8
solidbody
 10
1.900000
 20
0.790000
 30
0.010000
 70
   192
  0
VERTEX
  8
solidbody
 10
1.550000
 20
-0.790000
 30
0.010000
 70
   192
  0
VERTEX
  8
solidbody
 10
1.900000
 20
-0.790000
 30
0.010000
 70
   192
  0
VERTEX
  8
solidbody
 10
1.550000
 20
-0.790000
 30
0.540000
 70
   192
  0
VERTEX
  8
solidbody
 10
1.900000
 20
0.790000
 30
0.540000
 70
   192
  0
VERTEX
  8
solidbody
 10
1.900000
 20
-0.790000
 30
0.540000
 70
   192
  0
VERTEX
  8
solidbody
 62
   251
 10
0.0
 20
0.0
 30
0.0
 70
   128
 71
   2
 72
   1
 73
   3
  0
VERTEX
  8
solidbody
 62
   251
 10
0.0
 20
0.0
 30
0.0
 70
   128
 71
   2
 72
   3
 73
   4
  0
VERTEX
  8
solidbody
 62
   251
 10
0.0
 20
0.0
 30
0.0
 70
   128
 71
   5
 72
   1
 73
   2
  0
VERTEX
  8
solidbody
 62
   251
 10
0.0
 20
0.0
 30
0.0
 70
   128
 71
   5
 72
   2
 73
   6
  0
VERTEX
  8
solidbody
 62
   251
 10
0.0
 20
0.0
 30
0.0
 70
   128
 71
   4
 72
   7
 73
   2
  0
VERTEX
  8
solidbody
 62
   251
 10
0.0
 20
0.0
 30
0.0
 70
   128
 71
   2
 72
   7
 73
   6
  0
VERTEX
  8
solidbody
 62
   251
 10
0.0
 20
0.0
 30
0.0
 70
   128
 71
   3
 72
   8
 73
   4
  0
VERTEX
  8
solidbody
 62
   251
 10
0.0
 20
0.0
 30
0.0
 70
   128
 71
   4
 72
   8
 73
   7
  0
VERTEX
  8
solidbody
 62
   251
 10
0.0
 20
0.0
 30
0.0
 70
   128
 71
   8
 72
   3
 73
   1
  0
VERTEX
  8
solidbody
 62
   251
 10
0.0
 20
0.0
 30
0.0
 70
   128
 71
   8
 72
   1
 73
   5
  0
VERTEX
  8
solidbody
 62
   251
 10
0.0
 20
0.0
 30
0.0
 70
   128
 71
   10
 72
   9
 73
   6
  0
VERTEX
  8
solidbody
 62
   251
 10
0.0
 20
0.0
 30
0.0
 70
   128
 71
   9
 72
   5
 73
   6
  0
VERTEX
  8
solidbody
 62
   251
 10
0.0
 20
0.0
 30
0.0
 70
   128
 71
   7
 72
   11
 73
   6
  0
VERTEX
  8
solidbody
 62
   251
 10
0.0
 20
0.0
 30
0.0
 70
   128
 71
   11
 72
   7
 73
   12
  0
VERTEX
  8
solidbody
 62
   251
 10
0.0
 20
0.0
 30
0.0
 70
   128
 71
   13
 72
   14
 73
   7
  0
VERTEX
  8
solidbody
 62
   251
 10
0.0
 20
0.0
 30
0.0
 70
   128
 71
   8
 72
   13
 73
   7
  0
VERTEX
  8
solidbody
 62
   251
 10
0.0
 20
0.0
 30
0.0
 70
   128
 71
   9
 72
   8
 73
   5
  0
VERTEX
  8
solidbody
 62
   251
 10
0.0
 20
0.0
 30
0.0
 70
   128
 71
   8
 72
   9
 73
   13
  0
VERTEX
  8
solidbody
 62
   251
 10
0.0
 20
0.0
 30
0.0
 70
   128
 71
   15
 72
   9
 73
   10
  0
VERTEX
  8
solidbody
 62
   251
 10
0.0
 20
0.0
 30
0.0
 70
   128
 71
   15
 72
   10
 73
   16
  0
VERTEX
  8
solidbody
 62
   251
 10
0.0
 20
0.0
 30
0.0
 70
   128
 71
   17
 72
   10
 73
   11
  0
VERTEX
  8
solidbody
 62
   251
 10
0.0
 20
0.0
 30
0.0
 70
   128
 71
   10
 72
   6
 73
   11
  0
VERTEX
  8
solidbody
 62
   251
 10
0.0
 20
0.0
 30
0.0
 70
   128
 71
   12
 72
   18
 73
   19
  0
VERTEX
  8
solidbody
 62
   251
 10
0.0
 20
0.0
 30
0.0
 70
   128
 71
   12
 72
   19
 73
   11
  0
VERTEX
  8
solidbody
 62
   251
 10
0.0
 20
0.0
 30
0.0
 70
   128
 71
   14
 72
   20
 73
   12
  0
VERTEX
  8
solidbody
 62
   251
 10
0.0
 20
0.0
 30
0.0
 70
   128
 71
   7
 72
   14
 73
   12
  0
VERTEX
  8
solidbody
 62
   251
 10
0.0
 20
0.0
 30
0.0
 70
   128
 71
   13
 72
   21
 73
   14
  0
VERTEX
  8
solidbody
 62
   251
 10
0.0
 20
0.0
 30
0.0
 70
   128
 71
   14
 72
   21
 73
   22
  0
VERTEX
  8
solidbody
 62
   251
 10
0.0
 20
0.0
 30
0.0
 70
   128
 71
   21
 72
   13
 73
   9
  0
VERTEX
  8
solidbody
 62
   251
 10
0.0
 20
0.0
 30
0.0
 70
   128
 71
   21
 72
   9
 73
   15
  0
VERTEX
  8
solidbody
 62
   251
 10
0.0
 20
0.0
 30
0.0
 70
   128
 71
   15
 72
   16
 73
   21
  0
VERTEX
  8
solidbody
 62
   251
 10
0.0
 20
0.0
 30
0.0
 70
   128
 71
   21
 72
   16
 73
   22
  0
VERTEX
  8
solidbody
 62
   251
 10
0.0
 20
0.0
 30
0.0
 70
   128
 71
   14
 72
   22
 73
   10
  0
VERTEX
  8
solidbody
 62
   251
 10
0.0
 20
0.0
 30
0.0
 70
   128
 71
   10
 72
   22
 73
   16
  0
VERTEX
  8
solidbody
 62
   251
 10
0.0
 20
0.0
 30
0.0
 70
   128
 71
   17
 72
   14
 73
   10
  0
VERTEX
  8
solidbody
 62
   251
 10
0.0
 20
0.0
 30
0.0
 70
   128
 71
   14
 72
   17
 73
   20
  0
VERTEX
  8
solidbody
 62
   251
 10
0.0
 20
0.0
 30
0.0
 70
   128
 71
   24
 72
   17
 73
   23
  0
VERTEX
  8
solidbody
 62
   251
 10
0.0
 20
0.0
 30
0.0
 70
   128
 71
   17
 72
   11
 73
   23
  0
VERTEX
  8
solidbody
 62
   251
 10
0.0
 20
0.0
 30
0.0
 70
   128
 71
   18
 72
   12
 73
   25
  0
VERTEX
  8
solidbody
 62
   251
 10
0.0
 20
0.0
 30
0.0
 70
   128
 71
   25
 72
   12
 73
   26
  0
VERTEX
  8
solidbody
 62
   251
 10
0.0
 20
0.0
 30
0.0
 70
   128
 71
   11
 72
   19
 73
   27
  0
VERTEX
  8
solidbody
 62
   251
 10
0.0
 20
0.0
 30
0.0
 70
   128
 71
   11
 72
   27
 73
   23
  0
VERTEX
  8
solidbody
 62
   251
 10
0.0
 20
0.0
 30
0.0
 70
   128
 71
   27
 72
   19
 73
   18
  0
VERTEX
  8
solidbody
 62
   251
 10
0.0
 20
0.0
 30
0.0
 70
   128
 71
   27
 72
   18
 73
   25
  0
VERTEX
  8
solidbody
 62
   251
 10
0.0
 20
0.0
 30
0.0
 70
   128
 71
   20
 72
   28
 73
   26
  0
VERTEX
  8
solidbody
 62
   251
 10
0.0
 20
0.0
 30
0.0
 70
   128
 71
   12
 72
   20
 73
   26
  0
VERTEX
  8
solidbody
 62
   251
 10
0.0
 20
0.0
 30
0.0
 70
   128
 71
   29
 72
   20
 73
   17
  0
VERTEX
  8
solidbody
 62
   251
 10
0.0
 20
0.0
 30
0.0
 70
   128
 71
   29
 72
   17
 73
   30
  0
VERTEX
  8
solidbody
 62
   251
 10
0.0
 20
0.0
 30
0.0
 70
   128
 71
   30
 72
   17
 73
   24
  0
VERTEX
  8
solidbody
 62
   251
 10
0.0
 20
0.0
 30
0.0
 70
   128
 71
   30
 72
   24
 73
   31
  0
VERTEX
  8
solidbody
 62
   251
 10
0.0
 20
0.0
 30
0.0
 70
   128
 71
   33
 72
   24
 73
   32
  0
VERTEX
  8
solidbody
 62
   251
 10
0.0
 20
0.0
 30
0.0
 70
   128
 71
   24
 72
   23
 73
   32
  0
VERTEX
  8
solidbody
 62
   251
 10
0.0
 20
0.0
 30
0.0
 70
   128
 71
   25
 72
   26
 73
   27
  0
VERTEX
  8
solidbody
 62
   251
 10
0.0
 20
0.0
 30
0.0
 70
   128
 71
   27
 72
   26
 73
   23
  0
VERTEX
  8
solidbody
 62
   251
 10
0.0
 20
0.0
 30
0.0
 70
   128
 71
   20
 72
   29
 73
   28
  0
VERTEX
  8
solidbody
 62
   251
 10
0.0
 20
0.0
 30
0.0
 70
   128
 71
   28
 72
   29
 73
   34
  0
VERTEX
  8
solidbody
 62
   251
 10
0.0
 20
0.0
 30
0.0
 70
   128
 71
   28
 72
   36
 73
   35
  0
VERTEX
  8
solidbody
 62
   251
 10
0.0
 20
0.0
 30
0.0
 70
   128
 71
   26
 72
   28
 73
   35
  0
VERTEX
  8
solidbody
 62
   251
 10
0.0
 20
0.0
 30
0.0
 70
   128
 71
   30
 72
   31
 73
   29
  0
VERTEX
  8
solidbody
 62
   251
 10
0.0
 20
0.0
 30
0.0
 70
   128
 71
   29
 72
   31
 73
   34
  0
VERTEX
  8
solidbody
 62
   251
 10
0.0
 20
0.0
 30
0.0
 70
   128
 71
   28
 72
   34
 73
   24
  0
VERTEX
  8
solidbody
 62
   251
 10
0.0
 20
0.0
 30
0.0
 70
   128
 71
   24
 72
   34
 73
   31
  0
VERTEX
  8
solidbody
 62
   251
 10
0.0
 20
0.0
 30
0.0
 70
   128
 71
   33
 72
   28
 73
   24
  0
VERTEX
  8
solidbody
 62
   251
 10
0.0
 20
0.0
 30
0.0
 70
   128
 71
   28
 72
   33
 73
   36
  0
VERTEX
  8
solidbody
 62
   251
 10
0.0
 20
0.0
 30
0.0
 70
   128
 71
   38
 72
   33
 73
   37
  0
VERTEX
  8
solidbody
 62
   251
 10
0.0
 20
0.0
 30
0.0
 70
   128
 71
   33
 72
   32
 73
   37
  0
VERTEX
  8
solidbody
 62
   251
 10
0.0
 20
0.0
 30
0.0
 70
   128
 71
   26
 72
   32
 73
   23
  0
VERTEX
  8
solidbody
 62
   251
 10
0.0
 20
0.0
 30
0.0
 70
   128
 71
   32
 72
   26
 73
   35
  0
VERTEX
  8
solidbody
 62
   251
 10
0.0
 20
0.0
 30
0.0
 70
   128
 71
   36
 72
   40
 73
   39
  0
VERTEX
  8
solidbody
 62
   251
 10
0.0
 20
0.0
 30
0.0
 70
   128
 71
   35
 72
   36
 73
   39
  0
VERTEX
  8
solidbody
 62
   251
 10
0.0
 20
0.0
 30
0.0
 70
   128
 71
   41
 72
   36
 73
   33
  0
VERTEX
  8
solidbody
 62
   251
 10
0.0
 20
0.0
 30
0.0
 70
   128
 71
   41
 72
   33
 73
   42
  0
VERTEX
  8
solidbody
 62
   251
 10
0.0
 20
0.0
 30
0.0
 70
   128
 71
   42
 72
   33
 73
   38
  0
VERTEX
  8
solidbody
 62
   251
 10
0.0
 20
0.0
 30
0.0
 70
   128
 71
   42
 72
   38
 73
   43
  0
VERTEX
  8
solidbody
 62
   251
 10
0.0
 20
0.0
 30
0.0
 70
   128
 71
   45
 72
   38
 73
   44
  0
VERTEX
  8
solidbody
 62
   251
 10
0.0
 20
0.0
 30
0.0
 70
   128
 71
   38
 72
   37
 73
   44
  0
VERTEX
  8
solidbody
 62
   251
 10
0.0
 20
0.0
 30
0.0
 70
   128
 71
   32
 72
   46
 73
   47
  0
VERTEX
  8
solidbody
 62
   251
 10
0.0
 20
0.0
 30
0.0
 70
   128
 71
   32
 72
   47
 73
   37
  0
VERTEX
  8
solidbody
 62
   251
 10
0.0
 20
0.0
 30
0.0
 70
   128
 71
   35
 72
   48
 73
   46
  0
VERTEX
  8
solidbody
 62
   251
 10
0.0
 20
0.0
 30
0.0
 70
   128
 71
   35
 72
   46
 73
   32
  0
VERTEX
  8
solidbody
 62
   251
 10
0.0
 20
0.0
 30
0.0
 70
   128
 71
   36
 72
   41
 73
   40
  0
VERTEX
  8
solidbody
 62
   251
 10
0.0
 20
0.0
 30
0.0
 70
   128
 71
   40
 72
   41
 73
   49
  0
VERTEX
  8
solidbody
 62
   251
 10
0.0
 20
0.0
 30
0.0
 70
   128
 71
   40
 72
   51
 73
   50
  0
VERTEX
  8
solidbody
 62
   251
 10
0.0
 20
0.0
 30
0.0
 70
   128
 71
   39
 72
   40
 73
   50
  0
VERTEX
  8
solidbody
 62
   251
 10
0.0
 20
0.0
 30
0.0
 70
   128
 71
   48
 72
   35
 73
   52
  0
VERTEX
  8
solidbody
 62
   251
 10
0.0
 20
0.0
 30
0.0
 70
   128
 71
   52
 72
   35
 73
   39
  0
VERTEX
  8
solidbody
 62
   251
 10
0.0
 20
0.0
 30
0.0
 70
   128
 71
   42
 72
   43
 73
   41
  0
VERTEX
  8
solidbody
 62
   251
 10
0.0
 20
0.0
 30
0.0
 70
   128
 71
   41
 72
   43
 73
   49
  0
VERTEX
  8
solidbody
 62
   251
 10
0.0
 20
0.0
 30
0.0
 70
   128
 71
   40
 72
   49
 73
   38
  0
VERTEX
  8
solidbody
 62
   251
 10
0.0
 20
0.0
 30
0.0
 70
   128
 71
   38
 72
   49
 73
   43
  0
VERTEX
  8
solidbody
 62
   251
 10
0.0
 20
0.0
 30
0.0
 70
   128
 71
   45
 72
   40
 73
   38
  0
VERTEX
  8
solidbody
 62
   251
 10
0.0
 20
0.0
 30
0.0
 70
   128
 71
   40
 72
   45
 73
   51
  0
VERTEX
  8
solidbody
 62
   251
 10
0.0
 20
0.0
 30
0.0
 70
   128
 71
   54
 72
   45
 73
   53
  0
VERTEX
  8
solidbody
 62
   251
 10
0.0
 20
0.0
 30
0.0
 70
   128
 71
   45
 72
   44
 73
   53
  0
VERTEX
  8
solidbody
 62
   251
 10
0.0
 20
0.0
 30
0.0
 70
   128
 71
   39
 72
   44
 73
   37
  0
VERTEX
  8
solidbody
 62
   251
 10
0.0
 20
0.0
 30
0.0
 70
   128
 71
   44
 72
   39
 73
   50
  0
VERTEX
  8
solidbody
 62
   251
 10
0.0
 20
0.0
 30
0.0
 70
   128
 71
   52
 72
   39
 73
   47
  0
VERTEX
  8
solidbody
 62
   251
 10
0.0
 20
0.0
 30
0.0
 70
   128
 71
   47
 72
   39
 73
   37
  0
VERTEX
  8
solidbody
 62
   251
 10
0.0
 20
0.0
 30
0.0
 70
   128
 71
   47
 72
   46
 73
   48
  0
VERTEX
  8
solidbody
 62
   251
 10
0.0
 20
0.0
 30
0.0
 70
   128
 71
   47
 72
   48
 73
   52
  0
VERTEX
  8
solidbody
 62
   251
 10
0.0
 20
0.0
 30
0.0
 70
   128
 71
   51
 72
   56
 73
   55
  0
VERTEX
  8
solidbody
 62
   251
 10
0.0
 20
0.0
 30
0.0
 70
   128
 71
   50
 72
   51
 73
   55
  0
VERTEX
  8
solidbody
 62
   251
 10
0.0
 20
0.0
 30
0.0
 70
   128
 71
   57
 72
   51
 73
   45
  0
VERTEX
  8
solidbody
 62
   251
 10
0.0
 20
0.0
 30
0.0
 70
   128
 71
   57
 72
   45
 73
   58
  0
VERTEX
  8
solidbody
 62
   251
 10
0.0
 20
0.0
 30
0.0
 70
   128
 71
   58
 72
   45
 73
   54
  0
VERTEX
  8
solidbody
 62
   251
 10
0.0
 20
0.0
 30
0.0
 70
   128
 71
   58
 72
   54
 73
   59
  0
VERTEX
  8
solidbody
 62
   251
 10
0.0
 20
0.0
 30
0.0
 70
   128
 71
   61
 72
   54
 73
   60
  0
VERTEX
  8
solidbody
 62
   251
 10
0.0
 20
0.0
 30
0.0
 70
   128
 71
   54
 72
   53
 73
   60
  0
VERTEX
  8
solidbody
 62
   251
 10
0.0
 20
0.0
 30
0.0
 70
   128
 71
   44
 72
   62
 73
   63
  0
VERTEX
  8
solidbody
 62
   251
 10
0.0
 20
0.0
 30
0.0
 70
   128
 71
   44
 72
   63
 73
   53
  0
VERTEX
  8
solidbody
 62
   251
 10
0.0
 20
0.0
 30
0.0
 70
   128
 71
   50
 72
   64
 73
   62
  0
VERTEX
  8
solidbody
 62
   251
 10
0.0
 20
0.0
 30
0.0
 70
   128
 71
   50
 72
   62
 73
   44
  0
VERTEX
  8
solidbody
 62
   251
 10
0.0
 20
0.0
 30
0.0
 70
   128
 71
   51
 72
   57
 73
   56
  0
VERTEX
  8
solidbody
 62
   251
 10
0.0
 20
0.0
 30
0.0
 70
   128
 71
   56
 72
   57
 73
   65
  0
VERTEX
  8
solidbody
 62
   251
 10
0.0
 20
0.0
 30
0.0
 70
   128
 71
   56
 72
   67
 73
   66
  0
VERTEX
  8
solidbody
 62
   251
 10
0.0
 20
0.0
 30
0.0
 70
   128
 71
   55
 72
   56
 73
   66
  0
VERTEX
  8
solidbody
 62
   251
 10
0.0
 20
0.0
 30
0.0
 70
   128
 71
   64
 72
   50
 73
   68
  0
VERTEX
  8
solidbody
 62
   251
 10
0.0
 20
0.0
 30
0.0
 70
   128
 71
   68
 72
   50
 73
   55
  0
VERTEX
  8
solidbody
 62
   251
 10
0.0
 20
0.0
 30
0.0
 70
   128
 71
   58
 72
   59
 73
   57
  0
VERTEX
  8
solidbody
 62
   251
 10
0.0
 20
0.0
 30
0.0
 70
   128
 71
   57
 72
   59
 73
   65
  0
VERTEX
  8
solidbody
 62
   251
 10
0.0
 20
0.0
 30
0.0
 70
   128
 71
   56
 72
   65
 73
   54
  0
VERTEX
  8
solidbody
 62
   251
 10
0.0
 20
0.0
 30
0.0
 70
   128
 71
   54
 72
   65
 73
   59
  0
VERTEX
  8
solidbody
 62
   251
 10
0.0
 20
0.0
 30
0.0
 70
   128
 71
   61
 72
   56
 73
   54
  0
VERTEX
  8
solidbody
 62
   251
 10
0.0
 20
0.0
 30
0.0
 70
   128
 71
   56
 72
   61
 73
   67
  0
VERTEX
  8
solidbody
 62
   251
 10
0.0
 20
0.0
 30
0.0
 70
   128
 71
   70
 72
   61
 73
   69
  0
VERTEX
  8
solidbody
 62
   251
 10
0.0
 20
0.0
 30
0.0
 70
   128
 71
   61
 72
   60
 73
   69
  0
VERTEX
  8
solidbody
 62
   251
 10
0.0
 20
0.0
 30
0.0
 70
   128
 71
   55
 72
   60
 73
   53
  0
VERTEX
  8
solidbody
 62
   251
 10
0.0
 20
0.0
 30
0.0
 70
   128
 71
   60
 72
   55
 73
   66
  0
VERTEX
  8
solidbody
 62
   251
 10
0.0
 20
0.0
 30
0.0
 70
   128
 71
   68
 72
   55
 73
   63
  0
VERTEX
  8
solidbody
 62
   251
 10
0.0
 20
0.0
 30
0.0
 70
   128
 71
   63
 72
   55
 73
   53
  0
VERTEX
  8
solidbody
 62
   251
 10
0.0
 20
0.0
 30
0.0
 70
   128
 71
   63
 72
   62
 73
   64
  0
VERTEX
  8
solidbody
 62
   251
 10
0.0
 20
0.0
 30
0.0
 70
   128
 71
   63
 72
   64
 73
   68
  0
VERTEX
  8
solidbody
 62
   251
 10
0.0
 20
0.0
 30
0.0
 70
   128
 71
   67
 72
   72
 73
   71
  0
VERTEX
  8
solidbody
 62
   251
 10
0.0
 20
0.0
 30
0.0
 70
   128
 71
   66
 72
   67
 73
   71
  0
VERTEX
  8
solidbody
 62
   251
 10
0.0
 20
0.0
 30
0.0
 70
   128
 71
   73
 72
   67
 73
   61
  0
VERTEX
  8
solidbody
 62
   251
 10
0.0
 20
0.0
 30
0.0
 70
   128
 71
   73
 72
   61
 73
   74
  0
VERTEX
  8
solidbody
 62
   251
 10
0.0
 20
0.0
 30
0.0
 70
   128
 71
   74
 72
   61
 73
   70
  0
VERTEX
  8
solidbody
 62
   251
 10
0.0
 20
0.0
 30
0.0
 70
   128
 71
   74
 72
   70
 73
   75
  0
VERTEX
  8
solidbody
 62
   251
 10
0.0
 20
0.0
 30
0.0
 70
   128
 71
   77
 72
   70
 73
   76
  0
VERTEX
  8
solidbody
 62
   251
 10
0.0
 20
0.0
 30
0.0
 70
   128
 71
   70
 72
   69
 73
   76
  0
VERTEX
  8
solidbody
 62
   251
 10
0.0
 20
0.0
 30
0.0
 70
   128
 71
   60
 72
   78
 73
   79
  0
VERTEX
  8
solidbody
 62
   251
 10
0.0
 20
0.0
 30
0.0
 70
   128
 71
   60
 72
   79
 73
   69
  0
VERTEX
  8
solidbody
 62
   251
 10
0.0
 20
0.0
 30
0.0
 70
   128
 71
   66
 72
   80
 73
   78
  0
VERTEX
  8
solidbody
 62
   251
 10
0.0
 20
0.0
 30
0.0
 70
   128
 71
   66
 72
   78
 73
   60
  0
VERTEX
  8
solidbody
 62
   251
 10
0.0
 20
0.0
 30
0.0
 70
   128
 71
   67
 72
   73
 73
   72
  0
VERTEX
  8
solidbody
 62
   251
 10
0.0
 20
0.0
 30
0.0
 70
   128
 71
   72
 72
   73
 73
   81
  0
VERTEX
  8
solidbody
 62
   251
 10
0.0
 20
0.0
 30
0.0
 70
   128
 71
   72
 72
   83
 73
   82
  0
VERTEX
  8
solidbody
 62
   251
 10
0.0
 20
0.0
 30
0.0
 70
   128
 71
   71
 72
   72
 73
   82
  0
VERTEX
  8
solidbody
 62
   251
 10
0.0
 20
0.0
 30
0.0
 70
   128
 71
   80
 72
   66
 73
   84
  0
VERTEX
  8
solidbody
 62
   251
 10
0.0
 20
0.0
 30
0.0
 70
   128
 71
   84
 72
   66
 73
   71
  0
VERTEX
  8
solidbody
 62
   251
 10
0.0
 20
0.0
 30
0.0
 70
   128
 71
   74
 72
   75
 73
   73
  0
VERTEX
  8
solidbody
 62
   251
 10
0.0
 20
0.0
 30
0.0
 70
   128
 71
   73
 72
   75
 73
   81
  0
VERTEX
  8
solidbody
 62
   251
 10
0.0
 20
0.0
 30
0.0
 70
   128
 71
   72
 72
   81
 73
   70
  0
VERTEX
  8
solidbody
 62
   251
 10
0.0
 20
0.0
 30
0.0
 70
   128
 71
   70
 72
   81
 73
   75
  0
VERTEX
  8
solidbody
 62
   251
 10
0.0
 20
0.0
 30
0.0
 70
   128
 71
   77
 72
   72
 73
   70
  0
VERTEX
  8
solidbody
 62
   251
 10
0.0
 20
0.0
 30
0.0
 70
   128
 71
   72
 72
   77
 73
   83
  0
VERTEX
  8
solidbody
 62
   251
 10
0.0
 20
0.0
 30
0.0
 70
   128
 71
   86
 72
   77
 73
   85
  0
VERTEX
  8
solidbody
 62
   251
 10
0.0
 20
0.0
 30
0.0
 70
   128
 71
   77
 72
   76
 73
   85
  0
VERTEX
  8
solidbody
 62
   251
 10
0.0
 20
0.0
 30
0.0
 70
   128
 71
   71
 72
   76
 73
   69
  0
VERTEX
  8
solidbody
 62
   251
 10
0.0
 20
0.0
 30
0.0
 70
   128
 71
   76
 72
   71
 73
   82
  0
VERTEX
  8
solidbody
 62
   251
 10
0.0
 20
0.0
 30
0.0
 70
   128
 71
   84
 72
   71
 73
   79
  0
VERTEX
  8
solidbody
 62
   251
 10
0.0
 20
0.0
 30
0.0
 70
   128
 71
   79
 72
   71
 73
   69
  0
VERTEX
  8
solidbody
 62
   251
 10
0.0
 20
0.0
 30
0.0
 70
   128
 71
   79
 72
   78
 73
   80
  0
VERTEX
  8
solidbody
 62
   251
 10
0.0
 20
0.0
 30
0.0
 70
   128
 71
   79
 72
   80
 73
   84
  0
VERTEX
  8
solidbody
 62
   251
 10
0.0
 20
0.0
 30
0.0
 70
   128
 71
   83
 72
   88
 73
   87
  0
VERTEX
  8
solidbody
 62
   251
 10
0.0
 20
0.0
 30
0.0
 70
   128
 71
   82
 72
   83
 73
   87
  0
VERTEX
  8
solidbody
 62
   251
 10
0.0
 20
0.0
 30
0.0
 70
   128
 71
   89
 72
   83
 73
   77
  0
VERTEX
  8
solidbody
 62
   251
 10
0.0
 20
0.0
 30
0.0
 70
   128
 71
   89
 72
   77
 73
   90
  0
VERTEX
  8
solidbody
 62
   251
 10
0.0
 20
0.0
 30
0.0
 70
   128
 71
   90
 72
   77
 73
   86
  0
VERTEX
  8
solidbody
 62
   251
 10
0.0
 20
0.0
 30
0.0
 70
   128
 71
   90
 72
   86
 73
   91
  0
VERTEX
  8
solidbody
 62
   251
 10
0.0
 20
0.0
 30
0.0
 70
   128
 71
   93
 72
   86
 73
   92
  0
VERTEX
  8
solidbody
 62
   251
 10
0.0
 20
0.0
 30
0.0
 70
   128
 71
   86
 72
   85
 73
   92
  0
VERTEX
  8
solidbody
 62
   251
 10
0.0
 20
0.0
 30
0.0
 70
   128
 71
   76
 72
   94
 73
   95
  0
VERTEX
  8
solidbody
 62
   251
 10
0.0
 20
0.0
 30
0.0
 70
   128
 71
   76
 72
   95
 73
   85
  0
VERTEX
  8
solidbody
 62
   251
 10
0.0
 20
0.0
 30
0.0
 70
   128
 71
   82
 72
   96
 73
   94
  0
VERTEX
  8
solidbody
 62
   251
 10
0.0
 20
0.0
 30
0.0
 70
   128
 71
   82
 72
   94
 73
   76
  0
VERTEX
  8
solidbody
 62
   251
 10
0.0
 20
0.0
 30
0.0
 70
   128
 71
   83
 72
   89
 73
   88
  0
VERTEX
  8
solidbody
 62
   251
 10
0.0
 20
0.0
 30
0.0
 70
   128
 71
   88
 72
   89
 73
   97
  0
VERTEX
  8
solidbody
 62
   251
 10
0.0
 20
0.0
 30
0.0
 70
   128
 71
   88
 72
   99
 73
   98
  0
VERTEX
  8
solidbody
 62
   251
 10
0.0
 20
0.0
 30
0.0
 70
   128
 71
   87
 72
   88
 73
   98
  0
VERTEX
  8
solidbody
 62
   251
 10
0.0
 20
0.0
 30
0.0
 70
   128
 71
   96
 72
   82
 73
   100
  0
VERTEX
  8
solidbody
 62
   251
 10
0.0
 20
0.0
 30
0.0
 70
   128
 71
   100
 72
   82
 73
   87
  0
VERTEX
  8
solidbody
 62
   251
 10
0.0
 20
0.0
 30
0.0
 70
   128
 71
   90
 72
   91
 73
   89
  0
VERTEX
  8
solidbody
 62
   251
 10
0.0
 20
0.0
 30
0.0
 70
   128
 71
   89
 72
   91
 73
   97
  0
VERTEX
  8
solidbody
 62
   251
 10
0.0
 20
0.0
 30
0.0
 70
   128
 71
   88
 72
   97
 73
   86
  0
VERTEX
  8
solidbody
 62
   251
 10
0.0
 20
0.0
 30
0.0
 70
   128
 71
   86
 72
   97
 73
   91
  0
VERTEX
  8
solidbody
 62
   251
 10
0.0
 20
0.0
 30
0.0
 70
   128
 71
   93
 72
   88
 73
   86
  0
VERTEX
  8
solidbody
 62
   251
 10
0.0
 20
0.0
 30
0.0
 70
   128
 71
   88
 72
   93
 73
   99
  0
VERTEX
  8
solidbody
 62
   251
 10
0.0
 20
0.0
 30
0.0
 70
   128
 71
   102
 72
   93
 73
   101
  0
VERTEX
  8
solidbody
 62
   251
 10
0.0
 20
0.0
 30
0.0
 70
   128
 71
   93
 72
   92
 73
   101
  0
VERTEX
  8
solidbody
 62
   251
 10
0.0
 20
0.0
 30
0.0
 70
   128
 71
   87
 72
   92
 73
   85
  0
VERTEX
  8
solidbody
 62
   251
 10
0.0
 20
0.0
 30
0.0
 70
   128
 71
   92
 72
   87
 73
   98
  0
VERTEX
  8
solidbody
 62
   251
 10
0.0
 20
0.0
 30
0.0
 70
   128
 71
   100
 72
   87
 73
   95
  0
VERTEX
  8
solidbody
 62
   251
 10
0.0
 20
0.0
 30
0.0
 70
   128
 71
   95
 72
   87
 73
   85
  0
VERTEX
  8
solidbody
 62
   251
 10
0.0
 20
0.0
 30
0.0
 70
   128
 71
   95
 72
   94
 73
   96
  0
VERTEX
  8
solidbody
 62
   251
 10
0.0
 20
0.0
 30
0.0
 70
   128
 71
   95
 72
   96
 73
   100
  0
VERTEX
  8
solidbody
 62
   251
 10
0.0
 20
0.0
 30
0.0
 70
   128
 71
   99
 72
   104
 73
   103
  0
VERTEX
  8
solidbody
 62
   251
 10
0.0
 20
0.0
 30
0.0
 70
   128
 71
   98
 72
   99
 73
   103
  0
VERTEX
  8
solidbody
 62
   251
 10
0.0
 20
0.0
 30
0.0
 70
   128
 71
   105
 72
   99
 73
   93
  0
VERTEX
  8
solidbody
 62
   251
 10
0.0
 20
0.0
 30
0.0
 70
   128
 71
   105
 72
   93
 73
   106
  0
VERTEX
  8
solidbody
 62
   251
 10
0.0
 20
0.0
 30
0.0
 70
   128
 71
   106
 72
   93
 73
   102
  0
VERTEX
  8
solidbody
 62
   251
 10
0.0
 20
0.0
 30
0.0
 70
   128
 71
   106
 72
   102
 73
   107
  0
VERTEX
  8
solidbody
 62
   251
 10
0.0
 20
0.0
 30
0.0
 70
   128
 71
   109
 72
   102
 73
   108
  0
VERTEX
  8
solidbody
 62
   251
 10
0.0
 20
0.0
 30
0.0
 70
   128
 71
   102
 72
   101
 73
   108
  0
VERTEX
  8
solidbody
 62
   251
 10
0.0
 20
0.0
 30
0.0
 70
   128
 71
   92
 72
   110
 73
   111
  0
VERTEX
  8
solidbody
 62
   251
 10
0.0
 20
0.0
 30
0.0
 70
   128
 71
   92
 72
   111
 73
   101
  0
VERTEX
  8
solidbody
 62
   251
 10
0.0
 20
0.0
 30
0.0
 70
   128
 71
   98
 72
   112
 73
   110
  0
VERTEX
  8
solidbody
 62
   251
 10
0.0
 20
0.0
 30
0.0
 70
   128
 71
   98
 72
   110
 73
   92
  0
VERTEX
  8
solidbody
 62
   251
 10
0.0
 20
0.0
 30
0.0
 70
   128
 71
   99
 72
   105
 73
   104
  0
VERTEX
  8
solidbody
 62
   251
 10
0.0
 20
0.0
 30
0.0
 70
   128
 71
   104
 72
   105
 73
   113
  0
VERTEX
  8
solidbody
 62
   251
 10
0.0
 20
0.0
 30
0.0
 70
   128
 71
   104
 72
   115
 73
   114
  0
VERTEX
  8
solidbody
 62
   251
 10
0.0
 20
0.0
 30
0.0
 70
   128
 71
   103
 72
   104
 73
   114
  0
VERTEX
  8
solidbody
 62
   251
 10
0.0
 20
0.0
 30
0.0
 70
   128
 71
   112
 72
   98
 73
   116
  0
VERTEX
  8
solidbody
 62
   251
 10
0.0
 20
0.0
 30
0.0
 70
   128
 71
   116
 72
   98
 73
   103
  0
VERTEX
  8
solidbody
 62
   251
 10
0.0
 20
0.0
 30
0.0
 70
   128
 71
   106
 72
   107
 73
   105
  0
VERTEX
  8
solidbody
 62
   251
 10
0.0
 20
0.0
 30
0.0
 70
   128
 71
   105
 72
   107
 73
   113
  0
VERTEX
  8
solidbody
 62
   251
 10
0.0
 20
0.0
 30
0.0
 70
   128
 71
   104
 72
   113
 73
   102
  0
VERTEX
  8
solidbody
 62
   251
 10
0.0
 20
0.0
 30
0.0
 70
   128
 71
   102
 72
   113
 73
   107
  0
VERTEX
  8
solidbody
 62
   251
 10
0.0
 20
0.0
 30
0.0
 70
   128
 71
   109
 72
   104
 73
   102
  0
VERTEX
  8
solidbody
 62
   251
 10
0.0
 20
0.0
 30
0.0
 70
   128
 71
   104
 72
   109
 73
   115
  0
VERTEX
  8
solidbody
 62
   251
 10
0.0
 20
0.0
 30
0.0
 70
   128
 71
   118
 72
   109
 73
   117
  0
VERTEX
  8
solidbody
 62
   251
 10
0.0
 20
0.0
 30
0.0
 70
   128
 71
   109
 72
   108
 73
   117
  0
VERTEX
  8
solidbody
 62
   251
 10
0.0
 20
0.0
 30
0.0
 70
   128
 71
   103
 72
   108
 73
   101
  0
VERTEX
  8
solidbody
 62
   251
 10
0.0
 20
0.0
 30
0.0
 70
   128
 71
   108
 72
   103
 73
   114
  0
VERTEX
  8
solidbody
 62
   251
 10
0.0
 20
0.0
 30
0.0
 70
   128
 71
   116
 72
   103
 73
   111
  0
VERTEX
  8
solidbody
 62
   251
 10
0.0
 20
0.0
 30
0.0
 70
   128
 71
   111
 72
   103
 73
   101
  0
VERTEX
  8
solidbody
 62
   251
 10
0.0
 20
0.0
 30
0.0
 70
   128
 71
   111
 72
   110
 73
   112
  0
VERTEX
  8
solidbody
 62
   251
 10
0.0
 20
0.0
 30
0.0
 70
   128
 71
   111
 72
   112
 73
   116
  0
VERTEX
  8
solidbody
 62
   251
 10
0.0
 20
0.0
 30
0.0
 70
   128
 71
   115
 72
   120
 73
   119
  0
VERTEX
  8
solidbody
 62
   251
 10
0.0
 20
0.0
 30
0.0
 70
   128
 71
   114
 72
   115
 73
   119
  0
VERTEX
  8
solidbody
 62
   251
 10
0.0
 20
0.0
 30
0.0
 70
   128
 71
   121
 72
   115
 73
   109
  0
VERTEX
  8
solidbody
 62
   251
 10
0.0
 20
0.0
 30
0.0
 70
   128
 71
   121
 72
   109
 73
   122
  0
VERTEX
  8
solidbody
 62
   251
 10
0.0
 20
0.0
 30
0.0
 70
   128
 71
   122
 72
   109
 73
   118
  0
VERTEX
  8
solidbody
 62
   251
 10
0.0
 20
0.0
 30
0.0
 70
   128
 71
   122
 72
   118
 73
   123
  0
VERTEX
  8
solidbody
 62
   251
 10
0.0
 20
0.0
 30
0.0
 70
   128
 71
   119
 72
   118
 73
   117
  0
VERTEX
  8
solidbody
 62
   251
 10
0.0
 20
0.0
 30
0.0
 70
   128
 71
   118
 72
   119
 73
   120
  0
VERTEX
  8
solidbody
 62
   251
 10
0.0
 20
0.0
 30
0.0
 70
   128
 71
   108
 72
   124
 73
   125
  0
VERTEX
  8
solidbody
 62
   251
 10
0.0
 20
0.0
 30
0.0
 70
   128
 71
   108
 72
   125
 73
   117
  0
VERTEX
  8
solidbody
 62
   251
 10
0.0
 20
0.0
 30
0.0
 70
   128
 71
   114
 72
   126
 73
   124
  0
VERTEX
  8
solidbody
 62
   251
 10
0.0
 20
0.0
 30
0.0
 70
   128
 71
   114
 72
   124
 73
   108
  0
VERTEX
  8
solidbody
 62
   251
 10
0.0
 20
0.0
 30
0.0
 70
   128
 71
   115
 72
   121
 73
   120
  0
VERTEX
  8
solidbody
 62
   251
 10
0.0
 20
0.0
 30
0.0
 70
   128
 71
   120
 72
   121
 73
   127
  0
VERTEX
  8
solidbody
 62
   251
 10
0.0
 20
0.0
 30
0.0
 70
   128
 71
   126
 72
   114
 73
   128
  0
VERTEX
  8
solidbody
 62
   251
 10
0.0
 20
0.0
 30
0.0
 70
   128
 71
   128
 72
   114
 73
   119
  0
VERTEX
  8
solidbody
 62
   251
 10
0.0
 20
0.0
 30
0.0
 70
   128
 71
   122
 72
   123
 73
   121
  0
VERTEX
  8
solidbody
 62
   251
 10
0.0
 20
0.0
 30
0.0
 70
   128
 71
   121
 72
   123
 73
   127
  0
VERTEX
  8
solidbody
 62
   251
 10
0.0
 20
0.0
 30
0.0
 70
   128
 71
   120
 72
   127
 73
   118
  0
VERTEX
  8
solidbody
 62
   251
 10
0.0
 20
0.0
 30
0.0
 70
   128
 71
   118
 72
   127
 73
   123
  0
VERTEX
  8
solidbody
 62
   251
 10
0.0
 20
0.0
 30
0.0
 70
   128
 71
   128
 72
   119
 73
   125
  0
VERTEX
  8
solidbody
 62
   251
 10
0.0
 20
0.0
 30
0.0
 70
   128
 71
   125
 72
   119
 73
   117
  0
VERTEX
  8
solidbody
 62
   251
 10
0.0
 20
0.0
 30
0.0
 70
   128
 71
   125
 72
   124
 73
   126
  0
VERTEX
  8
solidbody
 62
   251
 10
0.0
 20
0.0
 30
0.0
 70
   128
 71
   125
 72
   126
 73
   128
  0
SEQEND
  0
POLYLINE
  8
Triangle_Set
 62
   255
 66
   1
 10
0.0
 20
0.0
 30
0.0
 70
   64
 71
   8
 72
   12
  0
VERTEX
  8
Triangle_Set
 10
-1.890000
 20
0.500000
 30
0.000000
 70
   192
  0
VERTEX
  8
Triangle_Set
 10
-1.890000
 20
0.500000
 30
0.550000
 70
   192
  0
VERTEX
  8
Triangle_Set
 10
-1.890000
 20
0.800000
 30
0.000000
 70
   192
  0
VERTEX
  8
Triangle_Set
 10
-1.890000
 20
0.800000
 30
0.550000
 70
   192
  0
VERTEX
  8
Triangle_Set
 10
-1.560000
 20
0.500000
 30
0.000000
 70
   192
  0
VERTEX
  8
Triangle_Set
 10
-1.560000
 20
0.500000
 30
0.550000
 70
   192
  0
VERTEX
  8
Triangle_Set
 10
-1.560000
 20
0.800000
 30
0.000000
 70
   192
  0
VERTEX
  8
Triangle_Set
 10
-1.560000
 20
0.800000
 30
0.550000
 70
   192
  0
VERTEX
  8
Triangle_Set
 62
   255
 10
0.0
 20
0.0
 30
0.0
 70
   128
 71
   4
 72
   2
 73
   3
  0
VERTEX
  8
Triangle_Set
 62
   255
 10
0.0
 20
0.0
 30
0.0
 70
   128
 71
   2
 72
   1
 73
   3
  0
VERTEX
  8
Triangle_Set
 62
   255
 10
0.0
 20
0.0
 30
0.0
 70
   128
 71
   6
 72
   8
 73
   7
  0
VERTEX
  8
Triangle_Set
 62
   255
 10
0.0
 20
0.0
 30
0.0
 70
   128
 71
   5
 72
   6
 73
   7
  0
VERTEX
  8
Triangle_Set
 62
   255
 10
0.0
 20
0.0
 30
0.0
 70
   128
 71
   5
 72
   1
 73
   2
  0
VERTEX
  8
Triangle_Set
 62
   255
 10
0.0
 20
0.0
 30
0.0
 70
   128
 71
   5
 72
   2
 73
   6
  0
VERTEX
  8
Triangle_Set
 62
   255
 10
0.0
 20
0.0
 30
0.0
 70
   128
 71
   3
 72
   7
 73
   4
  0
VERTEX
  8
Triangle_Set
 62
   255
 10
0.0
 20
0.0
 30
0.0
 70
   128
 71
   4
 72
   7
 73
   8
  0
VERTEX
  8
Triangle_Set
 62
   255
 10
0.0
 20
0.0
 30
0.0
 70
   128
 71
   3
 72
   1
 73
   5
  0
VERTEX
  8
Triangle_Set
 62
   255
 10
0.0
 20
0.0
 30
0.0
 70
   128
 71
   3
 72
   5
 73
   7
  0
VERTEX
  8
Triangle_Set
 62
   255
 10
0.0
 20
0.0
 30
0.0
 70
   128
 71
   2
 72
   4
 73
   6
  0
VERTEX
  8
Triangle_Set
 62
   255
 10
0.0
 20
0.0
 30
0.0
 70
   128
 71
   6
 72
   4
 73
   8
  0
SEQEND
  0
POLYLINE
  8
Triangle_Set_ncl2_
 62
   255
 66
   1
 10
0.0
 20
0.0
 30
0.0
 70
   64
 71
   8
 72
   12
  0
VERTEX
  8
Triangle_Set_ncl2_
 10
-1.415000
 20
0.500000
 30
0.000000
 70
   192
  0
VERTEX
  8
Triangle_Set_ncl2_
 10
-1.415000
 20
0.500000
 30
0.550000
 70
   192
  0
VERTEX
  8
Triangle_Set_ncl2_
 10
-1.415000
 20
0.800000
 30
0.000000
 70
   192
  0
VERTEX
  8
Triangle_Set_ncl2_
 10
-1.415000
 20
0.800000
 30
0.550000
 70
   192
  0
VERTEX
  8
Triangle_Set_ncl2_
 10
-1.085000
 20
0.500000
 30
0.000000
 70
   192
  0
VERTEX
  8
Triangle_Set_ncl2_
 10
-1.085000
 20
0.500000
 30
0.550000
 70
   192
  0
VERTEX
  8
Triangle_Set_ncl2_
 10
-1.085000
 20
0.800000
 30
0.000000
 70
   192
  0
VERTEX
  8
Triangle_Set_ncl2_
 10
-1.085000
 20
0.800000
 30
0.550000
 70
   192
  0
VERTEX
  8
Triangle_Set_ncl2_
 62
   255
 10
0.0
 20
0.0
 30
0.0
 70
   128
 71
   4
 72
   2
 73
   3
  0
VERTEX
  8
Triangle_Set_ncl2_
 62
   255
 10
0.0
 20
0.0
 30
0.0
 70
   128
 71
   2
 72
   1
 73
   3
  0
VERTEX
  8
Triangle_Set_ncl2_
 62
   255
 10
0.0
 20
0.0
 30
0.0
 70
   128
 71
   6
 72
   8
 73
   7
  0
VERTEX
  8
Triangle_Set_ncl2_
 62
   255
 10
0.0
 20
0.0
 30
0.0
 70
   128
 71
   5
 72
   6
 73
   7
  0
VERTEX
  8
Triangle_Set_ncl2_
 62
   255
 10
0.0
 20
0.0
 30
0.0
 70
   128
 71
   5
 72
   1
 73
   2
  0
VERTEX
  8
Triangle_Set_ncl2_
 62
   255
 10
0.0
 20
0.0
 30
0.0
 70
   128
 71
   5
 72
   2
 73
   6
  0
VERTEX
  8
Triangle_Set_ncl2_
 62
   255
 10
0.0
 20
0.0
 30
0.0
 70
   128
 71
   3
 72
   7
 73
   4
  0
VERTEX
  8
Triangle_Set_ncl2_
 62
   255
 10
0.0
 20
0.0
 30
0.0
 70
   128
 71
   4
 72
   7
 73
   8
  0
VERTEX
  8
Triangle_Set_ncl2_
 62
   255
 10
0.0
 20
0.0
 30
0.0
 70
   128
 71
   3
 72
   1
 73
   5
  0
VERTEX
  8
Triangle_Set_ncl2_
 62
   255
 10
0.0
 20
0.0
 30
0.0
 70
   128
 71
   3
 72
   5
 73
   7
  0
VERTEX
  8
Triangle_Set_ncl2_
 62
   255
 10
0.0
 20
0.0
 30
0.0
 70
   128
 71
   2
 72
   4
 73
   6
  0
VERTEX
  8
Triangle_Set_ncl2_
 62
   255
 10
0.0
 20
0.0
 30
0.0
 70
   128
 71
   6
 72
   4
 73
   8
  0
SEQEND
  0
POLYLINE
  8
Triangle_Set_ncl2__ncl1_1
 62
   255
 66
   1
 10
0.0
 20
0.0
 30
0.0
 70
   64
 71
   8
 72
   12
  0
VERTEX
  8
Triangle_Set_ncl2__ncl1_1
 10
-0.915000
 20
0.500000
 30
0.000000
 70
   192
  0
VERTEX
  8
Triangle_Set_ncl2__ncl1_1
 10
-0.915000
 20
0.500000
 30
0.550000
 70
   192
  0
VERTEX
  8
Triangle_Set_ncl2__ncl1_1
 10
-0.915000
 20
0.800000
 30
0.000000
 70
   192
  0
VERTEX
  8
Triangle_Set_ncl2__ncl1_1
 10
-0.915000
 20
0.800000
 30
0.550000
 70
   192
  0
VERTEX
  8
Triangle_Set_ncl2__ncl1_1
 10
-0.585000
 20
0.500000
 30
0.000000
 70
   192
  0
VERTEX
  8
Triangle_Set_ncl2__ncl1_1
 10
-0.585000
 20
0.500000
 30
0.550000
 70
   192
  0
VERTEX
  8
Triangle_Set_ncl2__ncl1_1
 10
-0.585000
 20
0.800000
 30
0.000000
 70
   192
  0
VERTEX
  8
Triangle_Set_ncl2__ncl1_1
 10
-0.585000
 20
0.800000
 30
0.550000
 70
   192
  0
VERTEX
  8
Triangle_Set_ncl2__ncl1_1
 62
   255
 10
0.0
 20
0.0
 30
0.0
 70
   128
 71
   4
 72
   2
 73
   3
  0
VERTEX
  8
Triangle_Set_ncl2__ncl1_1
 62
   255
 10
0.0
 20
0.0
 30
0.0
 70
   128
 71
   2
 72
   1
 73
   3
  0
VERTEX
  8
Triangle_Set_ncl2__ncl1_1
 62
   255
 10
0.0
 20
0.0
 30
0.0
 70
   128
 71
   6
 72
   8
 73
   7
  0
VERTEX
  8
Triangle_Set_ncl2__ncl1_1
 62
   255
 10
0.0
 20
0.0
 30
0.0
 70
   128
 71
   5
 72
   6
 73
   7
  0
VERTEX
  8
Triangle_Set_ncl2__ncl1_1
 62
   255
 10
0.0
 20
0.0
 30
0.0
 70
   128
 71
   5
 72
   1
 73
   2
  0
VERTEX
  8
Triangle_Set_ncl2__ncl1_1
 62
   255
 10
0.0
 20
0.0
 30
0.0
 70
   128
 71
   5
 72
   2
 73
   6
  0
VERTEX
  8
Triangle_Set_ncl2__ncl1_1
 62
   255
 10
0.0
 20
0.0
 30
0.0
 70
   128
 71
   3
 72
   7
 73
   4
  0
VERTEX
  8
Triangle_Set_ncl2__ncl1_1
 62
   255
 10
0.0
 20
0.0
 30
0.0
 70
   128
 71
   4
 72
   7
 73
   8
  0
VERTEX
  8
Triangle_Set_ncl2__ncl1_1
 62
   255
 10
0.0
 20
0.0
 30
0.0
 70
   128
 71
   3
 72
   1
 73
   5
  0
VERTEX
  8
Triangle_Set_ncl2__ncl1_1
 62
   255
 10
0.0
 20
0.0
 30
0.0
 70
   128
 71
   3
 72
   5
 73
   7
  0
VERTEX
  8
Triangle_Set_ncl2__ncl1_1
 62
   255
 10
0.0
 20
0.0
 30
0.0
 70
   128
 71
   2
 72
   4
 73
   6
  0
VERTEX
  8
Triangle_Set_ncl2__ncl1_1
 62
   255
 10
0.0
 20
0.0
 30
0.0
 70
   128
 71
   6
 72
   4
 73
   8
  0
SEQEND
  0
POLYLINE
  8
Triangle_Set_ncl2__ncl1_2
 62
   255
 66
   1
 10
0.0
 20
0.0
 30
0.0
 70
   64
 71
   8
 72
   12
  0
VERTEX
  8
Triangle_Set_ncl2__ncl1_2
 10
-0.415000
 20
0.500000
 30
0.000000
 70
   192
  0
VERTEX
  8
Triangle_Set_ncl2__ncl1_2
 10
-0.415000
 20
0.500000
 30
0.550000
 70
   192
  0
VERTEX
  8
Triangle_Set_ncl2__ncl1_2
 10
-0.415000
 20
0.800000
 30
0.000000
 70
   192
  0
VERTEX
  8
Triangle_Set_ncl2__ncl1_2
 10
-0.415000
 20
0.800000
 30
0.550000
 70
   192
  0
VERTEX
  8
Triangle_Set_ncl2__ncl1_2
 10
-0.085000
 20
0.500000
 30
0.000000
 70
   192
  0
VERTEX
  8
Triangle_Set_ncl2__ncl1_2
 10
-0.085000
 20
0.500000
 30
0.550000
 70
   192
  0
VERTEX
  8
Triangle_Set_ncl2__ncl1_2
 10
-0.085000
 20
0.800000
 30
0.000000
 70
   192
  0
VERTEX
  8
Triangle_Set_ncl2__ncl1_2
 10
-0.085000
 20
0.800000
 30
0.550000
 70
   192
  0
VERTEX
  8
Triangle_Set_ncl2__ncl1_2
 62
   255
 10
0.0
 20
0.0
 30
0.0
 70
   128
 71
   4
 72
   2
 73
   3
  0
VERTEX
  8
Triangle_Set_ncl2__ncl1_2
 62
   255
 10
0.0
 20
0.0
 30
0.0
 70
   128
 71
   2
 72
   1
 73
   3
  0
VERTEX
  8
Triangle_Set_ncl2__ncl1_2
 62
   255
 10
0.0
 20
0.0
 30
0.0
 70
   128
 71
   6
 72
   8
 73
   7
  0
VERTEX
  8
Triangle_Set_ncl2__ncl1_2
 62
   255
 10
0.0
 20
0.0
 30
0.0
 70
   128
 71
   5
 72
   6
 73
   7
  0
VERTEX
  8
Triangle_Set_ncl2__ncl1_2
 62
   255
 10
0.0
 20
0.0
 30
0.0
 70
   128
 71
   5
 72
   1
 73
   2
  0
VERTEX
  8
Triangle_Set_ncl2__ncl1_2
 62
   255
 10
0.0
 20
0.0
 30
0.0
 70
   128
 71
   5
 72
   2
 73
   6
  0
VERTEX
  8
Triangle_Set_ncl2__ncl1_2
 62
   255
 10
0.0
 20
0.0
 30
0.0
 70
   128
 71
   3
 72
   7
 73
   4
  0
VERTEX
  8
Triangle_Set_ncl2__ncl1_2
 62
   255
 10
0.0
 20
0.0
 30
0.0
 70
   128
 71
   4
 72
   7
 73
   8
  0
VERTEX
  8
Triangle_Set_ncl2__ncl1_2
 62
   255
 10
0.0
 20
0.0
 30
0.0
 70
   128
 71
   3
 72
   1
 73
   5
  0
VERTEX
  8
Triangle_Set_ncl2__ncl1_2
 62
   255
 10
0.0
 20
0.0
 30
0.0
 70
   128
 71
   3
 72
   5
 73
   7
  0
VERTEX
  8
Triangle_Set_ncl2__ncl1_2
 62
   255
 10
0.0
 20
0.0
 30
0.0
 70
   128
 71
   2
 72
   4
 73
   6
  0
VERTEX
  8
Triangle_Set_ncl2__ncl1_2
 62
   255
 10
0.0
 20
0.0
 30
0.0
 70
   128
 71
   6
 72
   4
 73
   8
  0
SEQEND
  0
POLYLINE
  8
Triangle_Set_ncl1_1
 62
   255
 66
   1
 10
0.0
 20
0.0
 30
0.0
 70
   64
 71
   8
 72
   12
  0
VERTEX
  8
Triangle_Set_ncl1_1
 10
0.085000
 20
0.500000
 30
0.000000
 70
   192
  0
VERTEX
  8
Triangle_Set_ncl1_1
 10
0.085000
 20
0.500000
 30
0.550000
 70
   192
  0
VERTEX
  8
Triangle_Set_ncl1_1
 10
0.085000
 20
0.800000
 30
0.000000
 70
   192
  0
VERTEX
  8
Triangle_Set_ncl1_1
 10
0.085000
 20
0.800000
 30
0.550000
 70
   192
  0
VERTEX
  8
Triangle_Set_ncl1_1
 10
0.415000
 20
0.500000
 30
0.000000
 70
   192
  0
VERTEX
  8
Triangle_Set_ncl1_1
 10
0.415000
 20
0.500000
 30
0.550000
 70
   192
  0
VERTEX
  8
Triangle_Set_ncl1_1
 10
0.415000
 20
0.800000
 30
0.000000
 70
   192
  0
VERTEX
  8
Triangle_Set_ncl1_1
 10
0.415000
 20
0.800000
 30
0.550000
 70
   192
  0
VERTEX
  8
Triangle_Set_ncl1_1
 62
   255
 10
0.0
 20
0.0
 30
0.0
 70
   128
 71
   4
 72
   2
 73
   3
  0
VERTEX
  8
Triangle_Set_ncl1_1
 62
   255
 10
0.0
 20
0.0
 30
0.0
 70
   128
 71
   2
 72
   1
 73
   3
  0
VERTEX
  8
Triangle_Set_ncl1_1
 62
   255
 10
0.0
 20
0.0
 30
0.0
 70
   128
 71
   6
 72
   8
 73
   7
  0
VERTEX
  8
Triangle_Set_ncl1_1
 62
   255
 10
0.0
 20
0.0
 30
0.0
 70
   128
 71
   5
 72
   6
 73
   7
  0
VERTEX
  8
Triangle_Set_ncl1_1
 62
   255
 10
0.0
 20
0.0
 30
0.0
 70
   128
 71
   5
 72
   1
 73
   2
  0
VERTEX
  8
Triangle_Set_ncl1_1
 62
   255
 10
0.0
 20
0.0
 30
0.0
 70
   128
 71
   5
 72
   2
 73
   6
  0
VERTEX
  8
Triangle_Set_ncl1_1
 62
   255
 10
0.0
 20
0.0
 30
0.0
 70
   128
 71
   3
 72
   7
 73
   4
  0
VERTEX
  8
Triangle_Set_ncl1_1
 62
   255
 10
0.0
 20
0.0
 30
0.0
 70
   128
 71
   4
 72
   7
 73
   8
  0
VERTEX
  8
Triangle_Set_ncl1_1
 62
   255
 10
0.0
 20
0.0
 30
0.0
 70
   128
 71
   3
 72
   1
 73
   5
  0
VERTEX
  8
Triangle_Set_ncl1_1
 62
   255
 10
0.0
 20
0.0
 30
0.0
 70
   128
 71
   3
 72
   5
 73
   7
  0
VERTEX
  8
Triangle_Set_ncl1_1
 62
   255
 10
0.0
 20
0.0
 30
0.0
 70
   128
 71
   2
 72
   4
 73
   6
  0
VERTEX
  8
Triangle_Set_ncl1_1
 62
   255
 10
0.0
 20
0.0
 30
0.0
 70
   128
 71
   6
 72
   4
 73
   8
  0
SEQEND
  0
POLYLINE
  8
Triangle_Set_ncl1_2
 62
   255
 66
   1
 10
0.0
 20
0.0
 30
0.0
 70
   64
 71
   8
 72
   12
  0
VERTEX
  8
Triangle_Set_ncl1_2
 10
0.585000
 20
0.500000
 30
0.000000
 70
   192
  0
VERTEX
  8
Triangle_Set_ncl1_2
 10
0.585000
 20
0.500000
 30
0.550000
 70
   192
  0
VERTEX
  8
Triangle_Set_ncl1_2
 10
0.585000
 20
0.800000
 30
0.000000
 70
   192
  0
VERTEX
  8
Triangle_Set_ncl1_2
 10
0.585000
 20
0.800000
 30
0.550000
 70
   192
  0
VERTEX
  8
Triangle_Set_ncl1_2
 10
0.915000
 20
0.500000
 30
0.000000
 70
   192
  0
VERTEX
  8
Triangle_Set_ncl1_2
 10
0.915000
 20
0.500000
 30
0.550000
 70
   192
  0
VERTEX
  8
Triangle_Set_ncl1_2
 10
0.915000
 20
0.800000
 30
0.000000
 70
   192
  0
VERTEX
  8
Triangle_Set_ncl1_2
 10
0.915000
 20
0.800000
 30
0.550000
 70
   192
  0
VERTEX
  8
Triangle_Set_ncl1_2
 62
   255
 10
0.0
 20
0.0
 30
0.0
 70
   128
 71
   4
 72
   2
 73
   3
  0
VERTEX
  8
Triangle_Set_ncl1_2
 62
   255
 10
0.0
 20
0.0
 30
0.0
 70
   128
 71
   2
 72
   1
 73
   3
  0
VERTEX
  8
Triangle_Set_ncl1_2
 62
   255
 10
0.0
 20
0.0
 30
0.0
 70
   128
 71
   6
 72
   8
 73
   7
  0
VERTEX
  8
Triangle_Set_ncl1_2
 62
   255
 10
0.0
 20
0.0
 30
0.0
 70
   128
 71
   5
 72
   6
 73
   7
  0
VERTEX
  8
Triangle_Set_ncl1_2
 62
   255
 10
0.0
 20
0.0
 30
0.0
 70
   128
 71
   5
 72
   1
 73
   2
  0
VERTEX
  8
Triangle_Set_ncl1_2
 62
   255
 10
0.0
 20
0.0
 30
0.0
 70
   128
 71
   5
 72
   2
 73
   6
  0
VERTEX
  8
Triangle_Set_ncl1_2
 62
   255
 10
0.0
 20
0.0
 30
0.0
 70
   128
 71
   3
 72
   7
 73
   4
  0
VERTEX
  8
Triangle_Set_ncl1_2
 62
   255
 10
0.0
 20
0.0
 30
0.0
 70
   128
 71
   4
 72
   7
 73
   8
  0
VERTEX
  8
Triangle_Set_ncl1_2
 62
   255
 10
0.0
 20
0.0
 30
0.0
 70
   128
 71
   3
 72
   1
 73
   5
  0
VERTEX
  8
Triangle_Set_ncl1_2
 62
   255
 10
0.0
 20
0.0
 30
0.0
 70
   128
 71
   3
 72
   5
 73
   7
  0
VERTEX
  8
Triangle_Set_ncl1_2
 62
   255
 10
0.0
 20
0.0
 30
0.0
 70
   128
 71
   2
 72
   4
 73
   6
  0
VERTEX
  8
Triangle_Set_ncl1_2
 62
   255
 10
0.0
 20
0.0
 30
0.0
 70
   128
 71
   6
 72
   4
 73
   8
  0
SEQEND
  0
POLYLINE
  8
Triangle_Set_ncl1_3
 62
   255
 66
   1
 10
0.0
 20
0.0
 30
0.0
 70
   64
 71
   8
 72
   12
  0
VERTEX
  8
Triangle_Set_ncl1_3
 10
1.085000
 20
0.500000
 30
0.000000
 70
   192
  0
VERTEX
  8
Triangle_Set_ncl1_3
 10
1.085000
 20
0.500000
 30
0.550000
 70
   192
  0
VERTEX
  8
Triangle_Set_ncl1_3
 10
1.085000
 20
0.800000
 30
0.000000
 70
   192
  0
VERTEX
  8
Triangle_Set_ncl1_3
 10
1.085000
 20
0.800000
 30
0.550000
 70
   192
  0
VERTEX
  8
Triangle_Set_ncl1_3
 10
1.415000
 20
0.500000
 30
0.000000
 70
   192
  0
VERTEX
  8
Triangle_Set_ncl1_3
 10
1.415000
 20
0.500000
 30
0.550000
 70
   192
  0
VERTEX
  8
Triangle_Set_ncl1_3
 10
1.415000
 20
0.800000
 30
0.000000
 70
   192
  0
VERTEX
  8
Triangle_Set_ncl1_3
 10
1.415000
 20
0.800000
 30
0.550000
 70
   192
  0
VERTEX
  8
Triangle_Set_ncl1_3
 62
   255
 10
0.0
 20
0.0
 30
0.0
 70
   128
 71
   4
 72
   2
 73
   3
  0
VERTEX
  8
Triangle_Set_ncl1_3
 62
   255
 10
0.0
 20
0.0
 30
0.0
 70
   128
 71
   2
 72
   1
 73
   3
  0
VERTEX
  8
Triangle_Set_ncl1_3
 62
   255
 10
0.0
 20
0.0
 30
0.0
 70
   128
 71
   6
 72
   8
 73
   7
  0
VERTEX
  8
Triangle_Set_ncl1_3
 62
   255
 10
0.0
 20
0.0
 30
0.0
 70
   128
 71
   5
 72
   6
 73
   7
  0
VERTEX
  8
Triangle_Set_ncl1_3
 62
   255
 10
0.0
 20
0.0
 30
0.0
 70
   128
 71
   5
 72
   1
 73
   2
  0
VERTEX
  8
Triangle_Set_ncl1_3
 62
   255
 10
0.0
 20
0.0
 30
0.0
 70
   128
 71
   5
 72
   2
 73
   6
  0
VERTEX
  8
Triangle_Set_ncl1_3
 62
   255
 10
0.0
 20
0.0
 30
0.0
 70
   128
 71
   3
 72
   7
 73
   4
  0
VERTEX
  8
Triangle_Set_ncl1_3
 62
   255
 10
0.0
 20
0.0
 30
0.0
 70
   128
 71
   4
 72
   7
 73
   8
  0
VERTEX
  8
Triangle_Set_ncl1_3
 62
   255
 10
0.0
 20
0.0
 30
0.0
 70
   128
 71
   3
 72
   1
 73
   5
  0
VERTEX
  8
Triangle_Set_ncl1_3
 62
   255
 10
0.0
 20
0.0
 30
0.0
 70
   128
 71
   3
 72
   5
 73
   7
  0
VERTEX
  8
Triangle_Set_ncl1_3
 62
   255
 10
0.0
 20
0.0
 30
0.0
 70
   128
 71
   2
 72
   4
 73
   6
  0
VERTEX
  8
Triangle_Set_ncl1_3
 62
   255
 10
0.0
 20
0.0
 30
0.0
 70
   128
 71
   6
 72
   4
 73
   8
  0
SEQEND
  0
POLYLINE
  8
Triangle_Set_ncl1_4
 62
   255
 66
   1
 10
0.0
 20
0.0
 30
0.0
 70
   64
 71
   8
 72
   12
  0
VERTEX
  8
Triangle_Set_ncl1_4
 10
1.560000
 20
0.500000
 30
0.000000
 70
   192
  0
VERTEX
  8
Triangle_Set_ncl1_4
 10
1.560000
 20
0.500000
 30
0.550000
 70
   192
  0
VERTEX
  8
Triangle_Set_ncl1_4
 10
1.560000
 20
0.800000
 30
0.000000
 70
   192
  0
VERTEX
  8
Triangle_Set_ncl1_4
 10
1.560000
 20
0.800000
 30
0.550000
 70
   192
  0
VERTEX
  8
Triangle_Set_ncl1_4
 10
1.890000
 20
0.500000
 30
0.000000
 70
   192
  0
VERTEX
  8
Triangle_Set_ncl1_4
 10
1.890000
 20
0.500000
 30
0.550000
 70
   192
  0
VERTEX
  8
Triangle_Set_ncl1_4
 10
1.890000
 20
0.800000
 30
0.000000
 70
   192
  0
VERTEX
  8
Triangle_Set_ncl1_4
 10
1.890000
 20
0.800000
 30
0.550000
 70
   192
  0
VERTEX
  8
Triangle_Set_ncl1_4
 62
   255
 10
0.0
 20
0.0
 30
0.0
 70
   128
 71
   4
 72
   2
 73
   3
  0
VERTEX
  8
Triangle_Set_ncl1_4
 62
   255
 10
0.0
 20
0.0
 30
0.0
 70
   128
 71
   2
 72
   1
 73
   3
  0
VERTEX
  8
Triangle_Set_ncl1_4
 62
   255
 10
0.0
 20
0.0
 30
0.0
 70
   128
 71
   6
 72
   8
 73
   7
  0
VERTEX
  8
Triangle_Set_ncl1_4
 62
   255
 10
0.0
 20
0.0
 30
0.0
 70
   128
 71
   5
 72
   6
 73
   7
  0
VERTEX
  8
Triangle_Set_ncl1_4
 62
   255
 10
0.0
 20
0.0
 30
0.0
 70
   128
 71
   5
 72
   1
 73
   2
  0
VERTEX
  8
Triangle_Set_ncl1_4
 62
   255
 10
0.0
 20
0.0
 30
0.0
 70
   128
 71
   5
 72
   2
 73
   6
  0
VERTEX
  8
Triangle_Set_ncl1_4
 62
   255
 10
0.0
 20
0.0
 30
0.0
 70
   128
 71
   3
 72
   7
 73
   4
  0
VERTEX
  8
Triangle_Set_ncl1_4
 62
   255
 10
0.0
 20
0.0
 30
0.0
 70
   128
 71
   4
 72
   7
 73
   8
  0
VERTEX
  8
Triangle_Set_ncl1_4
 62
   255
 10
0.0
 20
0.0
 30
0.0
 70
   128
 71
   3
 72
   1
 73
   5
  0
VERTEX
  8
Triangle_Set_ncl1_4
 62
   255
 10
0.0
 20
0.0
 30
0.0
 70
   128
 71
   3
 72
   5
 73
   7
  0
VERTEX
  8
Triangle_Set_ncl1_4
 62
   255
 10
0.0
 20
0.0
 30
0.0
 70
   128
 71
   2
 72
   4
 73
   6
  0
VERTEX
  8
Triangle_Set_ncl1_4
 62
   255
 10
0.0
 20
0.0
 30
0.0
 70
   128
 71
   6
 72
   4
 73
   8
  0
SEQEND
  0
POLYLINE
  8
Triangle_Set_ncl1_5
 62
   255
 66
   1
 10
0.0
 20
0.0
 30
0.0
 70
   64
 71
   8
 72
   12
  0
VERTEX
  8
Triangle_Set_ncl1_5
 10
-1.890000
 20
-0.800000
 30
0.000000
 70
   192
  0
VERTEX
  8
Triangle_Set_ncl1_5
 10
-1.890000
 20
-0.800000
 30
0.550000
 70
   192
  0
VERTEX
  8
Triangle_Set_ncl1_5
 10
-1.890000
 20
-0.500000
 30
0.000000
 70
   192
  0
VERTEX
  8
Triangle_Set_ncl1_5
 10
-1.890000
 20
-0.500000
 30
0.550000
 70
   192
  0
VERTEX
  8
Triangle_Set_ncl1_5
 10
-1.560000
 20
-0.800000
 30
0.000000
 70
   192
  0
VERTEX
  8
Triangle_Set_ncl1_5
 10
-1.560000
 20
-0.800000
 30
0.550000
 70
   192
  0
VERTEX
  8
Triangle_Set_ncl1_5
 10
-1.560000
 20
-0.500000
 30
0.000000
 70
   192
  0
VERTEX
  8
Triangle_Set_ncl1_5
 10
-1.560000
 20
-0.500000
 30
0.550000
 70
   192
  0
VERTEX
  8
Triangle_Set_ncl1_5
 62
   255
 10
0.0
 20
0.0
 30
0.0
 70
   128
 71
   4
 72
   2
 73
   3
  0
VERTEX
  8
Triangle_Set_ncl1_5
 62
   255
 10
0.0
 20
0.0
 30
0.0
 70
   128
 71
   2
 72
   1
 73
   3
  0
VERTEX
  8
Triangle_Set_ncl1_5
 62
   255
 10
0.0
 20
0.0
 30
0.0
 70
   128
 71
   6
 72
   8
 73
   7
  0
VERTEX
  8
Triangle_Set_ncl1_5
 62
   255
 10
0.0
 20
0.0
 30
0.0
 70
   128
 71
   5
 72
   6
 73
   7
  0
VERTEX
  8
Triangle_Set_ncl1_5
 62
   255
 10
0.0
 20
0.0
 30
0.0
 70
   128
 71
   5
 72
   1
 73
   2
  0
VERTEX
  8
Triangle_Set_ncl1_5
 62
   255
 10
0.0
 20
0.0
 30
0.0
 70
   128
 71
   5
 72
   2
 73
   6
  0
VERTEX
  8
Triangle_Set_ncl1_5
 62
   255
 10
0.0
 20
0.0
 30
0.0
 70
   128
 71
   3
 72
   7
 73
   4
  0
VERTEX
  8
Triangle_Set_ncl1_5
 62
   255
 10
0.0
 20
0.0
 30
0.0
 70
   128
 71
   4
 72
   7
 73
   8
  0
VERTEX
  8
Triangle_Set_ncl1_5
 62
   255
 10
0.0
 20
0.0
 30
0.0
 70
   128
 71
   3
 72
   1
 73
   5
  0
VERTEX
  8
Triangle_Set_ncl1_5
 62
   255
 10
0.0
 20
0.0
 30
0.0
 70
   128
 71
   3
 72
   5
 73
   7
  0
VERTEX
  8
Triangle_Set_ncl1_5
 62
   255
 10
0.0
 20
0.0
 30
0.0
 70
   128
 71
   2
 72
   4
 73
   6
  0
VERTEX
  8
Triangle_Set_ncl1_5
 62
   255
 10
0.0
 20
0.0
 30
0.0
 70
   128
 71
   6
 72
   4
 73
   8
  0
SEQEND
  0
POLYLINE
  8
Triangle_Set_ncl1_6
 62
   255
 66
   1
 10
0.0
 20
0.0
 30
0.0
 70
   64
 71
   8
 72
   12
  0
VERTEX
  8
Triangle_Set_ncl1_6
 10
-1.415000
 20
-0.800000
 30
0.000000
 70
   192
  0
VERTEX
  8
Triangle_Set_ncl1_6
 10
-1.415000
 20
-0.800000
 30
0.550000
 70
   192
  0
VERTEX
  8
Triangle_Set_ncl1_6
 10
-1.415000
 20
-0.500000
 30
0.000000
 70
   192
  0
VERTEX
  8
Triangle_Set_ncl1_6
 10
-1.415000
 20
-0.500000
 30
0.550000
 70
   192
  0
VERTEX
  8
Triangle_Set_ncl1_6
 10
-1.085000
 20
-0.800000
 30
0.000000
 70
   192
  0
VERTEX
  8
Triangle_Set_ncl1_6
 10
-1.085000
 20
-0.800000
 30
0.550000
 70
   192
  0
VERTEX
  8
Triangle_Set_ncl1_6
 10
-1.085000
 20
-0.500000
 30
0.000000
 70
   192
  0
VERTEX
  8
Triangle_Set_ncl1_6
 10
-1.085000
 20
-0.500000
 30
0.550000
 70
   192
  0
VERTEX
  8
Triangle_Set_ncl1_6
 62
   255
 10
0.0
 20
0.0
 30
0.0
 70
   128
 71
   4
 72
   2
 73
   3
  0
VERTEX
  8
Triangle_Set_ncl1_6
 62
   255
 10
0.0
 20
0.0
 30
0.0
 70
   128
 71
   2
 72
   1
 73
   3
  0
VERTEX
  8
Triangle_Set_ncl1_6
 62
   255
 10
0.0
 20
0.0
 30
0.0
 70
   128
 71
   6
 72
   8
 73
   7
  0
VERTEX
  8
Triangle_Set_ncl1_6
 62
   255
 10
0.0
 20
0.0
 30
0.0
 70
   128
 71
   5
 72
   6
 73
   7
  0
VERTEX
  8
Triangle_Set_ncl1_6
 62
   255
 10
0.0
 20
0.0
 30
0.0
 70
   128
 71
   5
 72
   1
 73
   2
  0
VERTEX
  8
Triangle_Set_ncl1_6
 62
   255
 10
0.0
 20
0.0
 30
0.0
 70
   128
 71
   5
 72
   2
 73
   6
  0
VERTEX
  8
Triangle_Set_ncl1_6
 62
   255
 10
0.0
 20
0.0
 30
0.0
 70
   128
 71
   3
 72
   7
 73
   4
  0
VERTEX
  8
Triangle_Set_ncl1_6
 62
   255
 10
0.0
 20
0.0
 30
0.0
 70
   128
 71
   4
 72
   7
 73
   8
  0
VERTEX
  8
Triangle_Set_ncl1_6
 62
   255
 10
0.0
 20
0.0
 30
0.0
 70
   128
 71
   3
 72
   1
 73
   5
  0
VERTEX
  8
Triangle_Set_ncl1_6
 62
   255
 10
0.0
 20
0.0
 30
0.0
 70
   128
 71
   3
 72
   5
 73
   7
  0
VERTEX
  8
Triangle_Set_ncl1_6
 62
   255
 10
0.0
 20
0.0
 30
0.0
 70
   128
 71
   2
 72
   4
 73
   6
  0
VERTEX
  8
Triangle_Set_ncl1_6
 62
   255
 10
0.0
 20
0.0
 30
0.0
 70
   128
 71
   6
 72
   4
 73
   8
  0
SEQEND
  0
POLYLINE
  8
Triangle_Set_ncl1_7
 62
   255
 66
   1
 10
0.0
 20
0.0
 30
0.0
 70
   64
 71
   8
 72
   12
  0
VERTEX
  8
Triangle_Set_ncl1_7
 10
-0.915000
 20
-0.800000
 30
0.000000
 70
   192
  0
VERTEX
  8
Triangle_Set_ncl1_7
 10
-0.915000
 20
-0.800000
 30
0.550000
 70
   192
  0
VERTEX
  8
Triangle_Set_ncl1_7
 10
-0.915000
 20
-0.500000
 30
0.000000
 70
   192
  0
VERTEX
  8
Triangle_Set_ncl1_7
 10
-0.915000
 20
-0.500000
 30
0.550000
 70
   192
  0
VERTEX
  8
Triangle_Set_ncl1_7
 10
-0.585000
 20
-0.800000
 30
0.000000
 70
   192
  0
VERTEX
  8
Triangle_Set_ncl1_7
 10
-0.585000
 20
-0.800000
 30
0.550000
 70
   192
  0
VERTEX
  8
Triangle_Set_ncl1_7
 10
-0.585000
 20
-0.500000
 30
0.000000
 70
   192
  0
VERTEX
  8
Triangle_Set_ncl1_7
 10
-0.585000
 20
-0.500000
 30
0.550000
 70
   192
  0
VERTEX
  8
Triangle_Set_ncl1_7
 62
   255
 10
0.0
 20
0.0
 30
0.0
 70
   128
 71
   4
 72
   2
 73
   3
  0
VERTEX
  8
Triangle_Set_ncl1_7
 62
   255
 10
0.0
 20
0.0
 30
0.0
 70
   128
 71
   2
 72
   1
 73
   3
  0
VERTEX
  8
Triangle_Set_ncl1_7
 62
   255
 10
0.0
 20
0.0
 30
0.0
 70
   128
 71
   6
 72
   8
 73
   7
  0
VERTEX
  8
Triangle_Set_ncl1_7
 62
   255
 10
0.0
 20
0.0
 30
0.0
 70
   128
 71
   5
 72
   6
 73
   7
  0
VERTEX
  8
Triangle_Set_ncl1_7
 62
   255
 10
0.0
 20
0.0
 30
0.0
 70
   128
 71
   5
 72
   1
 73
   2
  0
VERTEX
  8
Triangle_Set_ncl1_7
 62
   255
 10
0.0
 20
0.0
 30
0.0
 70
   128
 71
   5
 72
   2
 73
   6
  0
VERTEX
  8
Triangle_Set_ncl1_7
 62
   255
 10
0.0
 20
0.0
 30
0.0
 70
   128
 71
   3
 72
   7
 73
   4
  0
VERTEX
  8
Triangle_Set_ncl1_7
 62
   255
 10
0.0
 20
0.0
 30
0.0
 70
   128
 71
   4
 72
   7
 73
   8
  0
VERTEX
  8
Triangle_Set_ncl1_7
 62
   255
 10
0.0
 20
0.0
 30
0.0
 70
   128
 71
   3
 72
   1
 73
   5
  0
VERTEX
  8
Triangle_Set_ncl1_7
 62
   255
 10
0.0
 20
0.0
 30
0.0
 70
   128
 71
   3
 72
   5
 73
   7
  0
VERTEX
  8
Triangle_Set_ncl1_7
 62
   255
 10
0.0
 20
0.0
 30
0.0
 70
   128
 71
   2
 72
   4
 73
   6
  0
VERTEX
  8
Triangle_Set_ncl1_7
 62
   255
 10
0.0
 20
0.0
 30
0.0
 70
   128
 71
   6
 72
   4
 73
   8
  0
SEQEND
  0
POLYLINE
  8
Triangle_Set_ncl1_8
 62
   255
 66
   1
 10
0.0
 20
0.0
 30
0.0
 70
   64
 71
   8
 72
   12
  0
VERTEX
  8
Triangle_Set_ncl1_8
 10
-0.415000
 20
-0.800000
 30
0.000000
 70
   192
  0
VERTEX
  8
Triangle_Set_ncl1_8
 10
-0.415000
 20
-0.800000
 30
0.550000
 70
   192
  0
VERTEX
  8
Triangle_Set_ncl1_8
 10
-0.415000
 20
-0.500000
 30
0.000000
 70
   192
  0
VERTEX
  8
Triangle_Set_ncl1_8
 10
-0.415000
 20
-0.500000
 30
0.550000
 70
   192
  0
VERTEX
  8
Triangle_Set_ncl1_8
 10
-0.085000
 20
-0.800000
 30
0.000000
 70
   192
  0
VERTEX
  8
Triangle_Set_ncl1_8
 10
-0.085000
 20
-0.800000
 30
0.550000
 70
   192
  0
VERTEX
  8
Triangle_Set_ncl1_8
 10
-0.085000
 20
-0.500000
 30
0.000000
 70
   192
  0
VERTEX
  8
Triangle_Set_ncl1_8
 10
-0.085000
 20
-0.500000
 30
0.550000
 70
   192
  0
VERTEX
  8
Triangle_Set_ncl1_8
 62
   255
 10
0.0
 20
0.0
 30
0.0
 70
   128
 71
   4
 72
   2
 73
   3
  0
VERTEX
  8
Triangle_Set_ncl1_8
 62
   255
 10
0.0
 20
0.0
 30
0.0
 70
   128
 71
   2
 72
   1
 73
   3
  0
VERTEX
  8
Triangle_Set_ncl1_8
 62
   255
 10
0.0
 20
0.0
 30
0.0
 70
   128
 71
   6
 72
   8
 73
   7
  0
VERTEX
  8
Triangle_Set_ncl1_8
 62
   255
 10
0.0
 20
0.0
 30
0.0
 70
   128
 71
   5
 72
   6
 73
   7
  0
VERTEX
  8
Triangle_Set_ncl1_8
 62
   255
 10
0.0
 20
0.0
 30
0.0
 70
   128
 71
   5
 72
   1
 73
   2
  0
VERTEX
  8
Triangle_Set_ncl1_8
 62
   255
 10
0.0
 20
0.0
 30
0.0
 70
   128
 71
   5
 72
   2
 73
   6
  0
VERTEX
  8
Triangle_Set_ncl1_8
 62
   255
 10
0.0
 20
0.0
 30
0.0
 70
   128
 71
   3
 72
   7
 73
   4
  0
VERTEX
  8
Triangle_Set_ncl1_8
 62
   255
 10
0.0
 20
0.0
 30
0.0
 70
   128
 71
   4
 72
   7
 73
   8
  0
VERTEX
  8
Triangle_Set_ncl1_8
 62
   255
 10
0.0
 20
0.0
 30
0.0
 70
   128
 71
   3
 72
   1
 73
   5
  0
VERTEX
  8
Triangle_Set_ncl1_8
 62
   255
 10
0.0
 20
0.0
 30
0.0
 70
   128
 71
   3
 72
   5
 73
   7
  0
VERTEX
  8
Triangle_Set_ncl1_8
 62
   255
 10
0.0
 20
0.0
 30
0.0
 70
   128
 71
   2
 72
   4
 73
   6
  0
VERTEX
  8
Triangle_Set_ncl1_8
 62
   255
 10
0.0
 20
0.0
 30
0.0
 70
   128
 71
   6
 72
   4
 73
   8
  0
SEQEND
  0
POLYLINE
  8
Triangle_Set_ncl1_9
 62
   255
 66
   1
 10
0.0
 20
0.0
 30
0.0
 70
   64
 71
   8
 72
   12
  0
VERTEX
  8
Triangle_Set_ncl1_9
 10
0.085000
 20
-0.800000
 30
0.000000
 70
   192
  0
VERTEX
  8
Triangle_Set_ncl1_9
 10
0.085000
 20
-0.800000
 30
0.550000
 70
   192
  0
VERTEX
  8
Triangle_Set_ncl1_9
 10
0.085000
 20
-0.500000
 30
0.000000
 70
   192
  0
VERTEX
  8
Triangle_Set_ncl1_9
 10
0.085000
 20
-0.500000
 30
0.550000
 70
   192
  0
VERTEX
  8
Triangle_Set_ncl1_9
 10
0.415000
 20
-0.800000
 30
0.000000
 70
   192
  0
VERTEX
  8
Triangle_Set_ncl1_9
 10
0.415000
 20
-0.800000
 30
0.550000
 70
   192
  0
VERTEX
  8
Triangle_Set_ncl1_9
 10
0.415000
 20
-0.500000
 30
0.000000
 70
   192
  0
VERTEX
  8
Triangle_Set_ncl1_9
 10
0.415000
 20
-0.500000
 30
0.550000
 70
   192
  0
VERTEX
  8
Triangle_Set_ncl1_9
 62
   255
 10
0.0
 20
0.0
 30
0.0
 70
   128
 71
   4
 72
   2
 73
   3
  0
VERTEX
  8
Triangle_Set_ncl1_9
 62
   255
 10
0.0
 20
0.0
 30
0.0
 70
   128
 71
   2
 72
   1
 73
   3
  0
VERTEX
  8
Triangle_Set_ncl1_9
 62
   255
 10
0.0
 20
0.0
 30
0.0
 70
   128
 71
   6
 72
   8
 73
   7
  0
VERTEX
  8
Triangle_Set_ncl1_9
 62
   255
 10
0.0
 20
0.0
 30
0.0
 70
   128
 71
   5
 72
   6
 73
   7
  0
VERTEX
  8
Triangle_Set_ncl1_9
 62
   255
 10
0.0
 20
0.0
 30
0.0
 70
   128
 71
   5
 72
   1
 73
   2
  0
VERTEX
  8
Triangle_Set_ncl1_9
 62
   255
 10
0.0
 20
0.0
 30
0.0
 70
   128
 71
   5
 72
   2
 73
   6
  0
VERTEX
  8
Triangle_Set_ncl1_9
 62
   255
 10
0.0
 20
0.0
 30
0.0
 70
   128
 71
   3
 72
   7
 73
   4
  0
VERTEX
  8
Triangle_Set_ncl1_9
 62
   255
 10
0.0
 20
0.0
 30
0.0
 70
   128
 71
   4
 72
   7
 73
   8
  0
VERTEX
  8
Triangle_Set_ncl1_9
 62
   255
 10
0.0
 20
0.0
 30
0.0
 70
   128
 71
   3
 72
   1
 73
   5
  0
VERTEX
  8
Triangle_Set_ncl1_9
 62
   255
 10
0.0
 20
0.0
 30
0.0
 70
   128
 71
   3
 72
   5
 73
   7
  0
VERTEX
  8
Triangle_Set_ncl1_9
 62
   255
 10
0.0
 20
0.0
 30
0.0
 70
   128
 71
   2
 72
   4
 73
   6
  0
VERTEX
  8
Triangle_Set_ncl1_9
 62
   255
 10
0.0
 20
0.0
 30
0.0
 70
   128
 71
   6
 72
   4
 73
   8
  0
SEQEND
  0
POLYLINE
  8
Triangle_Set_ncl1_10
 62
   255
 66
   1
 10
0.0
 20
0.0
 30
0.0
 70
   64
 71
   8
 72
   12
  0
VERTEX
  8
Triangle_Set_ncl1_10
 10
0.585000
 20
-0.800000
 30
0.000000
 70
   192
  0
VERTEX
  8
Triangle_Set_ncl1_10
 10
0.585000
 20
-0.800000
 30
0.550000
 70
   192
  0
VERTEX
  8
Triangle_Set_ncl1_10
 10
0.585000
 20
-0.500000
 30
0.000000
 70
   192
  0
VERTEX
  8
Triangle_Set_ncl1_10
 10
0.585000
 20
-0.500000
 30
0.550000
 70
   192
  0
VERTEX
  8
Triangle_Set_ncl1_10
 10
0.915000
 20
-0.800000
 30
0.000000
 70
   192
  0
VERTEX
  8
Triangle_Set_ncl1_10
 10
0.915000
 20
-0.800000
 30
0.550000
 70
   192
  0
VERTEX
  8
Triangle_Set_ncl1_10
 10
0.915000
 20
-0.500000
 30
0.000000
 70
   192
  0
VERTEX
  8
Triangle_Set_ncl1_10
 10
0.915000
 20
-0.500000
 30
0.550000
 70
   192
  0
VERTEX
  8
Triangle_Set_ncl1_10
 62
   255
 10
0.0
 20
0.0
 30
0.0
 70
   128
 71
   4
 72
   2
 73
   3
  0
VERTEX
  8
Triangle_Set_ncl1_10
 62
   255
 10
0.0
 20
0.0
 30
0.0
 70
   128
 71
   2
 72
   1
 73
   3
  0
VERTEX
  8
Triangle_Set_ncl1_10
 62
   255
 10
0.0
 20
0.0
 30
0.0
 70
   128
 71
   6
 72
   8
 73
   7
  0
VERTEX
  8
Triangle_Set_ncl1_10
 62
   255
 10
0.0
 20
0.0
 30
0.0
 70
   128
 71
   5
 72
   6
 73
   7
  0
VERTEX
  8
Triangle_Set_ncl1_10
 62
   255
 10
0.0
 20
0.0
 30
0.0
 70
   128
 71
   5
 72
   1
 73
   2
  0
VERTEX
  8
Triangle_Set_ncl1_10
 62
   255
 10
0.0
 20
0.0
 30
0.0
 70
   128
 71
   5
 72
   2
 73
   6
  0
VERTEX
  8
Triangle_Set_ncl1_10
 62
   255
 10
0.0
 20
0.0
 30
0.0
 70
   128
 71
   3
 72
   7
 73
   4
  0
VERTEX
  8
Triangle_Set_ncl1_10
 62
   255
 10
0.0
 20
0.0
 30
0.0
 70
   128
 71
   4
 72
   7
 73
   8
  0
VERTEX
  8
Triangle_Set_ncl1_10
 62
   255
 10
0.0
 20
0.0
 30
0.0
 70
   128
 71
   3
 72
   1
 73
   5
  0
VERTEX
  8
Triangle_Set_ncl1_10
 62
   255
 10
0.0
 20
0.0
 30
0.0
 70
   128
 71
   3
 72
   5
 73
   7
  0
VERTEX
  8
Triangle_Set_ncl1_10
 62
   255
 10
0.0
 20
0.0
 30
0.0
 70
   128
 71
   2
 72
   4
 73
   6
  0
VERTEX
  8
Triangle_Set_ncl1_10
 62
   255
 10
0.0
 20
0.0
 30
0.0
 70
   128
 71
   6
 72
   4
 73
   8
  0
SEQEND
  0
POLYLINE
  8
Triangle_Set_ncl1_11
 62
   255
 66
   1
 10
0.0
 20
0.0
 30
0.0
 70
   64
 71
   8
 72
   12
  0
VERTEX
  8
Triangle_Set_ncl1_11
 10
1.085000
 20
-0.800000
 30
0.000000
 70
   192
  0
VERTEX
  8
Triangle_Set_ncl1_11
 10
1.085000
 20
-0.800000
 30
0.550000
 70
   192
  0
VERTEX
  8
Triangle_Set_ncl1_11
 10
1.085000
 20
-0.500000
 30
0.000000
 70
   192
  0
VERTEX
  8
Triangle_Set_ncl1_11
 10
1.085000
 20
-0.500000
 30
0.550000
 70
   192
  0
VERTEX
  8
Triangle_Set_ncl1_11
 10
1.415000
 20
-0.800000
 30
0.000000
 70
   192
  0
VERTEX
  8
Triangle_Set_ncl1_11
 10
1.415000
 20
-0.800000
 30
0.550000
 70
   192
  0
VERTEX
  8
Triangle_Set_ncl1_11
 10
1.415000
 20
-0.500000
 30
0.000000
 70
   192
  0
VERTEX
  8
Triangle_Set_ncl1_11
 10
1.415000
 20
-0.500000
 30
0.550000
 70
   192
  0
VERTEX
  8
Triangle_Set_ncl1_11
 62
   255
 10
0.0
 20
0.0
 30
0.0
 70
   128
 71
   4
 72
   2
 73
   3
  0
VERTEX
  8
Triangle_Set_ncl1_11
 62
   255
 10
0.0
 20
0.0
 30
0.0
 70
   128
 71
   2
 72
   1
 73
   3
  0
VERTEX
  8
Triangle_Set_ncl1_11
 62
   255
 10
0.0
 20
0.0
 30
0.0
 70
   128
 71
   6
 72
   8
 73
   7
  0
VERTEX
  8
Triangle_Set_ncl1_11
 62
   255
 10
0.0
 20
0.0
 30
0.0
 70
   128
 71
   5
 72
   6
 73
   7
  0
VERTEX
  8
Triangle_Set_ncl1_11
 62
   255
 10
0.0
 20
0.0
 30
0.0
 70
   128
 71
   5
 72
   1
 73
   2
  0
VERTEX
  8
Triangle_Set_ncl1_11
 62
   255
 10
0.0
 20
0.0
 30
0.0
 70
   128
 71
   5
 72
   2
 73
   6
  0
VERTEX
  8
Triangle_Set_ncl1_11
 62
   255
 10
0.0
 20
0.0
 30
0.0
 70
   128
 71
   3
 72
   7
 73
   4
  0
VERTEX
  8
Triangle_Set_ncl1_11
 62
   255
 10
0.0
 20
0.0
 30
0.0
 70
   128
 71
   4
 72
   7
 73
   8
  0
VERTEX
  8
Triangle_Set_ncl1_11
 62
   255
 10
0.0
 20
0.0
 30
0.0
 70
   128
 71
   3
 72
   1
 73
   5
  0
VERTEX
  8
Triangle_Set_ncl1_11
 62
   255
 10
0.0
 20
0.0
 30
0.0
 70
   128
 71
   3
 72
   5
 73
   7
  0
VERTEX
  8
Triangle_Set_ncl1_11
 62
   255
 10
0.0
 20
0.0
 30
0.0
 70
   128
 71
   2
 72
   4
 73
   6
  0
VERTEX
  8
Triangle_Set_ncl1_11
 62
   255
 10
0.0
 20
0.0
 30
0.0
 70
   128
 71
   6
 72
   4
 73
   8
  0
SEQEND
  0
POLYLINE
  8
Triangle_Set_ncl1_12
 62
   255
 66
   1
 10
0.0
 20
0.0
 30
0.0
 70
   64
 71
   8
 72
   12
  0
VERTEX
  8
Triangle_Set_ncl1_12
 10
1.560000
 20
-0.800000
 30
0.000000
 70
   192
  0
VERTEX
  8
Triangle_Set_ncl1_12
 10
1.560000
 20
-0.800000
 30
0.550000
 70
   192
  0
VERTEX
  8
Triangle_Set_ncl1_12
 10
1.560000
 20
-0.500000
 30
0.000000
 70
   192
  0
VERTEX
  8
Triangle_Set_ncl1_12
 10
1.560000
 20
-0.500000
 30
0.550000
 70
   192
  0
VERTEX
  8
Triangle_Set_ncl1_12
 10
1.890000
 20
-0.800000
 30
0.000000
 70
   192
  0
VERTEX
  8
Triangle_Set_ncl1_12
 10
1.890000
 20
-0.800000
 30
0.550000
 70
   192
  0
VERTEX
  8
Triangle_Set_ncl1_12
 10
1.890000
 20
-0.500000
 30
0.000000
 70
   192
  0
VERTEX
  8
Triangle_Set_ncl1_12
 10
1.890000
 20
-0.500000
 30
0.550000
 70
   192
  0
VERTEX
  8
Triangle_Set_ncl1_12
 62
   255
 10
0.0
 20
0.0
 30
0.0
 70
   128
 71
   4
 72
   2
 73
   3
  0
VERTEX
  8
Triangle_Set_ncl1_12
 62
   255
 10
0.0
 20
0.0
 30
0.0
 70
   128
 71
   2
 72
   1
 73
   3
  0
VERTEX
  8
Triangle_Set_ncl1_12
 62
   255
 10
0.0
 20
0.0
 30
0.0
 70
   128
 71
   6
 72
   8
 73
   7
  0
VERTEX
  8
Triangle_Set_ncl1_12
 62
   255
 10
0.0
 20
0.0
 30
0.0
 70
   128
 71
   5
 72
   6
 73
   7
  0
VERTEX
  8
Triangle_Set_ncl1_12
 62
   255
 10
0.0
 20
0.0
 30
0.0
 70
   128
 71
   5
 72
   1
 73
   2
  0
VERTEX
  8
Triangle_Set_ncl1_12
 62
   255
 10
0.0
 20
0.0
 30
0.0
 70
   128
 71
   5
 72
   2
 73
   6
  0
VERTEX
  8
Triangle_Set_ncl1_12
 62
   255
 10
0.0
 20
0.0
 30
0.0
 70
   128
 71
   3
 72
   7
 73
   4
  0
VERTEX
  8
Triangle_Set_ncl1_12
 62
   255
 10
0.0
 20
0.0
 30
0.0
 70
   128
 71
   4
 72
   7
 73
   8
  0
VERTEX
  8
Triangle_Set_ncl1_12
 62
   255
 10
0.0
 20
0.0
 30
0.0
 70
   128
 71
   3
 72
   1
 73
   5
  0
VERTEX
  8
Triangle_Set_ncl1_12
 62
   255
 10
0.0
 20
0.0
 30
0.0
 70
   128
 71
   3
 72
   5
 73
   7
  0
VERTEX
  8
Triangle_Set_ncl1_12
 62
   255
 10
0.0
 20
0.0
 30
0.0
 70
   128
 71
   2
 72
   4
 73
   6
  0
VERTEX
  8
Triangle_Set_ncl1_12
 62
   255
 10
0.0
 20
0.0
 30
0.0
 70
   128
 71
   6
 72
   4
 73
   8
  0
SEQEND
  0
POLYLINE
  8
solidtop
 62
   250
 66
   1
 10
0.0
 20
0.0
 30
0.0
 70
   64
 71
   8
 72
   12
  0
VERTEX
  8
solidtop
 10
-1.900000
 20
-0.500000
 30
0.540000
 70
   192
  0
VERTEX
  8
solidtop
 10
-1.900000
 20
-0.500000
 30
0.550000
 70
   192
  0
VERTEX
  8
solidtop
 10
-1.900000
 20
0.500000
 30
0.540000
 70
   192
  0
VERTEX
  8
solidtop
 10
-1.900000
 20
0.500000
 30
0.550000
 70
   192
  0
VERTEX
  8
solidtop
 10
1.900000
 20
-0.500000
 30
0.540000
 70
   192
  0
VERTEX
  8
solidtop
 10
1.900000
 20
-0.500000
 30
0.550000
 70
   192
  0
VERTEX
  8
solidtop
 10
1.900000
 20
0.500000
 30
0.550000
 70
   192
  0
VERTEX
  8
solidtop
 10
1.900000
 20
0.500000
 30
0.540000
 70
   192
  0
VERTEX
  8
solidtop
 62
   250
 10
0.0
 20
0.0
 30
0.0
 70
   128
 71
   3
 72
   2
 73
   1
  0
VERTEX
  8
solidtop
 62
   250
 10
0.0
 20
0.0
 30
0.0
 70
   128
 71
   2
 72
   3
 73
   4
  0
VERTEX
  8
solidtop
 62
   250
 10
0.0
 20
0.0
 30
0.0
 70
   128
 71
   6
 72
   5
 73
   2
  0
VERTEX
  8
solidtop
 62
   250
 10
0.0
 20
0.0
 30
0.0
 70
   128
 71
   5
 72
   1
 73
   2
  0
VERTEX
  8
solidtop
 62
   250
 10
0.0
 20
0.0
 30
0.0
 70
   128
 71
   2
 72
   4
 73
   6
  0
VERTEX
  8
solidtop
 62
   250
 10
0.0
 20
0.0
 30
0.0
 70
   128
 71
   6
 72
   4
 73
   7
  0
VERTEX
  8
solidtop
 62
   250
 10
0.0
 20
0.0
 30
0.0
 70
   128
 71
   8
 72
   7
 73
   4
  0
VERTEX
  8
solidtop
 62
   250
 10
0.0
 20
0.0
 30
0.0
 70
   128
 71
   3
 72
   8
 73
   4
  0
VERTEX
  8
solidtop
 62
   250
 10
0.0
 20
0.0
 30
0.0
 70
   128
 71
   3
 72
   1
 73
   5
  0
VERTEX
  8
solidtop
 62
   250
 10
0.0
 20
0.0
 30
0.0
 70
   128
 71
   3
 72
   5
 73
   8
  0
VERTEX
  8
solidtop
 62
   250
 10
0.0
 20
0.0
 30
0.0
 70
   128
 71
   6
 72
   8
 73
   5
  0
VERTEX
  8
solidtop
 62
   250
 10
0.0
 20
0.0
 30
0.0
 70
   128
 71
   8
 72
   6
 73
   7
  0
SEQEND
  0
ENDSEC
  0
EOF
