999
FBX AutoCAD (*.DXF) exporter
  0
SECTION
  2
HEADER
  9
$ACADVER
  1
AC1008
  9
$UCSORG
 10
0.0
 20
0.0
 30
0.0
  9
$UCSXDIR
 10
1.0
 20
0.0
 30
0.0
  9
$TILEMODE
 70
   1
  9
$UCSYDIR
 10
0.0
 20
1.0
 30
0.0
  0
ENDSEC
  0
SECTION
  2
TABLES
  0
TABLE
  2
LTYPE
 70
   1
  0
LTYPE
  2
CONTINUOUS
 70
   64
  3
Solid line
 72
   65
 73
   0
 40
0.0
  0
ENDTAB
  0
TABLE
  2
LAYER
 70
   26
  0
LAYER
  2
Triangle_Set
 70
   0
 62
   254
  6
CONTINUOUS
  0
LAYER
  2
Triangle_Set_ncl1_1
 70
   0
 62
   21
  6
CONTINUOUS
  0
LAYER
  2
Triangle_Set_ncl1_2
 70
   0
 62
   254
  6
CONTINUOUS
  0
LAYER
  2
Triangle_Set_ncl1_3
 70
   0
 62
   21
  6
CONTINUOUS
  0
LAYER
  2
Triangle_Set_ncl1_4
 70
   0
 62
   254
  6
CONTINUOUS
  0
LAYER
  2
Triangle_Set_ncl1_5
 70
   0
 62
   21
  6
CONTINUOUS
  0
LAYER
  2
Triangle_Set_ncl1_6
 70
   0
 62
   254
  6
CONTINUOUS
  0
LAYER
  2
Triangle_Set_ncl1_7
 70
   0
 62
   21
  6
CONTINUOUS
  0
LAYER
  2
Triangle_Set_ncl1_8
 70
   0
 62
   254
  6
CONTINUOUS
  0
LAYER
  2
Triangle_Set_ncl1_9
 70
   0
 62
   21
  6
CONTINUOUS
  0
LAYER
  2
Triangle_Set_ncl1_10
 70
   0
 62
   254
  6
CONTINUOUS
  0
LAYER
  2
Triangle_Set_ncl1_11
 70
   0
 62
   21
  6
CONTINUOUS
  0
LAYER
  2
Triangle_Set_ncl1_12
 70
   0
 62
   254
  6
CONTINUOUS
  0
LAYER
  2
Triangle_Set_ncl1_13
 70
   0
 62
   21
  6
CONTINUOUS
  0
LAYER
  2
Triangle_Set_ncl1_14
 70
   0
 62
   21
  6
CONTINUOUS
  0
LAYER
  2
Triangle_Set_ncl1_15
 70
   0
 62
   254
  6
CONTINUOUS
  0
LAYER
  2
Triangle_Set_ncl1_16
 70
   0
 62
   21
  6
CONTINUOUS
  0
LAYER
  2
Triangle_Set_ncl1_17
 70
   0
 62
   254
  6
CONTINUOUS
  0
LAYER
  2
Triangle_Set_ncl1_18
 70
   0
 62
   254
  6
CONTINUOUS
  0
LAYER
  2
Triangle_Set_ncl1_19
 70
   0
 62
   21
  6
CONTINUOUS
  0
LAYER
  2
BODY_QFN_ncl1_1
 70
   0
 62
   250
  6
CONTINUOUS
  0
ENDTAB
  0
ENDSEC
  0
SECTION
  2
BLOCKS
  0
ENDSEC
  0
SECTION
  2
ENTITIES
  0
POLYLINE
  8
Triangle_Set
 62
   254
 66
   1
 10
0.0
 20
0.0
 30
0.0
 70
   64
 71
   8
 72
   10
  0
VERTEX
  8
Triangle_Set
 10
0.750000
 20
0.875000
 30
-0.000000
 70
   192
  0
VERTEX
  8
Triangle_Set
 10
0.750000
 20
0.625000
 30
-0.000000
 70
   192
  0
VERTEX
  8
Triangle_Set
 10
0.400000
 20
0.875000
 30
-0.000000
 70
   192
  0
VERTEX
  8
Triangle_Set
 10
0.400000
 20
0.625000
 30
-0.000000
 70
   192
  0
VERTEX
  8
Triangle_Set
 10
0.750000
 20
0.625000
 30
0.120000
 70
   192
  0
VERTEX
  8
Triangle_Set
 10
0.400000
 20
0.625000
 30
0.120000
 70
   192
  0
VERTEX
  8
Triangle_Set
 10
0.400000
 20
0.875000
 30
0.120000
 70
   192
  0
VERTEX
  8
Triangle_Set
 10
0.750000
 20
0.875000
 30
0.120000
 70
   192
  0
VERTEX
  8
Triangle_Set
 62
   254
 10
0.0
 20
0.0
 30
0.0
 70
   128
 71
   3
 72
   2
 73
   1
  0
VERTEX
  8
Triangle_Set
 62
   254
 10
0.0
 20
0.0
 30
0.0
 70
   128
 71
   2
 72
   3
 73
   4
  0
VERTEX
  8
Triangle_Set
 62
   254
 10
0.0
 20
0.0
 30
0.0
 70
   128
 71
   5
 72
   2
 73
   4
  0
VERTEX
  8
Triangle_Set
 62
   254
 10
0.0
 20
0.0
 30
0.0
 70
   128
 71
   5
 72
   4
 73
   6
  0
VERTEX
  8
Triangle_Set
 62
   254
 10
0.0
 20
0.0
 30
0.0
 70
   128
 71
   4
 72
   3
 73
   7
  0
VERTEX
  8
Triangle_Set
 62
   254
 10
0.0
 20
0.0
 30
0.0
 70
   128
 71
   4
 72
   7
 73
   6
  0
VERTEX
  8
Triangle_Set
 62
   254
 10
0.0
 20
0.0
 30
0.0
 70
   128
 71
   1
 72
   8
 73
   7
  0
VERTEX
  8
Triangle_Set
 62
   254
 10
0.0
 20
0.0
 30
0.0
 70
   128
 71
   1
 72
   7
 73
   3
  0
VERTEX
  8
Triangle_Set
 62
   254
 10
0.0
 20
0.0
 30
0.0
 70
   128
 71
   7
 72
   8
 73
   6
  0
VERTEX
  8
Triangle_Set
 62
   254
 10
0.0
 20
0.0
 30
0.0
 70
   128
 71
   6
 72
   8
 73
   5
  0
SEQEND
  0
POLYLINE
  8
Triangle_Set_ncl1_1
 62
   21
 66
   1
 10
0.0
 20
0.0
 30
0.0
 70
   64
 71
   4
 72
   2
  0
VERTEX
  8
Triangle_Set_ncl1_1
 10
0.750000
 20
0.625000
 30
-0.000000
 70
   192
  0
VERTEX
  8
Triangle_Set_ncl1_1
 10
0.750000
 20
0.625000
 30
0.120000
 70
   192
  0
VERTEX
  8
Triangle_Set_ncl1_1
 10
0.750000
 20
0.875000
 30
0.120000
 70
   192
  0
VERTEX
  8
Triangle_Set_ncl1_1
 10
0.750000
 20
0.875000
 30
-0.000000
 70
   192
  0
VERTEX
  8
Triangle_Set_ncl1_1
 62
   21
 10
0.0
 20
0.0
 30
0.0
 70
   128
 71
   1
 72
   2
 73
   3
  0
VERTEX
  8
Triangle_Set_ncl1_1
 62
   21
 10
0.0
 20
0.0
 30
0.0
 70
   128
 71
   1
 72
   3
 73
   4
  0
SEQEND
  0
POLYLINE
  8
Triangle_Set_ncl1_2
 62
   254
 66
   1
 10
0.0
 20
0.0
 30
0.0
 70
   64
 71
   8
 72
   10
  0
VERTEX
  8
Triangle_Set_ncl1_2
 10
-0.750000
 20
-0.875000
 30
0.000000
 70
   192
  0
VERTEX
  8
Triangle_Set_ncl1_2
 10
-0.750000
 20
-0.625000
 30
0.000000
 70
   192
  0
VERTEX
  8
Triangle_Set_ncl1_2
 10
-0.400000
 20
-0.875000
 30
0.000000
 70
   192
  0
VERTEX
  8
Triangle_Set_ncl1_2
 10
-0.400000
 20
-0.625000
 30
0.000000
 70
   192
  0
VERTEX
  8
Triangle_Set_ncl1_2
 10
-0.750000
 20
-0.625000
 30
0.120000
 70
   192
  0
VERTEX
  8
Triangle_Set_ncl1_2
 10
-0.400000
 20
-0.625000
 30
0.120000
 70
   192
  0
VERTEX
  8
Triangle_Set_ncl1_2
 10
-0.400000
 20
-0.875000
 30
0.120000
 70
   192
  0
VERTEX
  8
Triangle_Set_ncl1_2
 10
-0.750000
 20
-0.875000
 30
0.120000
 70
   192
  0
VERTEX
  8
Triangle_Set_ncl1_2
 62
   254
 10
0.0
 20
0.0
 30
0.0
 70
   128
 71
   2
 72
   1
 73
   3
  0
VERTEX
  8
Triangle_Set_ncl1_2
 62
   254
 10
0.0
 20
0.0
 30
0.0
 70
   128
 71
   2
 72
   3
 73
   4
  0
VERTEX
  8
Triangle_Set_ncl1_2
 62
   254
 10
0.0
 20
0.0
 30
0.0
 70
   128
 71
   5
 72
   2
 73
   4
  0
VERTEX
  8
Triangle_Set_ncl1_2
 62
   254
 10
0.0
 20
0.0
 30
0.0
 70
   128
 71
   6
 72
   5
 73
   4
  0
VERTEX
  8
Triangle_Set_ncl1_2
 62
   254
 10
0.0
 20
0.0
 30
0.0
 70
   128
 71
   6
 72
   4
 73
   7
  0
VERTEX
  8
Triangle_Set_ncl1_2
 62
   254
 10
0.0
 20
0.0
 30
0.0
 70
   128
 71
   7
 72
   4
 73
   3
  0
VERTEX
  8
Triangle_Set_ncl1_2
 62
   254
 10
0.0
 20
0.0
 30
0.0
 70
   128
 71
   3
 72
   1
 73
   7
  0
VERTEX
  8
Triangle_Set_ncl1_2
 62
   254
 10
0.0
 20
0.0
 30
0.0
 70
   128
 71
   7
 72
   1
 73
   8
  0
VERTEX
  8
Triangle_Set_ncl1_2
 62
   254
 10
0.0
 20
0.0
 30
0.0
 70
   128
 71
   7
 72
   8
 73
   6
  0
VERTEX
  8
Triangle_Set_ncl1_2
 62
   254
 10
0.0
 20
0.0
 30
0.0
 70
   128
 71
   6
 72
   8
 73
   5
  0
SEQEND
  0
POLYLINE
  8
Triangle_Set_ncl1_3
 62
   21
 66
   1
 10
0.0
 20
0.0
 30
0.0
 70
   64
 71
   4
 72
   2
  0
VERTEX
  8
Triangle_Set_ncl1_3
 10
-0.750000
 20
-0.625000
 30
0.000000
 70
   192
  0
VERTEX
  8
Triangle_Set_ncl1_3
 10
-0.750000
 20
-0.625000
 30
0.120000
 70
   192
  0
VERTEX
  8
Triangle_Set_ncl1_3
 10
-0.750000
 20
-0.875000
 30
0.120000
 70
   192
  0
VERTEX
  8
Triangle_Set_ncl1_3
 10
-0.750000
 20
-0.875000
 30
0.000000
 70
   192
  0
VERTEX
  8
Triangle_Set_ncl1_3
 62
   21
 10
0.0
 20
0.0
 30
0.0
 70
   128
 71
   1
 72
   2
 73
   3
  0
VERTEX
  8
Triangle_Set_ncl1_3
 62
   21
 10
0.0
 20
0.0
 30
0.0
 70
   128
 71
   1
 72
   3
 73
   4
  0
SEQEND
  0
POLYLINE
  8
Triangle_Set_ncl1_4
 62
   254
 66
   1
 10
0.0
 20
0.0
 30
0.0
 70
   64
 71
   10
 72
   14
  0
VERTEX
  8
Triangle_Set_ncl1_4
 10
-0.500000
 20
0.875000
 30
0.120000
 70
   192
  0
VERTEX
  8
Triangle_Set_ncl1_4
 10
-0.500000
 20
0.875000
 30
-0.000000
 70
   192
  0
VERTEX
  8
Triangle_Set_ncl1_4
 10
-0.750000
 20
0.875000
 30
0.120000
 70
   192
  0
VERTEX
  8
Triangle_Set_ncl1_4
 10
-0.750000
 20
0.875000
 30
-0.000000
 70
   192
  0
VERTEX
  8
Triangle_Set_ncl1_4
 10
-0.400000
 20
0.775000
 30
-0.000000
 70
   192
  0
VERTEX
  8
Triangle_Set_ncl1_4
 10
-0.400000
 20
0.775000
 30
0.120000
 70
   192
  0
VERTEX
  8
Triangle_Set_ncl1_4
 10
-0.750000
 20
0.625000
 30
-0.000000
 70
   192
  0
VERTEX
  8
Triangle_Set_ncl1_4
 10
-0.400000
 20
0.625000
 30
-0.000000
 70
   192
  0
VERTEX
  8
Triangle_Set_ncl1_4
 10
-0.400000
 20
0.625000
 30
0.120000
 70
   192
  0
VERTEX
  8
Triangle_Set_ncl1_4
 10
-0.750000
 20
0.625000
 30
0.120000
 70
   192
  0
VERTEX
  8
Triangle_Set_ncl1_4
 62
   254
 10
0.0
 20
0.0
 30
0.0
 70
   128
 71
   4
 72
   2
 73
   3
  0
VERTEX
  8
Triangle_Set_ncl1_4
 62
   254
 10
0.0
 20
0.0
 30
0.0
 70
   128
 71
   3
 72
   2
 73
   1
  0
VERTEX
  8
Triangle_Set_ncl1_4
 62
   254
 10
0.0
 20
0.0
 30
0.0
 70
   128
 71
   1
 72
   2
 73
   6
  0
VERTEX
  8
Triangle_Set_ncl1_4
 62
   254
 10
0.0
 20
0.0
 30
0.0
 70
   128
 71
   6
 72
   2
 73
   5
  0
VERTEX
  8
Triangle_Set_ncl1_4
 62
   254
 10
0.0
 20
0.0
 30
0.0
 70
   128
 71
   5
 72
   2
 73
   7
  0
VERTEX
  8
Triangle_Set_ncl1_4
 62
   254
 10
0.0
 20
0.0
 30
0.0
 70
   128
 71
   8
 72
   5
 73
   7
  0
VERTEX
  8
Triangle_Set_ncl1_4
 62
   254
 10
0.0
 20
0.0
 30
0.0
 70
   128
 71
   2
 72
   4
 73
   7
  0
VERTEX
  8
Triangle_Set_ncl1_4
 62
   254
 10
0.0
 20
0.0
 30
0.0
 70
   128
 71
   1
 72
   9
 73
   10
  0
VERTEX
  8
Triangle_Set_ncl1_4
 62
   254
 10
0.0
 20
0.0
 30
0.0
 70
   128
 71
   3
 72
   1
 73
   10
  0
VERTEX
  8
Triangle_Set_ncl1_4
 62
   254
 10
0.0
 20
0.0
 30
0.0
 70
   128
 71
   9
 72
   1
 73
   6
  0
VERTEX
  8
Triangle_Set_ncl1_4
 62
   254
 10
0.0
 20
0.0
 30
0.0
 70
   128
 71
   9
 72
   6
 73
   8
  0
VERTEX
  8
Triangle_Set_ncl1_4
 62
   254
 10
0.0
 20
0.0
 30
0.0
 70
   128
 71
   8
 72
   6
 73
   5
  0
VERTEX
  8
Triangle_Set_ncl1_4
 62
   254
 10
0.0
 20
0.0
 30
0.0
 70
   128
 71
   8
 72
   7
 73
   9
  0
VERTEX
  8
Triangle_Set_ncl1_4
 62
   254
 10
0.0
 20
0.0
 30
0.0
 70
   128
 71
   9
 72
   7
 73
   10
  0
SEQEND
  0
POLYLINE
  8
Triangle_Set_ncl1_5
 62
   21
 66
   1
 10
0.0
 20
0.0
 30
0.0
 70
   64
 71
   4
 72
   2
  0
VERTEX
  8
Triangle_Set_ncl1_5
 10
-0.750000
 20
0.875000
 30
-0.000000
 70
   192
  0
VERTEX
  8
Triangle_Set_ncl1_5
 10
-0.750000
 20
0.875000
 30
0.120000
 70
   192
  0
VERTEX
  8
Triangle_Set_ncl1_5
 10
-0.750000
 20
0.625000
 30
0.120000
 70
   192
  0
VERTEX
  8
Triangle_Set_ncl1_5
 10
-0.750000
 20
0.625000
 30
-0.000000
 70
   192
  0
VERTEX
  8
Triangle_Set_ncl1_5
 62
   21
 10
0.0
 20
0.0
 30
0.0
 70
   128
 71
   1
 72
   2
 73
   3
  0
VERTEX
  8
Triangle_Set_ncl1_5
 62
   21
 10
0.0
 20
0.0
 30
0.0
 70
   128
 71
   1
 72
   3
 73
   4
  0
SEQEND
  0
POLYLINE
  8
Triangle_Set_ncl1_6
 62
   254
 66
   1
 10
0.0
 20
0.0
 30
0.0
 70
   64
 71
   8
 72
   10
  0
VERTEX
  8
Triangle_Set_ncl1_6
 10
0.750000
 20
-0.625000
 30
0.000000
 70
   192
  0
VERTEX
  8
Triangle_Set_ncl1_6
 10
0.750000
 20
-0.875000
 30
0.000000
 70
   192
  0
VERTEX
  8
Triangle_Set_ncl1_6
 10
0.400000
 20
-0.625000
 30
0.000000
 70
   192
  0
VERTEX
  8
Triangle_Set_ncl1_6
 10
0.400000
 20
-0.875000
 30
0.000000
 70
   192
  0
VERTEX
  8
Triangle_Set_ncl1_6
 10
0.750000
 20
-0.875000
 30
0.120000
 70
   192
  0
VERTEX
  8
Triangle_Set_ncl1_6
 10
0.400000
 20
-0.875000
 30
0.120000
 70
   192
  0
VERTEX
  8
Triangle_Set_ncl1_6
 10
0.400000
 20
-0.625000
 30
0.120000
 70
   192
  0
VERTEX
  8
Triangle_Set_ncl1_6
 10
0.750000
 20
-0.625000
 30
0.120000
 70
   192
  0
VERTEX
  8
Triangle_Set_ncl1_6
 62
   254
 10
0.0
 20
0.0
 30
0.0
 70
   128
 71
   2
 72
   1
 73
   3
  0
VERTEX
  8
Triangle_Set_ncl1_6
 62
   254
 10
0.0
 20
0.0
 30
0.0
 70
   128
 71
   2
 72
   3
 73
   4
  0
VERTEX
  8
Triangle_Set_ncl1_6
 62
   254
 10
0.0
 20
0.0
 30
0.0
 70
   128
 71
   5
 72
   2
 73
   4
  0
VERTEX
  8
Triangle_Set_ncl1_6
 62
   254
 10
0.0
 20
0.0
 30
0.0
 70
   128
 71
   5
 72
   4
 73
   6
  0
VERTEX
  8
Triangle_Set_ncl1_6
 62
   254
 10
0.0
 20
0.0
 30
0.0
 70
   128
 71
   4
 72
   3
 73
   7
  0
VERTEX
  8
Triangle_Set_ncl1_6
 62
   254
 10
0.0
 20
0.0
 30
0.0
 70
   128
 71
   4
 72
   7
 73
   6
  0
VERTEX
  8
Triangle_Set_ncl1_6
 62
   254
 10
0.0
 20
0.0
 30
0.0
 70
   128
 71
   1
 72
   8
 73
   7
  0
VERTEX
  8
Triangle_Set_ncl1_6
 62
   254
 10
0.0
 20
0.0
 30
0.0
 70
   128
 71
   1
 72
   7
 73
   3
  0
VERTEX
  8
Triangle_Set_ncl1_6
 62
   254
 10
0.0
 20
0.0
 30
0.0
 70
   128
 71
   8
 72
   6
 73
   7
  0
VERTEX
  8
Triangle_Set_ncl1_6
 62
   254
 10
0.0
 20
0.0
 30
0.0
 70
   128
 71
   6
 72
   8
 73
   5
  0
SEQEND
  0
POLYLINE
  8
Triangle_Set_ncl1_7
 62
   21
 66
   1
 10
0.0
 20
0.0
 30
0.0
 70
   64
 71
   4
 72
   2
  0
VERTEX
  8
Triangle_Set_ncl1_7
 10
0.750000
 20
-0.875000
 30
0.000000
 70
   192
  0
VERTEX
  8
Triangle_Set_ncl1_7
 10
0.750000
 20
-0.875000
 30
0.120000
 70
   192
  0
VERTEX
  8
Triangle_Set_ncl1_7
 10
0.750000
 20
-0.625000
 30
0.120000
 70
   192
  0
VERTEX
  8
Triangle_Set_ncl1_7
 10
0.750000
 20
-0.625000
 30
0.000000
 70
   192
  0
VERTEX
  8
Triangle_Set_ncl1_7
 62
   21
 10
0.0
 20
0.0
 30
0.0
 70
   128
 71
   1
 72
   2
 73
   3
  0
VERTEX
  8
Triangle_Set_ncl1_7
 62
   21
 10
0.0
 20
0.0
 30
0.0
 70
   128
 71
   1
 72
   3
 73
   4
  0
SEQEND
  0
POLYLINE
  8
Triangle_Set_ncl1_8
 62
   254
 66
   1
 10
0.0
 20
0.0
 30
0.0
 70
   64
 71
   8
 72
   10
  0
VERTEX
  8
Triangle_Set_ncl1_8
 10
-0.400000
 20
0.350000
 30
-0.000000
 70
   192
  0
VERTEX
  8
Triangle_Set_ncl1_8
 10
-0.400000
 20
0.350000
 30
0.120000
 70
   192
  0
VERTEX
  8
Triangle_Set_ncl1_8
 10
-0.400000
 20
0.150000
 30
-0.000000
 70
   192
  0
VERTEX
  8
Triangle_Set_ncl1_8
 10
-0.400000
 20
0.150000
 30
0.120000
 70
   192
  0
VERTEX
  8
Triangle_Set_ncl1_8
 10
-0.750000
 20
0.350000
 30
0.120000
 70
   192
  0
VERTEX
  8
Triangle_Set_ncl1_8
 10
-0.750000
 20
0.350000
 30
-0.000000
 70
   192
  0
VERTEX
  8
Triangle_Set_ncl1_8
 10
-0.750000
 20
0.150000
 30
0.120000
 70
   192
  0
VERTEX
  8
Triangle_Set_ncl1_8
 10
-0.750000
 20
0.150000
 30
-0.000000
 70
   192
  0
VERTEX
  8
Triangle_Set_ncl1_8
 62
   254
 10
0.0
 20
0.0
 30
0.0
 70
   128
 71
   4
 72
   2
 73
   3
  0
VERTEX
  8
Triangle_Set_ncl1_8
 62
   254
 10
0.0
 20
0.0
 30
0.0
 70
   128
 71
   3
 72
   2
 73
   1
  0
VERTEX
  8
Triangle_Set_ncl1_8
 62
   254
 10
0.0
 20
0.0
 30
0.0
 70
   128
 71
   1
 72
   2
 73
   6
  0
VERTEX
  8
Triangle_Set_ncl1_8
 62
   254
 10
0.0
 20
0.0
 30
0.0
 70
   128
 71
   2
 72
   5
 73
   6
  0
VERTEX
  8
Triangle_Set_ncl1_8
 62
   254
 10
0.0
 20
0.0
 30
0.0
 70
   128
 71
   7
 72
   5
 73
   4
  0
VERTEX
  8
Triangle_Set_ncl1_8
 62
   254
 10
0.0
 20
0.0
 30
0.0
 70
   128
 71
   4
 72
   5
 73
   2
  0
VERTEX
  8
Triangle_Set_ncl1_8
 62
   254
 10
0.0
 20
0.0
 30
0.0
 70
   128
 71
   8
 72
   7
 73
   3
  0
VERTEX
  8
Triangle_Set_ncl1_8
 62
   254
 10
0.0
 20
0.0
 30
0.0
 70
   128
 71
   7
 72
   4
 73
   3
  0
VERTEX
  8
Triangle_Set_ncl1_8
 62
   254
 10
0.0
 20
0.0
 30
0.0
 70
   128
 71
   3
 72
   1
 73
   8
  0
VERTEX
  8
Triangle_Set_ncl1_8
 62
   254
 10
0.0
 20
0.0
 30
0.0
 70
   128
 71
   1
 72
   6
 73
   8
  0
SEQEND
  0
POLYLINE
  8
Triangle_Set_ncl1_9
 62
   21
 66
   1
 10
0.0
 20
0.0
 30
0.0
 70
   64
 71
   4
 72
   2
  0
VERTEX
  8
Triangle_Set_ncl1_9
 10
-0.750000
 20
0.350000
 30
-0.000000
 70
   192
  0
VERTEX
  8
Triangle_Set_ncl1_9
 10
-0.750000
 20
0.350000
 30
0.120000
 70
   192
  0
VERTEX
  8
Triangle_Set_ncl1_9
 10
-0.750000
 20
0.150000
 30
0.120000
 70
   192
  0
VERTEX
  8
Triangle_Set_ncl1_9
 10
-0.750000
 20
0.150000
 30
-0.000000
 70
   192
  0
VERTEX
  8
Triangle_Set_ncl1_9
 62
   21
 10
0.0
 20
0.0
 30
0.0
 70
   128
 71
   1
 72
   2
 73
   3
  0
VERTEX
  8
Triangle_Set_ncl1_9
 62
   21
 10
0.0
 20
0.0
 30
0.0
 70
   128
 71
   1
 72
   3
 73
   4
  0
SEQEND
  0
POLYLINE
  8
Triangle_Set_ncl1_10
 62
   254
 66
   1
 10
0.0
 20
0.0
 30
0.0
 70
   64
 71
   8
 72
   10
  0
VERTEX
  8
Triangle_Set_ncl1_10
 10
0.400000
 20
0.150000
 30
-0.000000
 70
   192
  0
VERTEX
  8
Triangle_Set_ncl1_10
 10
0.400000
 20
0.150000
 30
0.120000
 70
   192
  0
VERTEX
  8
Triangle_Set_ncl1_10
 10
0.400000
 20
0.350000
 30
-0.000000
 70
   192
  0
VERTEX
  8
Triangle_Set_ncl1_10
 10
0.400000
 20
0.350000
 30
0.120000
 70
   192
  0
VERTEX
  8
Triangle_Set_ncl1_10
 10
0.750000
 20
0.150000
 30
0.120000
 70
   192
  0
VERTEX
  8
Triangle_Set_ncl1_10
 10
0.750000
 20
0.150000
 30
-0.000000
 70
   192
  0
VERTEX
  8
Triangle_Set_ncl1_10
 10
0.750000
 20
0.350000
 30
0.120000
 70
   192
  0
VERTEX
  8
Triangle_Set_ncl1_10
 10
0.750000
 20
0.350000
 30
-0.000000
 70
   192
  0
VERTEX
  8
Triangle_Set_ncl1_10
 62
   254
 10
0.0
 20
0.0
 30
0.0
 70
   128
 71
   2
 72
   1
 73
   3
  0
VERTEX
  8
Triangle_Set_ncl1_10
 62
   254
 10
0.0
 20
0.0
 30
0.0
 70
   128
 71
   2
 72
   3
 73
   4
  0
VERTEX
  8
Triangle_Set_ncl1_10
 62
   254
 10
0.0
 20
0.0
 30
0.0
 70
   128
 71
   1
 72
   2
 73
   6
  0
VERTEX
  8
Triangle_Set_ncl1_10
 62
   254
 10
0.0
 20
0.0
 30
0.0
 70
   128
 71
   2
 72
   5
 73
   6
  0
VERTEX
  8
Triangle_Set_ncl1_10
 62
   254
 10
0.0
 20
0.0
 30
0.0
 70
   128
 71
   7
 72
   5
 73
   4
  0
VERTEX
  8
Triangle_Set_ncl1_10
 62
   254
 10
0.0
 20
0.0
 30
0.0
 70
   128
 71
   4
 72
   5
 73
   2
  0
VERTEX
  8
Triangle_Set_ncl1_10
 62
   254
 10
0.0
 20
0.0
 30
0.0
 70
   128
 71
   8
 72
   7
 73
   3
  0
VERTEX
  8
Triangle_Set_ncl1_10
 62
   254
 10
0.0
 20
0.0
 30
0.0
 70
   128
 71
   7
 72
   4
 73
   3
  0
VERTEX
  8
Triangle_Set_ncl1_10
 62
   254
 10
0.0
 20
0.0
 30
0.0
 70
   128
 71
   1
 72
   6
 73
   8
  0
VERTEX
  8
Triangle_Set_ncl1_10
 62
   254
 10
0.0
 20
0.0
 30
0.0
 70
   128
 71
   1
 72
   8
 73
   3
  0
SEQEND
  0
POLYLINE
  8
Triangle_Set_ncl1_11
 62
   21
 66
   1
 10
0.0
 20
0.0
 30
0.0
 70
   64
 71
   4
 72
   2
  0
VERTEX
  8
Triangle_Set_ncl1_11
 10
0.750000
 20
0.150000
 30
-0.000000
 70
   192
  0
VERTEX
  8
Triangle_Set_ncl1_11
 10
0.750000
 20
0.150000
 30
0.120000
 70
   192
  0
VERTEX
  8
Triangle_Set_ncl1_11
 10
0.750000
 20
0.350000
 30
0.120000
 70
   192
  0
VERTEX
  8
Triangle_Set_ncl1_11
 10
0.750000
 20
0.350000
 30
-0.000000
 70
   192
  0
VERTEX
  8
Triangle_Set_ncl1_11
 62
   21
 10
0.0
 20
0.0
 30
0.0
 70
   128
 71
   1
 72
   2
 73
   3
  0
VERTEX
  8
Triangle_Set_ncl1_11
 62
   21
 10
0.0
 20
0.0
 30
0.0
 70
   128
 71
   1
 72
   3
 73
   4
  0
SEQEND
  0
POLYLINE
  8
Triangle_Set_ncl1_12
 62
   254
 66
   1
 10
0.0
 20
0.0
 30
0.0
 70
   64
 71
   8
 72
   10
  0
VERTEX
  8
Triangle_Set_ncl1_12
 10
-0.400000
 20
-0.350000
 30
0.000000
 70
   192
  0
VERTEX
  8
Triangle_Set_ncl1_12
 10
-0.400000
 20
-0.350000
 30
0.120000
 70
   192
  0
VERTEX
  8
Triangle_Set_ncl1_12
 10
-0.400000
 20
-0.150000
 30
0.120000
 70
   192
  0
VERTEX
  8
Triangle_Set_ncl1_12
 10
-0.400000
 20
-0.150000
 30
0.000000
 70
   192
  0
VERTEX
  8
Triangle_Set_ncl1_12
 10
-0.750000
 20
-0.350000
 30
0.120000
 70
   192
  0
VERTEX
  8
Triangle_Set_ncl1_12
 10
-0.750000
 20
-0.350000
 30
0.000000
 70
   192
  0
VERTEX
  8
Triangle_Set_ncl1_12
 10
-0.750000
 20
-0.150000
 30
0.120000
 70
   192
  0
VERTEX
  8
Triangle_Set_ncl1_12
 10
-0.750000
 20
-0.150000
 30
0.000000
 70
   192
  0
VERTEX
  8
Triangle_Set_ncl1_12
 62
   254
 10
0.0
 20
0.0
 30
0.0
 70
   128
 71
   4
 72
   1
 73
   3
  0
VERTEX
  8
Triangle_Set_ncl1_12
 62
   254
 10
0.0
 20
0.0
 30
0.0
 70
   128
 71
   3
 72
   1
 73
   2
  0
VERTEX
  8
Triangle_Set_ncl1_12
 62
   254
 10
0.0
 20
0.0
 30
0.0
 70
   128
 71
   6
 72
   5
 73
   1
  0
VERTEX
  8
Triangle_Set_ncl1_12
 62
   254
 10
0.0
 20
0.0
 30
0.0
 70
   128
 71
   5
 72
   2
 73
   1
  0
VERTEX
  8
Triangle_Set_ncl1_12
 62
   254
 10
0.0
 20
0.0
 30
0.0
 70
   128
 71
   2
 72
   5
 73
   3
  0
VERTEX
  8
Triangle_Set_ncl1_12
 62
   254
 10
0.0
 20
0.0
 30
0.0
 70
   128
 71
   3
 72
   5
 73
   7
  0
VERTEX
  8
Triangle_Set_ncl1_12
 62
   254
 10
0.0
 20
0.0
 30
0.0
 70
   128
 71
   8
 72
   6
 73
   1
  0
VERTEX
  8
Triangle_Set_ncl1_12
 62
   254
 10
0.0
 20
0.0
 30
0.0
 70
   128
 71
   8
 72
   1
 73
   4
  0
VERTEX
  8
Triangle_Set_ncl1_12
 62
   254
 10
0.0
 20
0.0
 30
0.0
 70
   128
 71
   4
 72
   3
 73
   8
  0
VERTEX
  8
Triangle_Set_ncl1_12
 62
   254
 10
0.0
 20
0.0
 30
0.0
 70
   128
 71
   3
 72
   7
 73
   8
  0
SEQEND
  0
POLYLINE
  8
Triangle_Set_ncl1_13
 62
   21
 66
   1
 10
0.0
 20
0.0
 30
0.0
 70
   64
 71
   4
 72
   2
  0
VERTEX
  8
Triangle_Set_ncl1_13
 10
-0.750000
 20
-0.350000
 30
0.000000
 70
   192
  0
VERTEX
  8
Triangle_Set_ncl1_13
 10
-0.750000
 20
-0.150000
 30
0.000000
 70
   192
  0
VERTEX
  8
Triangle_Set_ncl1_13
 10
-0.750000
 20
-0.150000
 30
0.120000
 70
   192
  0
VERTEX
  8
Triangle_Set_ncl1_13
 10
-0.750000
 20
-0.350000
 30
0.120000
 70
   192
  0
VERTEX
  8
Triangle_Set_ncl1_13
 62
   21
 10
0.0
 20
0.0
 30
0.0
 70
   128
 71
   1
 72
   2
 73
   3
  0
VERTEX
  8
Triangle_Set_ncl1_13
 62
   21
 10
0.0
 20
0.0
 30
0.0
 70
   128
 71
   1
 72
   3
 73
   4
  0
SEQEND
  0
POLYLINE
  8
Triangle_Set_ncl1_14
 62
   21
 66
   1
 10
0.0
 20
0.0
 30
0.0
 70
   64
 71
   4
 72
   2
  0
VERTEX
  8
Triangle_Set_ncl1_14
 10
-0.150000
 20
1.000000
 30
0.120000
 70
   192
  0
VERTEX
  8
Triangle_Set_ncl1_14
 10
0.150000
 20
1.000000
 30
0.120000
 70
   192
  0
VERTEX
  8
Triangle_Set_ncl1_14
 10
-0.150000
 20
1.000000
 30
-0.000000
 70
   192
  0
VERTEX
  8
Triangle_Set_ncl1_14
 10
0.150000
 20
1.000000
 30
-0.000000
 70
   192
  0
VERTEX
  8
Triangle_Set_ncl1_14
 62
   21
 10
0.0
 20
0.0
 30
0.0
 70
   128
 71
   3
 72
   2
 73
   1
  0
VERTEX
  8
Triangle_Set_ncl1_14
 62
   21
 10
0.0
 20
0.0
 30
0.0
 70
   128
 71
   2
 72
   3
 73
   4
  0
SEQEND
  0
POLYLINE
  8
Triangle_Set_ncl1_15
 62
   254
 66
   1
 10
0.0
 20
0.0
 30
0.0
 70
   64
 71
   8
 72
   10
  0
VERTEX
  8
Triangle_Set_ncl1_15
 10
-0.150000
 20
1.000000
 30
0.120000
 70
   192
  0
VERTEX
  8
Triangle_Set_ncl1_15
 10
0.150000
 20
1.000000
 30
0.120000
 70
   192
  0
VERTEX
  8
Triangle_Set_ncl1_15
 10
0.150000
 20
0.600000
 30
0.120000
 70
   192
  0
VERTEX
  8
Triangle_Set_ncl1_15
 10
-0.150000
 20
0.600000
 30
0.120000
 70
   192
  0
VERTEX
  8
Triangle_Set_ncl1_15
 10
0.150000
 20
0.600000
 30
-0.000000
 70
   192
  0
VERTEX
  8
Triangle_Set_ncl1_15
 10
0.150000
 20
1.000000
 30
-0.000000
 70
   192
  0
VERTEX
  8
Triangle_Set_ncl1_15
 10
-0.150000
 20
1.000000
 30
-0.000000
 70
   192
  0
VERTEX
  8
Triangle_Set_ncl1_15
 10
-0.150000
 20
0.600000
 30
-0.000000
 70
   192
  0
VERTEX
  8
Triangle_Set_ncl1_15
 62
   254
 10
0.0
 20
0.0
 30
0.0
 70
   128
 71
   4
 72
   1
 73
   3
  0
VERTEX
  8
Triangle_Set_ncl1_15
 62
   254
 10
0.0
 20
0.0
 30
0.0
 70
   128
 71
   3
 72
   1
 73
   2
  0
VERTEX
  8
Triangle_Set_ncl1_15
 62
   254
 10
0.0
 20
0.0
 30
0.0
 70
   128
 71
   2
 72
   6
 73
   3
  0
VERTEX
  8
Triangle_Set_ncl1_15
 62
   254
 10
0.0
 20
0.0
 30
0.0
 70
   128
 71
   3
 72
   6
 73
   5
  0
VERTEX
  8
Triangle_Set_ncl1_15
 62
   254
 10
0.0
 20
0.0
 30
0.0
 70
   128
 71
   5
 72
   6
 73
   8
  0
VERTEX
  8
Triangle_Set_ncl1_15
 62
   254
 10
0.0
 20
0.0
 30
0.0
 70
   128
 71
   6
 72
   7
 73
   8
  0
VERTEX
  8
Triangle_Set_ncl1_15
 62
   254
 10
0.0
 20
0.0
 30
0.0
 70
   128
 71
   4
 72
   8
 73
   1
  0
VERTEX
  8
Triangle_Set_ncl1_15
 62
   254
 10
0.0
 20
0.0
 30
0.0
 70
   128
 71
   1
 72
   8
 73
   7
  0
VERTEX
  8
Triangle_Set_ncl1_15
 62
   254
 10
0.0
 20
0.0
 30
0.0
 70
   128
 71
   3
 72
   5
 73
   4
  0
VERTEX
  8
Triangle_Set_ncl1_15
 62
   254
 10
0.0
 20
0.0
 30
0.0
 70
   128
 71
   4
 72
   5
 73
   8
  0
SEQEND
  0
POLYLINE
  8
Triangle_Set_ncl1_16
 62
   21
 66
   1
 10
0.0
 20
0.0
 30
0.0
 70
   64
 71
   4
 72
   2
  0
VERTEX
  8
Triangle_Set_ncl1_16
 10
0.150000
 20
-1.000000
 30
0.000000
 70
   192
  0
VERTEX
  8
Triangle_Set_ncl1_16
 10
-0.150000
 20
-1.000000
 30
0.000000
 70
   192
  0
VERTEX
  8
Triangle_Set_ncl1_16
 10
-0.150000
 20
-1.000000
 30
0.120000
 70
   192
  0
VERTEX
  8
Triangle_Set_ncl1_16
 10
0.150000
 20
-1.000000
 30
0.120000
 70
   192
  0
VERTEX
  8
Triangle_Set_ncl1_16
 62
   21
 10
0.0
 20
0.0
 30
0.0
 70
   128
 71
   1
 72
   2
 73
   3
  0
VERTEX
  8
Triangle_Set_ncl1_16
 62
   21
 10
0.0
 20
0.0
 30
0.0
 70
   128
 71
   1
 72
   3
 73
   4
  0
SEQEND
  0
POLYLINE
  8
Triangle_Set_ncl1_17
 62
   254
 66
   1
 10
0.0
 20
0.0
 30
0.0
 70
   64
 71
   8
 72
   10
  0
VERTEX
  8
Triangle_Set_ncl1_17
 10
0.150000
 20
-1.000000
 30
0.000000
 70
   192
  0
VERTEX
  8
Triangle_Set_ncl1_17
 10
-0.150000
 20
-1.000000
 30
0.000000
 70
   192
  0
VERTEX
  8
Triangle_Set_ncl1_17
 10
0.150000
 20
-0.600000
 30
0.000000
 70
   192
  0
VERTEX
  8
Triangle_Set_ncl1_17
 10
-0.150000
 20
-0.600000
 30
0.000000
 70
   192
  0
VERTEX
  8
Triangle_Set_ncl1_17
 10
0.150000
 20
-1.000000
 30
0.120000
 70
   192
  0
VERTEX
  8
Triangle_Set_ncl1_17
 10
0.150000
 20
-0.600000
 30
0.120000
 70
   192
  0
VERTEX
  8
Triangle_Set_ncl1_17
 10
-0.150000
 20
-1.000000
 30
0.120000
 70
   192
  0
VERTEX
  8
Triangle_Set_ncl1_17
 10
-0.150000
 20
-0.600000
 30
0.120000
 70
   192
  0
VERTEX
  8
Triangle_Set_ncl1_17
 62
   254
 10
0.0
 20
0.0
 30
0.0
 70
   128
 71
   2
 72
   1
 73
   3
  0
VERTEX
  8
Triangle_Set_ncl1_17
 62
   254
 10
0.0
 20
0.0
 30
0.0
 70
   128
 71
   2
 72
   3
 73
   4
  0
VERTEX
  8
Triangle_Set_ncl1_17
 62
   254
 10
0.0
 20
0.0
 30
0.0
 70
   128
 71
   3
 72
   1
 73
   5
  0
VERTEX
  8
Triangle_Set_ncl1_17
 62
   254
 10
0.0
 20
0.0
 30
0.0
 70
   128
 71
   3
 72
   5
 73
   6
  0
VERTEX
  8
Triangle_Set_ncl1_17
 62
   254
 10
0.0
 20
0.0
 30
0.0
 70
   128
 71
   6
 72
   5
 73
   8
  0
VERTEX
  8
Triangle_Set_ncl1_17
 62
   254
 10
0.0
 20
0.0
 30
0.0
 70
   128
 71
   8
 72
   5
 73
   7
  0
VERTEX
  8
Triangle_Set_ncl1_17
 62
   254
 10
0.0
 20
0.0
 30
0.0
 70
   128
 71
   2
 72
   4
 73
   8
  0
VERTEX
  8
Triangle_Set_ncl1_17
 62
   254
 10
0.0
 20
0.0
 30
0.0
 70
   128
 71
   2
 72
   8
 73
   7
  0
VERTEX
  8
Triangle_Set_ncl1_17
 62
   254
 10
0.0
 20
0.0
 30
0.0
 70
   128
 71
   4
 72
   3
 73
   6
  0
VERTEX
  8
Triangle_Set_ncl1_17
 62
   254
 10
0.0
 20
0.0
 30
0.0
 70
   128
 71
   4
 72
   6
 73
   8
  0
SEQEND
  0
POLYLINE
  8
Triangle_Set_ncl1_18
 62
   254
 66
   1
 10
0.0
 20
0.0
 30
0.0
 70
   64
 71
   8
 72
   10
  0
VERTEX
  8
Triangle_Set_ncl1_18
 10
0.400000
 20
-0.150000
 30
0.000000
 70
   192
  0
VERTEX
  8
Triangle_Set_ncl1_18
 10
0.400000
 20
-0.150000
 30
0.120000
 70
   192
  0
VERTEX
  8
Triangle_Set_ncl1_18
 10
0.400000
 20
-0.350000
 30
0.120000
 70
   192
  0
VERTEX
  8
Triangle_Set_ncl1_18
 10
0.400000
 20
-0.350000
 30
0.000000
 70
   192
  0
VERTEX
  8
Triangle_Set_ncl1_18
 10
0.750000
 20
-0.150000
 30
0.120000
 70
   192
  0
VERTEX
  8
Triangle_Set_ncl1_18
 10
0.750000
 20
-0.150000
 30
0.000000
 70
   192
  0
VERTEX
  8
Triangle_Set_ncl1_18
 10
0.750000
 20
-0.350000
 30
0.120000
 70
   192
  0
VERTEX
  8
Triangle_Set_ncl1_18
 10
0.750000
 20
-0.350000
 30
0.000000
 70
   192
  0
VERTEX
  8
Triangle_Set_ncl1_18
 62
   254
 10
0.0
 20
0.0
 30
0.0
 70
   128
 71
   1
 72
   2
 73
   3
  0
VERTEX
  8
Triangle_Set_ncl1_18
 62
   254
 10
0.0
 20
0.0
 30
0.0
 70
   128
 71
   1
 72
   3
 73
   4
  0
VERTEX
  8
Triangle_Set_ncl1_18
 62
   254
 10
0.0
 20
0.0
 30
0.0
 70
   128
 71
   6
 72
   5
 73
   1
  0
VERTEX
  8
Triangle_Set_ncl1_18
 62
   254
 10
0.0
 20
0.0
 30
0.0
 70
   128
 71
   5
 72
   2
 73
   1
  0
VERTEX
  8
Triangle_Set_ncl1_18
 62
   254
 10
0.0
 20
0.0
 30
0.0
 70
   128
 71
   3
 72
   2
 73
   7
  0
VERTEX
  8
Triangle_Set_ncl1_18
 62
   254
 10
0.0
 20
0.0
 30
0.0
 70
   128
 71
   7
 72
   2
 73
   5
  0
VERTEX
  8
Triangle_Set_ncl1_18
 62
   254
 10
0.0
 20
0.0
 30
0.0
 70
   128
 71
   4
 72
   6
 73
   1
  0
VERTEX
  8
Triangle_Set_ncl1_18
 62
   254
 10
0.0
 20
0.0
 30
0.0
 70
   128
 71
   6
 72
   4
 73
   8
  0
VERTEX
  8
Triangle_Set_ncl1_18
 62
   254
 10
0.0
 20
0.0
 30
0.0
 70
   128
 71
   4
 72
   3
 73
   8
  0
VERTEX
  8
Triangle_Set_ncl1_18
 62
   254
 10
0.0
 20
0.0
 30
0.0
 70
   128
 71
   3
 72
   7
 73
   8
  0
SEQEND
  0
POLYLINE
  8
Triangle_Set_ncl1_19
 62
   21
 66
   1
 10
0.0
 20
0.0
 30
0.0
 70
   64
 71
   4
 72
   2
  0
VERTEX
  8
Triangle_Set_ncl1_19
 10
0.750000
 20
-0.150000
 30
0.000000
 70
   192
  0
VERTEX
  8
Triangle_Set_ncl1_19
 10
0.750000
 20
-0.150000
 30
0.120000
 70
   192
  0
VERTEX
  8
Triangle_Set_ncl1_19
 10
0.750000
 20
-0.350000
 30
0.000000
 70
   192
  0
VERTEX
  8
Triangle_Set_ncl1_19
 10
0.750000
 20
-0.350000
 30
0.120000
 70
   192
  0
VERTEX
  8
Triangle_Set_ncl1_19
 62
   21
 10
0.0
 20
0.0
 30
0.0
 70
   128
 71
   2
 72
   1
 73
   3
  0
VERTEX
  8
Triangle_Set_ncl1_19
 62
   21
 10
0.0
 20
0.0
 30
0.0
 70
   128
 71
   2
 72
   3
 73
   4
  0
SEQEND
  0
POLYLINE
  8
BODY_QFN_ncl1_1
 62
   250
 66
   1
 10
0.0
 20
0.0
 30
0.0
 70
   64
 71
   90
 72
   176
  0
VERTEX
  8
BODY_QFN_ncl1_1
 10
-0.750000
 20
0.875000
 30
0.025000
 70
   192
  0
VERTEX
  8
BODY_QFN_ncl1_1
 10
-0.500000
 20
0.875000
 30
0.025000
 70
   192
  0
VERTEX
  8
BODY_QFN_ncl1_1
 10
-0.400000
 20
0.775000
 30
0.025000
 70
   192
  0
VERTEX
  8
BODY_QFN_ncl1_1
 10
-0.400000
 20
0.625000
 30
0.025000
 70
   192
  0
VERTEX
  8
BODY_QFN_ncl1_1
 10
-0.750000
 20
0.625000
 30
0.025000
 70
   192
  0
VERTEX
  8
BODY_QFN_ncl1_1
 10
-0.750000
 20
0.350000
 30
0.025000
 70
   192
  0
VERTEX
  8
BODY_QFN_ncl1_1
 10
-0.400000
 20
0.350000
 30
0.025000
 70
   192
  0
VERTEX
  8
BODY_QFN_ncl1_1
 10
-0.400000
 20
0.150000
 30
0.025000
 70
   192
  0
VERTEX
  8
BODY_QFN_ncl1_1
 10
-0.750000
 20
0.150000
 30
0.025000
 70
   192
  0
VERTEX
  8
BODY_QFN_ncl1_1
 10
-0.750000
 20
-0.150000
 30
0.025000
 70
   192
  0
VERTEX
  8
BODY_QFN_ncl1_1
 10
-0.400000
 20
-0.150000
 30
0.025000
 70
   192
  0
VERTEX
  8
BODY_QFN_ncl1_1
 10
-0.400000
 20
-0.350000
 30
0.025000
 70
   192
  0
VERTEX
  8
BODY_QFN_ncl1_1
 10
-0.750000
 20
-0.350000
 30
0.025000
 70
   192
  0
VERTEX
  8
BODY_QFN_ncl1_1
 10
-0.750000
 20
-0.625000
 30
0.025000
 70
   192
  0
VERTEX
  8
BODY_QFN_ncl1_1
 10
-0.400000
 20
-0.625000
 30
0.025000
 70
   192
  0
VERTEX
  8
BODY_QFN_ncl1_1
 10
-0.400000
 20
-0.875000
 30
0.025000
 70
   192
  0
VERTEX
  8
BODY_QFN_ncl1_1
 10
-0.750000
 20
-0.875000
 30
0.025000
 70
   192
  0
VERTEX
  8
BODY_QFN_ncl1_1
 10
-0.750000
 20
-1.000000
 30
0.025000
 70
   192
  0
VERTEX
  8
BODY_QFN_ncl1_1
 10
-0.150000
 20
-1.000000
 30
0.025000
 70
   192
  0
VERTEX
  8
BODY_QFN_ncl1_1
 10
-0.150000
 20
-0.600000
 30
0.025000
 70
   192
  0
VERTEX
  8
BODY_QFN_ncl1_1
 10
0.150000
 20
-0.600000
 30
0.025000
 70
   192
  0
VERTEX
  8
BODY_QFN_ncl1_1
 10
0.150000
 20
-1.000000
 30
0.025000
 70
   192
  0
VERTEX
  8
BODY_QFN_ncl1_1
 10
0.750000
 20
-1.000000
 30
0.025000
 70
   192
  0
VERTEX
  8
BODY_QFN_ncl1_1
 10
0.750000
 20
-0.875000
 30
0.025000
 70
   192
  0
VERTEX
  8
BODY_QFN_ncl1_1
 10
0.400000
 20
-0.875000
 30
0.025000
 70
   192
  0
VERTEX
  8
BODY_QFN_ncl1_1
 10
0.400000
 20
-0.625000
 30
0.025000
 70
   192
  0
VERTEX
  8
BODY_QFN_ncl1_1
 10
0.750000
 20
-0.625000
 30
0.025000
 70
   192
  0
VERTEX
  8
BODY_QFN_ncl1_1
 10
0.750000
 20
-0.350000
 30
0.025000
 70
   192
  0
VERTEX
  8
BODY_QFN_ncl1_1
 10
0.400000
 20
-0.350000
 30
0.025000
 70
   192
  0
VERTEX
  8
BODY_QFN_ncl1_1
 10
0.400000
 20
-0.150000
 30
0.025000
 70
   192
  0
VERTEX
  8
BODY_QFN_ncl1_1
 10
0.750000
 20
-0.150000
 30
0.025000
 70
   192
  0
VERTEX
  8
BODY_QFN_ncl1_1
 10
0.750000
 20
0.150000
 30
0.025000
 70
   192
  0
VERTEX
  8
BODY_QFN_ncl1_1
 10
0.400000
 20
0.150000
 30
0.025000
 70
   192
  0
VERTEX
  8
BODY_QFN_ncl1_1
 10
0.400000
 20
0.350000
 30
0.025000
 70
   192
  0
VERTEX
  8
BODY_QFN_ncl1_1
 10
0.750000
 20
0.350000
 30
0.025000
 70
   192
  0
VERTEX
  8
BODY_QFN_ncl1_1
 10
0.750000
 20
0.625000
 30
0.025000
 70
   192
  0
VERTEX
  8
BODY_QFN_ncl1_1
 10
0.400000
 20
0.625000
 30
0.025000
 70
   192
  0
VERTEX
  8
BODY_QFN_ncl1_1
 10
0.400000
 20
0.875000
 30
0.025000
 70
   192
  0
VERTEX
  8
BODY_QFN_ncl1_1
 10
0.750000
 20
0.875000
 30
0.025000
 70
   192
  0
VERTEX
  8
BODY_QFN_ncl1_1
 10
0.750000
 20
1.000000
 30
0.025000
 70
   192
  0
VERTEX
  8
BODY_QFN_ncl1_1
 10
0.150000
 20
1.000000
 30
0.025000
 70
   192
  0
VERTEX
  8
BODY_QFN_ncl1_1
 10
0.150000
 20
0.600000
 30
0.025000
 70
   192
  0
VERTEX
  8
BODY_QFN_ncl1_1
 10
-0.150000
 20
0.600000
 30
0.025000
 70
   192
  0
VERTEX
  8
BODY_QFN_ncl1_1
 10
-0.150000
 20
1.000000
 30
0.025000
 70
   192
  0
VERTEX
  8
BODY_QFN_ncl1_1
 10
-0.750000
 20
1.000000
 30
0.025000
 70
   192
  0
VERTEX
  8
BODY_QFN_ncl1_1
 10
-0.750000
 20
0.875000
 30
0.120000
 70
   192
  0
VERTEX
  8
BODY_QFN_ncl1_1
 10
-0.500000
 20
0.875000
 30
0.120000
 70
   192
  0
VERTEX
  8
BODY_QFN_ncl1_1
 10
-0.750000
 20
0.625000
 30
0.120000
 70
   192
  0
VERTEX
  8
BODY_QFN_ncl1_1
 10
-0.750000
 20
1.000000
 30
0.600000
 70
   192
  0
VERTEX
  8
BODY_QFN_ncl1_1
 10
-0.750000
 20
-1.000000
 30
0.600000
 70
   192
  0
VERTEX
  8
BODY_QFN_ncl1_1
 10
-0.750000
 20
-0.875000
 30
0.120000
 70
   192
  0
VERTEX
  8
BODY_QFN_ncl1_1
 10
-0.750000
 20
-0.625000
 30
0.120000
 70
   192
  0
VERTEX
  8
BODY_QFN_ncl1_1
 10
-0.750000
 20
-0.350000
 30
0.120000
 70
   192
  0
VERTEX
  8
BODY_QFN_ncl1_1
 10
-0.750000
 20
-0.150000
 30
0.120000
 70
   192
  0
VERTEX
  8
BODY_QFN_ncl1_1
 10
-0.750000
 20
0.150000
 30
0.120000
 70
   192
  0
VERTEX
  8
BODY_QFN_ncl1_1
 10
-0.750000
 20
0.350000
 30
0.120000
 70
   192
  0
VERTEX
  8
BODY_QFN_ncl1_1
 10
-0.400000
 20
0.625000
 30
0.120000
 70
   192
  0
VERTEX
  8
BODY_QFN_ncl1_1
 10
-0.400000
 20
0.775000
 30
0.120000
 70
   192
  0
VERTEX
  8
BODY_QFN_ncl1_1
 10
-0.400000
 20
0.150000
 30
0.120000
 70
   192
  0
VERTEX
  8
BODY_QFN_ncl1_1
 10
-0.400000
 20
0.350000
 30
0.120000
 70
   192
  0
VERTEX
  8
BODY_QFN_ncl1_1
 10
-0.400000
 20
-0.350000
 30
0.120000
 70
   192
  0
VERTEX
  8
BODY_QFN_ncl1_1
 10
-0.400000
 20
-0.150000
 30
0.120000
 70
   192
  0
VERTEX
  8
BODY_QFN_ncl1_1
 10
-0.150000
 20
-1.000000
 30
0.120000
 70
   192
  0
VERTEX
  8
BODY_QFN_ncl1_1
 10
0.150000
 20
-1.000000
 30
0.120000
 70
   192
  0
VERTEX
  8
BODY_QFN_ncl1_1
 10
0.150000
 20
-0.600000
 30
0.120000
 70
   192
  0
VERTEX
  8
BODY_QFN_ncl1_1
 10
-0.150000
 20
-0.600000
 30
0.120000
 70
   192
  0
VERTEX
  8
BODY_QFN_ncl1_1
 10
0.750000
 20
-0.875000
 30
0.120000
 70
   192
  0
VERTEX
  8
BODY_QFN_ncl1_1
 10
0.750000
 20
-0.625000
 30
0.120000
 70
   192
  0
VERTEX
  8
BODY_QFN_ncl1_1
 10
0.400000
 20
-0.625000
 30
0.120000
 70
   192
  0
VERTEX
  8
BODY_QFN_ncl1_1
 10
0.400000
 20
-0.875000
 30
0.120000
 70
   192
  0
VERTEX
  8
BODY_QFN_ncl1_1
 10
0.750000
 20
-0.350000
 30
0.120000
 70
   192
  0
VERTEX
  8
BODY_QFN_ncl1_1
 10
0.750000
 20
-0.150000
 30
0.120000
 70
   192
  0
VERTEX
  8
BODY_QFN_ncl1_1
 10
0.400000
 20
-0.150000
 30
0.120000
 70
   192
  0
VERTEX
  8
BODY_QFN_ncl1_1
 10
0.400000
 20
-0.350000
 30
0.120000
 70
   192
  0
VERTEX
  8
BODY_QFN_ncl1_1
 10
0.750000
 20
0.150000
 30
0.120000
 70
   192
  0
VERTEX
  8
BODY_QFN_ncl1_1
 10
0.750000
 20
0.350000
 30
0.120000
 70
   192
  0
VERTEX
  8
BODY_QFN_ncl1_1
 10
0.400000
 20
0.350000
 30
0.120000
 70
   192
  0
VERTEX
  8
BODY_QFN_ncl1_1
 10
0.400000
 20
0.150000
 30
0.120000
 70
   192
  0
VERTEX
  8
BODY_QFN_ncl1_1
 10
0.150000
 20
1.000000
 30
0.120000
 70
   192
  0
VERTEX
  8
BODY_QFN_ncl1_1
 10
-0.150000
 20
1.000000
 30
0.120000
 70
   192
  0
VERTEX
  8
BODY_QFN_ncl1_1
 10
-0.150000
 20
0.600000
 30
0.120000
 70
   192
  0
VERTEX
  8
BODY_QFN_ncl1_1
 10
0.150000
 20
0.600000
 30
0.120000
 70
   192
  0
VERTEX
  8
BODY_QFN_ncl1_1
 10
0.400000
 20
0.875000
 30
0.120000
 70
   192
  0
VERTEX
  8
BODY_QFN_ncl1_1
 10
0.750000
 20
0.875000
 30
0.120000
 70
   192
  0
VERTEX
  8
BODY_QFN_ncl1_1
 10
0.400000
 20
0.625000
 30
0.120000
 70
   192
  0
VERTEX
  8
BODY_QFN_ncl1_1
 10
0.750000
 20
0.625000
 30
0.120000
 70
   192
  0
VERTEX
  8
BODY_QFN_ncl1_1
 10
-0.400000
 20
-0.875000
 30
0.120000
 70
   192
  0
VERTEX
  8
BODY_QFN_ncl1_1
 10
-0.400000
 20
-0.625000
 30
0.120000
 70
   192
  0
VERTEX
  8
BODY_QFN_ncl1_1
 10
0.750000
 20
-1.000000
 30
0.600000
 70
   192
  0
VERTEX
  8
BODY_QFN_ncl1_1
 10
0.750000
 20
1.000000
 30
0.600000
 70
   192
  0
VERTEX
  8
BODY_QFN_ncl1_1
 62
   250
 10
0.0
 20
0.0
 30
0.0
 70
   128
 71
   2
 72
   3
 73
   44
  0
VERTEX
  8
BODY_QFN_ncl1_1
 62
   250
 10
0.0
 20
0.0
 30
0.0
 70
   128
 71
   7
 72
   4
 73
   6
  0
VERTEX
  8
BODY_QFN_ncl1_1
 62
   250
 10
0.0
 20
0.0
 30
0.0
 70
   128
 71
   4
 72
   5
 73
   6
  0
VERTEX
  8
BODY_QFN_ncl1_1
 62
   250
 10
0.0
 20
0.0
 30
0.0
 70
   128
 71
   21
 72
   26
 73
   29
  0
VERTEX
  8
BODY_QFN_ncl1_1
 62
   250
 10
0.0
 20
0.0
 30
0.0
 70
   128
 71
   11
 72
   8
 73
   10
  0
VERTEX
  8
BODY_QFN_ncl1_1
 62
   250
 10
0.0
 20
0.0
 30
0.0
 70
   128
 71
   8
 72
   9
 73
   10
  0
VERTEX
  8
BODY_QFN_ncl1_1
 62
   250
 10
0.0
 20
0.0
 30
0.0
 70
   128
 71
   8
 72
   11
 73
   30
  0
VERTEX
  8
BODY_QFN_ncl1_1
 62
   250
 10
0.0
 20
0.0
 30
0.0
 70
   128
 71
   15
 72
   12
 73
   14
  0
VERTEX
  8
BODY_QFN_ncl1_1
 62
   250
 10
0.0
 20
0.0
 30
0.0
 70
   128
 71
   12
 72
   13
 73
   14
  0
VERTEX
  8
BODY_QFN_ncl1_1
 62
   250
 10
0.0
 20
0.0
 30
0.0
 70
   128
 71
   11
 72
   12
 73
   20
  0
VERTEX
  8
BODY_QFN_ncl1_1
 62
   250
 10
0.0
 20
0.0
 30
0.0
 70
   128
 71
   12
 72
   15
 73
   20
  0
VERTEX
  8
BODY_QFN_ncl1_1
 62
   250
 10
0.0
 20
0.0
 30
0.0
 70
   128
 71
   19
 72
   16
 73
   18
  0
VERTEX
  8
BODY_QFN_ncl1_1
 62
   250
 10
0.0
 20
0.0
 30
0.0
 70
   128
 71
   16
 72
   17
 73
   18
  0
VERTEX
  8
BODY_QFN_ncl1_1
 62
   250
 10
0.0
 20
0.0
 30
0.0
 70
   128
 71
   15
 72
   16
 73
   20
  0
VERTEX
  8
BODY_QFN_ncl1_1
 62
   250
 10
0.0
 20
0.0
 30
0.0
 70
   128
 71
   8
 72
   33
 73
   42
  0
VERTEX
  8
BODY_QFN_ncl1_1
 62
   250
 10
0.0
 20
0.0
 30
0.0
 70
   128
 71
   16
 72
   19
 73
   20
  0
VERTEX
  8
BODY_QFN_ncl1_1
 62
   250
 10
0.0
 20
0.0
 30
0.0
 70
   128
 71
   11
 72
   20
 73
   21
  0
VERTEX
  8
BODY_QFN_ncl1_1
 62
   250
 10
0.0
 20
0.0
 30
0.0
 70
   128
 71
   3
 72
   4
 73
   43
  0
VERTEX
  8
BODY_QFN_ncl1_1
 62
   250
 10
0.0
 20
0.0
 30
0.0
 70
   128
 71
   26
 72
   21
 73
   25
  0
VERTEX
  8
BODY_QFN_ncl1_1
 62
   250
 10
0.0
 20
0.0
 30
0.0
 70
   128
 71
   22
 72
   23
 73
   25
  0
VERTEX
  8
BODY_QFN_ncl1_1
 62
   250
 10
0.0
 20
0.0
 30
0.0
 70
   128
 71
   21
 72
   22
 73
   25
  0
VERTEX
  8
BODY_QFN_ncl1_1
 62
   250
 10
0.0
 20
0.0
 30
0.0
 70
   128
 71
   23
 72
   24
 73
   25
  0
VERTEX
  8
BODY_QFN_ncl1_1
 62
   250
 10
0.0
 20
0.0
 30
0.0
 70
   128
 71
   7
 72
   8
 73
   43
  0
VERTEX
  8
BODY_QFN_ncl1_1
 62
   250
 10
0.0
 20
0.0
 30
0.0
 70
   128
 71
   40
 72
   41
 73
   38
  0
VERTEX
  8
BODY_QFN_ncl1_1
 62
   250
 10
0.0
 20
0.0
 30
0.0
 70
   128
 71
   26
 72
   27
 73
   28
  0
VERTEX
  8
BODY_QFN_ncl1_1
 62
   250
 10
0.0
 20
0.0
 30
0.0
 70
   128
 71
   11
 72
   21
 73
   30
  0
VERTEX
  8
BODY_QFN_ncl1_1
 62
   250
 10
0.0
 20
0.0
 30
0.0
 70
   128
 71
   26
 72
   28
 73
   29
  0
VERTEX
  8
BODY_QFN_ncl1_1
 62
   250
 10
0.0
 20
0.0
 30
0.0
 70
   128
 71
   21
 72
   29
 73
   30
  0
VERTEX
  8
BODY_QFN_ncl1_1
 62
   250
 10
0.0
 20
0.0
 30
0.0
 70
   128
 71
   30
 72
   31
 73
   32
  0
VERTEX
  8
BODY_QFN_ncl1_1
 62
   250
 10
0.0
 20
0.0
 30
0.0
 70
   128
 71
   8
 72
   30
 73
   33
  0
VERTEX
  8
BODY_QFN_ncl1_1
 62
   250
 10
0.0
 20
0.0
 30
0.0
 70
   128
 71
   30
 72
   32
 73
   33
  0
VERTEX
  8
BODY_QFN_ncl1_1
 62
   250
 10
0.0
 20
0.0
 30
0.0
 70
   128
 71
   34
 72
   35
 73
   36
  0
VERTEX
  8
BODY_QFN_ncl1_1
 62
   250
 10
0.0
 20
0.0
 30
0.0
 70
   128
 71
   3
 72
   43
 73
   44
  0
VERTEX
  8
BODY_QFN_ncl1_1
 62
   250
 10
0.0
 20
0.0
 30
0.0
 70
   128
 71
   34
 72
   36
 73
   37
  0
VERTEX
  8
BODY_QFN_ncl1_1
 62
   250
 10
0.0
 20
0.0
 30
0.0
 70
   128
 71
   42
 72
   38
 73
   41
  0
VERTEX
  8
BODY_QFN_ncl1_1
 62
   250
 10
0.0
 20
0.0
 30
0.0
 70
   128
 71
   38
 72
   39
 73
   40
  0
VERTEX
  8
BODY_QFN_ncl1_1
 62
   250
 10
0.0
 20
0.0
 30
0.0
 70
   128
 71
   37
 72
   38
 73
   42
  0
VERTEX
  8
BODY_QFN_ncl1_1
 62
   250
 10
0.0
 20
0.0
 30
0.0
 70
   128
 71
   33
 72
   34
 73
   42
  0
VERTEX
  8
BODY_QFN_ncl1_1
 62
   250
 10
0.0
 20
0.0
 30
0.0
 70
   128
 71
   34
 72
   37
 73
   42
  0
VERTEX
  8
BODY_QFN_ncl1_1
 62
   250
 10
0.0
 20
0.0
 30
0.0
 70
   128
 71
   4
 72
   7
 73
   43
  0
VERTEX
  8
BODY_QFN_ncl1_1
 62
   250
 10
0.0
 20
0.0
 30
0.0
 70
   128
 71
   8
 72
   42
 73
   43
  0
VERTEX
  8
BODY_QFN_ncl1_1
 62
   250
 10
0.0
 20
0.0
 30
0.0
 70
   128
 71
   1
 72
   2
 73
   45
  0
VERTEX
  8
BODY_QFN_ncl1_1
 62
   250
 10
0.0
 20
0.0
 30
0.0
 70
   128
 71
   2
 72
   44
 73
   45
  0
VERTEX
  8
BODY_QFN_ncl1_1
 62
   250
 10
0.0
 20
0.0
 30
0.0
 70
   128
 71
   2
 72
   1
 73
   46
  0
VERTEX
  8
BODY_QFN_ncl1_1
 62
   250
 10
0.0
 20
0.0
 30
0.0
 70
   128
 71
   2
 72
   46
 73
   47
  0
VERTEX
  8
BODY_QFN_ncl1_1
 62
   250
 10
0.0
 20
0.0
 30
0.0
 70
   128
 71
   48
 72
   49
 73
   56
  0
VERTEX
  8
BODY_QFN_ncl1_1
 62
   250
 10
0.0
 20
0.0
 30
0.0
 70
   128
 71
   5
 72
   48
 73
   6
  0
VERTEX
  8
BODY_QFN_ncl1_1
 62
   250
 10
0.0
 20
0.0
 30
0.0
 70
   128
 71
   6
 72
   48
 73
   56
  0
VERTEX
  8
BODY_QFN_ncl1_1
 62
   250
 10
0.0
 20
0.0
 30
0.0
 70
   128
 71
   56
 72
   49
 73
   55
  0
VERTEX
  8
BODY_QFN_ncl1_1
 62
   250
 10
0.0
 20
0.0
 30
0.0
 70
   128
 71
   55
 72
   49
 73
   50
  0
VERTEX
  8
BODY_QFN_ncl1_1
 62
   250
 10
0.0
 20
0.0
 30
0.0
 70
   128
 71
   9
 72
   55
 73
   10
  0
VERTEX
  8
BODY_QFN_ncl1_1
 62
   250
 10
0.0
 20
0.0
 30
0.0
 70
   128
 71
   10
 72
   55
 73
   54
  0
VERTEX
  8
BODY_QFN_ncl1_1
 62
   250
 10
0.0
 20
0.0
 30
0.0
 70
   128
 71
   54
 72
   55
 73
   50
  0
VERTEX
  8
BODY_QFN_ncl1_1
 62
   250
 10
0.0
 20
0.0
 30
0.0
 70
   128
 71
   53
 72
   54
 73
   50
  0
VERTEX
  8
BODY_QFN_ncl1_1
 62
   250
 10
0.0
 20
0.0
 30
0.0
 70
   128
 71
   13
 72
   53
 73
   14
  0
VERTEX
  8
BODY_QFN_ncl1_1
 62
   250
 10
0.0
 20
0.0
 30
0.0
 70
   128
 71
   14
 72
   53
 73
   52
  0
VERTEX
  8
BODY_QFN_ncl1_1
 62
   250
 10
0.0
 20
0.0
 30
0.0
 70
   128
 71
   52
 72
   53
 73
   50
  0
VERTEX
  8
BODY_QFN_ncl1_1
 62
   250
 10
0.0
 20
0.0
 30
0.0
 70
   128
 71
   51
 72
   50
 73
   18
  0
VERTEX
  8
BODY_QFN_ncl1_1
 62
   250
 10
0.0
 20
0.0
 30
0.0
 70
   128
 71
   17
 72
   51
 73
   18
  0
VERTEX
  8
BODY_QFN_ncl1_1
 62
   250
 10
0.0
 20
0.0
 30
0.0
 70
   128
 71
   51
 72
   52
 73
   50
  0
VERTEX
  8
BODY_QFN_ncl1_1
 62
   250
 10
0.0
 20
0.0
 30
0.0
 70
   128
 71
   45
 72
   49
 73
   46
  0
VERTEX
  8
BODY_QFN_ncl1_1
 62
   250
 10
0.0
 20
0.0
 30
0.0
 70
   128
 71
   49
 72
   48
 73
   46
  0
VERTEX
  8
BODY_QFN_ncl1_1
 62
   250
 10
0.0
 20
0.0
 30
0.0
 70
   128
 71
   1
 72
   45
 73
   46
  0
VERTEX
  8
BODY_QFN_ncl1_1
 62
   250
 10
0.0
 20
0.0
 30
0.0
 70
   128
 71
   46
 72
   48
 73
   47
  0
VERTEX
  8
BODY_QFN_ncl1_1
 62
   250
 10
0.0
 20
0.0
 30
0.0
 70
   128
 71
   48
 72
   57
 73
   58
  0
VERTEX
  8
BODY_QFN_ncl1_1
 62
   250
 10
0.0
 20
0.0
 30
0.0
 70
   128
 71
   48
 72
   58
 73
   47
  0
VERTEX
  8
BODY_QFN_ncl1_1
 62
   250
 10
0.0
 20
0.0
 30
0.0
 70
   128
 71
   56
 72
   55
 73
   59
  0
VERTEX
  8
BODY_QFN_ncl1_1
 62
   250
 10
0.0
 20
0.0
 30
0.0
 70
   128
 71
   56
 72
   59
 73
   60
  0
VERTEX
  8
BODY_QFN_ncl1_1
 62
   250
 10
0.0
 20
0.0
 30
0.0
 70
   128
 71
   54
 72
   53
 73
   61
  0
VERTEX
  8
BODY_QFN_ncl1_1
 62
   250
 10
0.0
 20
0.0
 30
0.0
 70
   128
 71
   54
 72
   61
 73
   62
  0
VERTEX
  8
BODY_QFN_ncl1_1
 62
   250
 10
0.0
 20
0.0
 30
0.0
 70
   128
 71
   63
 72
   64
 73
   65
  0
VERTEX
  8
BODY_QFN_ncl1_1
 62
   250
 10
0.0
 20
0.0
 30
0.0
 70
   128
 71
   63
 72
   65
 73
   66
  0
VERTEX
  8
BODY_QFN_ncl1_1
 62
   250
 10
0.0
 20
0.0
 30
0.0
 70
   128
 71
   67
 72
   68
 73
   69
  0
VERTEX
  8
BODY_QFN_ncl1_1
 62
   250
 10
0.0
 20
0.0
 30
0.0
 70
   128
 71
   67
 72
   69
 73
   70
  0
VERTEX
  8
BODY_QFN_ncl1_1
 62
   250
 10
0.0
 20
0.0
 30
0.0
 70
   128
 71
   71
 72
   72
 73
   73
  0
VERTEX
  8
BODY_QFN_ncl1_1
 62
   250
 10
0.0
 20
0.0
 30
0.0
 70
   128
 71
   71
 72
   73
 73
   74
  0
VERTEX
  8
BODY_QFN_ncl1_1
 62
   250
 10
0.0
 20
0.0
 30
0.0
 70
   128
 71
   75
 72
   76
 73
   77
  0
VERTEX
  8
BODY_QFN_ncl1_1
 62
   250
 10
0.0
 20
0.0
 30
0.0
 70
   128
 71
   75
 72
   77
 73
   78
  0
VERTEX
  8
BODY_QFN_ncl1_1
 62
   250
 10
0.0
 20
0.0
 30
0.0
 70
   128
 71
   82
 72
   79
 73
   81
  0
VERTEX
  8
BODY_QFN_ncl1_1
 62
   250
 10
0.0
 20
0.0
 30
0.0
 70
   128
 71
   79
 72
   80
 73
   81
  0
VERTEX
  8
BODY_QFN_ncl1_1
 62
   250
 10
0.0
 20
0.0
 30
0.0
 70
   128
 71
   84
 72
   83
 73
   85
  0
VERTEX
  8
BODY_QFN_ncl1_1
 62
   250
 10
0.0
 20
0.0
 30
0.0
 70
   128
 71
   84
 72
   85
 73
   86
  0
VERTEX
  8
BODY_QFN_ncl1_1
 62
   250
 10
0.0
 20
0.0
 30
0.0
 70
   128
 71
   52
 72
   51
 73
   87
  0
VERTEX
  8
BODY_QFN_ncl1_1
 62
   250
 10
0.0
 20
0.0
 30
0.0
 70
   128
 71
   52
 72
   87
 73
   88
  0
VERTEX
  8
BODY_QFN_ncl1_1
 62
   250
 10
0.0
 20
0.0
 30
0.0
 70
   128
 71
   5
 72
   4
 73
   57
  0
VERTEX
  8
BODY_QFN_ncl1_1
 62
   250
 10
0.0
 20
0.0
 30
0.0
 70
   128
 71
   5
 72
   57
 73
   48
  0
VERTEX
  8
BODY_QFN_ncl1_1
 62
   250
 10
0.0
 20
0.0
 30
0.0
 70
   128
 71
   4
 72
   3
 73
   58
  0
VERTEX
  8
BODY_QFN_ncl1_1
 62
   250
 10
0.0
 20
0.0
 30
0.0
 70
   128
 71
   4
 72
   58
 73
   57
  0
VERTEX
  8
BODY_QFN_ncl1_1
 62
   250
 10
0.0
 20
0.0
 30
0.0
 70
   128
 71
   3
 72
   2
 73
   47
  0
VERTEX
  8
BODY_QFN_ncl1_1
 62
   250
 10
0.0
 20
0.0
 30
0.0
 70
   128
 71
   3
 72
   47
 73
   58
  0
VERTEX
  8
BODY_QFN_ncl1_1
 62
   250
 10
0.0
 20
0.0
 30
0.0
 70
   128
 71
   55
 72
   9
 73
   59
  0
VERTEX
  8
BODY_QFN_ncl1_1
 62
   250
 10
0.0
 20
0.0
 30
0.0
 70
   128
 71
   59
 72
   9
 73
   8
  0
VERTEX
  8
BODY_QFN_ncl1_1
 62
   250
 10
0.0
 20
0.0
 30
0.0
 70
   128
 71
   8
 72
   7
 73
   60
  0
VERTEX
  8
BODY_QFN_ncl1_1
 62
   250
 10
0.0
 20
0.0
 30
0.0
 70
   128
 71
   8
 72
   60
 73
   59
  0
VERTEX
  8
BODY_QFN_ncl1_1
 62
   250
 10
0.0
 20
0.0
 30
0.0
 70
   128
 71
   60
 72
   7
 73
   56
  0
VERTEX
  8
BODY_QFN_ncl1_1
 62
   250
 10
0.0
 20
0.0
 30
0.0
 70
   128
 71
   56
 72
   7
 73
   6
  0
VERTEX
  8
BODY_QFN_ncl1_1
 62
   250
 10
0.0
 20
0.0
 30
0.0
 70
   128
 71
   53
 72
   13
 73
   61
  0
VERTEX
  8
BODY_QFN_ncl1_1
 62
   250
 10
0.0
 20
0.0
 30
0.0
 70
   128
 71
   61
 72
   13
 73
   12
  0
VERTEX
  8
BODY_QFN_ncl1_1
 62
   250
 10
0.0
 20
0.0
 30
0.0
 70
   128
 71
   12
 72
   11
 73
   62
  0
VERTEX
  8
BODY_QFN_ncl1_1
 62
   250
 10
0.0
 20
0.0
 30
0.0
 70
   128
 71
   12
 72
   62
 73
   61
  0
VERTEX
  8
BODY_QFN_ncl1_1
 62
   250
 10
0.0
 20
0.0
 30
0.0
 70
   128
 71
   62
 72
   11
 73
   54
  0
VERTEX
  8
BODY_QFN_ncl1_1
 62
   250
 10
0.0
 20
0.0
 30
0.0
 70
   128
 71
   54
 72
   11
 73
   10
  0
VERTEX
  8
BODY_QFN_ncl1_1
 62
   250
 10
0.0
 20
0.0
 30
0.0
 70
   128
 71
   64
 72
   50
 73
   89
  0
VERTEX
  8
BODY_QFN_ncl1_1
 62
   250
 10
0.0
 20
0.0
 30
0.0
 70
   128
 71
   22
 72
   64
 73
   23
  0
VERTEX
  8
BODY_QFN_ncl1_1
 62
   250
 10
0.0
 20
0.0
 30
0.0
 70
   128
 71
   23
 72
   64
 73
   89
  0
VERTEX
  8
BODY_QFN_ncl1_1
 62
   250
 10
0.0
 20
0.0
 30
0.0
 70
   128
 71
   18
 72
   50
 73
   63
  0
VERTEX
  8
BODY_QFN_ncl1_1
 62
   250
 10
0.0
 20
0.0
 30
0.0
 70
   128
 71
   50
 72
   64
 73
   63
  0
VERTEX
  8
BODY_QFN_ncl1_1
 62
   250
 10
0.0
 20
0.0
 30
0.0
 70
   128
 71
   19
 72
   18
 73
   63
  0
VERTEX
  8
BODY_QFN_ncl1_1
 62
   250
 10
0.0
 20
0.0
 30
0.0
 70
   128
 71
   66
 72
   20
 73
   63
  0
VERTEX
  8
BODY_QFN_ncl1_1
 62
   250
 10
0.0
 20
0.0
 30
0.0
 70
   128
 71
   63
 72
   20
 73
   19
  0
VERTEX
  8
BODY_QFN_ncl1_1
 62
   250
 10
0.0
 20
0.0
 30
0.0
 70
   128
 71
   65
 72
   21
 73
   66
  0
VERTEX
  8
BODY_QFN_ncl1_1
 62
   250
 10
0.0
 20
0.0
 30
0.0
 70
   128
 71
   66
 72
   21
 73
   20
  0
VERTEX
  8
BODY_QFN_ncl1_1
 62
   250
 10
0.0
 20
0.0
 30
0.0
 70
   128
 71
   64
 72
   22
 73
   65
  0
VERTEX
  8
BODY_QFN_ncl1_1
 62
   250
 10
0.0
 20
0.0
 30
0.0
 70
   128
 71
   65
 72
   22
 73
   21
  0
VERTEX
  8
BODY_QFN_ncl1_1
 62
   250
 10
0.0
 20
0.0
 30
0.0
 70
   128
 71
   89
 72
   50
 73
   90
  0
VERTEX
  8
BODY_QFN_ncl1_1
 62
   250
 10
0.0
 20
0.0
 30
0.0
 70
   128
 71
   90
 72
   50
 73
   49
  0
VERTEX
  8
BODY_QFN_ncl1_1
 62
   250
 10
0.0
 20
0.0
 30
0.0
 70
   128
 71
   80
 72
   90
 73
   49
  0
VERTEX
  8
BODY_QFN_ncl1_1
 62
   250
 10
0.0
 20
0.0
 30
0.0
 70
   128
 71
   44
 72
   80
 73
   45
  0
VERTEX
  8
BODY_QFN_ncl1_1
 62
   250
 10
0.0
 20
0.0
 30
0.0
 70
   128
 71
   45
 72
   80
 73
   49
  0
VERTEX
  8
BODY_QFN_ncl1_1
 62
   250
 10
0.0
 20
0.0
 30
0.0
 70
   128
 71
   40
 72
   90
 73
   79
  0
VERTEX
  8
BODY_QFN_ncl1_1
 62
   250
 10
0.0
 20
0.0
 30
0.0
 70
   128
 71
   90
 72
   80
 73
   79
  0
VERTEX
  8
BODY_QFN_ncl1_1
 62
   250
 10
0.0
 20
0.0
 30
0.0
 70
   128
 71
   41
 72
   40
 73
   79
  0
VERTEX
  8
BODY_QFN_ncl1_1
 62
   250
 10
0.0
 20
0.0
 30
0.0
 70
   128
 71
   42
 72
   41
 73
   79
  0
VERTEX
  8
BODY_QFN_ncl1_1
 62
   250
 10
0.0
 20
0.0
 30
0.0
 70
   128
 71
   42
 72
   79
 73
   82
  0
VERTEX
  8
BODY_QFN_ncl1_1
 62
   250
 10
0.0
 20
0.0
 30
0.0
 70
   128
 71
   43
 72
   42
 73
   82
  0
VERTEX
  8
BODY_QFN_ncl1_1
 62
   250
 10
0.0
 20
0.0
 30
0.0
 70
   128
 71
   43
 72
   82
 73
   81
  0
VERTEX
  8
BODY_QFN_ncl1_1
 62
   250
 10
0.0
 20
0.0
 30
0.0
 70
   128
 71
   44
 72
   43
 73
   81
  0
VERTEX
  8
BODY_QFN_ncl1_1
 62
   250
 10
0.0
 20
0.0
 30
0.0
 70
   128
 71
   44
 72
   81
 73
   80
  0
VERTEX
  8
BODY_QFN_ncl1_1
 62
   250
 10
0.0
 20
0.0
 30
0.0
 70
   128
 71
   68
 72
   89
 73
   71
  0
VERTEX
  8
BODY_QFN_ncl1_1
 62
   250
 10
0.0
 20
0.0
 30
0.0
 70
   128
 71
   27
 72
   68
 73
   28
  0
VERTEX
  8
BODY_QFN_ncl1_1
 62
   250
 10
0.0
 20
0.0
 30
0.0
 70
   128
 71
   28
 72
   68
 73
   71
  0
VERTEX
  8
BODY_QFN_ncl1_1
 62
   250
 10
0.0
 20
0.0
 30
0.0
 70
   128
 71
   71
 72
   89
 73
   72
  0
VERTEX
  8
BODY_QFN_ncl1_1
 62
   250
 10
0.0
 20
0.0
 30
0.0
 70
   128
 71
   72
 72
   89
 73
   90
  0
VERTEX
  8
BODY_QFN_ncl1_1
 62
   250
 10
0.0
 20
0.0
 30
0.0
 70
   128
 71
   31
 72
   72
 73
   32
  0
VERTEX
  8
BODY_QFN_ncl1_1
 62
   250
 10
0.0
 20
0.0
 30
0.0
 70
   128
 71
   32
 72
   72
 73
   75
  0
VERTEX
  8
BODY_QFN_ncl1_1
 62
   250
 10
0.0
 20
0.0
 30
0.0
 70
   128
 71
   75
 72
   72
 73
   90
  0
VERTEX
  8
BODY_QFN_ncl1_1
 62
   250
 10
0.0
 20
0.0
 30
0.0
 70
   128
 71
   76
 72
   75
 73
   90
  0
VERTEX
  8
BODY_QFN_ncl1_1
 62
   250
 10
0.0
 20
0.0
 30
0.0
 70
   128
 71
   35
 72
   76
 73
   36
  0
VERTEX
  8
BODY_QFN_ncl1_1
 62
   250
 10
0.0
 20
0.0
 30
0.0
 70
   128
 71
   36
 72
   76
 73
   86
  0
VERTEX
  8
BODY_QFN_ncl1_1
 62
   250
 10
0.0
 20
0.0
 30
0.0
 70
   128
 71
   86
 72
   76
 73
   90
  0
VERTEX
  8
BODY_QFN_ncl1_1
 62
   250
 10
0.0
 20
0.0
 30
0.0
 70
   128
 71
   84
 72
   90
 73
   40
  0
VERTEX
  8
BODY_QFN_ncl1_1
 62
   250
 10
0.0
 20
0.0
 30
0.0
 70
   128
 71
   39
 72
   84
 73
   40
  0
VERTEX
  8
BODY_QFN_ncl1_1
 62
   250
 10
0.0
 20
0.0
 30
0.0
 70
   128
 71
   84
 72
   86
 73
   90
  0
VERTEX
  8
BODY_QFN_ncl1_1
 62
   250
 10
0.0
 20
0.0
 30
0.0
 70
   128
 71
   23
 72
   89
 73
   67
  0
VERTEX
  8
BODY_QFN_ncl1_1
 62
   250
 10
0.0
 20
0.0
 30
0.0
 70
   128
 71
   89
 72
   68
 73
   67
  0
VERTEX
  8
BODY_QFN_ncl1_1
 62
   250
 10
0.0
 20
0.0
 30
0.0
 70
   128
 71
   24
 72
   23
 73
   67
  0
VERTEX
  8
BODY_QFN_ncl1_1
 62
   250
 10
0.0
 20
0.0
 30
0.0
 70
   128
 71
   70
 72
   25
 73
   67
  0
VERTEX
  8
BODY_QFN_ncl1_1
 62
   250
 10
0.0
 20
0.0
 30
0.0
 70
   128
 71
   67
 72
   25
 73
   24
  0
VERTEX
  8
BODY_QFN_ncl1_1
 62
   250
 10
0.0
 20
0.0
 30
0.0
 70
   128
 71
   69
 72
   26
 73
   70
  0
VERTEX
  8
BODY_QFN_ncl1_1
 62
   250
 10
0.0
 20
0.0
 30
0.0
 70
   128
 71
   70
 72
   26
 73
   25
  0
VERTEX
  8
BODY_QFN_ncl1_1
 62
   250
 10
0.0
 20
0.0
 30
0.0
 70
   128
 71
   68
 72
   27
 73
   69
  0
VERTEX
  8
BODY_QFN_ncl1_1
 62
   250
 10
0.0
 20
0.0
 30
0.0
 70
   128
 71
   69
 72
   27
 73
   26
  0
VERTEX
  8
BODY_QFN_ncl1_1
 62
   250
 10
0.0
 20
0.0
 30
0.0
 70
   128
 71
   84
 72
   39
 73
   83
  0
VERTEX
  8
BODY_QFN_ncl1_1
 62
   250
 10
0.0
 20
0.0
 30
0.0
 70
   128
 71
   83
 72
   39
 73
   38
  0
VERTEX
  8
BODY_QFN_ncl1_1
 62
   250
 10
0.0
 20
0.0
 30
0.0
 70
   128
 71
   83
 72
   38
 73
   85
  0
VERTEX
  8
BODY_QFN_ncl1_1
 62
   250
 10
0.0
 20
0.0
 30
0.0
 70
   128
 71
   85
 72
   38
 73
   37
  0
VERTEX
  8
BODY_QFN_ncl1_1
 62
   250
 10
0.0
 20
0.0
 30
0.0
 70
   128
 71
   85
 72
   37
 73
   86
  0
VERTEX
  8
BODY_QFN_ncl1_1
 62
   250
 10
0.0
 20
0.0
 30
0.0
 70
   128
 71
   86
 72
   37
 73
   36
  0
VERTEX
  8
BODY_QFN_ncl1_1
 62
   250
 10
0.0
 20
0.0
 30
0.0
 70
   128
 71
   76
 72
   35
 73
   77
  0
VERTEX
  8
BODY_QFN_ncl1_1
 62
   250
 10
0.0
 20
0.0
 30
0.0
 70
   128
 71
   77
 72
   35
 73
   34
  0
VERTEX
  8
BODY_QFN_ncl1_1
 62
   250
 10
0.0
 20
0.0
 30
0.0
 70
   128
 71
   77
 72
   34
 73
   78
  0
VERTEX
  8
BODY_QFN_ncl1_1
 62
   250
 10
0.0
 20
0.0
 30
0.0
 70
   128
 71
   78
 72
   34
 73
   33
  0
VERTEX
  8
BODY_QFN_ncl1_1
 62
   250
 10
0.0
 20
0.0
 30
0.0
 70
   128
 71
   78
 72
   33
 73
   75
  0
VERTEX
  8
BODY_QFN_ncl1_1
 62
   250
 10
0.0
 20
0.0
 30
0.0
 70
   128
 71
   75
 72
   33
 73
   32
  0
VERTEX
  8
BODY_QFN_ncl1_1
 62
   250
 10
0.0
 20
0.0
 30
0.0
 70
   128
 71
   72
 72
   31
 73
   73
  0
VERTEX
  8
BODY_QFN_ncl1_1
 62
   250
 10
0.0
 20
0.0
 30
0.0
 70
   128
 71
   73
 72
   31
 73
   30
  0
VERTEX
  8
BODY_QFN_ncl1_1
 62
   250
 10
0.0
 20
0.0
 30
0.0
 70
   128
 71
   73
 72
   30
 73
   74
  0
VERTEX
  8
BODY_QFN_ncl1_1
 62
   250
 10
0.0
 20
0.0
 30
0.0
 70
   128
 71
   74
 72
   30
 73
   29
  0
VERTEX
  8
BODY_QFN_ncl1_1
 62
   250
 10
0.0
 20
0.0
 30
0.0
 70
   128
 71
   74
 72
   29
 73
   71
  0
VERTEX
  8
BODY_QFN_ncl1_1
 62
   250
 10
0.0
 20
0.0
 30
0.0
 70
   128
 71
   71
 72
   29
 73
   28
  0
VERTEX
  8
BODY_QFN_ncl1_1
 62
   250
 10
0.0
 20
0.0
 30
0.0
 70
   128
 71
   17
 72
   16
 73
   87
  0
VERTEX
  8
BODY_QFN_ncl1_1
 62
   250
 10
0.0
 20
0.0
 30
0.0
 70
   128
 71
   17
 72
   87
 73
   51
  0
VERTEX
  8
BODY_QFN_ncl1_1
 62
   250
 10
0.0
 20
0.0
 30
0.0
 70
   128
 71
   16
 72
   15
 73
   88
  0
VERTEX
  8
BODY_QFN_ncl1_1
 62
   250
 10
0.0
 20
0.0
 30
0.0
 70
   128
 71
   16
 72
   88
 73
   87
  0
VERTEX
  8
BODY_QFN_ncl1_1
 62
   250
 10
0.0
 20
0.0
 30
0.0
 70
   128
 71
   15
 72
   14
 73
   52
  0
VERTEX
  8
BODY_QFN_ncl1_1
 62
   250
 10
0.0
 20
0.0
 30
0.0
 70
   128
 71
   15
 72
   52
 73
   88
  0
SEQEND
  0
ENDSEC
  0
EOF
