999
FBX AutoCAD (*.DXF) exporter
  0
SECTION
  2
HEADER
  9
$ACADVER
  1
AC1008
  9
$UCSORG
 10
0.0
 20
0.0
 30
0.0
  9
$UCSXDIR
 10
1.0
 20
0.0
 30
0.0
  9
$TILEMODE
 70
   1
  9
$UCSYDIR
 10
0.0
 20
1.0
 30
0.0
  0
ENDSEC
  0
SECTION
  2
TABLES
  0
TABLE
  2
LTYPE
 70
   1
  0
LTYPE
  2
CONTINUOUS
 70
   64
  3
Solid line
 72
   65
 73
   0
 40
0.0
  0
ENDTAB
  0
TABLE
  2
LAYER
 70
   12
  0
LAYER
  2
solidBody
 70
   0
 62
   251
  6
CONTINUOUS
  0
LAYER
  2
Triangle_Set
 70
   0
 62
   255
  6
CONTINUOUS
  0
LAYER
  2
Triangle_Set_ncl2_
 70
   0
 62
   255
  6
CONTINUOUS
  0
LAYER
  2
Triangle_Set_ncl2__ncl1_1
 70
   0
 62
   255
  6
CONTINUOUS
  0
LAYER
  2
Triangle_Set_ncl2__ncl1_2
 70
   0
 62
   255
  6
CONTINUOUS
  0
LAYER
  2
Triangle_Set_ncl1_1
 70
   0
 62
   255
  6
CONTINUOUS
  0
LAYER
  2
Triangle_Set_ncl1_2
 70
   0
 62
   255
  6
CONTINUOUS
  0
LAYER
  2
Triangle_Set_ncl1_3
 70
   0
 62
   255
  6
CONTINUOUS
  0
LAYER
  2
Triangle_Set_ncl1_4
 70
   0
 62
   255
  6
CONTINUOUS
  0
LAYER
  2
solidTop
 70
   0
 62
   250
  6
CONTINUOUS
  0
ENDTAB
  0
ENDSEC
  0
SECTION
  2
BLOCKS
  0
ENDSEC
  0
SECTION
  2
ENTITIES
  0
POLYLINE
  8
solidBody
 62
   251
 66
   1
 10
0.0
 20
0.0
 30
0.0
 70
   64
 71
   8
 72
   12
  0
VERTEX
  8
solidBody
 10
-0.710000
 20
-0.290000
 30
0.010000
 70
   192
  0
VERTEX
  8
solidBody
 10
-0.710000
 20
-0.290000
 30
0.440000
 70
   192
  0
VERTEX
  8
solidBody
 10
-0.710000
 20
0.290000
 30
0.010000
 70
   192
  0
VERTEX
  8
solidBody
 10
-0.710000
 20
0.290000
 30
0.440000
 70
   192
  0
VERTEX
  8
solidBody
 10
0.710000
 20
-0.290000
 30
0.010000
 70
   192
  0
VERTEX
  8
solidBody
 10
0.710000
 20
-0.290000
 30
0.440000
 70
   192
  0
VERTEX
  8
solidBody
 10
0.710000
 20
0.290000
 30
0.440000
 70
   192
  0
VERTEX
  8
solidBody
 10
0.710000
 20
0.290000
 30
0.010000
 70
   192
  0
VERTEX
  8
solidBody
 62
   251
 10
0.0
 20
0.0
 30
0.0
 70
   128
 71
   3
 72
   2
 73
   1
  0
VERTEX
  8
solidBody
 62
   251
 10
0.0
 20
0.0
 30
0.0
 70
   128
 71
   2
 72
   3
 73
   4
  0
VERTEX
  8
solidBody
 62
   251
 10
0.0
 20
0.0
 30
0.0
 70
   128
 71
   6
 72
   5
 73
   2
  0
VERTEX
  8
solidBody
 62
   251
 10
0.0
 20
0.0
 30
0.0
 70
   128
 71
   5
 72
   1
 73
   2
  0
VERTEX
  8
solidBody
 62
   251
 10
0.0
 20
0.0
 30
0.0
 70
   128
 71
   2
 72
   4
 73
   6
  0
VERTEX
  8
solidBody
 62
   251
 10
0.0
 20
0.0
 30
0.0
 70
   128
 71
   6
 72
   4
 73
   7
  0
VERTEX
  8
solidBody
 62
   251
 10
0.0
 20
0.0
 30
0.0
 70
   128
 71
   8
 72
   7
 73
   4
  0
VERTEX
  8
solidBody
 62
   251
 10
0.0
 20
0.0
 30
0.0
 70
   128
 71
   3
 72
   8
 73
   4
  0
VERTEX
  8
solidBody
 62
   251
 10
0.0
 20
0.0
 30
0.0
 70
   128
 71
   3
 72
   1
 73
   5
  0
VERTEX
  8
solidBody
 62
   251
 10
0.0
 20
0.0
 30
0.0
 70
   128
 71
   3
 72
   5
 73
   8
  0
VERTEX
  8
solidBody
 62
   251
 10
0.0
 20
0.0
 30
0.0
 70
   128
 71
   6
 72
   8
 73
   5
  0
VERTEX
  8
solidBody
 62
   251
 10
0.0
 20
0.0
 30
0.0
 70
   128
 71
   8
 72
   6
 73
   7
  0
SEQEND
  0
POLYLINE
  8
Triangle_Set
 62
   255
 66
   1
 10
0.0
 20
0.0
 30
0.0
 70
   64
 71
   8
 72
   12
  0
VERTEX
  8
Triangle_Set
 10
-0.700000
 20
0.150000
 30
0.000000
 70
   192
  0
VERTEX
  8
Triangle_Set
 10
-0.700000
 20
0.150000
 30
0.450000
 70
   192
  0
VERTEX
  8
Triangle_Set
 10
-0.700000
 20
0.300000
 30
0.000000
 70
   192
  0
VERTEX
  8
Triangle_Set
 10
-0.700000
 20
0.300000
 30
0.450000
 70
   192
  0
VERTEX
  8
Triangle_Set
 10
-0.500000
 20
0.150000
 30
0.000000
 70
   192
  0
VERTEX
  8
Triangle_Set
 10
-0.500000
 20
0.150000
 30
0.450000
 70
   192
  0
VERTEX
  8
Triangle_Set
 10
-0.500000
 20
0.300000
 30
0.000000
 70
   192
  0
VERTEX
  8
Triangle_Set
 10
-0.500000
 20
0.300000
 30
0.450000
 70
   192
  0
VERTEX
  8
Triangle_Set
 62
   255
 10
0.0
 20
0.0
 30
0.0
 70
   128
 71
   4
 72
   2
 73
   3
  0
VERTEX
  8
Triangle_Set
 62
   255
 10
0.0
 20
0.0
 30
0.0
 70
   128
 71
   2
 72
   1
 73
   3
  0
VERTEX
  8
Triangle_Set
 62
   255
 10
0.0
 20
0.0
 30
0.0
 70
   128
 71
   6
 72
   8
 73
   7
  0
VERTEX
  8
Triangle_Set
 62
   255
 10
0.0
 20
0.0
 30
0.0
 70
   128
 71
   5
 72
   6
 73
   7
  0
VERTEX
  8
Triangle_Set
 62
   255
 10
0.0
 20
0.0
 30
0.0
 70
   128
 71
   5
 72
   1
 73
   2
  0
VERTEX
  8
Triangle_Set
 62
   255
 10
0.0
 20
0.0
 30
0.0
 70
   128
 71
   5
 72
   2
 73
   6
  0
VERTEX
  8
Triangle_Set
 62
   255
 10
0.0
 20
0.0
 30
0.0
 70
   128
 71
   3
 72
   7
 73
   4
  0
VERTEX
  8
Triangle_Set
 62
   255
 10
0.0
 20
0.0
 30
0.0
 70
   128
 71
   4
 72
   7
 73
   8
  0
VERTEX
  8
Triangle_Set
 62
   255
 10
0.0
 20
0.0
 30
0.0
 70
   128
 71
   3
 72
   1
 73
   5
  0
VERTEX
  8
Triangle_Set
 62
   255
 10
0.0
 20
0.0
 30
0.0
 70
   128
 71
   3
 72
   5
 73
   7
  0
VERTEX
  8
Triangle_Set
 62
   255
 10
0.0
 20
0.0
 30
0.0
 70
   128
 71
   2
 72
   4
 73
   6
  0
VERTEX
  8
Triangle_Set
 62
   255
 10
0.0
 20
0.0
 30
0.0
 70
   128
 71
   6
 72
   4
 73
   8
  0
SEQEND
  0
POLYLINE
  8
Triangle_Set_ncl2_
 62
   255
 66
   1
 10
0.0
 20
0.0
 30
0.0
 70
   64
 71
   8
 72
   12
  0
VERTEX
  8
Triangle_Set_ncl2_
 10
-0.300000
 20
0.150000
 30
0.000000
 70
   192
  0
VERTEX
  8
Triangle_Set_ncl2_
 10
-0.300000
 20
0.150000
 30
0.450000
 70
   192
  0
VERTEX
  8
Triangle_Set_ncl2_
 10
-0.300000
 20
0.300000
 30
0.000000
 70
   192
  0
VERTEX
  8
Triangle_Set_ncl2_
 10
-0.300000
 20
0.300000
 30
0.450000
 70
   192
  0
VERTEX
  8
Triangle_Set_ncl2_
 10
-0.100000
 20
0.150000
 30
0.000000
 70
   192
  0
VERTEX
  8
Triangle_Set_ncl2_
 10
-0.100000
 20
0.150000
 30
0.450000
 70
   192
  0
VERTEX
  8
Triangle_Set_ncl2_
 10
-0.100000
 20
0.300000
 30
0.000000
 70
   192
  0
VERTEX
  8
Triangle_Set_ncl2_
 10
-0.100000
 20
0.300000
 30
0.450000
 70
   192
  0
VERTEX
  8
Triangle_Set_ncl2_
 62
   255
 10
0.0
 20
0.0
 30
0.0
 70
   128
 71
   4
 72
   2
 73
   3
  0
VERTEX
  8
Triangle_Set_ncl2_
 62
   255
 10
0.0
 20
0.0
 30
0.0
 70
   128
 71
   2
 72
   1
 73
   3
  0
VERTEX
  8
Triangle_Set_ncl2_
 62
   255
 10
0.0
 20
0.0
 30
0.0
 70
   128
 71
   6
 72
   8
 73
   7
  0
VERTEX
  8
Triangle_Set_ncl2_
 62
   255
 10
0.0
 20
0.0
 30
0.0
 70
   128
 71
   5
 72
   6
 73
   7
  0
VERTEX
  8
Triangle_Set_ncl2_
 62
   255
 10
0.0
 20
0.0
 30
0.0
 70
   128
 71
   5
 72
   1
 73
   2
  0
VERTEX
  8
Triangle_Set_ncl2_
 62
   255
 10
0.0
 20
0.0
 30
0.0
 70
   128
 71
   5
 72
   2
 73
   6
  0
VERTEX
  8
Triangle_Set_ncl2_
 62
   255
 10
0.0
 20
0.0
 30
0.0
 70
   128
 71
   3
 72
   7
 73
   4
  0
VERTEX
  8
Triangle_Set_ncl2_
 62
   255
 10
0.0
 20
0.0
 30
0.0
 70
   128
 71
   4
 72
   7
 73
   8
  0
VERTEX
  8
Triangle_Set_ncl2_
 62
   255
 10
0.0
 20
0.0
 30
0.0
 70
   128
 71
   3
 72
   1
 73
   5
  0
VERTEX
  8
Triangle_Set_ncl2_
 62
   255
 10
0.0
 20
0.0
 30
0.0
 70
   128
 71
   3
 72
   5
 73
   7
  0
VERTEX
  8
Triangle_Set_ncl2_
 62
   255
 10
0.0
 20
0.0
 30
0.0
 70
   128
 71
   2
 72
   4
 73
   6
  0
VERTEX
  8
Triangle_Set_ncl2_
 62
   255
 10
0.0
 20
0.0
 30
0.0
 70
   128
 71
   6
 72
   4
 73
   8
  0
SEQEND
  0
POLYLINE
  8
Triangle_Set_ncl2__ncl1_1
 62
   255
 66
   1
 10
0.0
 20
0.0
 30
0.0
 70
   64
 71
   8
 72
   12
  0
VERTEX
  8
Triangle_Set_ncl2__ncl1_1
 10
0.100000
 20
0.150000
 30
0.000000
 70
   192
  0
VERTEX
  8
Triangle_Set_ncl2__ncl1_1
 10
0.100000
 20
0.150000
 30
0.450000
 70
   192
  0
VERTEX
  8
Triangle_Set_ncl2__ncl1_1
 10
0.100000
 20
0.300000
 30
0.000000
 70
   192
  0
VERTEX
  8
Triangle_Set_ncl2__ncl1_1
 10
0.100000
 20
0.300000
 30
0.450000
 70
   192
  0
VERTEX
  8
Triangle_Set_ncl2__ncl1_1
 10
0.300000
 20
0.150000
 30
0.000000
 70
   192
  0
VERTEX
  8
Triangle_Set_ncl2__ncl1_1
 10
0.300000
 20
0.150000
 30
0.450000
 70
   192
  0
VERTEX
  8
Triangle_Set_ncl2__ncl1_1
 10
0.300000
 20
0.300000
 30
0.000000
 70
   192
  0
VERTEX
  8
Triangle_Set_ncl2__ncl1_1
 10
0.300000
 20
0.300000
 30
0.450000
 70
   192
  0
VERTEX
  8
Triangle_Set_ncl2__ncl1_1
 62
   255
 10
0.0
 20
0.0
 30
0.0
 70
   128
 71
   4
 72
   2
 73
   3
  0
VERTEX
  8
Triangle_Set_ncl2__ncl1_1
 62
   255
 10
0.0
 20
0.0
 30
0.0
 70
   128
 71
   2
 72
   1
 73
   3
  0
VERTEX
  8
Triangle_Set_ncl2__ncl1_1
 62
   255
 10
0.0
 20
0.0
 30
0.0
 70
   128
 71
   6
 72
   8
 73
   7
  0
VERTEX
  8
Triangle_Set_ncl2__ncl1_1
 62
   255
 10
0.0
 20
0.0
 30
0.0
 70
   128
 71
   5
 72
   6
 73
   7
  0
VERTEX
  8
Triangle_Set_ncl2__ncl1_1
 62
   255
 10
0.0
 20
0.0
 30
0.0
 70
   128
 71
   5
 72
   1
 73
   2
  0
VERTEX
  8
Triangle_Set_ncl2__ncl1_1
 62
   255
 10
0.0
 20
0.0
 30
0.0
 70
   128
 71
   5
 72
   2
 73
   6
  0
VERTEX
  8
Triangle_Set_ncl2__ncl1_1
 62
   255
 10
0.0
 20
0.0
 30
0.0
 70
   128
 71
   3
 72
   7
 73
   4
  0
VERTEX
  8
Triangle_Set_ncl2__ncl1_1
 62
   255
 10
0.0
 20
0.0
 30
0.0
 70
   128
 71
   4
 72
   7
 73
   8
  0
VERTEX
  8
Triangle_Set_ncl2__ncl1_1
 62
   255
 10
0.0
 20
0.0
 30
0.0
 70
   128
 71
   3
 72
   1
 73
   5
  0
VERTEX
  8
Triangle_Set_ncl2__ncl1_1
 62
   255
 10
0.0
 20
0.0
 30
0.0
 70
   128
 71
   3
 72
   5
 73
   7
  0
VERTEX
  8
Triangle_Set_ncl2__ncl1_1
 62
   255
 10
0.0
 20
0.0
 30
0.0
 70
   128
 71
   2
 72
   4
 73
   6
  0
VERTEX
  8
Triangle_Set_ncl2__ncl1_1
 62
   255
 10
0.0
 20
0.0
 30
0.0
 70
   128
 71
   6
 72
   4
 73
   8
  0
SEQEND
  0
POLYLINE
  8
Triangle_Set_ncl2__ncl1_2
 62
   255
 66
   1
 10
0.0
 20
0.0
 30
0.0
 70
   64
 71
   8
 72
   12
  0
VERTEX
  8
Triangle_Set_ncl2__ncl1_2
 10
0.500000
 20
0.150000
 30
0.000000
 70
   192
  0
VERTEX
  8
Triangle_Set_ncl2__ncl1_2
 10
0.500000
 20
0.150000
 30
0.450000
 70
   192
  0
VERTEX
  8
Triangle_Set_ncl2__ncl1_2
 10
0.500000
 20
0.300000
 30
0.000000
 70
   192
  0
VERTEX
  8
Triangle_Set_ncl2__ncl1_2
 10
0.500000
 20
0.300000
 30
0.450000
 70
   192
  0
VERTEX
  8
Triangle_Set_ncl2__ncl1_2
 10
0.700000
 20
0.150000
 30
0.000000
 70
   192
  0
VERTEX
  8
Triangle_Set_ncl2__ncl1_2
 10
0.700000
 20
0.150000
 30
0.450000
 70
   192
  0
VERTEX
  8
Triangle_Set_ncl2__ncl1_2
 10
0.700000
 20
0.300000
 30
0.000000
 70
   192
  0
VERTEX
  8
Triangle_Set_ncl2__ncl1_2
 10
0.700000
 20
0.300000
 30
0.450000
 70
   192
  0
VERTEX
  8
Triangle_Set_ncl2__ncl1_2
 62
   255
 10
0.0
 20
0.0
 30
0.0
 70
   128
 71
   4
 72
   2
 73
   3
  0
VERTEX
  8
Triangle_Set_ncl2__ncl1_2
 62
   255
 10
0.0
 20
0.0
 30
0.0
 70
   128
 71
   2
 72
   1
 73
   3
  0
VERTEX
  8
Triangle_Set_ncl2__ncl1_2
 62
   255
 10
0.0
 20
0.0
 30
0.0
 70
   128
 71
   6
 72
   8
 73
   7
  0
VERTEX
  8
Triangle_Set_ncl2__ncl1_2
 62
   255
 10
0.0
 20
0.0
 30
0.0
 70
   128
 71
   5
 72
   6
 73
   7
  0
VERTEX
  8
Triangle_Set_ncl2__ncl1_2
 62
   255
 10
0.0
 20
0.0
 30
0.0
 70
   128
 71
   5
 72
   1
 73
   2
  0
VERTEX
  8
Triangle_Set_ncl2__ncl1_2
 62
   255
 10
0.0
 20
0.0
 30
0.0
 70
   128
 71
   5
 72
   2
 73
   6
  0
VERTEX
  8
Triangle_Set_ncl2__ncl1_2
 62
   255
 10
0.0
 20
0.0
 30
0.0
 70
   128
 71
   3
 72
   7
 73
   4
  0
VERTEX
  8
Triangle_Set_ncl2__ncl1_2
 62
   255
 10
0.0
 20
0.0
 30
0.0
 70
   128
 71
   4
 72
   7
 73
   8
  0
VERTEX
  8
Triangle_Set_ncl2__ncl1_2
 62
   255
 10
0.0
 20
0.0
 30
0.0
 70
   128
 71
   3
 72
   1
 73
   5
  0
VERTEX
  8
Triangle_Set_ncl2__ncl1_2
 62
   255
 10
0.0
 20
0.0
 30
0.0
 70
   128
 71
   3
 72
   5
 73
   7
  0
VERTEX
  8
Triangle_Set_ncl2__ncl1_2
 62
   255
 10
0.0
 20
0.0
 30
0.0
 70
   128
 71
   2
 72
   4
 73
   6
  0
VERTEX
  8
Triangle_Set_ncl2__ncl1_2
 62
   255
 10
0.0
 20
0.0
 30
0.0
 70
   128
 71
   6
 72
   4
 73
   8
  0
SEQEND
  0
POLYLINE
  8
Triangle_Set_ncl1_1
 62
   255
 66
   1
 10
0.0
 20
0.0
 30
0.0
 70
   64
 71
   8
 72
   12
  0
VERTEX
  8
Triangle_Set_ncl1_1
 10
-0.700000
 20
-0.300000
 30
0.000000
 70
   192
  0
VERTEX
  8
Triangle_Set_ncl1_1
 10
-0.700000
 20
-0.300000
 30
0.450000
 70
   192
  0
VERTEX
  8
Triangle_Set_ncl1_1
 10
-0.700000
 20
-0.150000
 30
0.000000
 70
   192
  0
VERTEX
  8
Triangle_Set_ncl1_1
 10
-0.700000
 20
-0.150000
 30
0.450000
 70
   192
  0
VERTEX
  8
Triangle_Set_ncl1_1
 10
-0.500000
 20
-0.300000
 30
0.000000
 70
   192
  0
VERTEX
  8
Triangle_Set_ncl1_1
 10
-0.500000
 20
-0.300000
 30
0.450000
 70
   192
  0
VERTEX
  8
Triangle_Set_ncl1_1
 10
-0.500000
 20
-0.150000
 30
0.000000
 70
   192
  0
VERTEX
  8
Triangle_Set_ncl1_1
 10
-0.500000
 20
-0.150000
 30
0.450000
 70
   192
  0
VERTEX
  8
Triangle_Set_ncl1_1
 62
   255
 10
0.0
 20
0.0
 30
0.0
 70
   128
 71
   4
 72
   2
 73
   3
  0
VERTEX
  8
Triangle_Set_ncl1_1
 62
   255
 10
0.0
 20
0.0
 30
0.0
 70
   128
 71
   2
 72
   1
 73
   3
  0
VERTEX
  8
Triangle_Set_ncl1_1
 62
   255
 10
0.0
 20
0.0
 30
0.0
 70
   128
 71
   6
 72
   8
 73
   7
  0
VERTEX
  8
Triangle_Set_ncl1_1
 62
   255
 10
0.0
 20
0.0
 30
0.0
 70
   128
 71
   5
 72
   6
 73
   7
  0
VERTEX
  8
Triangle_Set_ncl1_1
 62
   255
 10
0.0
 20
0.0
 30
0.0
 70
   128
 71
   5
 72
   1
 73
   2
  0
VERTEX
  8
Triangle_Set_ncl1_1
 62
   255
 10
0.0
 20
0.0
 30
0.0
 70
   128
 71
   5
 72
   2
 73
   6
  0
VERTEX
  8
Triangle_Set_ncl1_1
 62
   255
 10
0.0
 20
0.0
 30
0.0
 70
   128
 71
   3
 72
   7
 73
   4
  0
VERTEX
  8
Triangle_Set_ncl1_1
 62
   255
 10
0.0
 20
0.0
 30
0.0
 70
   128
 71
   4
 72
   7
 73
   8
  0
VERTEX
  8
Triangle_Set_ncl1_1
 62
   255
 10
0.0
 20
0.0
 30
0.0
 70
   128
 71
   3
 72
   1
 73
   5
  0
VERTEX
  8
Triangle_Set_ncl1_1
 62
   255
 10
0.0
 20
0.0
 30
0.0
 70
   128
 71
   3
 72
   5
 73
   7
  0
VERTEX
  8
Triangle_Set_ncl1_1
 62
   255
 10
0.0
 20
0.0
 30
0.0
 70
   128
 71
   2
 72
   4
 73
   6
  0
VERTEX
  8
Triangle_Set_ncl1_1
 62
   255
 10
0.0
 20
0.0
 30
0.0
 70
   128
 71
   6
 72
   4
 73
   8
  0
SEQEND
  0
POLYLINE
  8
Triangle_Set_ncl1_2
 62
   255
 66
   1
 10
0.0
 20
0.0
 30
0.0
 70
   64
 71
   8
 72
   12
  0
VERTEX
  8
Triangle_Set_ncl1_2
 10
-0.300000
 20
-0.300000
 30
0.000000
 70
   192
  0
VERTEX
  8
Triangle_Set_ncl1_2
 10
-0.300000
 20
-0.300000
 30
0.450000
 70
   192
  0
VERTEX
  8
Triangle_Set_ncl1_2
 10
-0.300000
 20
-0.150000
 30
0.000000
 70
   192
  0
VERTEX
  8
Triangle_Set_ncl1_2
 10
-0.300000
 20
-0.150000
 30
0.450000
 70
   192
  0
VERTEX
  8
Triangle_Set_ncl1_2
 10
-0.100000
 20
-0.300000
 30
0.000000
 70
   192
  0
VERTEX
  8
Triangle_Set_ncl1_2
 10
-0.100000
 20
-0.300000
 30
0.450000
 70
   192
  0
VERTEX
  8
Triangle_Set_ncl1_2
 10
-0.100000
 20
-0.150000
 30
0.000000
 70
   192
  0
VERTEX
  8
Triangle_Set_ncl1_2
 10
-0.100000
 20
-0.150000
 30
0.450000
 70
   192
  0
VERTEX
  8
Triangle_Set_ncl1_2
 62
   255
 10
0.0
 20
0.0
 30
0.0
 70
   128
 71
   4
 72
   2
 73
   3
  0
VERTEX
  8
Triangle_Set_ncl1_2
 62
   255
 10
0.0
 20
0.0
 30
0.0
 70
   128
 71
   2
 72
   1
 73
   3
  0
VERTEX
  8
Triangle_Set_ncl1_2
 62
   255
 10
0.0
 20
0.0
 30
0.0
 70
   128
 71
   6
 72
   8
 73
   7
  0
VERTEX
  8
Triangle_Set_ncl1_2
 62
   255
 10
0.0
 20
0.0
 30
0.0
 70
   128
 71
   5
 72
   6
 73
   7
  0
VERTEX
  8
Triangle_Set_ncl1_2
 62
   255
 10
0.0
 20
0.0
 30
0.0
 70
   128
 71
   5
 72
   1
 73
   2
  0
VERTEX
  8
Triangle_Set_ncl1_2
 62
   255
 10
0.0
 20
0.0
 30
0.0
 70
   128
 71
   5
 72
   2
 73
   6
  0
VERTEX
  8
Triangle_Set_ncl1_2
 62
   255
 10
0.0
 20
0.0
 30
0.0
 70
   128
 71
   3
 72
   7
 73
   4
  0
VERTEX
  8
Triangle_Set_ncl1_2
 62
   255
 10
0.0
 20
0.0
 30
0.0
 70
   128
 71
   4
 72
   7
 73
   8
  0
VERTEX
  8
Triangle_Set_ncl1_2
 62
   255
 10
0.0
 20
0.0
 30
0.0
 70
   128
 71
   3
 72
   1
 73
   5
  0
VERTEX
  8
Triangle_Set_ncl1_2
 62
   255
 10
0.0
 20
0.0
 30
0.0
 70
   128
 71
   3
 72
   5
 73
   7
  0
VERTEX
  8
Triangle_Set_ncl1_2
 62
   255
 10
0.0
 20
0.0
 30
0.0
 70
   128
 71
   2
 72
   4
 73
   6
  0
VERTEX
  8
Triangle_Set_ncl1_2
 62
   255
 10
0.0
 20
0.0
 30
0.0
 70
   128
 71
   6
 72
   4
 73
   8
  0
SEQEND
  0
POLYLINE
  8
Triangle_Set_ncl1_3
 62
   255
 66
   1
 10
0.0
 20
0.0
 30
0.0
 70
   64
 71
   8
 72
   12
  0
VERTEX
  8
Triangle_Set_ncl1_3
 10
0.100000
 20
-0.300000
 30
0.000000
 70
   192
  0
VERTEX
  8
Triangle_Set_ncl1_3
 10
0.100000
 20
-0.300000
 30
0.450000
 70
   192
  0
VERTEX
  8
Triangle_Set_ncl1_3
 10
0.100000
 20
-0.150000
 30
0.000000
 70
   192
  0
VERTEX
  8
Triangle_Set_ncl1_3
 10
0.100000
 20
-0.150000
 30
0.450000
 70
   192
  0
VERTEX
  8
Triangle_Set_ncl1_3
 10
0.300000
 20
-0.300000
 30
0.000000
 70
   192
  0
VERTEX
  8
Triangle_Set_ncl1_3
 10
0.300000
 20
-0.300000
 30
0.450000
 70
   192
  0
VERTEX
  8
Triangle_Set_ncl1_3
 10
0.300000
 20
-0.150000
 30
0.000000
 70
   192
  0
VERTEX
  8
Triangle_Set_ncl1_3
 10
0.300000
 20
-0.150000
 30
0.450000
 70
   192
  0
VERTEX
  8
Triangle_Set_ncl1_3
 62
   255
 10
0.0
 20
0.0
 30
0.0
 70
   128
 71
   4
 72
   2
 73
   3
  0
VERTEX
  8
Triangle_Set_ncl1_3
 62
   255
 10
0.0
 20
0.0
 30
0.0
 70
   128
 71
   2
 72
   1
 73
   3
  0
VERTEX
  8
Triangle_Set_ncl1_3
 62
   255
 10
0.0
 20
0.0
 30
0.0
 70
   128
 71
   6
 72
   8
 73
   7
  0
VERTEX
  8
Triangle_Set_ncl1_3
 62
   255
 10
0.0
 20
0.0
 30
0.0
 70
   128
 71
   5
 72
   6
 73
   7
  0
VERTEX
  8
Triangle_Set_ncl1_3
 62
   255
 10
0.0
 20
0.0
 30
0.0
 70
   128
 71
   5
 72
   1
 73
   2
  0
VERTEX
  8
Triangle_Set_ncl1_3
 62
   255
 10
0.0
 20
0.0
 30
0.0
 70
   128
 71
   5
 72
   2
 73
   6
  0
VERTEX
  8
Triangle_Set_ncl1_3
 62
   255
 10
0.0
 20
0.0
 30
0.0
 70
   128
 71
   3
 72
   7
 73
   4
  0
VERTEX
  8
Triangle_Set_ncl1_3
 62
   255
 10
0.0
 20
0.0
 30
0.0
 70
   128
 71
   4
 72
   7
 73
   8
  0
VERTEX
  8
Triangle_Set_ncl1_3
 62
   255
 10
0.0
 20
0.0
 30
0.0
 70
   128
 71
   3
 72
   1
 73
   5
  0
VERTEX
  8
Triangle_Set_ncl1_3
 62
   255
 10
0.0
 20
0.0
 30
0.0
 70
   128
 71
   3
 72
   5
 73
   7
  0
VERTEX
  8
Triangle_Set_ncl1_3
 62
   255
 10
0.0
 20
0.0
 30
0.0
 70
   128
 71
   2
 72
   4
 73
   6
  0
VERTEX
  8
Triangle_Set_ncl1_3
 62
   255
 10
0.0
 20
0.0
 30
0.0
 70
   128
 71
   6
 72
   4
 73
   8
  0
SEQEND
  0
POLYLINE
  8
Triangle_Set_ncl1_4
 62
   255
 66
   1
 10
0.0
 20
0.0
 30
0.0
 70
   64
 71
   8
 72
   12
  0
VERTEX
  8
Triangle_Set_ncl1_4
 10
0.500000
 20
-0.300000
 30
0.000000
 70
   192
  0
VERTEX
  8
Triangle_Set_ncl1_4
 10
0.500000
 20
-0.300000
 30
0.450000
 70
   192
  0
VERTEX
  8
Triangle_Set_ncl1_4
 10
0.500000
 20
-0.150000
 30
0.000000
 70
   192
  0
VERTEX
  8
Triangle_Set_ncl1_4
 10
0.500000
 20
-0.150000
 30
0.450000
 70
   192
  0
VERTEX
  8
Triangle_Set_ncl1_4
 10
0.700000
 20
-0.300000
 30
0.000000
 70
   192
  0
VERTEX
  8
Triangle_Set_ncl1_4
 10
0.700000
 20
-0.300000
 30
0.450000
 70
   192
  0
VERTEX
  8
Triangle_Set_ncl1_4
 10
0.700000
 20
-0.150000
 30
0.000000
 70
   192
  0
VERTEX
  8
Triangle_Set_ncl1_4
 10
0.700000
 20
-0.150000
 30
0.450000
 70
   192
  0
VERTEX
  8
Triangle_Set_ncl1_4
 62
   255
 10
0.0
 20
0.0
 30
0.0
 70
   128
 71
   4
 72
   2
 73
   3
  0
VERTEX
  8
Triangle_Set_ncl1_4
 62
   255
 10
0.0
 20
0.0
 30
0.0
 70
   128
 71
   2
 72
   1
 73
   3
  0
VERTEX
  8
Triangle_Set_ncl1_4
 62
   255
 10
0.0
 20
0.0
 30
0.0
 70
   128
 71
   6
 72
   8
 73
   7
  0
VERTEX
  8
Triangle_Set_ncl1_4
 62
   255
 10
0.0
 20
0.0
 30
0.0
 70
   128
 71
   5
 72
   6
 73
   7
  0
VERTEX
  8
Triangle_Set_ncl1_4
 62
   255
 10
0.0
 20
0.0
 30
0.0
 70
   128
 71
   5
 72
   1
 73
   2
  0
VERTEX
  8
Triangle_Set_ncl1_4
 62
   255
 10
0.0
 20
0.0
 30
0.0
 70
   128
 71
   5
 72
   2
 73
   6
  0
VERTEX
  8
Triangle_Set_ncl1_4
 62
   255
 10
0.0
 20
0.0
 30
0.0
 70
   128
 71
   3
 72
   7
 73
   4
  0
VERTEX
  8
Triangle_Set_ncl1_4
 62
   255
 10
0.0
 20
0.0
 30
0.0
 70
   128
 71
   4
 72
   7
 73
   8
  0
VERTEX
  8
Triangle_Set_ncl1_4
 62
   255
 10
0.0
 20
0.0
 30
0.0
 70
   128
 71
   3
 72
   1
 73
   5
  0
VERTEX
  8
Triangle_Set_ncl1_4
 62
   255
 10
0.0
 20
0.0
 30
0.0
 70
   128
 71
   3
 72
   5
 73
   7
  0
VERTEX
  8
Triangle_Set_ncl1_4
 62
   255
 10
0.0
 20
0.0
 30
0.0
 70
   128
 71
   2
 72
   4
 73
   6
  0
VERTEX
  8
Triangle_Set_ncl1_4
 62
   255
 10
0.0
 20
0.0
 30
0.0
 70
   128
 71
   6
 72
   4
 73
   8
  0
SEQEND
  0
POLYLINE
  8
solidTop
 62
   250
 66
   1
 10
0.0
 20
0.0
 30
0.0
 70
   64
 71
   8
 72
   12
  0
VERTEX
  8
solidTop
 10
-0.700000
 20
-0.150000
 30
0.440000
 70
   192
  0
VERTEX
  8
solidTop
 10
-0.700000
 20
-0.150000
 30
0.450000
 70
   192
  0
VERTEX
  8
solidTop
 10
-0.700000
 20
0.150000
 30
0.440000
 70
   192
  0
VERTEX
  8
solidTop
 10
-0.700000
 20
0.150000
 30
0.450000
 70
   192
  0
VERTEX
  8
solidTop
 10
0.700000
 20
-0.150000
 30
0.440000
 70
   192
  0
VERTEX
  8
solidTop
 10
0.700000
 20
-0.150000
 30
0.450000
 70
   192
  0
VERTEX
  8
solidTop
 10
0.700000
 20
0.150000
 30
0.450000
 70
   192
  0
VERTEX
  8
solidTop
 10
0.700000
 20
0.150000
 30
0.440000
 70
   192
  0
VERTEX
  8
solidTop
 62
   250
 10
0.0
 20
0.0
 30
0.0
 70
   128
 71
   3
 72
   2
 73
   1
  0
VERTEX
  8
solidTop
 62
   250
 10
0.0
 20
0.0
 30
0.0
 70
   128
 71
   2
 72
   3
 73
   4
  0
VERTEX
  8
solidTop
 62
   250
 10
0.0
 20
0.0
 30
0.0
 70
   128
 71
   6
 72
   5
 73
   2
  0
VERTEX
  8
solidTop
 62
   250
 10
0.0
 20
0.0
 30
0.0
 70
   128
 71
   5
 72
   1
 73
   2
  0
VERTEX
  8
solidTop
 62
   250
 10
0.0
 20
0.0
 30
0.0
 70
   128
 71
   2
 72
   4
 73
   6
  0
VERTEX
  8
solidTop
 62
   250
 10
0.0
 20
0.0
 30
0.0
 70
   128
 71
   6
 72
   4
 73
   7
  0
VERTEX
  8
solidTop
 62
   250
 10
0.0
 20
0.0
 30
0.0
 70
   128
 71
   8
 72
   7
 73
   4
  0
VERTEX
  8
solidTop
 62
   250
 10
0.0
 20
0.0
 30
0.0
 70
   128
 71
   3
 72
   8
 73
   4
  0
VERTEX
  8
solidTop
 62
   250
 10
0.0
 20
0.0
 30
0.0
 70
   128
 71
   3
 72
   1
 73
   5
  0
VERTEX
  8
solidTop
 62
   250
 10
0.0
 20
0.0
 30
0.0
 70
   128
 71
   3
 72
   5
 73
   8
  0
VERTEX
  8
solidTop
 62
   250
 10
0.0
 20
0.0
 30
0.0
 70
   128
 71
   6
 72
   8
 73
   5
  0
VERTEX
  8
solidTop
 62
   250
 10
0.0
 20
0.0
 30
0.0
 70
   128
 71
   8
 72
   6
 73
   7
  0
SEQEND
  0
ENDSEC
  0
EOF
