999
FBX AutoCAD (*.DXF) exporter
  0
SECTION
  2
HEADER
  9
$ACADVER
  1
AC1008
  9
$UCSORG
 10
0.0
 20
0.0
 30
0.0
  9
$UCSXDIR
 10
1.0
 20
0.0
 30
0.0
  9
$TILEMODE
 70
   1
  9
$UCSYDIR
 10
0.0
 20
1.0
 30
0.0
  0
ENDSEC
  0
SECTION
  2
TABLES
  0
TABLE
  2
LTYPE
 70
   1
  0
LTYPE
  2
CONTINUOUS
 70
   64
  3
Solid line
 72
   65
 73
   0
 40
0.0
  0
ENDTAB
  0
TABLE
  2
LAYER
 70
   11
  0
LAYER
  2
Triangle_Set
 70
   0
 62
   94
  6
CONTINUOUS
  0
LAYER
  2
Triangle_Set_ncl1_1
 70
   0
 62
   253
  6
CONTINUOUS
  0
LAYER
  2
Triangle_Set_ncl1_2
 70
   0
 62
   7
  6
CONTINUOUS
  0
LAYER
  2
Triangle_Set_ncl1_3
 70
   0
 62
   40
  6
CONTINUOUS
  0
LAYER
  2
Triangle_Set_ncl1_4
 70
   0
 62
   253
  6
CONTINUOUS
  0
LAYER
  2
Triangle_Set_ncl1_5
 70
   0
 62
   51
  6
CONTINUOUS
  0
LAYER
  2
Triangle_Set_ncl1_6
 70
   0
 62
   5
  6
CONTINUOUS
  0
LAYER
  2
Triangle_Set_ncl1_7
 70
   0
 62
   7
  6
CONTINUOUS
  0
LAYER
  2
Triangle_Set_ncl1_8
 70
   0
 62
   40
  6
CONTINUOUS
  0
LAYER
  2
Triangle_Set_ncl1_9
 70
   0
 62
   253
  6
CONTINUOUS
  0
ENDTAB
  0
ENDSEC
  0
SECTION
  2
BLOCKS
  0
ENDSEC
  0
SECTION
  2
ENTITIES
  0
POLYLINE
  8
Triangle_Set
 62
   94
 66
   1
 10
0.0
 20
0.0
 30
0.0
 70
   64
 71
   3
 72
   1
  0
VERTEX
  8
Triangle_Set
 10
-0.243290
 20
-0.000050
 30
0.327312
 70
   192
  0
VERTEX
  8
Triangle_Set
 10
-0.243290
 20
-0.000050
 30
-0.327312
 70
   192
  0
VERTEX
  8
Triangle_Set
 10
0.323632
 20
-0.000050
 30
-0.000000
 70
   192
  0
VERTEX
  8
Triangle_Set
 62
   94
 10
0.0
 20
0.0
 30
0.0
 70
   128
 71
   2
 72
   1
 73
   3
  0
SEQEND
  0
POLYLINE
  8
Triangle_Set_ncl1_1
 62
   253
 66
   1
 10
0.0
 20
0.0
 30
0.0
 70
   64
 71
   3
 72
   1
  0
VERTEX
  8
Triangle_Set_ncl1_1
 10
-0.243290
 20
-0.000050
 30
-0.327312
 70
   192
  0
VERTEX
  8
Triangle_Set_ncl1_1
 10
0.323632
 20
-0.000050
 30
-0.000000
 70
   192
  0
VERTEX
  8
Triangle_Set_ncl1_1
 10
-0.243290
 20
-0.000050
 30
0.327312
 70
   192
  0
VERTEX
  8
Triangle_Set_ncl1_1
 62
   253
 10
0.0
 20
0.0
 30
0.0
 70
   128
 71
   2
 72
   3
 73
   1
  0
SEQEND
  0
POLYLINE
  8
Triangle_Set_ncl1_2
 62
   7
 66
   1
 10
0.0
 20
0.0
 30
0.0
 70
   64
 71
   8
 72
   12
  0
VERTEX
  8
Triangle_Set_ncl1_2
 10
0.600000
 20
0.250000
 30
0.400000
 70
   192
  0
VERTEX
  8
Triangle_Set_ncl1_2
 10
0.600000
 20
0.250000
 30
-0.400000
 70
   192
  0
VERTEX
  8
Triangle_Set_ncl1_2
 10
-0.600000
 20
0.250000
 30
0.400000
 70
   192
  0
VERTEX
  8
Triangle_Set_ncl1_2
 10
-0.600000
 20
0.250000
 30
-0.400000
 70
   192
  0
VERTEX
  8
Triangle_Set_ncl1_2
 10
-0.600000
 20
0.550000
 30
-0.400000
 70
   192
  0
VERTEX
  8
Triangle_Set_ncl1_2
 10
0.600000
 20
0.550000
 30
-0.400000
 70
   192
  0
VERTEX
  8
Triangle_Set_ncl1_2
 10
0.600000
 20
0.550000
 30
0.400000
 70
   192
  0
VERTEX
  8
Triangle_Set_ncl1_2
 10
-0.600000
 20
0.550000
 30
0.400000
 70
   192
  0
VERTEX
  8
Triangle_Set_ncl1_2
 62
   7
 10
0.0
 20
0.0
 30
0.0
 70
   128
 71
   2
 72
   4
 73
   3
  0
VERTEX
  8
Triangle_Set_ncl1_2
 62
   7
 10
0.0
 20
0.0
 30
0.0
 70
   128
 71
   2
 72
   3
 73
   1
  0
VERTEX
  8
Triangle_Set_ncl1_2
 62
   7
 10
0.0
 20
0.0
 30
0.0
 70
   128
 71
   4
 72
   2
 73
   6
  0
VERTEX
  8
Triangle_Set_ncl1_2
 62
   7
 10
0.0
 20
0.0
 30
0.0
 70
   128
 71
   4
 72
   6
 73
   5
  0
VERTEX
  8
Triangle_Set_ncl1_2
 62
   7
 10
0.0
 20
0.0
 30
0.0
 70
   128
 71
   1
 72
   7
 73
   2
  0
VERTEX
  8
Triangle_Set_ncl1_2
 62
   7
 10
0.0
 20
0.0
 30
0.0
 70
   128
 71
   2
 72
   7
 73
   6
  0
VERTEX
  8
Triangle_Set_ncl1_2
 62
   7
 10
0.0
 20
0.0
 30
0.0
 70
   128
 71
   7
 72
   1
 73
   3
  0
VERTEX
  8
Triangle_Set_ncl1_2
 62
   7
 10
0.0
 20
0.0
 30
0.0
 70
   128
 71
   8
 72
   7
 73
   3
  0
VERTEX
  8
Triangle_Set_ncl1_2
 62
   7
 10
0.0
 20
0.0
 30
0.0
 70
   128
 71
   3
 72
   5
 73
   8
  0
VERTEX
  8
Triangle_Set_ncl1_2
 62
   7
 10
0.0
 20
0.0
 30
0.0
 70
   128
 71
   5
 72
   3
 73
   4
  0
VERTEX
  8
Triangle_Set_ncl1_2
 62
   7
 10
0.0
 20
0.0
 30
0.0
 70
   128
 71
   7
 72
   8
 73
   6
  0
VERTEX
  8
Triangle_Set_ncl1_2
 62
   7
 10
0.0
 20
0.0
 30
0.0
 70
   128
 71
   6
 72
   8
 73
   5
  0
SEQEND
  0
POLYLINE
  8
Triangle_Set_ncl1_3
 62
   40
 66
   1
 10
0.0
 20
0.0
 30
0.0
 70
   64
 71
   4
 72
   2
  0
VERTEX
  8
Triangle_Set_ncl1_3
 10
-0.500000
 20
-0.000050
 30
-0.400000
 70
   192
  0
VERTEX
  8
Triangle_Set_ncl1_3
 10
-0.500000
 20
-0.000050
 30
0.400000
 70
   192
  0
VERTEX
  8
Triangle_Set_ncl1_3
 10
-0.800000
 20
-0.000050
 30
0.400000
 70
   192
  0
VERTEX
  8
Triangle_Set_ncl1_3
 10
-0.800000
 20
-0.000050
 30
-0.400000
 70
   192
  0
VERTEX
  8
Triangle_Set_ncl1_3
 62
   40
 10
0.0
 20
0.0
 30
0.0
 70
   128
 71
   1
 72
   4
 73
   3
  0
VERTEX
  8
Triangle_Set_ncl1_3
 62
   40
 10
0.0
 20
0.0
 30
0.0
 70
   128
 71
   2
 72
   1
 73
   3
  0
SEQEND
  0
POLYLINE
  8
Triangle_Set_ncl1_4
 62
   253
 66
   1
 10
0.0
 20
0.0
 30
0.0
 70
   64
 71
   4
 72
   2
  0
VERTEX
  8
Triangle_Set_ncl1_4
 10
-0.500000
 20
-0.000050
 30
0.400000
 70
   192
  0
VERTEX
  8
Triangle_Set_ncl1_4
 10
-0.800000
 20
-0.000050
 30
0.400000
 70
   192
  0
VERTEX
  8
Triangle_Set_ncl1_4
 10
-0.500000
 20
-0.000050
 30
-0.400000
 70
   192
  0
VERTEX
  8
Triangle_Set_ncl1_4
 10
-0.800000
 20
-0.000050
 30
-0.400000
 70
   192
  0
VERTEX
  8
Triangle_Set_ncl1_4
 62
   253
 10
0.0
 20
0.0
 30
0.0
 70
   128
 71
   2
 72
   4
 73
   3
  0
VERTEX
  8
Triangle_Set_ncl1_4
 62
   253
 10
0.0
 20
0.0
 30
0.0
 70
   128
 71
   2
 72
   3
 73
   1
  0
SEQEND
  0
POLYLINE
  8
Triangle_Set_ncl1_5
 62
   51
 66
   1
 10
0.0
 20
0.0
 30
0.0
 70
   64
 71
   120
 72
   128
  0
VERTEX
  8
Triangle_Set_ncl1_5
 10
-0.800000
 20
0.250000
 30
0.400000
 70
   192
  0
VERTEX
  8
Triangle_Set_ncl1_5
 10
0.800000
 20
0.250000
 30
0.400000
 70
   192
  0
VERTEX
  8
Triangle_Set_ncl1_5
 10
0.800000
 20
0.250000
 30
-0.400000
 70
   192
  0
VERTEX
  8
Triangle_Set_ncl1_5
 10
-0.800000
 20
0.250000
 30
-0.400000
 70
   192
  0
VERTEX
  8
Triangle_Set_ncl1_5
 10
0.800000
 20
0.000000
 30
0.400000
 70
   192
  0
VERTEX
  8
Triangle_Set_ncl1_5
 10
0.800000
 20
0.000000
 30
-0.400000
 70
   192
  0
VERTEX
  8
Triangle_Set_ncl1_5
 10
-0.715642
 20
0.081948
 30
0.399950
 70
   192
  0
VERTEX
  8
Triangle_Set_ncl1_5
 10
-0.714975
 20
0.081281
 30
0.399950
 70
   192
  0
VERTEX
  8
Triangle_Set_ncl1_5
 10
-0.715642
 20
0.080615
 30
0.399950
 70
   192
  0
VERTEX
  8
Triangle_Set_ncl1_5
 10
-0.716309
 20
0.081281
 30
0.399950
 70
   192
  0
VERTEX
  8
Triangle_Set_ncl1_5
 10
-0.800000
 20
0.000000
 30
0.400000
 70
   192
  0
VERTEX
  8
Triangle_Set_ncl1_5
 10
-0.718616
 20
0.081948
 30
0.399950
 70
   192
  0
VERTEX
  8
Triangle_Set_ncl1_5
 10
-0.717950
 20
0.081281
 30
0.399950
 70
   192
  0
VERTEX
  8
Triangle_Set_ncl1_5
 10
-0.718616
 20
0.080615
 30
0.399950
 70
   192
  0
VERTEX
  8
Triangle_Set_ncl1_5
 10
-0.719283
 20
0.081281
 30
0.399950
 70
   192
  0
VERTEX
  8
Triangle_Set_ncl1_5
 10
-0.800000
 20
0.000000
 30
-0.400000
 70
   192
  0
VERTEX
  8
Triangle_Set_ncl1_5
 10
-0.715494
 20
0.081929
 30
0.399966
 70
   192
  0
VERTEX
  8
Triangle_Set_ncl1_5
 10
-0.715427
 20
0.081913
 30
0.399973
 70
   192
  0
VERTEX
  8
Triangle_Set_ncl1_5
 10
-0.715364
 20
0.081892
 30
0.399978
 70
   192
  0
VERTEX
  8
Triangle_Set_ncl1_5
 10
-0.715306
 20
0.081867
 30
0.399982
 70
   192
  0
VERTEX
  8
Triangle_Set_ncl1_5
 10
-0.715253
 20
0.081837
 30
0.399985
 70
   192
  0
VERTEX
  8
Triangle_Set_ncl1_5
 10
-0.715204
 20
0.081802
 30
0.399987
 70
   192
  0
VERTEX
  8
Triangle_Set_ncl1_5
 10
-0.715160
 20
0.081763
 30
0.399988
 70
   192
  0
VERTEX
  8
Triangle_Set_ncl1_5
 10
-0.715121
 20
0.081719
 30
0.399987
 70
   192
  0
VERTEX
  8
Triangle_Set_ncl1_5
 10
-0.715086
 20
0.081670
 30
0.399985
 70
   192
  0
VERTEX
  8
Triangle_Set_ncl1_5
 10
-0.715056
 20
0.081617
 30
0.399982
 70
   192
  0
VERTEX
  8
Triangle_Set_ncl1_5
 10
-0.715031
 20
0.081559
 30
0.399978
 70
   192
  0
VERTEX
  8
Triangle_Set_ncl1_5
 10
-0.715010
 20
0.081496
 30
0.399973
 70
   192
  0
VERTEX
  8
Triangle_Set_ncl1_5
 10
-0.714994
 20
0.081429
 30
0.399966
 70
   192
  0
VERTEX
  8
Triangle_Set_ncl1_5
 10
-0.714994
 20
0.081133
 30
0.399966
 70
   192
  0
VERTEX
  8
Triangle_Set_ncl1_5
 10
-0.715011
 20
0.081065
 30
0.399973
 70
   192
  0
VERTEX
  8
Triangle_Set_ncl1_5
 10
-0.715032
 20
0.081003
 30
0.399978
 70
   192
  0
VERTEX
  8
Triangle_Set_ncl1_5
 10
-0.715057
 20
0.080945
 30
0.399982
 70
   192
  0
VERTEX
  8
Triangle_Set_ncl1_5
 10
-0.715087
 20
0.080891
 30
0.399985
 70
   192
  0
VERTEX
  8
Triangle_Set_ncl1_5
 10
-0.715122
 20
0.080843
 30
0.399987
 70
   192
  0
VERTEX
  8
Triangle_Set_ncl1_5
 10
-0.715161
 20
0.080799
 30
0.399988
 70
   192
  0
VERTEX
  8
Triangle_Set_ncl1_5
 10
-0.715205
 20
0.080759
 30
0.399987
 70
   192
  0
VERTEX
  8
Triangle_Set_ncl1_5
 10
-0.715254
 20
0.080725
 30
0.399985
 70
   192
  0
VERTEX
  8
Triangle_Set_ncl1_5
 10
-0.715307
 20
0.080695
 30
0.399982
 70
   192
  0
VERTEX
  8
Triangle_Set_ncl1_5
 10
-0.715365
 20
0.080669
 30
0.399978
 70
   192
  0
VERTEX
  8
Triangle_Set_ncl1_5
 10
-0.715427
 20
0.080649
 30
0.399973
 70
   192
  0
VERTEX
  8
Triangle_Set_ncl1_5
 10
-0.715494
 20
0.080633
 30
0.399966
 70
   192
  0
VERTEX
  8
Triangle_Set_ncl1_5
 10
-0.715790
 20
0.080632
 30
0.399966
 70
   192
  0
VERTEX
  8
Triangle_Set_ncl1_5
 10
-0.715857
 20
0.080648
 30
0.399973
 70
   192
  0
VERTEX
  8
Triangle_Set_ncl1_5
 10
-0.715920
 20
0.080669
 30
0.399978
 70
   192
  0
VERTEX
  8
Triangle_Set_ncl1_5
 10
-0.715978
 20
0.080694
 30
0.399982
 70
   192
  0
VERTEX
  8
Triangle_Set_ncl1_5
 10
-0.716031
 20
0.080724
 30
0.399985
 70
   192
  0
VERTEX
  8
Triangle_Set_ncl1_5
 10
-0.716080
 20
0.080759
 30
0.399987
 70
   192
  0
VERTEX
  8
Triangle_Set_ncl1_5
 10
-0.716124
 20
0.080798
 30
0.399988
 70
   192
  0
VERTEX
  8
Triangle_Set_ncl1_5
 10
-0.716163
 20
0.080842
 30
0.399987
 70
   192
  0
VERTEX
  8
Triangle_Set_ncl1_5
 10
-0.716198
 20
0.080891
 30
0.399985
 70
   192
  0
VERTEX
  8
Triangle_Set_ncl1_5
 10
-0.716228
 20
0.080944
 30
0.399982
 70
   192
  0
VERTEX
  8
Triangle_Set_ncl1_5
 10
-0.716253
 20
0.081002
 30
0.399978
 70
   192
  0
VERTEX
  8
Triangle_Set_ncl1_5
 10
-0.716274
 20
0.081065
 30
0.399973
 70
   192
  0
VERTEX
  8
Triangle_Set_ncl1_5
 10
-0.716290
 20
0.081132
 30
0.399966
 70
   192
  0
VERTEX
  8
Triangle_Set_ncl1_5
 10
-0.716291
 20
0.081430
 30
0.399966
 70
   192
  0
VERTEX
  8
Triangle_Set_ncl1_5
 10
-0.716275
 20
0.081497
 30
0.399973
 70
   192
  0
VERTEX
  8
Triangle_Set_ncl1_5
 10
-0.716254
 20
0.081559
 30
0.399978
 70
   192
  0
VERTEX
  8
Triangle_Set_ncl1_5
 10
-0.716229
 20
0.081617
 30
0.399982
 70
   192
  0
VERTEX
  8
Triangle_Set_ncl1_5
 10
-0.716199
 20
0.081670
 30
0.399985
 70
   192
  0
VERTEX
  8
Triangle_Set_ncl1_5
 10
-0.716164
 20
0.081719
 30
0.399987
 70
   192
  0
VERTEX
  8
Triangle_Set_ncl1_5
 10
-0.716125
 20
0.081763
 30
0.399988
 70
   192
  0
VERTEX
  8
Triangle_Set_ncl1_5
 10
-0.716081
 20
0.081802
 30
0.399987
 70
   192
  0
VERTEX
  8
Triangle_Set_ncl1_5
 10
-0.716032
 20
0.081837
 30
0.399985
 70
   192
  0
VERTEX
  8
Triangle_Set_ncl1_5
 10
-0.715979
 20
0.081867
 30
0.399982
 70
   192
  0
VERTEX
  8
Triangle_Set_ncl1_5
 10
-0.715921
 20
0.081893
 30
0.399978
 70
   192
  0
VERTEX
  8
Triangle_Set_ncl1_5
 10
-0.715858
 20
0.081913
 30
0.399973
 70
   192
  0
VERTEX
  8
Triangle_Set_ncl1_5
 10
-0.715791
 20
0.081930
 30
0.399966
 70
   192
  0
VERTEX
  8
Triangle_Set_ncl1_5
 10
-0.718468
 20
0.081929
 30
0.399966
 70
   192
  0
VERTEX
  8
Triangle_Set_ncl1_5
 10
-0.718401
 20
0.081913
 30
0.399973
 70
   192
  0
VERTEX
  8
Triangle_Set_ncl1_5
 10
-0.718338
 20
0.081892
 30
0.399978
 70
   192
  0
VERTEX
  8
Triangle_Set_ncl1_5
 10
-0.718281
 20
0.081867
 30
0.399982
 70
   192
  0
VERTEX
  8
Triangle_Set_ncl1_5
 10
-0.718227
 20
0.081837
 30
0.399985
 70
   192
  0
VERTEX
  8
Triangle_Set_ncl1_5
 10
-0.718179
 20
0.081802
 30
0.399987
 70
   192
  0
VERTEX
  8
Triangle_Set_ncl1_5
 10
-0.718135
 20
0.081763
 30
0.399988
 70
   192
  0
VERTEX
  8
Triangle_Set_ncl1_5
 10
-0.718095
 20
0.081719
 30
0.399987
 70
   192
  0
VERTEX
  8
Triangle_Set_ncl1_5
 10
-0.718061
 20
0.081670
 30
0.399985
 70
   192
  0
VERTEX
  8
Triangle_Set_ncl1_5
 10
-0.718031
 20
0.081617
 30
0.399982
 70
   192
  0
VERTEX
  8
Triangle_Set_ncl1_5
 10
-0.718005
 20
0.081559
 30
0.399978
 70
   192
  0
VERTEX
  8
Triangle_Set_ncl1_5
 10
-0.717984
 20
0.081496
 30
0.399973
 70
   192
  0
VERTEX
  8
Triangle_Set_ncl1_5
 10
-0.717968
 20
0.081429
 30
0.399966
 70
   192
  0
VERTEX
  8
Triangle_Set_ncl1_5
 10
-0.717969
 20
0.081133
 30
0.399966
 70
   192
  0
VERTEX
  8
Triangle_Set_ncl1_5
 10
-0.717985
 20
0.081065
 30
0.399973
 70
   192
  0
VERTEX
  8
Triangle_Set_ncl1_5
 10
-0.718006
 20
0.081003
 30
0.399978
 70
   192
  0
VERTEX
  8
Triangle_Set_ncl1_5
 10
-0.718032
 20
0.080945
 30
0.399982
 70
   192
  0
VERTEX
  8
Triangle_Set_ncl1_5
 10
-0.718062
 20
0.080891
 30
0.399985
 70
   192
  0
VERTEX
  8
Triangle_Set_ncl1_5
 10
-0.718096
 20
0.080843
 30
0.399987
 70
   192
  0
VERTEX
  8
Triangle_Set_ncl1_5
 10
-0.718136
 20
0.080799
 30
0.399988
 70
   192
  0
VERTEX
  8
Triangle_Set_ncl1_5
 10
-0.718180
 20
0.080759
 30
0.399987
 70
   192
  0
VERTEX
  8
Triangle_Set_ncl1_5
 10
-0.718228
 20
0.080725
 30
0.399985
 70
   192
  0
VERTEX
  8
Triangle_Set_ncl1_5
 10
-0.718282
 20
0.080695
 30
0.399982
 70
   192
  0
VERTEX
  8
Triangle_Set_ncl1_5
 10
-0.718339
 20
0.080669
 30
0.399978
 70
   192
  0
VERTEX
  8
Triangle_Set_ncl1_5
 10
-0.718402
 20
0.080649
 30
0.399973
 70
   192
  0
VERTEX
  8
Triangle_Set_ncl1_5
 10
-0.718469
 20
0.080633
 30
0.399966
 70
   192
  0
VERTEX
  8
Triangle_Set_ncl1_5
 10
-0.718765
 20
0.080632
 30
0.399966
 70
   192
  0
VERTEX
  8
Triangle_Set_ncl1_5
 10
-0.718832
 20
0.080648
 30
0.399973
 70
   192
  0
VERTEX
  8
Triangle_Set_ncl1_5
 10
-0.718894
 20
0.080669
 30
0.399978
 70
   192
  0
VERTEX
  8
Triangle_Set_ncl1_5
 10
-0.718952
 20
0.080694
 30
0.399982
 70
   192
  0
VERTEX
  8
Triangle_Set_ncl1_5
 10
-0.719005
 20
0.080724
 30
0.399985
 70
   192
  0
VERTEX
  8
Triangle_Set_ncl1_5
 10
-0.719054
 20
0.080759
 30
0.399987
 70
   192
  0
VERTEX
  8
Triangle_Set_ncl1_5
 10
-0.719098
 20
0.080798
 30
0.399988
 70
   192
  0
VERTEX
  8
Triangle_Set_ncl1_5
 10
-0.719137
 20
0.080842
 30
0.399987
 70
   192
  0
VERTEX
  8
Triangle_Set_ncl1_5
 10
-0.719172
 20
0.080891
 30
0.399985
 70
   192
  0
VERTEX
  8
Triangle_Set_ncl1_5
 10
-0.719202
 20
0.080944
 30
0.399982
 70
   192
  0
VERTEX
  8
Triangle_Set_ncl1_5
 10
-0.719228
 20
0.081002
 30
0.399978
 70
   192
  0
VERTEX
  8
Triangle_Set_ncl1_5
 10
-0.719248
 20
0.081065
 30
0.399973
 70
   192
  0
VERTEX
  8
Triangle_Set_ncl1_5
 10
-0.719265
 20
0.081132
 30
0.399966
 70
   192
  0
VERTEX
  8
Triangle_Set_ncl1_5
 10
-0.719265
 20
0.081430
 30
0.399966
 70
   192
  0
VERTEX
  8
Triangle_Set_ncl1_5
 10
-0.719249
 20
0.081497
 30
0.399973
 70
   192
  0
VERTEX
  8
Triangle_Set_ncl1_5
 10
-0.719229
 20
0.081559
 30
0.399978
 70
   192
  0
VERTEX
  8
Triangle_Set_ncl1_5
 10
-0.719203
 20
0.081617
 30
0.399982
 70
   192
  0
VERTEX
  8
Triangle_Set_ncl1_5
 10
-0.719173
 20
0.081670
 30
0.399985
 70
   192
  0
VERTEX
  8
Triangle_Set_ncl1_5
 10
-0.719139
 20
0.081719
 30
0.399987
 70
   192
  0
VERTEX
  8
Triangle_Set_ncl1_5
 10
-0.719099
 20
0.081763
 30
0.399988
 70
   192
  0
VERTEX
  8
Triangle_Set_ncl1_5
 10
-0.719055
 20
0.081802
 30
0.399987
 70
   192
  0
VERTEX
  8
Triangle_Set_ncl1_5
 10
-0.719007
 20
0.081837
 30
0.399985
 70
   192
  0
VERTEX
  8
Triangle_Set_ncl1_5
 10
-0.718953
 20
0.081867
 30
0.399982
 70
   192
  0
VERTEX
  8
Triangle_Set_ncl1_5
 10
-0.718895
 20
0.081893
 30
0.399978
 70
   192
  0
VERTEX
  8
Triangle_Set_ncl1_5
 10
-0.718832
 20
0.081913
 30
0.399973
 70
   192
  0
VERTEX
  8
Triangle_Set_ncl1_5
 10
-0.718765
 20
0.081930
 30
0.399966
 70
   192
  0
VERTEX
  8
Triangle_Set_ncl1_5
 62
   51
 10
0.0
 20
0.0
 30
0.0
 70
   128
 71
   1
 72
   4
 73
   3
  0
VERTEX
  8
Triangle_Set_ncl1_5
 62
   51
 10
0.0
 20
0.0
 30
0.0
 70
   128
 71
   2
 72
   1
 73
   3
  0
VERTEX
  8
Triangle_Set_ncl1_5
 62
   51
 10
0.0
 20
0.0
 30
0.0
 70
   128
 71
   2
 72
   6
 73
   5
  0
VERTEX
  8
Triangle_Set_ncl1_5
 62
   51
 10
0.0
 20
0.0
 30
0.0
 70
   128
 71
   6
 72
   2
 73
   3
  0
VERTEX
  8
Triangle_Set_ncl1_5
 62
   51
 10
0.0
 20
0.0
 30
0.0
 70
   128
 71
   7
 72
   1
 73
   17
  0
VERTEX
  8
Triangle_Set_ncl1_5
 62
   51
 10
0.0
 20
0.0
 30
0.0
 70
   128
 71
   25
 72
   2
 73
   26
  0
VERTEX
  8
Triangle_Set_ncl1_5
 62
   51
 10
0.0
 20
0.0
 30
0.0
 70
   128
 71
   17
 72
   1
 73
   18
  0
VERTEX
  8
Triangle_Set_ncl1_5
 62
   51
 10
0.0
 20
0.0
 30
0.0
 70
   128
 71
   18
 72
   1
 73
   19
  0
VERTEX
  8
Triangle_Set_ncl1_5
 62
   51
 10
0.0
 20
0.0
 30
0.0
 70
   128
 71
   19
 72
   1
 73
   20
  0
VERTEX
  8
Triangle_Set_ncl1_5
 62
   51
 10
0.0
 20
0.0
 30
0.0
 70
   128
 71
   20
 72
   1
 73
   21
  0
VERTEX
  8
Triangle_Set_ncl1_5
 62
   51
 10
0.0
 20
0.0
 30
0.0
 70
   128
 71
   21
 72
   1
 73
   22
  0
VERTEX
  8
Triangle_Set_ncl1_5
 62
   51
 10
0.0
 20
0.0
 30
0.0
 70
   128
 71
   22
 72
   1
 73
   23
  0
VERTEX
  8
Triangle_Set_ncl1_5
 62
   51
 10
0.0
 20
0.0
 30
0.0
 70
   128
 71
   23
 72
   1
 73
   24
  0
VERTEX
  8
Triangle_Set_ncl1_5
 62
   51
 10
0.0
 20
0.0
 30
0.0
 70
   128
 71
   24
 72
   1
 73
   25
  0
VERTEX
  8
Triangle_Set_ncl1_5
 62
   51
 10
0.0
 20
0.0
 30
0.0
 70
   128
 71
   25
 72
   1
 73
   2
  0
VERTEX
  8
Triangle_Set_ncl1_5
 62
   51
 10
0.0
 20
0.0
 30
0.0
 70
   128
 71
   26
 72
   2
 73
   27
  0
VERTEX
  8
Triangle_Set_ncl1_5
 62
   51
 10
0.0
 20
0.0
 30
0.0
 70
   128
 71
   27
 72
   2
 73
   28
  0
VERTEX
  8
Triangle_Set_ncl1_5
 62
   51
 10
0.0
 20
0.0
 30
0.0
 70
   128
 71
   28
 72
   2
 73
   29
  0
VERTEX
  8
Triangle_Set_ncl1_5
 62
   51
 10
0.0
 20
0.0
 30
0.0
 70
   128
 71
   29
 72
   2
 73
   8
  0
VERTEX
  8
Triangle_Set_ncl1_5
 62
   51
 10
0.0
 20
0.0
 30
0.0
 70
   128
 71
   8
 72
   5
 73
   30
  0
VERTEX
  8
Triangle_Set_ncl1_5
 62
   51
 10
0.0
 20
0.0
 30
0.0
 70
   128
 71
   30
 72
   5
 73
   31
  0
VERTEX
  8
Triangle_Set_ncl1_5
 62
   51
 10
0.0
 20
0.0
 30
0.0
 70
   128
 71
   31
 72
   5
 73
   32
  0
VERTEX
  8
Triangle_Set_ncl1_5
 62
   51
 10
0.0
 20
0.0
 30
0.0
 70
   128
 71
   32
 72
   5
 73
   33
  0
VERTEX
  8
Triangle_Set_ncl1_5
 62
   51
 10
0.0
 20
0.0
 30
0.0
 70
   128
 71
   33
 72
   5
 73
   34
  0
VERTEX
  8
Triangle_Set_ncl1_5
 62
   51
 10
0.0
 20
0.0
 30
0.0
 70
   128
 71
   34
 72
   5
 73
   35
  0
VERTEX
  8
Triangle_Set_ncl1_5
 62
   51
 10
0.0
 20
0.0
 30
0.0
 70
   128
 71
   35
 72
   5
 73
   36
  0
VERTEX
  8
Triangle_Set_ncl1_5
 62
   51
 10
0.0
 20
0.0
 30
0.0
 70
   128
 71
   37
 72
   5
 73
   11
  0
VERTEX
  8
Triangle_Set_ncl1_5
 62
   51
 10
0.0
 20
0.0
 30
0.0
 70
   128
 71
   37
 72
   36
 73
   5
  0
VERTEX
  8
Triangle_Set_ncl1_5
 62
   51
 10
0.0
 20
0.0
 30
0.0
 70
   128
 71
   38
 72
   37
 73
   11
  0
VERTEX
  8
Triangle_Set_ncl1_5
 62
   51
 10
0.0
 20
0.0
 30
0.0
 70
   128
 71
   39
 72
   38
 73
   11
  0
VERTEX
  8
Triangle_Set_ncl1_5
 62
   51
 10
0.0
 20
0.0
 30
0.0
 70
   128
 71
   40
 72
   39
 73
   11
  0
VERTEX
  8
Triangle_Set_ncl1_5
 62
   51
 10
0.0
 20
0.0
 30
0.0
 70
   128
 71
   41
 72
   40
 73
   11
  0
VERTEX
  8
Triangle_Set_ncl1_5
 62
   51
 10
0.0
 20
0.0
 30
0.0
 70
   128
 71
   42
 72
   41
 73
   11
  0
VERTEX
  8
Triangle_Set_ncl1_5
 62
   51
 10
0.0
 20
0.0
 30
0.0
 70
   128
 71
   9
 72
   42
 73
   11
  0
VERTEX
  8
Triangle_Set_ncl1_5
 62
   51
 10
0.0
 20
0.0
 30
0.0
 70
   128
 71
   9
 72
   11
 73
   14
  0
VERTEX
  8
Triangle_Set_ncl1_5
 62
   51
 10
0.0
 20
0.0
 30
0.0
 70
   128
 71
   77
 72
   76
 73
   61
  0
VERTEX
  8
Triangle_Set_ncl1_5
 62
   51
 10
0.0
 20
0.0
 30
0.0
 70
   128
 71
   74
 72
   62
 73
   75
  0
VERTEX
  8
Triangle_Set_ncl1_5
 62
   51
 10
0.0
 20
0.0
 30
0.0
 70
   128
 71
   48
 72
   89
 73
   49
  0
VERTEX
  8
Triangle_Set_ncl1_5
 62
   51
 10
0.0
 20
0.0
 30
0.0
 70
   128
 71
   49
 72
   87
 73
   50
  0
VERTEX
  8
Triangle_Set_ncl1_5
 62
   51
 10
0.0
 20
0.0
 30
0.0
 70
   128
 71
   52
 72
   51
 73
   85
  0
VERTEX
  8
Triangle_Set_ncl1_5
 62
   51
 10
0.0
 20
0.0
 30
0.0
 70
   128
 71
   54
 72
   53
 73
   83
  0
VERTEX
  8
Triangle_Set_ncl1_5
 62
   51
 10
0.0
 20
0.0
 30
0.0
 70
   128
 71
   56
 72
   10
 73
   13
  0
VERTEX
  8
Triangle_Set_ncl1_5
 62
   51
 10
0.0
 20
0.0
 30
0.0
 70
   128
 71
   58
 72
   57
 73
   80
  0
VERTEX
  8
Triangle_Set_ncl1_5
 62
   51
 10
0.0
 20
0.0
 30
0.0
 70
   128
 71
   12
 72
   68
 73
   69
  0
VERTEX
  8
Triangle_Set_ncl1_5
 62
   51
 10
0.0
 20
0.0
 30
0.0
 70
   128
 71
   60
 72
   77
 73
   61
  0
VERTEX
  8
Triangle_Set_ncl1_5
 62
   51
 10
0.0
 20
0.0
 30
0.0
 70
   128
 71
   61
 72
   75
 73
   62
  0
VERTEX
  8
Triangle_Set_ncl1_5
 62
   51
 10
0.0
 20
0.0
 30
0.0
 70
   128
 71
   62
 72
   74
 73
   63
  0
VERTEX
  8
Triangle_Set_ncl1_5
 62
   51
 10
0.0
 20
0.0
 30
0.0
 70
   128
 71
   63
 72
   73
 73
   64
  0
VERTEX
  8
Triangle_Set_ncl1_5
 62
   51
 10
0.0
 20
0.0
 30
0.0
 70
   128
 71
   64
 72
   72
 73
   65
  0
VERTEX
  8
Triangle_Set_ncl1_5
 62
   51
 10
0.0
 20
0.0
 30
0.0
 70
   128
 71
   65
 72
   71
 73
   66
  0
VERTEX
  8
Triangle_Set_ncl1_5
 62
   51
 10
0.0
 20
0.0
 30
0.0
 70
   128
 71
   66
 72
   70
 73
   67
  0
VERTEX
  8
Triangle_Set_ncl1_5
 62
   51
 10
0.0
 20
0.0
 30
0.0
 70
   128
 71
   12
 72
   7
 73
   68
  0
VERTEX
  8
Triangle_Set_ncl1_5
 62
   51
 10
0.0
 20
0.0
 30
0.0
 70
   128
 71
   67
 72
   69
 73
   68
  0
VERTEX
  8
Triangle_Set_ncl1_5
 62
   51
 10
0.0
 20
0.0
 30
0.0
 70
   128
 71
   50
 72
   86
 73
   51
  0
VERTEX
  8
Triangle_Set_ncl1_5
 62
   51
 10
0.0
 20
0.0
 30
0.0
 70
   128
 71
   72
 72
   64
 73
   73
  0
VERTEX
  8
Triangle_Set_ncl1_5
 62
   51
 10
0.0
 20
0.0
 30
0.0
 70
   128
 71
   81
 72
   57
 73
   56
  0
VERTEX
  8
Triangle_Set_ncl1_5
 62
   51
 10
0.0
 20
0.0
 30
0.0
 70
   128
 71
   5
 72
   8
 73
   2
  0
VERTEX
  8
Triangle_Set_ncl1_5
 62
   51
 10
0.0
 20
0.0
 30
0.0
 70
   128
 71
   1
 72
   7
 73
   12
  0
VERTEX
  8
Triangle_Set_ncl1_5
 62
   51
 10
0.0
 20
0.0
 30
0.0
 70
   128
 71
   59
 72
   58
 73
   79
  0
VERTEX
  8
Triangle_Set_ncl1_5
 62
   51
 10
0.0
 20
0.0
 30
0.0
 70
   128
 71
   60
 72
   59
 73
   78
  0
VERTEX
  8
Triangle_Set_ncl1_5
 62
   51
 10
0.0
 20
0.0
 30
0.0
 70
   128
 71
   69
 72
   67
 73
   70
  0
VERTEX
  8
Triangle_Set_ncl1_5
 62
   51
 10
0.0
 20
0.0
 30
0.0
 70
   128
 71
   55
 72
   54
 73
   82
  0
VERTEX
  8
Triangle_Set_ncl1_5
 62
   51
 10
0.0
 20
0.0
 30
0.0
 70
   128
 71
   10
 72
   55
 73
   13
  0
VERTEX
  8
Triangle_Set_ncl1_5
 62
   51
 10
0.0
 20
0.0
 30
0.0
 70
   128
 71
   70
 72
   66
 73
   71
  0
VERTEX
  8
Triangle_Set_ncl1_5
 62
   51
 10
0.0
 20
0.0
 30
0.0
 70
   128
 71
   53
 72
   52
 73
   84
  0
VERTEX
  8
Triangle_Set_ncl1_5
 62
   51
 10
0.0
 20
0.0
 30
0.0
 70
   128
 71
   71
 72
   65
 73
   72
  0
VERTEX
  8
Triangle_Set_ncl1_5
 62
   51
 10
0.0
 20
0.0
 30
0.0
 70
   128
 71
   48
 72
   47
 73
   90
  0
VERTEX
  8
Triangle_Set_ncl1_5
 62
   51
 10
0.0
 20
0.0
 30
0.0
 70
   128
 71
   73
 72
   63
 73
   74
  0
VERTEX
  8
Triangle_Set_ncl1_5
 62
   51
 10
0.0
 20
0.0
 30
0.0
 70
   128
 71
   47
 72
   46
 73
   91
  0
VERTEX
  8
Triangle_Set_ncl1_5
 62
   51
 10
0.0
 20
0.0
 30
0.0
 70
   128
 71
   75
 72
   61
 73
   76
  0
VERTEX
  8
Triangle_Set_ncl1_5
 62
   51
 10
0.0
 20
0.0
 30
0.0
 70
   128
 71
   77
 72
   60
 73
   78
  0
VERTEX
  8
Triangle_Set_ncl1_5
 62
   51
 10
0.0
 20
0.0
 30
0.0
 70
   128
 71
   78
 72
   59
 73
   79
  0
VERTEX
  8
Triangle_Set_ncl1_5
 62
   51
 10
0.0
 20
0.0
 30
0.0
 70
   128
 71
   46
 72
   45
 73
   92
  0
VERTEX
  8
Triangle_Set_ncl1_5
 62
   51
 10
0.0
 20
0.0
 30
0.0
 70
   128
 71
   79
 72
   58
 73
   80
  0
VERTEX
  8
Triangle_Set_ncl1_5
 62
   51
 10
0.0
 20
0.0
 30
0.0
 70
   128
 71
   80
 72
   57
 73
   81
  0
VERTEX
  8
Triangle_Set_ncl1_5
 62
   51
 10
0.0
 20
0.0
 30
0.0
 70
   128
 71
   45
 72
   44
 73
   93
  0
VERTEX
  8
Triangle_Set_ncl1_5
 62
   51
 10
0.0
 20
0.0
 30
0.0
 70
   128
 71
   81
 72
   56
 73
   13
  0
VERTEX
  8
Triangle_Set_ncl1_5
 62
   51
 10
0.0
 20
0.0
 30
0.0
 70
   128
 71
   13
 72
   55
 73
   82
  0
VERTEX
  8
Triangle_Set_ncl1_5
 62
   51
 10
0.0
 20
0.0
 30
0.0
 70
   128
 71
   44
 72
   43
 73
   94
  0
VERTEX
  8
Triangle_Set_ncl1_5
 62
   51
 10
0.0
 20
0.0
 30
0.0
 70
   128
 71
   82
 72
   54
 73
   83
  0
VERTEX
  8
Triangle_Set_ncl1_5
 62
   51
 10
0.0
 20
0.0
 30
0.0
 70
   128
 71
   83
 72
   53
 73
   84
  0
VERTEX
  8
Triangle_Set_ncl1_5
 62
   51
 10
0.0
 20
0.0
 30
0.0
 70
   128
 71
   84
 72
   52
 73
   85
  0
VERTEX
  8
Triangle_Set_ncl1_5
 62
   51
 10
0.0
 20
0.0
 30
0.0
 70
   128
 71
   85
 72
   51
 73
   86
  0
VERTEX
  8
Triangle_Set_ncl1_5
 62
   51
 10
0.0
 20
0.0
 30
0.0
 70
   128
 71
   43
 72
   9
 73
   14
  0
VERTEX
  8
Triangle_Set_ncl1_5
 62
   51
 10
0.0
 20
0.0
 30
0.0
 70
   128
 71
   86
 72
   50
 73
   87
  0
VERTEX
  8
Triangle_Set_ncl1_5
 62
   51
 10
0.0
 20
0.0
 30
0.0
 70
   128
 71
   87
 72
   49
 73
   88
  0
VERTEX
  8
Triangle_Set_ncl1_5
 62
   51
 10
0.0
 20
0.0
 30
0.0
 70
   128
 71
   88
 72
   49
 73
   89
  0
VERTEX
  8
Triangle_Set_ncl1_5
 62
   51
 10
0.0
 20
0.0
 30
0.0
 70
   128
 71
   89
 72
   48
 73
   90
  0
VERTEX
  8
Triangle_Set_ncl1_5
 62
   51
 10
0.0
 20
0.0
 30
0.0
 70
   128
 71
   90
 72
   47
 73
   91
  0
VERTEX
  8
Triangle_Set_ncl1_5
 62
   51
 10
0.0
 20
0.0
 30
0.0
 70
   128
 71
   91
 72
   46
 73
   92
  0
VERTEX
  8
Triangle_Set_ncl1_5
 62
   51
 10
0.0
 20
0.0
 30
0.0
 70
   128
 71
   92
 72
   45
 73
   93
  0
VERTEX
  8
Triangle_Set_ncl1_5
 62
   51
 10
0.0
 20
0.0
 30
0.0
 70
   128
 71
   93
 72
   44
 73
   94
  0
VERTEX
  8
Triangle_Set_ncl1_5
 62
   51
 10
0.0
 20
0.0
 30
0.0
 70
   128
 71
   94
 72
   43
 73
   14
  0
VERTEX
  8
Triangle_Set_ncl1_5
 62
   51
 10
0.0
 20
0.0
 30
0.0
 70
   128
 71
   14
 72
   11
 73
   95
  0
VERTEX
  8
Triangle_Set_ncl1_5
 62
   51
 10
0.0
 20
0.0
 30
0.0
 70
   128
 71
   95
 72
   11
 73
   96
  0
VERTEX
  8
Triangle_Set_ncl1_5
 62
   51
 10
0.0
 20
0.0
 30
0.0
 70
   128
 71
   96
 72
   11
 73
   97
  0
VERTEX
  8
Triangle_Set_ncl1_5
 62
   51
 10
0.0
 20
0.0
 30
0.0
 70
   128
 71
   97
 72
   11
 73
   98
  0
VERTEX
  8
Triangle_Set_ncl1_5
 62
   51
 10
0.0
 20
0.0
 30
0.0
 70
   128
 71
   98
 72
   11
 73
   99
  0
VERTEX
  8
Triangle_Set_ncl1_5
 62
   51
 10
0.0
 20
0.0
 30
0.0
 70
   128
 71
   99
 72
   11
 73
   100
  0
VERTEX
  8
Triangle_Set_ncl1_5
 62
   51
 10
0.0
 20
0.0
 30
0.0
 70
   128
 71
   100
 72
   11
 73
   101
  0
VERTEX
  8
Triangle_Set_ncl1_5
 62
   51
 10
0.0
 20
0.0
 30
0.0
 70
   128
 71
   101
 72
   11
 73
   102
  0
VERTEX
  8
Triangle_Set_ncl1_5
 62
   51
 10
0.0
 20
0.0
 30
0.0
 70
   128
 71
   102
 72
   11
 73
   103
  0
VERTEX
  8
Triangle_Set_ncl1_5
 62
   51
 10
0.0
 20
0.0
 30
0.0
 70
   128
 71
   11
 72
   1
 73
   110
  0
VERTEX
  8
Triangle_Set_ncl1_5
 62
   51
 10
0.0
 20
0.0
 30
0.0
 70
   128
 71
   103
 72
   11
 73
   104
  0
VERTEX
  8
Triangle_Set_ncl1_5
 62
   51
 10
0.0
 20
0.0
 30
0.0
 70
   128
 71
   104
 72
   11
 73
   105
  0
VERTEX
  8
Triangle_Set_ncl1_5
 62
   51
 10
0.0
 20
0.0
 30
0.0
 70
   128
 71
   105
 72
   11
 73
   106
  0
VERTEX
  8
Triangle_Set_ncl1_5
 62
   51
 10
0.0
 20
0.0
 30
0.0
 70
   128
 71
   106
 72
   11
 73
   107
  0
VERTEX
  8
Triangle_Set_ncl1_5
 62
   51
 10
0.0
 20
0.0
 30
0.0
 70
   128
 71
   107
 72
   11
 73
   15
  0
VERTEX
  8
Triangle_Set_ncl1_5
 62
   51
 10
0.0
 20
0.0
 30
0.0
 70
   128
 71
   15
 72
   11
 73
   108
  0
VERTEX
  8
Triangle_Set_ncl1_5
 62
   51
 10
0.0
 20
0.0
 30
0.0
 70
   128
 71
   108
 72
   11
 73
   109
  0
VERTEX
  8
Triangle_Set_ncl1_5
 62
   51
 10
0.0
 20
0.0
 30
0.0
 70
   128
 71
   109
 72
   11
 73
   110
  0
VERTEX
  8
Triangle_Set_ncl1_5
 62
   51
 10
0.0
 20
0.0
 30
0.0
 70
   128
 71
   110
 72
   1
 73
   111
  0
VERTEX
  8
Triangle_Set_ncl1_5
 62
   51
 10
0.0
 20
0.0
 30
0.0
 70
   128
 71
   111
 72
   1
 73
   112
  0
VERTEX
  8
Triangle_Set_ncl1_5
 62
   51
 10
0.0
 20
0.0
 30
0.0
 70
   128
 71
   112
 72
   1
 73
   113
  0
VERTEX
  8
Triangle_Set_ncl1_5
 62
   51
 10
0.0
 20
0.0
 30
0.0
 70
   128
 71
   113
 72
   1
 73
   114
  0
VERTEX
  8
Triangle_Set_ncl1_5
 62
   51
 10
0.0
 20
0.0
 30
0.0
 70
   128
 71
   114
 72
   1
 73
   115
  0
VERTEX
  8
Triangle_Set_ncl1_5
 62
   51
 10
0.0
 20
0.0
 30
0.0
 70
   128
 71
   115
 72
   1
 73
   116
  0
VERTEX
  8
Triangle_Set_ncl1_5
 62
   51
 10
0.0
 20
0.0
 30
0.0
 70
   128
 71
   116
 72
   1
 73
   117
  0
VERTEX
  8
Triangle_Set_ncl1_5
 62
   51
 10
0.0
 20
0.0
 30
0.0
 70
   128
 71
   117
 72
   1
 73
   118
  0
VERTEX
  8
Triangle_Set_ncl1_5
 62
   51
 10
0.0
 20
0.0
 30
0.0
 70
   128
 71
   118
 72
   1
 73
   119
  0
VERTEX
  8
Triangle_Set_ncl1_5
 62
   51
 10
0.0
 20
0.0
 30
0.0
 70
   128
 71
   1
 72
   12
 73
   120
  0
VERTEX
  8
Triangle_Set_ncl1_5
 62
   51
 10
0.0
 20
0.0
 30
0.0
 70
   128
 71
   119
 72
   1
 73
   120
  0
VERTEX
  8
Triangle_Set_ncl1_5
 62
   51
 10
0.0
 20
0.0
 30
0.0
 70
   128
 71
   1
 72
   16
 73
   4
  0
VERTEX
  8
Triangle_Set_ncl1_5
 62
   51
 10
0.0
 20
0.0
 30
0.0
 70
   128
 71
   16
 72
   1
 73
   11
  0
VERTEX
  8
Triangle_Set_ncl1_5
 62
   51
 10
0.0
 20
0.0
 30
0.0
 70
   128
 71
   4
 72
   6
 73
   3
  0
VERTEX
  8
Triangle_Set_ncl1_5
 62
   51
 10
0.0
 20
0.0
 30
0.0
 70
   128
 71
   6
 72
   4
 73
   16
  0
VERTEX
  8
Triangle_Set_ncl1_5
 62
   51
 10
0.0
 20
0.0
 30
0.0
 70
   128
 71
   5
 72
   6
 73
   11
  0
VERTEX
  8
Triangle_Set_ncl1_5
 62
   51
 10
0.0
 20
0.0
 30
0.0
 70
   128
 71
   6
 72
   16
 73
   11
  0
SEQEND
  0
POLYLINE
  8
Triangle_Set_ncl1_6
 62
   5
 66
   1
 10
0.0
 20
0.0
 30
0.0
 70
   64
 71
   112
 72
   108
  0
VERTEX
  8
Triangle_Set_ncl1_6
 10
-0.714975
 20
0.081281
 30
0.399950
 70
   192
  0
VERTEX
  8
Triangle_Set_ncl1_6
 10
-0.715642
 20
0.080615
 30
0.399950
 70
   192
  0
VERTEX
  8
Triangle_Set_ncl1_6
 10
-0.715642
 20
0.081948
 30
0.399950
 70
   192
  0
VERTEX
  8
Triangle_Set_ncl1_6
 10
-0.716309
 20
0.081281
 30
0.399950
 70
   192
  0
VERTEX
  8
Triangle_Set_ncl1_6
 10
-0.717950
 20
0.081281
 30
0.399950
 70
   192
  0
VERTEX
  8
Triangle_Set_ncl1_6
 10
-0.718616
 20
0.080615
 30
0.399950
 70
   192
  0
VERTEX
  8
Triangle_Set_ncl1_6
 10
-0.718616
 20
0.081948
 30
0.399950
 70
   192
  0
VERTEX
  8
Triangle_Set_ncl1_6
 10
-0.719283
 20
0.081281
 30
0.399950
 70
   192
  0
VERTEX
  8
Triangle_Set_ncl1_6
 10
-0.714994
 20
0.081133
 30
0.399966
 70
   192
  0
VERTEX
  8
Triangle_Set_ncl1_6
 10
-0.715011
 20
0.081065
 30
0.399973
 70
   192
  0
VERTEX
  8
Triangle_Set_ncl1_6
 10
-0.715032
 20
0.081003
 30
0.399978
 70
   192
  0
VERTEX
  8
Triangle_Set_ncl1_6
 10
-0.715057
 20
0.080945
 30
0.399982
 70
   192
  0
VERTEX
  8
Triangle_Set_ncl1_6
 10
-0.715087
 20
0.080891
 30
0.399985
 70
   192
  0
VERTEX
  8
Triangle_Set_ncl1_6
 10
-0.715122
 20
0.080843
 30
0.399987
 70
   192
  0
VERTEX
  8
Triangle_Set_ncl1_6
 10
-0.715161
 20
0.080799
 30
0.399988
 70
   192
  0
VERTEX
  8
Triangle_Set_ncl1_6
 10
-0.715205
 20
0.080759
 30
0.399987
 70
   192
  0
VERTEX
  8
Triangle_Set_ncl1_6
 10
-0.715254
 20
0.080725
 30
0.399985
 70
   192
  0
VERTEX
  8
Triangle_Set_ncl1_6
 10
-0.715307
 20
0.080695
 30
0.399982
 70
   192
  0
VERTEX
  8
Triangle_Set_ncl1_6
 10
-0.715365
 20
0.080669
 30
0.399978
 70
   192
  0
VERTEX
  8
Triangle_Set_ncl1_6
 10
-0.715427
 20
0.080649
 30
0.399973
 70
   192
  0
VERTEX
  8
Triangle_Set_ncl1_6
 10
-0.715494
 20
0.080633
 30
0.399966
 70
   192
  0
VERTEX
  8
Triangle_Set_ncl1_6
 10
-0.715494
 20
0.081929
 30
0.399966
 70
   192
  0
VERTEX
  8
Triangle_Set_ncl1_6
 10
-0.715427
 20
0.081913
 30
0.399973
 70
   192
  0
VERTEX
  8
Triangle_Set_ncl1_6
 10
-0.715364
 20
0.081892
 30
0.399978
 70
   192
  0
VERTEX
  8
Triangle_Set_ncl1_6
 10
-0.715306
 20
0.081867
 30
0.399982
 70
   192
  0
VERTEX
  8
Triangle_Set_ncl1_6
 10
-0.715253
 20
0.081837
 30
0.399985
 70
   192
  0
VERTEX
  8
Triangle_Set_ncl1_6
 10
-0.715204
 20
0.081802
 30
0.399987
 70
   192
  0
VERTEX
  8
Triangle_Set_ncl1_6
 10
-0.715160
 20
0.081763
 30
0.399988
 70
   192
  0
VERTEX
  8
Triangle_Set_ncl1_6
 10
-0.715121
 20
0.081719
 30
0.399987
 70
   192
  0
VERTEX
  8
Triangle_Set_ncl1_6
 10
-0.715086
 20
0.081670
 30
0.399985
 70
   192
  0
VERTEX
  8
Triangle_Set_ncl1_6
 10
-0.715056
 20
0.081617
 30
0.399982
 70
   192
  0
VERTEX
  8
Triangle_Set_ncl1_6
 10
-0.715031
 20
0.081559
 30
0.399978
 70
   192
  0
VERTEX
  8
Triangle_Set_ncl1_6
 10
-0.715010
 20
0.081496
 30
0.399973
 70
   192
  0
VERTEX
  8
Triangle_Set_ncl1_6
 10
-0.714994
 20
0.081429
 30
0.399966
 70
   192
  0
VERTEX
  8
Triangle_Set_ncl1_6
 10
-0.716291
 20
0.081430
 30
0.399966
 70
   192
  0
VERTEX
  8
Triangle_Set_ncl1_6
 10
-0.716275
 20
0.081497
 30
0.399973
 70
   192
  0
VERTEX
  8
Triangle_Set_ncl1_6
 10
-0.716254
 20
0.081559
 30
0.399978
 70
   192
  0
VERTEX
  8
Triangle_Set_ncl1_6
 10
-0.716229
 20
0.081617
 30
0.399982
 70
   192
  0
VERTEX
  8
Triangle_Set_ncl1_6
 10
-0.716199
 20
0.081670
 30
0.399985
 70
   192
  0
VERTEX
  8
Triangle_Set_ncl1_6
 10
-0.716164
 20
0.081719
 30
0.399987
 70
   192
  0
VERTEX
  8
Triangle_Set_ncl1_6
 10
-0.716125
 20
0.081763
 30
0.399988
 70
   192
  0
VERTEX
  8
Triangle_Set_ncl1_6
 10
-0.716081
 20
0.081802
 30
0.399987
 70
   192
  0
VERTEX
  8
Triangle_Set_ncl1_6
 10
-0.716032
 20
0.081837
 30
0.399985
 70
   192
  0
VERTEX
  8
Triangle_Set_ncl1_6
 10
-0.715979
 20
0.081867
 30
0.399982
 70
   192
  0
VERTEX
  8
Triangle_Set_ncl1_6
 10
-0.715921
 20
0.081893
 30
0.399978
 70
   192
  0
VERTEX
  8
Triangle_Set_ncl1_6
 10
-0.715858
 20
0.081913
 30
0.399973
 70
   192
  0
VERTEX
  8
Triangle_Set_ncl1_6
 10
-0.715791
 20
0.081930
 30
0.399966
 70
   192
  0
VERTEX
  8
Triangle_Set_ncl1_6
 10
-0.715790
 20
0.080632
 30
0.399966
 70
   192
  0
VERTEX
  8
Triangle_Set_ncl1_6
 10
-0.715857
 20
0.080648
 30
0.399973
 70
   192
  0
VERTEX
  8
Triangle_Set_ncl1_6
 10
-0.715920
 20
0.080669
 30
0.399978
 70
   192
  0
VERTEX
  8
Triangle_Set_ncl1_6
 10
-0.715978
 20
0.080694
 30
0.399982
 70
   192
  0
VERTEX
  8
Triangle_Set_ncl1_6
 10
-0.716031
 20
0.080724
 30
0.399985
 70
   192
  0
VERTEX
  8
Triangle_Set_ncl1_6
 10
-0.716080
 20
0.080759
 30
0.399987
 70
   192
  0
VERTEX
  8
Triangle_Set_ncl1_6
 10
-0.716124
 20
0.080798
 30
0.399988
 70
   192
  0
VERTEX
  8
Triangle_Set_ncl1_6
 10
-0.716163
 20
0.080842
 30
0.399987
 70
   192
  0
VERTEX
  8
Triangle_Set_ncl1_6
 10
-0.716198
 20
0.080891
 30
0.399985
 70
   192
  0
VERTEX
  8
Triangle_Set_ncl1_6
 10
-0.716228
 20
0.080944
 30
0.399982
 70
   192
  0
VERTEX
  8
Triangle_Set_ncl1_6
 10
-0.716253
 20
0.081002
 30
0.399978
 70
   192
  0
VERTEX
  8
Triangle_Set_ncl1_6
 10
-0.716274
 20
0.081065
 30
0.399973
 70
   192
  0
VERTEX
  8
Triangle_Set_ncl1_6
 10
-0.716290
 20
0.081132
 30
0.399966
 70
   192
  0
VERTEX
  8
Triangle_Set_ncl1_6
 10
-0.717969
 20
0.081133
 30
0.399966
 70
   192
  0
VERTEX
  8
Triangle_Set_ncl1_6
 10
-0.717985
 20
0.081065
 30
0.399973
 70
   192
  0
VERTEX
  8
Triangle_Set_ncl1_6
 10
-0.718006
 20
0.081003
 30
0.399978
 70
   192
  0
VERTEX
  8
Triangle_Set_ncl1_6
 10
-0.718032
 20
0.080945
 30
0.399982
 70
   192
  0
VERTEX
  8
Triangle_Set_ncl1_6
 10
-0.718062
 20
0.080891
 30
0.399985
 70
   192
  0
VERTEX
  8
Triangle_Set_ncl1_6
 10
-0.718096
 20
0.080843
 30
0.399987
 70
   192
  0
VERTEX
  8
Triangle_Set_ncl1_6
 10
-0.718136
 20
0.080799
 30
0.399988
 70
   192
  0
VERTEX
  8
Triangle_Set_ncl1_6
 10
-0.718180
 20
0.080759
 30
0.399987
 70
   192
  0
VERTEX
  8
Triangle_Set_ncl1_6
 10
-0.718228
 20
0.080725
 30
0.399985
 70
   192
  0
VERTEX
  8
Triangle_Set_ncl1_6
 10
-0.718282
 20
0.080695
 30
0.399982
 70
   192
  0
VERTEX
  8
Triangle_Set_ncl1_6
 10
-0.718339
 20
0.080669
 30
0.399978
 70
   192
  0
VERTEX
  8
Triangle_Set_ncl1_6
 10
-0.718402
 20
0.080649
 30
0.399973
 70
   192
  0
VERTEX
  8
Triangle_Set_ncl1_6
 10
-0.718469
 20
0.080633
 30
0.399966
 70
   192
  0
VERTEX
  8
Triangle_Set_ncl1_6
 10
-0.718468
 20
0.081929
 30
0.399966
 70
   192
  0
VERTEX
  8
Triangle_Set_ncl1_6
 10
-0.718401
 20
0.081913
 30
0.399973
 70
   192
  0
VERTEX
  8
Triangle_Set_ncl1_6
 10
-0.718338
 20
0.081892
 30
0.399978
 70
   192
  0
VERTEX
  8
Triangle_Set_ncl1_6
 10
-0.718281
 20
0.081867
 30
0.399982
 70
   192
  0
VERTEX
  8
Triangle_Set_ncl1_6
 10
-0.718227
 20
0.081837
 30
0.399985
 70
   192
  0
VERTEX
  8
Triangle_Set_ncl1_6
 10
-0.718179
 20
0.081802
 30
0.399987
 70
   192
  0
VERTEX
  8
Triangle_Set_ncl1_6
 10
-0.718135
 20
0.081763
 30
0.399988
 70
   192
  0
VERTEX
  8
Triangle_Set_ncl1_6
 10
-0.718095
 20
0.081719
 30
0.399987
 70
   192
  0
VERTEX
  8
Triangle_Set_ncl1_6
 10
-0.718061
 20
0.081670
 30
0.399985
 70
   192
  0
VERTEX
  8
Triangle_Set_ncl1_6
 10
-0.718031
 20
0.081617
 30
0.399982
 70
   192
  0
VERTEX
  8
Triangle_Set_ncl1_6
 10
-0.718005
 20
0.081559
 30
0.399978
 70
   192
  0
VERTEX
  8
Triangle_Set_ncl1_6
 10
-0.717984
 20
0.081496
 30
0.399973
 70
   192
  0
VERTEX
  8
Triangle_Set_ncl1_6
 10
-0.717968
 20
0.081429
 30
0.399966
 70
   192
  0
VERTEX
  8
Triangle_Set_ncl1_6
 10
-0.719265
 20
0.081430
 30
0.399966
 70
   192
  0
VERTEX
  8
Triangle_Set_ncl1_6
 10
-0.719249
 20
0.081497
 30
0.399973
 70
   192
  0
VERTEX
  8
Triangle_Set_ncl1_6
 10
-0.719229
 20
0.081559
 30
0.399978
 70
   192
  0
VERTEX
  8
Triangle_Set_ncl1_6
 10
-0.719203
 20
0.081617
 30
0.399982
 70
   192
  0
VERTEX
  8
Triangle_Set_ncl1_6
 10
-0.719173
 20
0.081670
 30
0.399985
 70
   192
  0
VERTEX
  8
Triangle_Set_ncl1_6
 10
-0.719139
 20
0.081719
 30
0.399987
 70
   192
  0
VERTEX
  8
Triangle_Set_ncl1_6
 10
-0.719099
 20
0.081763
 30
0.399988
 70
   192
  0
VERTEX
  8
Triangle_Set_ncl1_6
 10
-0.719055
 20
0.081802
 30
0.399987
 70
   192
  0
VERTEX
  8
Triangle_Set_ncl1_6
 10
-0.719007
 20
0.081837
 30
0.399985
 70
   192
  0
VERTEX
  8
Triangle_Set_ncl1_6
 10
-0.718953
 20
0.081867
 30
0.399982
 70
   192
  0
VERTEX
  8
Triangle_Set_ncl1_6
 10
-0.718895
 20
0.081893
 30
0.399978
 70
   192
  0
VERTEX
  8
Triangle_Set_ncl1_6
 10
-0.718832
 20
0.081913
 30
0.399973
 70
   192
  0
VERTEX
  8
Triangle_Set_ncl1_6
 10
-0.718765
 20
0.081930
 30
0.399966
 70
   192
  0
VERTEX
  8
Triangle_Set_ncl1_6
 10
-0.718765
 20
0.080632
 30
0.399966
 70
   192
  0
VERTEX
  8
Triangle_Set_ncl1_6
 10
-0.718832
 20
0.080648
 30
0.399973
 70
   192
  0
VERTEX
  8
Triangle_Set_ncl1_6
 10
-0.718894
 20
0.080669
 30
0.399978
 70
   192
  0
VERTEX
  8
Triangle_Set_ncl1_6
 10
-0.718952
 20
0.080694
 30
0.399982
 70
   192
  0
VERTEX
  8
Triangle_Set_ncl1_6
 10
-0.719005
 20
0.080724
 30
0.399985
 70
   192
  0
VERTEX
  8
Triangle_Set_ncl1_6
 10
-0.719054
 20
0.080759
 30
0.399987
 70
   192
  0
VERTEX
  8
Triangle_Set_ncl1_6
 10
-0.719098
 20
0.080798
 30
0.399988
 70
   192
  0
VERTEX
  8
Triangle_Set_ncl1_6
 10
-0.719137
 20
0.080842
 30
0.399987
 70
   192
  0
VERTEX
  8
Triangle_Set_ncl1_6
 10
-0.719172
 20
0.080891
 30
0.399985
 70
   192
  0
VERTEX
  8
Triangle_Set_ncl1_6
 10
-0.719202
 20
0.080944
 30
0.399982
 70
   192
  0
VERTEX
  8
Triangle_Set_ncl1_6
 10
-0.719228
 20
0.081002
 30
0.399978
 70
   192
  0
VERTEX
  8
Triangle_Set_ncl1_6
 10
-0.719248
 20
0.081065
 30
0.399973
 70
   192
  0
VERTEX
  8
Triangle_Set_ncl1_6
 10
-0.719265
 20
0.081132
 30
0.399966
 70
   192
  0
VERTEX
  8
Triangle_Set_ncl1_6
 62
   5
 10
0.0
 20
0.0
 30
0.0
 70
   128
 71
   21
 72
   2
 73
   48
  0
VERTEX
  8
Triangle_Set_ncl1_6
 62
   5
 10
0.0
 20
0.0
 30
0.0
 70
   128
 71
   20
 72
   21
 73
   10
  0
VERTEX
  8
Triangle_Set_ncl1_6
 62
   5
 10
0.0
 20
0.0
 30
0.0
 70
   128
 71
   19
 72
   20
 73
   11
  0
VERTEX
  8
Triangle_Set_ncl1_6
 62
   5
 10
0.0
 20
0.0
 30
0.0
 70
   128
 71
   18
 72
   19
 73
   12
  0
VERTEX
  8
Triangle_Set_ncl1_6
 62
   5
 10
0.0
 20
0.0
 30
0.0
 70
   128
 71
   17
 72
   18
 73
   13
  0
VERTEX
  8
Triangle_Set_ncl1_6
 62
   5
 10
0.0
 20
0.0
 30
0.0
 70
   128
 71
   16
 72
   17
 73
   14
  0
VERTEX
  8
Triangle_Set_ncl1_6
 62
   5
 10
0.0
 20
0.0
 30
0.0
 70
   128
 71
   15
 72
   16
 73
   14
  0
VERTEX
  8
Triangle_Set_ncl1_6
 62
   5
 10
0.0
 20
0.0
 30
0.0
 70
   128
 71
   14
 72
   17
 73
   13
  0
VERTEX
  8
Triangle_Set_ncl1_6
 62
   5
 10
0.0
 20
0.0
 30
0.0
 70
   128
 71
   13
 72
   18
 73
   12
  0
VERTEX
  8
Triangle_Set_ncl1_6
 62
   5
 10
0.0
 20
0.0
 30
0.0
 70
   128
 71
   12
 72
   19
 73
   11
  0
VERTEX
  8
Triangle_Set_ncl1_6
 62
   5
 10
0.0
 20
0.0
 30
0.0
 70
   128
 71
   11
 72
   20
 73
   10
  0
VERTEX
  8
Triangle_Set_ncl1_6
 62
   5
 10
0.0
 20
0.0
 30
0.0
 70
   128
 71
   10
 72
   21
 73
   9
  0
VERTEX
  8
Triangle_Set_ncl1_6
 62
   5
 10
0.0
 20
0.0
 30
0.0
 70
   128
 71
   9
 72
   21
 73
   60
  0
VERTEX
  8
Triangle_Set_ncl1_6
 62
   5
 10
0.0
 20
0.0
 30
0.0
 70
   128
 71
   1
 72
   9
 73
   34
  0
VERTEX
  8
Triangle_Set_ncl1_6
 62
   5
 10
0.0
 20
0.0
 30
0.0
 70
   128
 71
   34
 72
   9
 73
   22
  0
VERTEX
  8
Triangle_Set_ncl1_6
 62
   5
 10
0.0
 20
0.0
 30
0.0
 70
   128
 71
   33
 72
   34
 73
   23
  0
VERTEX
  8
Triangle_Set_ncl1_6
 62
   5
 10
0.0
 20
0.0
 30
0.0
 70
   128
 71
   32
 72
   33
 73
   24
  0
VERTEX
  8
Triangle_Set_ncl1_6
 62
   5
 10
0.0
 20
0.0
 30
0.0
 70
   128
 71
   31
 72
   32
 73
   25
  0
VERTEX
  8
Triangle_Set_ncl1_6
 62
   5
 10
0.0
 20
0.0
 30
0.0
 70
   128
 71
   30
 72
   31
 73
   26
  0
VERTEX
  8
Triangle_Set_ncl1_6
 62
   5
 10
0.0
 20
0.0
 30
0.0
 70
   128
 71
   29
 72
   30
 73
   27
  0
VERTEX
  8
Triangle_Set_ncl1_6
 62
   5
 10
0.0
 20
0.0
 30
0.0
 70
   128
 71
   28
 72
   29
 73
   27
  0
VERTEX
  8
Triangle_Set_ncl1_6
 62
   5
 10
0.0
 20
0.0
 30
0.0
 70
   128
 71
   27
 72
   30
 73
   26
  0
VERTEX
  8
Triangle_Set_ncl1_6
 62
   5
 10
0.0
 20
0.0
 30
0.0
 70
   128
 71
   26
 72
   31
 73
   25
  0
VERTEX
  8
Triangle_Set_ncl1_6
 62
   5
 10
0.0
 20
0.0
 30
0.0
 70
   128
 71
   25
 72
   32
 73
   24
  0
VERTEX
  8
Triangle_Set_ncl1_6
 62
   5
 10
0.0
 20
0.0
 30
0.0
 70
   128
 71
   24
 72
   33
 73
   23
  0
VERTEX
  8
Triangle_Set_ncl1_6
 62
   5
 10
0.0
 20
0.0
 30
0.0
 70
   128
 71
   23
 72
   34
 73
   22
  0
VERTEX
  8
Triangle_Set_ncl1_6
 62
   5
 10
0.0
 20
0.0
 30
0.0
 70
   128
 71
   22
 72
   9
 73
   60
  0
VERTEX
  8
Triangle_Set_ncl1_6
 62
   5
 10
0.0
 20
0.0
 30
0.0
 70
   128
 71
   3
 72
   22
 73
   47
  0
VERTEX
  8
Triangle_Set_ncl1_6
 62
   5
 10
0.0
 20
0.0
 30
0.0
 70
   128
 71
   47
 72
   22
 73
   60
  0
VERTEX
  8
Triangle_Set_ncl1_6
 62
   5
 10
0.0
 20
0.0
 30
0.0
 70
   128
 71
   46
 72
   47
 73
   35
  0
VERTEX
  8
Triangle_Set_ncl1_6
 62
   5
 10
0.0
 20
0.0
 30
0.0
 70
   128
 71
   45
 72
   46
 73
   36
  0
VERTEX
  8
Triangle_Set_ncl1_6
 62
   5
 10
0.0
 20
0.0
 30
0.0
 70
   128
 71
   44
 72
   45
 73
   37
  0
VERTEX
  8
Triangle_Set_ncl1_6
 62
   5
 10
0.0
 20
0.0
 30
0.0
 70
   128
 71
   43
 72
   44
 73
   38
  0
VERTEX
  8
Triangle_Set_ncl1_6
 62
   5
 10
0.0
 20
0.0
 30
0.0
 70
   128
 71
   42
 72
   43
 73
   40
  0
VERTEX
  8
Triangle_Set_ncl1_6
 62
   5
 10
0.0
 20
0.0
 30
0.0
 70
   128
 71
   41
 72
   42
 73
   40
  0
VERTEX
  8
Triangle_Set_ncl1_6
 62
   5
 10
0.0
 20
0.0
 30
0.0
 70
   128
 71
   40
 72
   43
 73
   39
  0
VERTEX
  8
Triangle_Set_ncl1_6
 62
   5
 10
0.0
 20
0.0
 30
0.0
 70
   128
 71
   39
 72
   43
 73
   38
  0
VERTEX
  8
Triangle_Set_ncl1_6
 62
   5
 10
0.0
 20
0.0
 30
0.0
 70
   128
 71
   38
 72
   44
 73
   37
  0
VERTEX
  8
Triangle_Set_ncl1_6
 62
   5
 10
0.0
 20
0.0
 30
0.0
 70
   128
 71
   37
 72
   45
 73
   36
  0
VERTEX
  8
Triangle_Set_ncl1_6
 62
   5
 10
0.0
 20
0.0
 30
0.0
 70
   128
 71
   36
 72
   46
 73
   35
  0
VERTEX
  8
Triangle_Set_ncl1_6
 62
   5
 10
0.0
 20
0.0
 30
0.0
 70
   128
 71
   35
 72
   47
 73
   60
  0
VERTEX
  8
Triangle_Set_ncl1_6
 62
   5
 10
0.0
 20
0.0
 30
0.0
 70
   128
 71
   4
 72
   35
 73
   60
  0
VERTEX
  8
Triangle_Set_ncl1_6
 62
   5
 10
0.0
 20
0.0
 30
0.0
 70
   128
 71
   60
 72
   21
 73
   48
  0
VERTEX
  8
Triangle_Set_ncl1_6
 62
   5
 10
0.0
 20
0.0
 30
0.0
 70
   128
 71
   59
 72
   60
 73
   48
  0
VERTEX
  8
Triangle_Set_ncl1_6
 62
   5
 10
0.0
 20
0.0
 30
0.0
 70
   128
 71
   58
 72
   59
 73
   49
  0
VERTEX
  8
Triangle_Set_ncl1_6
 62
   5
 10
0.0
 20
0.0
 30
0.0
 70
   128
 71
   57
 72
   58
 73
   50
  0
VERTEX
  8
Triangle_Set_ncl1_6
 62
   5
 10
0.0
 20
0.0
 30
0.0
 70
   128
 71
   56
 72
   57
 73
   51
  0
VERTEX
  8
Triangle_Set_ncl1_6
 62
   5
 10
0.0
 20
0.0
 30
0.0
 70
   128
 71
   55
 72
   56
 73
   53
  0
VERTEX
  8
Triangle_Set_ncl1_6
 62
   5
 10
0.0
 20
0.0
 30
0.0
 70
   128
 71
   54
 72
   55
 73
   53
  0
VERTEX
  8
Triangle_Set_ncl1_6
 62
   5
 10
0.0
 20
0.0
 30
0.0
 70
   128
 71
   53
 72
   56
 73
   52
  0
VERTEX
  8
Triangle_Set_ncl1_6
 62
   5
 10
0.0
 20
0.0
 30
0.0
 70
   128
 71
   52
 72
   56
 73
   51
  0
VERTEX
  8
Triangle_Set_ncl1_6
 62
   5
 10
0.0
 20
0.0
 30
0.0
 70
   128
 71
   51
 72
   57
 73
   50
  0
VERTEX
  8
Triangle_Set_ncl1_6
 62
   5
 10
0.0
 20
0.0
 30
0.0
 70
   128
 71
   50
 72
   58
 73
   49
  0
VERTEX
  8
Triangle_Set_ncl1_6
 62
   5
 10
0.0
 20
0.0
 30
0.0
 70
   128
 71
   49
 72
   59
 73
   48
  0
VERTEX
  8
Triangle_Set_ncl1_6
 62
   5
 10
0.0
 20
0.0
 30
0.0
 70
   128
 71
   73
 72
   6
 73
   100
  0
VERTEX
  8
Triangle_Set_ncl1_6
 62
   5
 10
0.0
 20
0.0
 30
0.0
 70
   128
 71
   72
 72
   73
 73
   62
  0
VERTEX
  8
Triangle_Set_ncl1_6
 62
   5
 10
0.0
 20
0.0
 30
0.0
 70
   128
 71
   71
 72
   72
 73
   63
  0
VERTEX
  8
Triangle_Set_ncl1_6
 62
   5
 10
0.0
 20
0.0
 30
0.0
 70
   128
 71
   70
 72
   71
 73
   64
  0
VERTEX
  8
Triangle_Set_ncl1_6
 62
   5
 10
0.0
 20
0.0
 30
0.0
 70
   128
 71
   69
 72
   70
 73
   65
  0
VERTEX
  8
Triangle_Set_ncl1_6
 62
   5
 10
0.0
 20
0.0
 30
0.0
 70
   128
 71
   68
 72
   69
 73
   66
  0
VERTEX
  8
Triangle_Set_ncl1_6
 62
   5
 10
0.0
 20
0.0
 30
0.0
 70
   128
 71
   67
 72
   68
 73
   66
  0
VERTEX
  8
Triangle_Set_ncl1_6
 62
   5
 10
0.0
 20
0.0
 30
0.0
 70
   128
 71
   66
 72
   69
 73
   65
  0
VERTEX
  8
Triangle_Set_ncl1_6
 62
   5
 10
0.0
 20
0.0
 30
0.0
 70
   128
 71
   65
 72
   70
 73
   64
  0
VERTEX
  8
Triangle_Set_ncl1_6
 62
   5
 10
0.0
 20
0.0
 30
0.0
 70
   128
 71
   64
 72
   71
 73
   63
  0
VERTEX
  8
Triangle_Set_ncl1_6
 62
   5
 10
0.0
 20
0.0
 30
0.0
 70
   128
 71
   63
 72
   72
 73
   62
  0
VERTEX
  8
Triangle_Set_ncl1_6
 62
   5
 10
0.0
 20
0.0
 30
0.0
 70
   128
 71
   62
 72
   73
 73
   61
  0
VERTEX
  8
Triangle_Set_ncl1_6
 62
   5
 10
0.0
 20
0.0
 30
0.0
 70
   128
 71
   61
 72
   73
 73
   112
  0
VERTEX
  8
Triangle_Set_ncl1_6
 62
   5
 10
0.0
 20
0.0
 30
0.0
 70
   128
 71
   5
 72
   61
 73
   86
  0
VERTEX
  8
Triangle_Set_ncl1_6
 62
   5
 10
0.0
 20
0.0
 30
0.0
 70
   128
 71
   86
 72
   61
 73
   74
  0
VERTEX
  8
Triangle_Set_ncl1_6
 62
   5
 10
0.0
 20
0.0
 30
0.0
 70
   128
 71
   85
 72
   86
 73
   75
  0
VERTEX
  8
Triangle_Set_ncl1_6
 62
   5
 10
0.0
 20
0.0
 30
0.0
 70
   128
 71
   84
 72
   85
 73
   76
  0
VERTEX
  8
Triangle_Set_ncl1_6
 62
   5
 10
0.0
 20
0.0
 30
0.0
 70
   128
 71
   83
 72
   84
 73
   77
  0
VERTEX
  8
Triangle_Set_ncl1_6
 62
   5
 10
0.0
 20
0.0
 30
0.0
 70
   128
 71
   82
 72
   83
 73
   78
  0
VERTEX
  8
Triangle_Set_ncl1_6
 62
   5
 10
0.0
 20
0.0
 30
0.0
 70
   128
 71
   81
 72
   82
 73
   79
  0
VERTEX
  8
Triangle_Set_ncl1_6
 62
   5
 10
0.0
 20
0.0
 30
0.0
 70
   128
 71
   80
 72
   81
 73
   79
  0
VERTEX
  8
Triangle_Set_ncl1_6
 62
   5
 10
0.0
 20
0.0
 30
0.0
 70
   128
 71
   79
 72
   82
 73
   78
  0
VERTEX
  8
Triangle_Set_ncl1_6
 62
   5
 10
0.0
 20
0.0
 30
0.0
 70
   128
 71
   78
 72
   83
 73
   77
  0
VERTEX
  8
Triangle_Set_ncl1_6
 62
   5
 10
0.0
 20
0.0
 30
0.0
 70
   128
 71
   77
 72
   84
 73
   76
  0
VERTEX
  8
Triangle_Set_ncl1_6
 62
   5
 10
0.0
 20
0.0
 30
0.0
 70
   128
 71
   76
 72
   85
 73
   75
  0
VERTEX
  8
Triangle_Set_ncl1_6
 62
   5
 10
0.0
 20
0.0
 30
0.0
 70
   128
 71
   75
 72
   86
 73
   74
  0
VERTEX
  8
Triangle_Set_ncl1_6
 62
   5
 10
0.0
 20
0.0
 30
0.0
 70
   128
 71
   74
 72
   61
 73
   112
  0
VERTEX
  8
Triangle_Set_ncl1_6
 62
   5
 10
0.0
 20
0.0
 30
0.0
 70
   128
 71
   7
 72
   74
 73
   99
  0
VERTEX
  8
Triangle_Set_ncl1_6
 62
   5
 10
0.0
 20
0.0
 30
0.0
 70
   128
 71
   99
 72
   74
 73
   112
  0
VERTEX
  8
Triangle_Set_ncl1_6
 62
   5
 10
0.0
 20
0.0
 30
0.0
 70
   128
 71
   98
 72
   99
 73
   87
  0
VERTEX
  8
Triangle_Set_ncl1_6
 62
   5
 10
0.0
 20
0.0
 30
0.0
 70
   128
 71
   97
 72
   98
 73
   88
  0
VERTEX
  8
Triangle_Set_ncl1_6
 62
   5
 10
0.0
 20
0.0
 30
0.0
 70
   128
 71
   96
 72
   97
 73
   89
  0
VERTEX
  8
Triangle_Set_ncl1_6
 62
   5
 10
0.0
 20
0.0
 30
0.0
 70
   128
 71
   95
 72
   96
 73
   90
  0
VERTEX
  8
Triangle_Set_ncl1_6
 62
   5
 10
0.0
 20
0.0
 30
0.0
 70
   128
 71
   94
 72
   95
 73
   92
  0
VERTEX
  8
Triangle_Set_ncl1_6
 62
   5
 10
0.0
 20
0.0
 30
0.0
 70
   128
 71
   93
 72
   94
 73
   92
  0
VERTEX
  8
Triangle_Set_ncl1_6
 62
   5
 10
0.0
 20
0.0
 30
0.0
 70
   128
 71
   92
 72
   95
 73
   91
  0
VERTEX
  8
Triangle_Set_ncl1_6
 62
   5
 10
0.0
 20
0.0
 30
0.0
 70
   128
 71
   91
 72
   95
 73
   90
  0
VERTEX
  8
Triangle_Set_ncl1_6
 62
   5
 10
0.0
 20
0.0
 30
0.0
 70
   128
 71
   90
 72
   96
 73
   89
  0
VERTEX
  8
Triangle_Set_ncl1_6
 62
   5
 10
0.0
 20
0.0
 30
0.0
 70
   128
 71
   89
 72
   97
 73
   88
  0
VERTEX
  8
Triangle_Set_ncl1_6
 62
   5
 10
0.0
 20
0.0
 30
0.0
 70
   128
 71
   88
 72
   98
 73
   87
  0
VERTEX
  8
Triangle_Set_ncl1_6
 62
   5
 10
0.0
 20
0.0
 30
0.0
 70
   128
 71
   87
 72
   99
 73
   112
  0
VERTEX
  8
Triangle_Set_ncl1_6
 62
   5
 10
0.0
 20
0.0
 30
0.0
 70
   128
 71
   8
 72
   87
 73
   112
  0
VERTEX
  8
Triangle_Set_ncl1_6
 62
   5
 10
0.0
 20
0.0
 30
0.0
 70
   128
 71
   112
 72
   73
 73
   100
  0
VERTEX
  8
Triangle_Set_ncl1_6
 62
   5
 10
0.0
 20
0.0
 30
0.0
 70
   128
 71
   111
 72
   112
 73
   100
  0
VERTEX
  8
Triangle_Set_ncl1_6
 62
   5
 10
0.0
 20
0.0
 30
0.0
 70
   128
 71
   110
 72
   111
 73
   101
  0
VERTEX
  8
Triangle_Set_ncl1_6
 62
   5
 10
0.0
 20
0.0
 30
0.0
 70
   128
 71
   109
 72
   110
 73
   102
  0
VERTEX
  8
Triangle_Set_ncl1_6
 62
   5
 10
0.0
 20
0.0
 30
0.0
 70
   128
 71
   108
 72
   109
 73
   103
  0
VERTEX
  8
Triangle_Set_ncl1_6
 62
   5
 10
0.0
 20
0.0
 30
0.0
 70
   128
 71
   107
 72
   108
 73
   105
  0
VERTEX
  8
Triangle_Set_ncl1_6
 62
   5
 10
0.0
 20
0.0
 30
0.0
 70
   128
 71
   106
 72
   107
 73
   105
  0
VERTEX
  8
Triangle_Set_ncl1_6
 62
   5
 10
0.0
 20
0.0
 30
0.0
 70
   128
 71
   105
 72
   108
 73
   104
  0
VERTEX
  8
Triangle_Set_ncl1_6
 62
   5
 10
0.0
 20
0.0
 30
0.0
 70
   128
 71
   104
 72
   108
 73
   103
  0
VERTEX
  8
Triangle_Set_ncl1_6
 62
   5
 10
0.0
 20
0.0
 30
0.0
 70
   128
 71
   103
 72
   109
 73
   102
  0
VERTEX
  8
Triangle_Set_ncl1_6
 62
   5
 10
0.0
 20
0.0
 30
0.0
 70
   128
 71
   102
 72
   110
 73
   101
  0
VERTEX
  8
Triangle_Set_ncl1_6
 62
   5
 10
0.0
 20
0.0
 30
0.0
 70
   128
 71
   101
 72
   111
 73
   100
  0
SEQEND
  0
POLYLINE
  8
Triangle_Set_ncl1_7
 62
   7
 66
   1
 10
0.0
 20
0.0
 30
0.0
 70
   64
 71
   292
 72
   580
  0
VERTEX
  8
Triangle_Set_ncl1_7
 10
0.350000
 20
0.600000
 30
0.000000
 70
   192
  0
VERTEX
  8
Triangle_Set_ncl1_7
 10
0.346410
 20
0.550000
 30
0.000000
 70
   192
  0
VERTEX
  8
Triangle_Set_ncl1_7
 10
-0.350000
 20
0.600000
 30
0.000000
 70
   192
  0
VERTEX
  8
Triangle_Set_ncl1_7
 10
-0.346410
 20
0.550000
 30
-0.000000
 70
   192
  0
VERTEX
  8
Triangle_Set_ncl1_7
 10
0.344683
 20
0.660777
 30
-0.000000
 70
   192
  0
VERTEX
  8
Triangle_Set_ncl1_7
 10
0.328892
 20
0.719707
 30
-0.000000
 70
   192
  0
VERTEX
  8
Triangle_Set_ncl1_7
 10
0.303109
 20
0.775000
 30
-0.000000
 70
   192
  0
VERTEX
  8
Triangle_Set_ncl1_7
 10
0.268116
 20
0.824976
 30
-0.000000
 70
   192
  0
VERTEX
  8
Triangle_Set_ncl1_7
 10
0.224976
 20
0.868116
 30
-0.000000
 70
   192
  0
VERTEX
  8
Triangle_Set_ncl1_7
 10
0.175000
 20
0.903109
 30
-0.000000
 70
   192
  0
VERTEX
  8
Triangle_Set_ncl1_7
 10
0.119707
 20
0.928892
 30
-0.000000
 70
   192
  0
VERTEX
  8
Triangle_Set_ncl1_7
 10
0.060777
 20
0.944683
 30
-0.000000
 70
   192
  0
VERTEX
  8
Triangle_Set_ncl1_7
 10
0.000000
 20
0.950000
 30
-0.000000
 70
   192
  0
VERTEX
  8
Triangle_Set_ncl1_7
 10
-0.060777
 20
0.944683
 30
-0.000000
 70
   192
  0
VERTEX
  8
Triangle_Set_ncl1_7
 10
-0.119707
 20
0.928892
 30
-0.000000
 70
   192
  0
VERTEX
  8
Triangle_Set_ncl1_7
 10
-0.175000
 20
0.903109
 30
-0.000000
 70
   192
  0
VERTEX
  8
Triangle_Set_ncl1_7
 10
-0.224976
 20
0.868116
 30
-0.000000
 70
   192
  0
VERTEX
  8
Triangle_Set_ncl1_7
 10
-0.268116
 20
0.824976
 30
-0.000000
 70
   192
  0
VERTEX
  8
Triangle_Set_ncl1_7
 10
-0.303109
 20
0.775000
 30
-0.000000
 70
   192
  0
VERTEX
  8
Triangle_Set_ncl1_7
 10
-0.328892
 20
0.719707
 30
-0.000000
 70
   192
  0
VERTEX
  8
Triangle_Set_ncl1_7
 10
-0.344683
 20
0.660777
 30
-0.000000
 70
   192
  0
VERTEX
  8
Triangle_Set_ncl1_7
 10
-0.344671
 20
0.550000
 30
0.034174
 70
   192
  0
VERTEX
  8
Triangle_Set_ncl1_7
 10
-0.339541
 20
0.550000
 30
0.067893
 70
   192
  0
VERTEX
  8
Triangle_Set_ncl1_7
 10
-0.331151
 20
0.550000
 30
0.100878
 70
   192
  0
VERTEX
  8
Triangle_Set_ncl1_7
 10
-0.319630
 20
0.550000
 30
0.132850
 70
   192
  0
VERTEX
  8
Triangle_Set_ncl1_7
 10
-0.305111
 20
0.550000
 30
0.163530
 70
   192
  0
VERTEX
  8
Triangle_Set_ncl1_7
 10
-0.287722
 20
0.550000
 30
0.192641
 70
   192
  0
VERTEX
  8
Triangle_Set_ncl1_7
 10
-0.267596
 20
0.550000
 30
0.219902
 70
   192
  0
VERTEX
  8
Triangle_Set_ncl1_7
 10
-0.244862
 20
0.550000
 30
0.245036
 70
   192
  0
VERTEX
  8
Triangle_Set_ncl1_7
 10
-0.219709
 20
0.550000
 30
0.267750
 70
   192
  0
VERTEX
  8
Triangle_Set_ncl1_7
 10
-0.192427
 20
0.550000
 30
0.287852
 70
   192
  0
VERTEX
  8
Triangle_Set_ncl1_7
 10
-0.163301
 20
0.550000
 30
0.305214
 70
   192
  0
VERTEX
  8
Triangle_Set_ncl1_7
 10
-0.132613
 20
0.550000
 30
0.319707
 70
   192
  0
VERTEX
  8
Triangle_Set_ncl1_7
 10
-0.100649
 20
0.550000
 30
0.331201
 70
   192
  0
VERTEX
  8
Triangle_Set_ncl1_7
 10
-0.067691
 20
0.550000
 30
0.339569
 70
   192
  0
VERTEX
  8
Triangle_Set_ncl1_7
 10
-0.034024
 20
0.550000
 30
0.344682
 70
   192
  0
VERTEX
  8
Triangle_Set_ncl1_7
 10
0.000067
 20
0.550000
 30
0.346410
 70
   192
  0
VERTEX
  8
Triangle_Set_ncl1_7
 10
0.034158
 20
0.550000
 30
0.344666
 70
   192
  0
VERTEX
  8
Triangle_Set_ncl1_7
 10
0.067823
 20
0.550000
 30
0.339536
 70
   192
  0
VERTEX
  8
Triangle_Set_ncl1_7
 10
0.100775
 20
0.550000
 30
0.331151
 70
   192
  0
VERTEX
  8
Triangle_Set_ncl1_7
 10
0.132729
 20
0.550000
 30
0.319644
 70
   192
  0
VERTEX
  8
Triangle_Set_ncl1_7
 10
0.163400
 20
0.550000
 30
0.305147
 70
   192
  0
VERTEX
  8
Triangle_Set_ncl1_7
 10
0.192503
 20
0.550000
 30
0.287792
 70
   192
  0
VERTEX
  8
Triangle_Set_ncl1_7
 10
0.219751
 20
0.550000
 30
0.267712
 70
   192
  0
VERTEX
  8
Triangle_Set_ncl1_7
 10
0.244860
 20
0.550000
 30
0.245038
 70
   192
  0
VERTEX
  8
Triangle_Set_ncl1_7
 10
0.267556
 20
0.550000
 30
0.219942
 70
   192
  0
VERTEX
  8
Triangle_Set_ncl1_7
 10
0.287665
 20
0.550000
 30
0.192699
 70
   192
  0
VERTEX
  8
Triangle_Set_ncl1_7
 10
0.305051
 20
0.550000
 30
0.163591
 70
   192
  0
VERTEX
  8
Triangle_Set_ncl1_7
 10
0.319579
 20
0.550000
 30
0.132901
 70
   192
  0
VERTEX
  8
Triangle_Set_ncl1_7
 10
0.331115
 20
0.550000
 30
0.100914
 70
   192
  0
VERTEX
  8
Triangle_Set_ncl1_7
 10
0.339522
 20
0.550000
 30
0.067912
 70
   192
  0
VERTEX
  8
Triangle_Set_ncl1_7
 10
0.344666
 20
0.550000
 30
0.034180
 70
   192
  0
VERTEX
  8
Triangle_Set_ncl1_7
 10
0.344671
 20
0.550000
 30
-0.034174
 70
   192
  0
VERTEX
  8
Triangle_Set_ncl1_7
 10
0.339541
 20
0.550000
 30
-0.067893
 70
   192
  0
VERTEX
  8
Triangle_Set_ncl1_7
 10
0.331151
 20
0.550000
 30
-0.100878
 70
   192
  0
VERTEX
  8
Triangle_Set_ncl1_7
 10
0.319630
 20
0.550000
 30
-0.132850
 70
   192
  0
VERTEX
  8
Triangle_Set_ncl1_7
 10
0.305111
 20
0.550000
 30
-0.163530
 70
   192
  0
VERTEX
  8
Triangle_Set_ncl1_7
 10
0.287722
 20
0.550000
 30
-0.192641
 70
   192
  0
VERTEX
  8
Triangle_Set_ncl1_7
 10
0.267596
 20
0.550000
 30
-0.219902
 70
   192
  0
VERTEX
  8
Triangle_Set_ncl1_7
 10
0.244862
 20
0.550000
 30
-0.245036
 70
   192
  0
VERTEX
  8
Triangle_Set_ncl1_7
 10
0.219709
 20
0.550000
 30
-0.267750
 70
   192
  0
VERTEX
  8
Triangle_Set_ncl1_7
 10
0.192427
 20
0.550000
 30
-0.287852
 70
   192
  0
VERTEX
  8
Triangle_Set_ncl1_7
 10
0.163301
 20
0.550000
 30
-0.305214
 70
   192
  0
VERTEX
  8
Triangle_Set_ncl1_7
 10
0.132613
 20
0.550000
 30
-0.319707
 70
   192
  0
VERTEX
  8
Triangle_Set_ncl1_7
 10
0.100649
 20
0.550000
 30
-0.331201
 70
   192
  0
VERTEX
  8
Triangle_Set_ncl1_7
 10
0.067691
 20
0.550000
 30
-0.339569
 70
   192
  0
VERTEX
  8
Triangle_Set_ncl1_7
 10
0.034024
 20
0.550000
 30
-0.344682
 70
   192
  0
VERTEX
  8
Triangle_Set_ncl1_7
 10
-0.000067
 20
0.550000
 30
-0.346410
 70
   192
  0
VERTEX
  8
Triangle_Set_ncl1_7
 10
-0.034158
 20
0.550000
 30
-0.344666
 70
   192
  0
VERTEX
  8
Triangle_Set_ncl1_7
 10
-0.067823
 20
0.550000
 30
-0.339536
 70
   192
  0
VERTEX
  8
Triangle_Set_ncl1_7
 10
-0.100775
 20
0.550000
 30
-0.331151
 70
   192
  0
VERTEX
  8
Triangle_Set_ncl1_7
 10
-0.132729
 20
0.550000
 30
-0.319644
 70
   192
  0
VERTEX
  8
Triangle_Set_ncl1_7
 10
-0.163400
 20
0.550000
 30
-0.305147
 70
   192
  0
VERTEX
  8
Triangle_Set_ncl1_7
 10
-0.192503
 20
0.550000
 30
-0.287792
 70
   192
  0
VERTEX
  8
Triangle_Set_ncl1_7
 10
-0.219751
 20
0.550000
 30
-0.267712
 70
   192
  0
VERTEX
  8
Triangle_Set_ncl1_7
 10
-0.244860
 20
0.550000
 30
-0.245038
 70
   192
  0
VERTEX
  8
Triangle_Set_ncl1_7
 10
-0.267556
 20
0.550000
 30
-0.219942
 70
   192
  0
VERTEX
  8
Triangle_Set_ncl1_7
 10
-0.287665
 20
0.550000
 30
-0.192699
 70
   192
  0
VERTEX
  8
Triangle_Set_ncl1_7
 10
-0.305051
 20
0.550000
 30
-0.163591
 70
   192
  0
VERTEX
  8
Triangle_Set_ncl1_7
 10
-0.319579
 20
0.550000
 30
-0.132901
 70
   192
  0
VERTEX
  8
Triangle_Set_ncl1_7
 10
-0.331115
 20
0.550000
 30
-0.100914
 70
   192
  0
VERTEX
  8
Triangle_Set_ncl1_7
 10
-0.339522
 20
0.550000
 30
-0.067912
 70
   192
  0
VERTEX
  8
Triangle_Set_ncl1_7
 10
-0.344666
 20
0.550000
 30
-0.034180
 70
   192
  0
VERTEX
  8
Triangle_Set_ncl1_7
 10
-0.336000
 20
0.599076
 30
0.097996
 70
   192
  0
VERTEX
  8
Triangle_Set_ncl1_7
 10
-0.336000
 20
0.617014
 30
0.096512
 70
   192
  0
VERTEX
  8
Triangle_Set_ncl1_7
 10
-0.336000
 20
0.635402
 30
0.091382
 70
   192
  0
VERTEX
  8
Triangle_Set_ncl1_7
 10
-0.336000
 20
0.653127
 30
0.082350
 70
   192
  0
VERTEX
  8
Triangle_Set_ncl1_7
 10
-0.336000
 20
0.668969
 30
0.069622
 70
   192
  0
VERTEX
  8
Triangle_Set_ncl1_7
 10
-0.336000
 20
0.681846
 30
0.053901
 70
   192
  0
VERTEX
  8
Triangle_Set_ncl1_7
 10
-0.336000
 20
0.691045
 30
0.036261
 70
   192
  0
VERTEX
  8
Triangle_Set_ncl1_7
 10
-0.336000
 20
0.696347
 30
0.017922
 70
   192
  0
VERTEX
  8
Triangle_Set_ncl1_7
 10
-0.314607
 20
0.750784
 30
0.028049
 70
   192
  0
VERTEX
  8
Triangle_Set_ncl1_7
 10
-0.280000
 20
0.806458
 30
0.038405
 70
   192
  0
VERTEX
  8
Triangle_Set_ncl1_7
 10
-0.230137
 20
0.859251
 30
0.048226
 70
   192
  0
VERTEX
  8
Triangle_Set_ncl1_7
 10
-0.164706
 20
0.903615
 30
0.056478
 70
   192
  0
VERTEX
  8
Triangle_Set_ncl1_7
 10
-0.086154
 20
0.933510
 30
0.062039
 70
   192
  0
VERTEX
  8
Triangle_Set_ncl1_7
 10
0.000000
 20
0.944097
 30
0.064009
 70
   192
  0
VERTEX
  8
Triangle_Set_ncl1_7
 10
0.086154
 20
0.933510
 30
0.062039
 70
   192
  0
VERTEX
  8
Triangle_Set_ncl1_7
 10
0.164706
 20
0.903615
 30
0.056478
 70
   192
  0
VERTEX
  8
Triangle_Set_ncl1_7
 10
0.230137
 20
0.859251
 30
0.048226
 70
   192
  0
VERTEX
  8
Triangle_Set_ncl1_7
 10
0.280000
 20
0.806458
 30
0.038405
 70
   192
  0
VERTEX
  8
Triangle_Set_ncl1_7
 10
0.314607
 20
0.750784
 30
0.028049
 70
   192
  0
VERTEX
  8
Triangle_Set_ncl1_7
 10
0.336000
 20
0.696347
 30
0.017922
 70
   192
  0
VERTEX
  8
Triangle_Set_ncl1_7
 10
0.336000
 20
0.691045
 30
0.036261
 70
   192
  0
VERTEX
  8
Triangle_Set_ncl1_7
 10
0.336000
 20
0.681846
 30
0.053901
 70
   192
  0
VERTEX
  8
Triangle_Set_ncl1_7
 10
0.336000
 20
0.668969
 30
0.069622
 70
   192
  0
VERTEX
  8
Triangle_Set_ncl1_7
 10
0.336000
 20
0.653127
 30
0.082350
 70
   192
  0
VERTEX
  8
Triangle_Set_ncl1_7
 10
0.336000
 20
0.635402
 30
0.091382
 70
   192
  0
VERTEX
  8
Triangle_Set_ncl1_7
 10
0.336000
 20
0.617014
 30
0.096512
 70
   192
  0
VERTEX
  8
Triangle_Set_ncl1_7
 10
0.336000
 20
0.599076
 30
0.097996
 70
   192
  0
VERTEX
  8
Triangle_Set_ncl1_7
 10
0.314607
 20
0.598555
 30
0.153364
 70
   192
  0
VERTEX
  8
Triangle_Set_ncl1_7
 10
0.280000
 20
0.598021
 30
0.209991
 70
   192
  0
VERTEX
  8
Triangle_Set_ncl1_7
 10
0.230137
 20
0.597515
 30
0.263687
 70
   192
  0
VERTEX
  8
Triangle_Set_ncl1_7
 10
0.164706
 20
0.597089
 30
0.308810
 70
   192
  0
VERTEX
  8
Triangle_Set_ncl1_7
 10
0.086154
 20
0.596803
 30
0.339216
 70
   192
  0
VERTEX
  8
Triangle_Set_ncl1_7
 10
0.000000
 20
0.596701
 30
0.349984
 70
   192
  0
VERTEX
  8
Triangle_Set_ncl1_7
 10
-0.086154
 20
0.596803
 30
0.339216
 70
   192
  0
VERTEX
  8
Triangle_Set_ncl1_7
 10
-0.164706
 20
0.597089
 30
0.308810
 70
   192
  0
VERTEX
  8
Triangle_Set_ncl1_7
 10
-0.230137
 20
0.597515
 30
0.263687
 70
   192
  0
VERTEX
  8
Triangle_Set_ncl1_7
 10
-0.280000
 20
0.598021
 30
0.209991
 70
   192
  0
VERTEX
  8
Triangle_Set_ncl1_7
 10
-0.314607
 20
0.598555
 30
0.153364
 70
   192
  0
VERTEX
  8
Triangle_Set_ncl1_7
 10
0.336000
 20
0.581412
 30
0.096221
 70
   192
  0
VERTEX
  8
Triangle_Set_ncl1_7
 10
0.336000
 20
0.563362
 30
0.090893
 70
   192
  0
VERTEX
  8
Triangle_Set_ncl1_7
 10
0.314607
 20
0.570909
 30
0.150587
 70
   192
  0
VERTEX
  8
Triangle_Set_ncl1_7
 10
0.280000
 20
0.560168
 30
0.206188
 70
   192
  0
VERTEX
  8
Triangle_Set_ncl1_7
 10
-0.280000
 20
0.560168
 30
0.206188
 70
   192
  0
VERTEX
  8
Triangle_Set_ncl1_7
 10
-0.314607
 20
0.570909
 30
0.150587
 70
   192
  0
VERTEX
  8
Triangle_Set_ncl1_7
 10
-0.336000
 20
0.563362
 30
0.090893
 70
   192
  0
VERTEX
  8
Triangle_Set_ncl1_7
 10
-0.336000
 20
0.581412
 30
0.096221
 70
   192
  0
VERTEX
  8
Triangle_Set_ncl1_7
 10
0.314607
 20
0.742486
 30
0.056749
 70
   192
  0
VERTEX
  8
Triangle_Set_ncl1_7
 10
0.280000
 20
0.795096
 30
0.077703
 70
   192
  0
VERTEX
  8
Triangle_Set_ncl1_7
 10
0.314607
 20
0.728089
 30
0.084355
 70
   192
  0
VERTEX
  8
Triangle_Set_ncl1_7
 10
0.280000
 20
0.775384
 30
0.115501
 70
   192
  0
VERTEX
  8
Triangle_Set_ncl1_7
 10
0.314607
 20
0.707937
 30
0.108959
 70
   192
  0
VERTEX
  8
Triangle_Set_ncl1_7
 10
0.280000
 20
0.747791
 30
0.149191
 70
   192
  0
VERTEX
  8
Triangle_Set_ncl1_7
 10
0.230137
 20
0.844983
 30
0.097572
 70
   192
  0
VERTEX
  8
Triangle_Set_ncl1_7
 10
0.164706
 20
0.886905
 30
0.114269
 70
   192
  0
VERTEX
  8
Triangle_Set_ncl1_7
 10
0.086154
 20
0.915154
 30
0.125520
 70
   192
  0
VERTEX
  8
Triangle_Set_ncl1_7
 10
0.000000
 20
0.925159
 30
0.129504
 70
   192
  0
VERTEX
  8
Triangle_Set_ncl1_7
 10
0.230137
 20
0.820231
 30
0.145036
 70
   192
  0
VERTEX
  8
Triangle_Set_ncl1_7
 10
0.164706
 20
0.857917
 30
0.169855
 70
   192
  0
VERTEX
  8
Triangle_Set_ncl1_7
 10
0.230137
 20
0.785582
 30
0.187340
 70
   192
  0
VERTEX
  8
Triangle_Set_ncl1_7
 10
0.164706
 20
0.817340
 30
0.219398
 70
   192
  0
VERTEX
  8
Triangle_Set_ncl1_7
 10
0.086154
 20
0.883312
 30
0.186579
 70
   192
  0
VERTEX
  8
Triangle_Set_ncl1_7
 10
0.000000
 20
0.892306
 30
0.192502
 70
   192
  0
VERTEX
  8
Triangle_Set_ncl1_7
 10
0.086154
 20
0.838739
 30
0.241000
 70
   192
  0
VERTEX
  8
Triangle_Set_ncl1_7
 10
0.000000
 20
0.846318
 30
0.248651
 70
   192
  0
VERTEX
  8
Triangle_Set_ncl1_7
 10
0.314607
 20
0.683144
 30
0.128878
 70
   192
  0
VERTEX
  8
Triangle_Set_ncl1_7
 10
0.280000
 20
0.713843
 30
0.176464
 70
   192
  0
VERTEX
  8
Triangle_Set_ncl1_7
 10
0.314607
 20
0.655404
 30
0.143014
 70
   192
  0
VERTEX
  8
Triangle_Set_ncl1_7
 10
0.280000
 20
0.675860
 30
0.195819
 70
   192
  0
VERTEX
  8
Triangle_Set_ncl1_7
 10
0.314607
 20
0.626626
 30
0.151042
 70
   192
  0
VERTEX
  8
Triangle_Set_ncl1_7
 10
0.280000
 20
0.636458
 30
0.206811
 70
   192
  0
VERTEX
  8
Triangle_Set_ncl1_7
 10
0.230137
 20
0.742954
 30
0.221588
 70
   192
  0
VERTEX
  8
Triangle_Set_ncl1_7
 10
0.164706
 20
0.767417
 30
0.259506
 70
   192
  0
VERTEX
  8
Triangle_Set_ncl1_7
 10
0.230137
 20
0.695259
 30
0.245892
 70
   192
  0
VERTEX
  8
Triangle_Set_ncl1_7
 10
0.164706
 20
0.711560
 30
0.287970
 70
   192
  0
VERTEX
  8
Triangle_Set_ncl1_7
 10
0.086154
 20
0.783901
 30
0.285058
 70
   192
  0
VERTEX
  8
Triangle_Set_ncl1_7
 10
0.000000
 20
0.789739
 30
0.294107
 70
   192
  0
VERTEX
  8
Triangle_Set_ncl1_7
 10
0.086154
 20
0.722544
 30
0.316323
 70
   192
  0
VERTEX
  8
Triangle_Set_ncl1_7
 10
0.000000
 20
0.726434
 30
0.326365
 70
   192
  0
VERTEX
  8
Triangle_Set_ncl1_7
 10
0.230137
 20
0.645780
 30
0.259694
 70
   192
  0
VERTEX
  8
Triangle_Set_ncl1_7
 10
0.164706
 20
0.653614
 30
0.304134
 70
   192
  0
VERTEX
  8
Triangle_Set_ncl1_7
 10
0.086154
 20
0.658893
 30
0.334079
 70
   192
  0
VERTEX
  8
Triangle_Set_ncl1_7
 10
0.000000
 20
0.660763
 30
0.344685
 70
   192
  0
VERTEX
  8
Triangle_Set_ncl1_7
 10
-0.086154
 20
0.915154
 30
0.125520
 70
   192
  0
VERTEX
  8
Triangle_Set_ncl1_7
 10
-0.164706
 20
0.886905
 30
0.114269
 70
   192
  0
VERTEX
  8
Triangle_Set_ncl1_7
 10
-0.230137
 20
0.844983
 30
0.097572
 70
   192
  0
VERTEX
  8
Triangle_Set_ncl1_7
 10
-0.280000
 20
0.795096
 30
0.077703
 70
   192
  0
VERTEX
  8
Triangle_Set_ncl1_7
 10
-0.086154
 20
0.883312
 30
0.186579
 70
   192
  0
VERTEX
  8
Triangle_Set_ncl1_7
 10
-0.164706
 20
0.857917
 30
0.169855
 70
   192
  0
VERTEX
  8
Triangle_Set_ncl1_7
 10
-0.086154
 20
0.838739
 30
0.241000
 70
   192
  0
VERTEX
  8
Triangle_Set_ncl1_7
 10
-0.164706
 20
0.817340
 30
0.219398
 70
   192
  0
VERTEX
  8
Triangle_Set_ncl1_7
 10
-0.230137
 20
0.820231
 30
0.145036
 70
   192
  0
VERTEX
  8
Triangle_Set_ncl1_7
 10
-0.280000
 20
0.775384
 30
0.115501
 70
   192
  0
VERTEX
  8
Triangle_Set_ncl1_7
 10
-0.230137
 20
0.785582
 30
0.187340
 70
   192
  0
VERTEX
  8
Triangle_Set_ncl1_7
 10
-0.280000
 20
0.747791
 30
0.149191
 70
   192
  0
VERTEX
  8
Triangle_Set_ncl1_7
 10
-0.314607
 20
0.742486
 30
0.056749
 70
   192
  0
VERTEX
  8
Triangle_Set_ncl1_7
 10
-0.314607
 20
0.728089
 30
0.084355
 70
   192
  0
VERTEX
  8
Triangle_Set_ncl1_7
 10
-0.314607
 20
0.707937
 30
0.108959
 70
   192
  0
VERTEX
  8
Triangle_Set_ncl1_7
 10
-0.086154
 20
0.783901
 30
0.285058
 70
   192
  0
VERTEX
  8
Triangle_Set_ncl1_7
 10
-0.164706
 20
0.767417
 30
0.259506
 70
   192
  0
VERTEX
  8
Triangle_Set_ncl1_7
 10
-0.086154
 20
0.722544
 30
0.316323
 70
   192
  0
VERTEX
  8
Triangle_Set_ncl1_7
 10
-0.164706
 20
0.711560
 30
0.287970
 70
   192
  0
VERTEX
  8
Triangle_Set_ncl1_7
 10
-0.230137
 20
0.742954
 30
0.221588
 70
   192
  0
VERTEX
  8
Triangle_Set_ncl1_7
 10
-0.280000
 20
0.713843
 30
0.176464
 70
   192
  0
VERTEX
  8
Triangle_Set_ncl1_7
 10
-0.230137
 20
0.695259
 30
0.245892
 70
   192
  0
VERTEX
  8
Triangle_Set_ncl1_7
 10
-0.280000
 20
0.675860
 30
0.195819
 70
   192
  0
VERTEX
  8
Triangle_Set_ncl1_7
 10
-0.086154
 20
0.658893
 30
0.334079
 70
   192
  0
VERTEX
  8
Triangle_Set_ncl1_7
 10
-0.164706
 20
0.653614
 30
0.304134
 70
   192
  0
VERTEX
  8
Triangle_Set_ncl1_7
 10
-0.230137
 20
0.645780
 30
0.259694
 70
   192
  0
VERTEX
  8
Triangle_Set_ncl1_7
 10
-0.280000
 20
0.636458
 30
0.206811
 70
   192
  0
VERTEX
  8
Triangle_Set_ncl1_7
 10
-0.314607
 20
0.683144
 30
0.128878
 70
   192
  0
VERTEX
  8
Triangle_Set_ncl1_7
 10
-0.314607
 20
0.655404
 30
0.143014
 70
   192
  0
VERTEX
  8
Triangle_Set_ncl1_7
 10
-0.314607
 20
0.626626
 30
0.151042
 70
   192
  0
VERTEX
  8
Triangle_Set_ncl1_7
 10
-0.336000
 20
0.688090
 30
-0.042944
 70
   192
  0
VERTEX
  8
Triangle_Set_ncl1_7
 10
-0.336000
 20
0.678400
 30
-0.058800
 70
   192
  0
VERTEX
  8
Triangle_Set_ncl1_7
 10
-0.336000
 20
0.664438
 30
-0.073836
 70
   192
  0
VERTEX
  8
Triangle_Set_ncl1_7
 10
-0.336000
 20
0.646118
 30
-0.086471
 70
   192
  0
VERTEX
  8
Triangle_Set_ncl1_7
 10
-0.336000
 20
0.624123
 30
-0.094985
 70
   192
  0
VERTEX
  8
Triangle_Set_ncl1_7
 10
-0.336000
 20
0.600000
 30
-0.098000
 70
   192
  0
VERTEX
  8
Triangle_Set_ncl1_7
 10
-0.314607
 20
0.600000
 30
-0.153371
 70
   192
  0
VERTEX
  8
Triangle_Set_ncl1_7
 10
-0.280000
 20
0.600000
 30
-0.210000
 70
   192
  0
VERTEX
  8
Triangle_Set_ncl1_7
 10
-0.230137
 20
0.600000
 30
-0.263699
 70
   192
  0
VERTEX
  8
Triangle_Set_ncl1_7
 10
-0.164706
 20
0.600000
 30
-0.308824
 70
   192
  0
VERTEX
  8
Triangle_Set_ncl1_7
 10
-0.086154
 20
0.600000
 30
-0.339231
 70
   192
  0
VERTEX
  8
Triangle_Set_ncl1_7
 10
0.000000
 20
0.600000
 30
-0.350000
 70
   192
  0
VERTEX
  8
Triangle_Set_ncl1_7
 10
0.086154
 20
0.600000
 30
-0.339231
 70
   192
  0
VERTEX
  8
Triangle_Set_ncl1_7
 10
0.164706
 20
0.600000
 30
-0.308824
 70
   192
  0
VERTEX
  8
Triangle_Set_ncl1_7
 10
0.230137
 20
0.600000
 30
-0.263699
 70
   192
  0
VERTEX
  8
Triangle_Set_ncl1_7
 10
0.280000
 20
0.600000
 30
-0.210000
 70
   192
  0
VERTEX
  8
Triangle_Set_ncl1_7
 10
0.314607
 20
0.600000
 30
-0.153371
 70
   192
  0
VERTEX
  8
Triangle_Set_ncl1_7
 10
0.336000
 20
0.600000
 30
-0.098000
 70
   192
  0
VERTEX
  8
Triangle_Set_ncl1_7
 10
0.336000
 20
0.624123
 30
-0.094985
 70
   192
  0
VERTEX
  8
Triangle_Set_ncl1_7
 10
0.336000
 20
0.646118
 30
-0.086471
 70
   192
  0
VERTEX
  8
Triangle_Set_ncl1_7
 10
0.336000
 20
0.664438
 30
-0.073836
 70
   192
  0
VERTEX
  8
Triangle_Set_ncl1_7
 10
0.336000
 20
0.678400
 30
-0.058800
 70
   192
  0
VERTEX
  8
Triangle_Set_ncl1_7
 10
0.336000
 20
0.688090
 30
-0.042944
 70
   192
  0
VERTEX
  8
Triangle_Set_ncl1_7
 10
0.336000
 20
0.694080
 30
-0.027440
 70
   192
  0
VERTEX
  8
Triangle_Set_ncl1_7
 10
0.314607
 20
0.747236
 30
-0.042944
 70
   192
  0
VERTEX
  8
Triangle_Set_ncl1_7
 10
0.280000
 20
0.801600
 30
-0.058800
 70
   192
  0
VERTEX
  8
Triangle_Set_ncl1_7
 10
0.230137
 20
0.853151
 30
-0.073836
 70
   192
  0
VERTEX
  8
Triangle_Set_ncl1_7
 10
0.164706
 20
0.896471
 30
-0.086471
 70
   192
  0
VERTEX
  8
Triangle_Set_ncl1_7
 10
0.086154
 20
0.925662
 30
-0.094985
 70
   192
  0
VERTEX
  8
Triangle_Set_ncl1_7
 10
0.000000
 20
0.936000
 30
-0.098000
 70
   192
  0
VERTEX
  8
Triangle_Set_ncl1_7
 10
-0.086154
 20
0.925662
 30
-0.094985
 70
   192
  0
VERTEX
  8
Triangle_Set_ncl1_7
 10
-0.164706
 20
0.896471
 30
-0.086471
 70
   192
  0
VERTEX
  8
Triangle_Set_ncl1_7
 10
-0.230137
 20
0.853151
 30
-0.073836
 70
   192
  0
VERTEX
  8
Triangle_Set_ncl1_7
 10
-0.280000
 20
0.801600
 30
-0.058800
 70
   192
  0
VERTEX
  8
Triangle_Set_ncl1_7
 10
-0.314607
 20
0.747236
 30
-0.042944
 70
   192
  0
VERTEX
  8
Triangle_Set_ncl1_7
 10
-0.336000
 20
0.694080
 30
-0.027440
 70
   192
  0
VERTEX
  8
Triangle_Set_ncl1_7
 10
0.336000
 20
0.553882
 30
-0.086471
 70
   192
  0
VERTEX
  8
Triangle_Set_ncl1_7
 10
0.336000
 20
0.575877
 30
-0.094985
 70
   192
  0
VERTEX
  8
Triangle_Set_ncl1_7
 10
0.314607
 20
0.562247
 30
-0.148652
 70
   192
  0
VERTEX
  8
Triangle_Set_ncl1_7
 10
-0.336000
 20
0.553882
 30
-0.086471
 70
   192
  0
VERTEX
  8
Triangle_Set_ncl1_7
 10
-0.314607
 20
0.562247
 30
-0.148652
 70
   192
  0
VERTEX
  8
Triangle_Set_ncl1_7
 10
-0.336000
 20
0.575877
 30
-0.094985
 70
   192
  0
VERTEX
  8
Triangle_Set_ncl1_7
 10
0.314607
 20
0.637753
 30
-0.148652
 70
   192
  0
VERTEX
  8
Triangle_Set_ncl1_7
 10
0.314607
 20
0.672174
 30
-0.135327
 70
   192
  0
VERTEX
  8
Triangle_Set_ncl1_7
 10
0.280000
 20
0.651692
 30
-0.203538
 70
   192
  0
VERTEX
  8
Triangle_Set_ncl1_7
 10
0.280000
 20
0.698824
 30
-0.185294
 70
   192
  0
VERTEX
  8
Triangle_Set_ncl1_7
 10
0.314607
 20
0.700847
 30
-0.115553
 70
   192
  0
VERTEX
  8
Triangle_Set_ncl1_7
 10
0.314607
 20
0.722697
 30
-0.092022
 70
   192
  0
VERTEX
  8
Triangle_Set_ncl1_7
 10
0.280000
 20
0.738082
 30
-0.158219
 70
   192
  0
VERTEX
  8
Triangle_Set_ncl1_7
 10
0.280000
 20
0.768000
 30
-0.126000
 70
   192
  0
VERTEX
  8
Triangle_Set_ncl1_7
 10
0.314607
 20
0.737861
 30
-0.067207
 70
   192
  0
VERTEX
  8
Triangle_Set_ncl1_7
 10
0.280000
 20
0.788764
 30
-0.092022
 70
   192
  0
VERTEX
  8
Triangle_Set_ncl1_7
 10
0.230137
 20
0.664910
 30
-0.255585
 70
   192
  0
VERTEX
  8
Triangle_Set_ncl1_7
 10
0.230137
 20
0.724093
 30
-0.232675
 70
   192
  0
VERTEX
  8
Triangle_Set_ncl1_7
 10
0.164706
 20
0.676018
 30
-0.299321
 70
   192
  0
VERTEX
  8
Triangle_Set_ncl1_7
 10
0.164706
 20
0.745329
 30
-0.272491
 70
   192
  0
VERTEX
  8
Triangle_Set_ncl1_7
 10
0.230137
 20
0.773391
 30
-0.198677
 70
   192
  0
VERTEX
  8
Triangle_Set_ncl1_7
 10
0.230137
 20
0.810959
 30
-0.158219
 70
   192
  0
VERTEX
  8
Triangle_Set_ncl1_7
 10
0.164706
 20
0.803062
 30
-0.232675
 70
   192
  0
VERTEX
  8
Triangle_Set_ncl1_7
 10
0.164706
 20
0.847059
 30
-0.185294
 70
   192
  0
VERTEX
  8
Triangle_Set_ncl1_7
 10
0.086154
 20
0.683503
 30
-0.328793
 70
   192
  0
VERTEX
  8
Triangle_Set_ncl1_7
 10
0.086154
 20
0.759638
 30
-0.299321
 70
   192
  0
VERTEX
  8
Triangle_Set_ncl1_7
 10
0.000000
 20
0.686154
 30
-0.339231
 70
   192
  0
VERTEX
  8
Triangle_Set_ncl1_7
 10
0.000000
 20
0.764706
 30
-0.308824
 70
   192
  0
VERTEX
  8
Triangle_Set_ncl1_7
 10
0.086154
 20
0.823056
 30
-0.255585
 70
   192
  0
VERTEX
  8
Triangle_Set_ncl1_7
 10
0.086154
 20
0.871385
 30
-0.203538
 70
   192
  0
VERTEX
  8
Triangle_Set_ncl1_7
 10
0.000000
 20
0.830137
 30
-0.263699
 70
   192
  0
VERTEX
  8
Triangle_Set_ncl1_7
 10
0.000000
 20
0.880000
 30
-0.210000
 70
   192
  0
VERTEX
  8
Triangle_Set_ncl1_7
 10
0.230137
 20
0.837032
 30
-0.115553
 70
   192
  0
VERTEX
  8
Triangle_Set_ncl1_7
 10
0.164706
 20
0.877594
 30
-0.135327
 70
   192
  0
VERTEX
  8
Triangle_Set_ncl1_7
 10
0.086154
 20
0.904927
 30
-0.148652
 70
   192
  0
VERTEX
  8
Triangle_Set_ncl1_7
 10
0.000000
 20
0.914607
 30
-0.153371
 70
   192
  0
VERTEX
  8
Triangle_Set_ncl1_7
 10
-0.086154
 20
0.683503
 30
-0.328793
 70
   192
  0
VERTEX
  8
Triangle_Set_ncl1_7
 10
-0.086154
 20
0.759638
 30
-0.299321
 70
   192
  0
VERTEX
  8
Triangle_Set_ncl1_7
 10
-0.164706
 20
0.676018
 30
-0.299321
 70
   192
  0
VERTEX
  8
Triangle_Set_ncl1_7
 10
-0.164706
 20
0.745329
 30
-0.272491
 70
   192
  0
VERTEX
  8
Triangle_Set_ncl1_7
 10
-0.086154
 20
0.823056
 30
-0.255585
 70
   192
  0
VERTEX
  8
Triangle_Set_ncl1_7
 10
-0.086154
 20
0.871385
 30
-0.203538
 70
   192
  0
VERTEX
  8
Triangle_Set_ncl1_7
 10
-0.164706
 20
0.803062
 30
-0.232675
 70
   192
  0
VERTEX
  8
Triangle_Set_ncl1_7
 10
-0.164706
 20
0.847059
 30
-0.185294
 70
   192
  0
VERTEX
  8
Triangle_Set_ncl1_7
 10
-0.230137
 20
0.664910
 30
-0.255585
 70
   192
  0
VERTEX
  8
Triangle_Set_ncl1_7
 10
-0.230137
 20
0.724093
 30
-0.232675
 70
   192
  0
VERTEX
  8
Triangle_Set_ncl1_7
 10
-0.280000
 20
0.651692
 30
-0.203538
 70
   192
  0
VERTEX
  8
Triangle_Set_ncl1_7
 10
-0.280000
 20
0.698824
 30
-0.185294
 70
   192
  0
VERTEX
  8
Triangle_Set_ncl1_7
 10
-0.230137
 20
0.773391
 30
-0.198677
 70
   192
  0
VERTEX
  8
Triangle_Set_ncl1_7
 10
-0.230137
 20
0.810959
 30
-0.158219
 70
   192
  0
VERTEX
  8
Triangle_Set_ncl1_7
 10
-0.280000
 20
0.738082
 30
-0.158219
 70
   192
  0
VERTEX
  8
Triangle_Set_ncl1_7
 10
-0.280000
 20
0.768000
 30
-0.126000
 70
   192
  0
VERTEX
  8
Triangle_Set_ncl1_7
 10
-0.086154
 20
0.904927
 30
-0.148652
 70
   192
  0
VERTEX
  8
Triangle_Set_ncl1_7
 10
-0.164706
 20
0.877594
 30
-0.135327
 70
   192
  0
VERTEX
  8
Triangle_Set_ncl1_7
 10
-0.230137
 20
0.837032
 30
-0.115553
 70
   192
  0
VERTEX
  8
Triangle_Set_ncl1_7
 10
-0.280000
 20
0.788764
 30
-0.092022
 70
   192
  0
VERTEX
  8
Triangle_Set_ncl1_7
 10
-0.314607
 20
0.637753
 30
-0.148652
 70
   192
  0
VERTEX
  8
Triangle_Set_ncl1_7
 10
-0.314607
 20
0.672174
 30
-0.135327
 70
   192
  0
VERTEX
  8
Triangle_Set_ncl1_7
 10
-0.314607
 20
0.700847
 30
-0.115553
 70
   192
  0
VERTEX
  8
Triangle_Set_ncl1_7
 10
-0.314607
 20
0.722697
 30
-0.092022
 70
   192
  0
VERTEX
  8
Triangle_Set_ncl1_7
 10
-0.314607
 20
0.737861
 30
-0.067207
 70
   192
  0
VERTEX
  8
Triangle_Set_ncl1_7
 62
   7
 10
0.0
 20
0.0
 30
0.0
 70
   128
 71
   36
 72
   116
 73
   37
  0
VERTEX
  8
Triangle_Set_ncl1_7
 62
   7
 10
0.0
 20
0.0
 30
0.0
 70
   128
 71
   34
 72
   117
 73
   35
  0
VERTEX
  8
Triangle_Set_ncl1_7
 62
   7
 10
0.0
 20
0.0
 30
0.0
 70
   128
 71
   14
 72
   13
 73
   97
  0
VERTEX
  8
Triangle_Set_ncl1_7
 62
   7
 10
0.0
 20
0.0
 30
0.0
 70
   128
 71
   4
 72
   3
 73
   22
  0
VERTEX
  8
Triangle_Set_ncl1_7
 62
   7
 10
0.0
 20
0.0
 30
0.0
 70
   128
 71
   10
 72
   9
 73
   100
  0
VERTEX
  8
Triangle_Set_ncl1_7
 62
   7
 10
0.0
 20
0.0
 30
0.0
 70
   128
 71
   99
 72
   11
 73
   10
  0
VERTEX
  8
Triangle_Set_ncl1_7
 62
   7
 10
0.0
 20
0.0
 30
0.0
 70
   128
 71
   3
 72
   21
 73
   91
  0
VERTEX
  8
Triangle_Set_ncl1_7
 62
   7
 10
0.0
 20
0.0
 30
0.0
 70
   128
 71
   8
 72
   7
 73
   101
  0
VERTEX
  8
Triangle_Set_ncl1_7
 62
   7
 10
0.0
 20
0.0
 30
0.0
 70
   128
 71
   127
 72
   84
 73
   121
  0
VERTEX
  8
Triangle_Set_ncl1_7
 62
   7
 10
0.0
 20
0.0
 30
0.0
 70
   128
 71
   120
 72
   126
 73
   121
  0
VERTEX
  8
Triangle_Set_ncl1_7
 62
   7
 10
0.0
 20
0.0
 30
0.0
 70
   128
 71
   7
 72
   6
 73
   102
  0
VERTEX
  8
Triangle_Set_ncl1_7
 62
   7
 10
0.0
 20
0.0
 30
0.0
 70
   128
 71
   6
 72
   5
 73
   103
  0
VERTEX
  8
Triangle_Set_ncl1_7
 62
   7
 10
0.0
 20
0.0
 30
0.0
 70
   128
 71
   28
 72
   27
 73
   126
  0
VERTEX
  8
Triangle_Set_ncl1_7
 62
   7
 10
0.0
 20
0.0
 30
0.0
 70
   128
 71
   29
 72
   28
 73
   126
  0
VERTEX
  8
Triangle_Set_ncl1_7
 62
   7
 10
0.0
 20
0.0
 30
0.0
 70
   128
 71
   5
 72
   1
 73
   103
  0
VERTEX
  8
Triangle_Set_ncl1_7
 62
   7
 10
0.0
 20
0.0
 30
0.0
 70
   128
 71
   119
 72
   31
 73
   30
  0
VERTEX
  8
Triangle_Set_ncl1_7
 62
   7
 10
0.0
 20
0.0
 30
0.0
 70
   128
 71
   118
 72
   33
 73
   32
  0
VERTEX
  8
Triangle_Set_ncl1_7
 62
   7
 10
0.0
 20
0.0
 30
0.0
 70
   128
 71
   44
 72
   43
 73
   113
  0
VERTEX
  8
Triangle_Set_ncl1_7
 62
   7
 10
0.0
 20
0.0
 30
0.0
 70
   128
 71
   115
 72
   38
 73
   116
  0
VERTEX
  8
Triangle_Set_ncl1_7
 62
   7
 10
0.0
 20
0.0
 30
0.0
 70
   128
 71
   114
 72
   41
 73
   115
  0
VERTEX
  8
Triangle_Set_ncl1_7
 62
   7
 10
0.0
 20
0.0
 30
0.0
 70
   128
 71
   37
 72
   116
 73
   38
  0
VERTEX
  8
Triangle_Set_ncl1_7
 62
   7
 10
0.0
 20
0.0
 30
0.0
 70
   128
 71
   41
 72
   114
 73
   42
  0
VERTEX
  8
Triangle_Set_ncl1_7
 62
   7
 10
0.0
 20
0.0
 30
0.0
 70
   128
 71
   105
 72
   1
 73
   106
  0
VERTEX
  8
Triangle_Set_ncl1_7
 62
   7
 10
0.0
 20
0.0
 30
0.0
 70
   128
 71
   1
 72
   2
 73
   52
  0
VERTEX
  8
Triangle_Set_ncl1_7
 62
   7
 10
0.0
 20
0.0
 30
0.0
 70
   128
 71
   25
 72
   24
 73
   128
  0
VERTEX
  8
Triangle_Set_ncl1_7
 62
   7
 10
0.0
 20
0.0
 30
0.0
 70
   128
 71
   16
 72
   15
 73
   95
  0
VERTEX
  8
Triangle_Set_ncl1_7
 62
   7
 10
0.0
 20
0.0
 30
0.0
 70
   128
 71
   84
 72
   3
 73
   85
  0
VERTEX
  8
Triangle_Set_ncl1_7
 62
   7
 10
0.0
 20
0.0
 30
0.0
 70
   128
 71
   17
 72
   16
 73
   94
  0
VERTEX
  8
Triangle_Set_ncl1_7
 62
   7
 10
0.0
 20
0.0
 30
0.0
 70
   128
 71
   85
 72
   3
 73
   86
  0
VERTEX
  8
Triangle_Set_ncl1_7
 62
   7
 10
0.0
 20
0.0
 30
0.0
 70
   128
 71
   86
 72
   3
 73
   87
  0
VERTEX
  8
Triangle_Set_ncl1_7
 62
   7
 10
0.0
 20
0.0
 30
0.0
 70
   128
 71
   19
 72
   18
 73
   93
  0
VERTEX
  8
Triangle_Set_ncl1_7
 62
   7
 10
0.0
 20
0.0
 30
0.0
 70
   128
 71
   87
 72
   3
 73
   88
  0
VERTEX
  8
Triangle_Set_ncl1_7
 62
   7
 10
0.0
 20
0.0
 30
0.0
 70
   128
 71
   91
 72
   20
 73
   92
  0
VERTEX
  8
Triangle_Set_ncl1_7
 62
   7
 10
0.0
 20
0.0
 30
0.0
 70
   128
 71
   88
 72
   3
 73
   89
  0
VERTEX
  8
Triangle_Set_ncl1_7
 62
   7
 10
0.0
 20
0.0
 30
0.0
 70
   128
 71
   20
 72
   19
 73
   92
  0
VERTEX
  8
Triangle_Set_ncl1_7
 62
   7
 10
0.0
 20
0.0
 30
0.0
 70
   128
 71
   89
 72
   3
 73
   90
  0
VERTEX
  8
Triangle_Set_ncl1_7
 62
   7
 10
0.0
 20
0.0
 30
0.0
 70
   128
 71
   21
 72
   20
 73
   91
  0
VERTEX
  8
Triangle_Set_ncl1_7
 62
   7
 10
0.0
 20
0.0
 30
0.0
 70
   128
 71
   90
 72
   3
 73
   91
  0
VERTEX
  8
Triangle_Set_ncl1_7
 62
   7
 10
0.0
 20
0.0
 30
0.0
 70
   128
 71
   18
 72
   17
 73
   94
  0
VERTEX
  8
Triangle_Set_ncl1_7
 62
   7
 10
0.0
 20
0.0
 30
0.0
 70
   128
 71
   92
 72
   19
 73
   93
  0
VERTEX
  8
Triangle_Set_ncl1_7
 62
   7
 10
0.0
 20
0.0
 30
0.0
 70
   128
 71
   15
 72
   14
 73
   96
  0
VERTEX
  8
Triangle_Set_ncl1_7
 62
   7
 10
0.0
 20
0.0
 30
0.0
 70
   128
 71
   93
 72
   18
 73
   94
  0
VERTEX
  8
Triangle_Set_ncl1_7
 62
   7
 10
0.0
 20
0.0
 30
0.0
 70
   128
 71
   13
 72
   12
 73
   97
  0
VERTEX
  8
Triangle_Set_ncl1_7
 62
   7
 10
0.0
 20
0.0
 30
0.0
 70
   128
 71
   94
 72
   16
 73
   95
  0
VERTEX
  8
Triangle_Set_ncl1_7
 62
   7
 10
0.0
 20
0.0
 30
0.0
 70
   128
 71
   12
 72
   11
 73
   98
  0
VERTEX
  8
Triangle_Set_ncl1_7
 62
   7
 10
0.0
 20
0.0
 30
0.0
 70
   128
 71
   95
 72
   15
 73
   96
  0
VERTEX
  8
Triangle_Set_ncl1_7
 62
   7
 10
0.0
 20
0.0
 30
0.0
 70
   128
 71
   96
 72
   14
 73
   97
  0
VERTEX
  8
Triangle_Set_ncl1_7
 62
   7
 10
0.0
 20
0.0
 30
0.0
 70
   128
 71
   113
 72
   43
 73
   114
  0
VERTEX
  8
Triangle_Set_ncl1_7
 62
   7
 10
0.0
 20
0.0
 30
0.0
 70
   128
 71
   9
 72
   8
 73
   100
  0
VERTEX
  8
Triangle_Set_ncl1_7
 62
   7
 10
0.0
 20
0.0
 30
0.0
 70
   128
 71
   97
 72
   12
 73
   98
  0
VERTEX
  8
Triangle_Set_ncl1_7
 62
   7
 10
0.0
 20
0.0
 30
0.0
 70
   128
 71
   98
 72
   11
 73
   99
  0
VERTEX
  8
Triangle_Set_ncl1_7
 62
   7
 10
0.0
 20
0.0
 30
0.0
 70
   128
 71
   99
 72
   10
 73
   100
  0
VERTEX
  8
Triangle_Set_ncl1_7
 62
   7
 10
0.0
 20
0.0
 30
0.0
 70
   128
 71
   100
 72
   8
 73
   101
  0
VERTEX
  8
Triangle_Set_ncl1_7
 62
   7
 10
0.0
 20
0.0
 30
0.0
 70
   128
 71
   41
 72
   40
 73
   115
  0
VERTEX
  8
Triangle_Set_ncl1_7
 62
   7
 10
0.0
 20
0.0
 30
0.0
 70
   128
 71
   101
 72
   7
 73
   102
  0
VERTEX
  8
Triangle_Set_ncl1_7
 62
   7
 10
0.0
 20
0.0
 30
0.0
 70
   128
 71
   102
 72
   6
 73
   103
  0
VERTEX
  8
Triangle_Set_ncl1_7
 62
   7
 10
0.0
 20
0.0
 30
0.0
 70
   128
 71
   103
 72
   1
 73
   104
  0
VERTEX
  8
Triangle_Set_ncl1_7
 62
   7
 10
0.0
 20
0.0
 30
0.0
 70
   128
 71
   104
 72
   1
 73
   105
  0
VERTEX
  8
Triangle_Set_ncl1_7
 62
   7
 10
0.0
 20
0.0
 30
0.0
 70
   128
 71
   46
 72
   45
 73
   125
  0
VERTEX
  8
Triangle_Set_ncl1_7
 62
   7
 10
0.0
 20
0.0
 30
0.0
 70
   128
 71
   47
 72
   125
 73
   124
  0
VERTEX
  8
Triangle_Set_ncl1_7
 62
   7
 10
0.0
 20
0.0
 30
0.0
 70
   128
 71
   106
 72
   1
 73
   107
  0
VERTEX
  8
Triangle_Set_ncl1_7
 62
   7
 10
0.0
 20
0.0
 30
0.0
 70
   128
 71
   122
 72
   49
 73
   124
  0
VERTEX
  8
Triangle_Set_ncl1_7
 62
   7
 10
0.0
 20
0.0
 30
0.0
 70
   128
 71
   107
 72
   1
 73
   108
  0
VERTEX
  8
Triangle_Set_ncl1_7
 62
   7
 10
0.0
 20
0.0
 30
0.0
 70
   128
 71
   124
 72
   49
 73
   48
  0
VERTEX
  8
Triangle_Set_ncl1_7
 62
   7
 10
0.0
 20
0.0
 30
0.0
 70
   128
 71
   108
 72
   1
 73
   109
  0
VERTEX
  8
Triangle_Set_ncl1_7
 62
   7
 10
0.0
 20
0.0
 30
0.0
 70
   128
 71
   123
 72
   49
 73
   122
  0
VERTEX
  8
Triangle_Set_ncl1_7
 62
   7
 10
0.0
 20
0.0
 30
0.0
 70
   128
 71
   109
 72
   1
 73
   110
  0
VERTEX
  8
Triangle_Set_ncl1_7
 62
   7
 10
0.0
 20
0.0
 30
0.0
 70
   128
 71
   110
 72
   122
 73
   111
  0
VERTEX
  8
Triangle_Set_ncl1_7
 62
   7
 10
0.0
 20
0.0
 30
0.0
 70
   128
 71
   43
 72
   42
 73
   114
  0
VERTEX
  8
Triangle_Set_ncl1_7
 62
   7
 10
0.0
 20
0.0
 30
0.0
 70
   128
 71
   111
 72
   124
 73
   112
  0
VERTEX
  8
Triangle_Set_ncl1_7
 62
   7
 10
0.0
 20
0.0
 30
0.0
 70
   128
 71
   40
 72
   39
 73
   115
  0
VERTEX
  8
Triangle_Set_ncl1_7
 62
   7
 10
0.0
 20
0.0
 30
0.0
 70
   128
 71
   39
 72
   38
 73
   115
  0
VERTEX
  8
Triangle_Set_ncl1_7
 62
   7
 10
0.0
 20
0.0
 30
0.0
 70
   128
 71
   36
 72
   35
 73
   117
  0
VERTEX
  8
Triangle_Set_ncl1_7
 62
   7
 10
0.0
 20
0.0
 30
0.0
 70
   128
 71
   34
 72
   33
 73
   117
  0
VERTEX
  8
Triangle_Set_ncl1_7
 62
   7
 10
0.0
 20
0.0
 30
0.0
 70
   128
 71
   32
 72
   31
 73
   118
  0
VERTEX
  8
Triangle_Set_ncl1_7
 62
   7
 10
0.0
 20
0.0
 30
0.0
 70
   128
 71
   116
 72
   36
 73
   117
  0
VERTEX
  8
Triangle_Set_ncl1_7
 62
   7
 10
0.0
 20
0.0
 30
0.0
 70
   128
 71
   117
 72
   33
 73
   118
  0
VERTEX
  8
Triangle_Set_ncl1_7
 62
   7
 10
0.0
 20
0.0
 30
0.0
 70
   128
 71
   118
 72
   31
 73
   119
  0
VERTEX
  8
Triangle_Set_ncl1_7
 62
   7
 10
0.0
 20
0.0
 30
0.0
 70
   128
 71
   126
 72
   27
 73
   127
  0
VERTEX
  8
Triangle_Set_ncl1_7
 62
   7
 10
0.0
 20
0.0
 30
0.0
 70
   128
 71
   25
 72
   128
 73
   129
  0
VERTEX
  8
Triangle_Set_ncl1_7
 62
   7
 10
0.0
 20
0.0
 30
0.0
 70
   128
 71
   52
 72
   51
 73
   1
  0
VERTEX
  8
Triangle_Set_ncl1_7
 62
   7
 10
0.0
 20
0.0
 30
0.0
 70
   128
 71
   22
 72
   3
 73
   23
  0
VERTEX
  8
Triangle_Set_ncl1_7
 62
   7
 10
0.0
 20
0.0
 30
0.0
 70
   128
 71
   50
 72
   49
 73
   123
  0
VERTEX
  8
Triangle_Set_ncl1_7
 62
   7
 10
0.0
 20
0.0
 30
0.0
 70
   128
 71
   110
 72
   1
 73
   122
  0
VERTEX
  8
Triangle_Set_ncl1_7
 62
   7
 10
0.0
 20
0.0
 30
0.0
 70
   128
 71
   51
 72
   50
 73
   123
  0
VERTEX
  8
Triangle_Set_ncl1_7
 62
   7
 10
0.0
 20
0.0
 30
0.0
 70
   128
 71
   51
 72
   123
 73
   1
  0
VERTEX
  8
Triangle_Set_ncl1_7
 62
   7
 10
0.0
 20
0.0
 30
0.0
 70
   128
 71
   122
 72
   1
 73
   123
  0
VERTEX
  8
Triangle_Set_ncl1_7
 62
   7
 10
0.0
 20
0.0
 30
0.0
 70
   128
 71
   111
 72
   122
 73
   124
  0
VERTEX
  8
Triangle_Set_ncl1_7
 62
   7
 10
0.0
 20
0.0
 30
0.0
 70
   128
 71
   48
 72
   47
 73
   124
  0
VERTEX
  8
Triangle_Set_ncl1_7
 62
   7
 10
0.0
 20
0.0
 30
0.0
 70
   128
 71
   47
 72
   46
 73
   125
  0
VERTEX
  8
Triangle_Set_ncl1_7
 62
   7
 10
0.0
 20
0.0
 30
0.0
 70
   128
 71
   112
 72
   124
 73
   125
  0
VERTEX
  8
Triangle_Set_ncl1_7
 62
   7
 10
0.0
 20
0.0
 30
0.0
 70
   128
 71
   113
 72
   112
 73
   125
  0
VERTEX
  8
Triangle_Set_ncl1_7
 62
   7
 10
0.0
 20
0.0
 30
0.0
 70
   128
 71
   113
 72
   125
 73
   44
  0
VERTEX
  8
Triangle_Set_ncl1_7
 62
   7
 10
0.0
 20
0.0
 30
0.0
 70
   128
 71
   45
 72
   44
 73
   125
  0
VERTEX
  8
Triangle_Set_ncl1_7
 62
   7
 10
0.0
 20
0.0
 30
0.0
 70
   128
 71
   27
 72
   26
 73
   127
  0
VERTEX
  8
Triangle_Set_ncl1_7
 62
   7
 10
0.0
 20
0.0
 30
0.0
 70
   128
 71
   29
 72
   126
 73
   30
  0
VERTEX
  8
Triangle_Set_ncl1_7
 62
   7
 10
0.0
 20
0.0
 30
0.0
 70
   128
 71
   120
 72
   119
 73
   126
  0
VERTEX
  8
Triangle_Set_ncl1_7
 62
   7
 10
0.0
 20
0.0
 30
0.0
 70
   128
 71
   119
 72
   30
 73
   126
  0
VERTEX
  8
Triangle_Set_ncl1_7
 62
   7
 10
0.0
 20
0.0
 30
0.0
 70
   128
 71
   26
 72
   25
 73
   127
  0
VERTEX
  8
Triangle_Set_ncl1_7
 62
   7
 10
0.0
 20
0.0
 30
0.0
 70
   128
 71
   121
 72
   126
 73
   127
  0
VERTEX
  8
Triangle_Set_ncl1_7
 62
   7
 10
0.0
 20
0.0
 30
0.0
 70
   128
 71
   24
 72
   23
 73
   128
  0
VERTEX
  8
Triangle_Set_ncl1_7
 62
   7
 10
0.0
 20
0.0
 30
0.0
 70
   128
 71
   84
 72
   127
 73
   129
  0
VERTEX
  8
Triangle_Set_ncl1_7
 62
   7
 10
0.0
 20
0.0
 30
0.0
 70
   128
 71
   127
 72
   25
 73
   129
  0
VERTEX
  8
Triangle_Set_ncl1_7
 62
   7
 10
0.0
 20
0.0
 30
0.0
 70
   128
 71
   84
 72
   129
 73
   3
  0
VERTEX
  8
Triangle_Set_ncl1_7
 62
   7
 10
0.0
 20
0.0
 30
0.0
 70
   128
 71
   129
 72
   128
 73
   3
  0
VERTEX
  8
Triangle_Set_ncl1_7
 62
   7
 10
0.0
 20
0.0
 30
0.0
 70
   128
 71
   23
 72
   3
 73
   128
  0
VERTEX
  8
Triangle_Set_ncl1_7
 62
   7
 10
0.0
 20
0.0
 30
0.0
 70
   128
 71
   104
 72
   102
 73
   103
  0
VERTEX
  8
Triangle_Set_ncl1_7
 62
   7
 10
0.0
 20
0.0
 30
0.0
 70
   128
 71
   102
 72
   104
 73
   130
  0
VERTEX
  8
Triangle_Set_ncl1_7
 62
   7
 10
0.0
 20
0.0
 30
0.0
 70
   128
 71
   130
 72
   101
 73
   102
  0
VERTEX
  8
Triangle_Set_ncl1_7
 62
   7
 10
0.0
 20
0.0
 30
0.0
 70
   128
 71
   101
 72
   130
 73
   131
  0
VERTEX
  8
Triangle_Set_ncl1_7
 62
   7
 10
0.0
 20
0.0
 30
0.0
 70
   128
 71
   105
 72
   130
 73
   104
  0
VERTEX
  8
Triangle_Set_ncl1_7
 62
   7
 10
0.0
 20
0.0
 30
0.0
 70
   128
 71
   130
 72
   105
 73
   132
  0
VERTEX
  8
Triangle_Set_ncl1_7
 62
   7
 10
0.0
 20
0.0
 30
0.0
 70
   128
 71
   132
 72
   131
 73
   130
  0
VERTEX
  8
Triangle_Set_ncl1_7
 62
   7
 10
0.0
 20
0.0
 30
0.0
 70
   128
 71
   131
 72
   132
 73
   133
  0
VERTEX
  8
Triangle_Set_ncl1_7
 62
   7
 10
0.0
 20
0.0
 30
0.0
 70
   128
 71
   106
 72
   132
 73
   105
  0
VERTEX
  8
Triangle_Set_ncl1_7
 62
   7
 10
0.0
 20
0.0
 30
0.0
 70
   128
 71
   132
 72
   106
 73
   134
  0
VERTEX
  8
Triangle_Set_ncl1_7
 62
   7
 10
0.0
 20
0.0
 30
0.0
 70
   128
 71
   134
 72
   133
 73
   132
  0
VERTEX
  8
Triangle_Set_ncl1_7
 62
   7
 10
0.0
 20
0.0
 30
0.0
 70
   128
 71
   133
 72
   134
 73
   135
  0
VERTEX
  8
Triangle_Set_ncl1_7
 62
   7
 10
0.0
 20
0.0
 30
0.0
 70
   128
 71
   131
 72
   100
 73
   101
  0
VERTEX
  8
Triangle_Set_ncl1_7
 62
   7
 10
0.0
 20
0.0
 30
0.0
 70
   128
 71
   100
 72
   131
 73
   136
  0
VERTEX
  8
Triangle_Set_ncl1_7
 62
   7
 10
0.0
 20
0.0
 30
0.0
 70
   128
 71
   136
 72
   99
 73
   100
  0
VERTEX
  8
Triangle_Set_ncl1_7
 62
   7
 10
0.0
 20
0.0
 30
0.0
 70
   128
 71
   99
 72
   136
 73
   137
  0
VERTEX
  8
Triangle_Set_ncl1_7
 62
   7
 10
0.0
 20
0.0
 30
0.0
 70
   128
 71
   137
 72
   98
 73
   99
  0
VERTEX
  8
Triangle_Set_ncl1_7
 62
   7
 10
0.0
 20
0.0
 30
0.0
 70
   128
 71
   98
 72
   137
 73
   138
  0
VERTEX
  8
Triangle_Set_ncl1_7
 62
   7
 10
0.0
 20
0.0
 30
0.0
 70
   128
 71
   138
 72
   97
 73
   98
  0
VERTEX
  8
Triangle_Set_ncl1_7
 62
   7
 10
0.0
 20
0.0
 30
0.0
 70
   128
 71
   97
 72
   138
 73
   139
  0
VERTEX
  8
Triangle_Set_ncl1_7
 62
   7
 10
0.0
 20
0.0
 30
0.0
 70
   128
 71
   133
 72
   136
 73
   131
  0
VERTEX
  8
Triangle_Set_ncl1_7
 62
   7
 10
0.0
 20
0.0
 30
0.0
 70
   128
 71
   136
 72
   133
 73
   140
  0
VERTEX
  8
Triangle_Set_ncl1_7
 62
   7
 10
0.0
 20
0.0
 30
0.0
 70
   128
 71
   140
 72
   137
 73
   136
  0
VERTEX
  8
Triangle_Set_ncl1_7
 62
   7
 10
0.0
 20
0.0
 30
0.0
 70
   128
 71
   137
 72
   140
 73
   141
  0
VERTEX
  8
Triangle_Set_ncl1_7
 62
   7
 10
0.0
 20
0.0
 30
0.0
 70
   128
 71
   135
 72
   140
 73
   133
  0
VERTEX
  8
Triangle_Set_ncl1_7
 62
   7
 10
0.0
 20
0.0
 30
0.0
 70
   128
 71
   140
 72
   135
 73
   142
  0
VERTEX
  8
Triangle_Set_ncl1_7
 62
   7
 10
0.0
 20
0.0
 30
0.0
 70
   128
 71
   142
 72
   141
 73
   140
  0
VERTEX
  8
Triangle_Set_ncl1_7
 62
   7
 10
0.0
 20
0.0
 30
0.0
 70
   128
 71
   141
 72
   142
 73
   143
  0
VERTEX
  8
Triangle_Set_ncl1_7
 62
   7
 10
0.0
 20
0.0
 30
0.0
 70
   128
 71
   141
 72
   138
 73
   137
  0
VERTEX
  8
Triangle_Set_ncl1_7
 62
   7
 10
0.0
 20
0.0
 30
0.0
 70
   128
 71
   138
 72
   141
 73
   144
  0
VERTEX
  8
Triangle_Set_ncl1_7
 62
   7
 10
0.0
 20
0.0
 30
0.0
 70
   128
 71
   144
 72
   139
 73
   138
  0
VERTEX
  8
Triangle_Set_ncl1_7
 62
   7
 10
0.0
 20
0.0
 30
0.0
 70
   128
 71
   139
 72
   144
 73
   145
  0
VERTEX
  8
Triangle_Set_ncl1_7
 62
   7
 10
0.0
 20
0.0
 30
0.0
 70
   128
 71
   143
 72
   144
 73
   141
  0
VERTEX
  8
Triangle_Set_ncl1_7
 62
   7
 10
0.0
 20
0.0
 30
0.0
 70
   128
 71
   144
 72
   143
 73
   146
  0
VERTEX
  8
Triangle_Set_ncl1_7
 62
   7
 10
0.0
 20
0.0
 30
0.0
 70
   128
 71
   146
 72
   145
 73
   144
  0
VERTEX
  8
Triangle_Set_ncl1_7
 62
   7
 10
0.0
 20
0.0
 30
0.0
 70
   128
 71
   145
 72
   146
 73
   147
  0
VERTEX
  8
Triangle_Set_ncl1_7
 62
   7
 10
0.0
 20
0.0
 30
0.0
 70
   128
 71
   107
 72
   134
 73
   106
  0
VERTEX
  8
Triangle_Set_ncl1_7
 62
   7
 10
0.0
 20
0.0
 30
0.0
 70
   128
 71
   134
 72
   107
 73
   148
  0
VERTEX
  8
Triangle_Set_ncl1_7
 62
   7
 10
0.0
 20
0.0
 30
0.0
 70
   128
 71
   148
 72
   135
 73
   134
  0
VERTEX
  8
Triangle_Set_ncl1_7
 62
   7
 10
0.0
 20
0.0
 30
0.0
 70
   128
 71
   135
 72
   148
 73
   149
  0
VERTEX
  8
Triangle_Set_ncl1_7
 62
   7
 10
0.0
 20
0.0
 30
0.0
 70
   128
 71
   108
 72
   148
 73
   107
  0
VERTEX
  8
Triangle_Set_ncl1_7
 62
   7
 10
0.0
 20
0.0
 30
0.0
 70
   128
 71
   148
 72
   108
 73
   150
  0
VERTEX
  8
Triangle_Set_ncl1_7
 62
   7
 10
0.0
 20
0.0
 30
0.0
 70
   128
 71
   150
 72
   149
 73
   148
  0
VERTEX
  8
Triangle_Set_ncl1_7
 62
   7
 10
0.0
 20
0.0
 30
0.0
 70
   128
 71
   149
 72
   150
 73
   151
  0
VERTEX
  8
Triangle_Set_ncl1_7
 62
   7
 10
0.0
 20
0.0
 30
0.0
 70
   128
 71
   109
 72
   150
 73
   108
  0
VERTEX
  8
Triangle_Set_ncl1_7
 62
   7
 10
0.0
 20
0.0
 30
0.0
 70
   128
 71
   150
 72
   109
 73
   152
  0
VERTEX
  8
Triangle_Set_ncl1_7
 62
   7
 10
0.0
 20
0.0
 30
0.0
 70
   128
 71
   152
 72
   151
 73
   150
  0
VERTEX
  8
Triangle_Set_ncl1_7
 62
   7
 10
0.0
 20
0.0
 30
0.0
 70
   128
 71
   151
 72
   152
 73
   153
  0
VERTEX
  8
Triangle_Set_ncl1_7
 62
   7
 10
0.0
 20
0.0
 30
0.0
 70
   128
 71
   110
 72
   152
 73
   109
  0
VERTEX
  8
Triangle_Set_ncl1_7
 62
   7
 10
0.0
 20
0.0
 30
0.0
 70
   128
 71
   152
 72
   110
 73
   111
  0
VERTEX
  8
Triangle_Set_ncl1_7
 62
   7
 10
0.0
 20
0.0
 30
0.0
 70
   128
 71
   111
 72
   153
 73
   152
  0
VERTEX
  8
Triangle_Set_ncl1_7
 62
   7
 10
0.0
 20
0.0
 30
0.0
 70
   128
 71
   153
 72
   111
 73
   112
  0
VERTEX
  8
Triangle_Set_ncl1_7
 62
   7
 10
0.0
 20
0.0
 30
0.0
 70
   128
 71
   149
 72
   142
 73
   135
  0
VERTEX
  8
Triangle_Set_ncl1_7
 62
   7
 10
0.0
 20
0.0
 30
0.0
 70
   128
 71
   142
 72
   149
 73
   154
  0
VERTEX
  8
Triangle_Set_ncl1_7
 62
   7
 10
0.0
 20
0.0
 30
0.0
 70
   128
 71
   154
 72
   143
 73
   142
  0
VERTEX
  8
Triangle_Set_ncl1_7
 62
   7
 10
0.0
 20
0.0
 30
0.0
 70
   128
 71
   143
 72
   154
 73
   155
  0
VERTEX
  8
Triangle_Set_ncl1_7
 62
   7
 10
0.0
 20
0.0
 30
0.0
 70
   128
 71
   151
 72
   154
 73
   149
  0
VERTEX
  8
Triangle_Set_ncl1_7
 62
   7
 10
0.0
 20
0.0
 30
0.0
 70
   128
 71
   154
 72
   151
 73
   156
  0
VERTEX
  8
Triangle_Set_ncl1_7
 62
   7
 10
0.0
 20
0.0
 30
0.0
 70
   128
 71
   156
 72
   155
 73
   154
  0
VERTEX
  8
Triangle_Set_ncl1_7
 62
   7
 10
0.0
 20
0.0
 30
0.0
 70
   128
 71
   155
 72
   156
 73
   157
  0
VERTEX
  8
Triangle_Set_ncl1_7
 62
   7
 10
0.0
 20
0.0
 30
0.0
 70
   128
 71
   155
 72
   146
 73
   143
  0
VERTEX
  8
Triangle_Set_ncl1_7
 62
   7
 10
0.0
 20
0.0
 30
0.0
 70
   128
 71
   146
 72
   155
 73
   158
  0
VERTEX
  8
Triangle_Set_ncl1_7
 62
   7
 10
0.0
 20
0.0
 30
0.0
 70
   128
 71
   158
 72
   147
 73
   146
  0
VERTEX
  8
Triangle_Set_ncl1_7
 62
   7
 10
0.0
 20
0.0
 30
0.0
 70
   128
 71
   147
 72
   158
 73
   159
  0
VERTEX
  8
Triangle_Set_ncl1_7
 62
   7
 10
0.0
 20
0.0
 30
0.0
 70
   128
 71
   157
 72
   158
 73
   155
  0
VERTEX
  8
Triangle_Set_ncl1_7
 62
   7
 10
0.0
 20
0.0
 30
0.0
 70
   128
 71
   158
 72
   157
 73
   160
  0
VERTEX
  8
Triangle_Set_ncl1_7
 62
   7
 10
0.0
 20
0.0
 30
0.0
 70
   128
 71
   160
 72
   159
 73
   158
  0
VERTEX
  8
Triangle_Set_ncl1_7
 62
   7
 10
0.0
 20
0.0
 30
0.0
 70
   128
 71
   159
 72
   160
 73
   161
  0
VERTEX
  8
Triangle_Set_ncl1_7
 62
   7
 10
0.0
 20
0.0
 30
0.0
 70
   128
 71
   153
 72
   156
 73
   151
  0
VERTEX
  8
Triangle_Set_ncl1_7
 62
   7
 10
0.0
 20
0.0
 30
0.0
 70
   128
 71
   156
 72
   153
 73
   162
  0
VERTEX
  8
Triangle_Set_ncl1_7
 62
   7
 10
0.0
 20
0.0
 30
0.0
 70
   128
 71
   162
 72
   157
 73
   156
  0
VERTEX
  8
Triangle_Set_ncl1_7
 62
   7
 10
0.0
 20
0.0
 30
0.0
 70
   128
 71
   157
 72
   162
 73
   163
  0
VERTEX
  8
Triangle_Set_ncl1_7
 62
   7
 10
0.0
 20
0.0
 30
0.0
 70
   128
 71
   112
 72
   162
 73
   153
  0
VERTEX
  8
Triangle_Set_ncl1_7
 62
   7
 10
0.0
 20
0.0
 30
0.0
 70
   128
 71
   162
 72
   112
 73
   113
  0
VERTEX
  8
Triangle_Set_ncl1_7
 62
   7
 10
0.0
 20
0.0
 30
0.0
 70
   128
 71
   113
 72
   163
 73
   162
  0
VERTEX
  8
Triangle_Set_ncl1_7
 62
   7
 10
0.0
 20
0.0
 30
0.0
 70
   128
 71
   163
 72
   113
 73
   114
  0
VERTEX
  8
Triangle_Set_ncl1_7
 62
   7
 10
0.0
 20
0.0
 30
0.0
 70
   128
 71
   163
 72
   160
 73
   157
  0
VERTEX
  8
Triangle_Set_ncl1_7
 62
   7
 10
0.0
 20
0.0
 30
0.0
 70
   128
 71
   160
 72
   163
 73
   164
  0
VERTEX
  8
Triangle_Set_ncl1_7
 62
   7
 10
0.0
 20
0.0
 30
0.0
 70
   128
 71
   164
 72
   161
 73
   160
  0
VERTEX
  8
Triangle_Set_ncl1_7
 62
   7
 10
0.0
 20
0.0
 30
0.0
 70
   128
 71
   161
 72
   164
 73
   165
  0
VERTEX
  8
Triangle_Set_ncl1_7
 62
   7
 10
0.0
 20
0.0
 30
0.0
 70
   128
 71
   114
 72
   164
 73
   163
  0
VERTEX
  8
Triangle_Set_ncl1_7
 62
   7
 10
0.0
 20
0.0
 30
0.0
 70
   128
 71
   164
 72
   114
 73
   115
  0
VERTEX
  8
Triangle_Set_ncl1_7
 62
   7
 10
0.0
 20
0.0
 30
0.0
 70
   128
 71
   115
 72
   165
 73
   164
  0
VERTEX
  8
Triangle_Set_ncl1_7
 62
   7
 10
0.0
 20
0.0
 30
0.0
 70
   128
 71
   165
 72
   115
 73
   116
  0
VERTEX
  8
Triangle_Set_ncl1_7
 62
   7
 10
0.0
 20
0.0
 30
0.0
 70
   128
 71
   139
 72
   96
 73
   97
  0
VERTEX
  8
Triangle_Set_ncl1_7
 62
   7
 10
0.0
 20
0.0
 30
0.0
 70
   128
 71
   96
 72
   139
 73
   166
  0
VERTEX
  8
Triangle_Set_ncl1_7
 62
   7
 10
0.0
 20
0.0
 30
0.0
 70
   128
 71
   166
 72
   95
 73
   96
  0
VERTEX
  8
Triangle_Set_ncl1_7
 62
   7
 10
0.0
 20
0.0
 30
0.0
 70
   128
 71
   95
 72
   166
 73
   167
  0
VERTEX
  8
Triangle_Set_ncl1_7
 62
   7
 10
0.0
 20
0.0
 30
0.0
 70
   128
 71
   167
 72
   94
 73
   95
  0
VERTEX
  8
Triangle_Set_ncl1_7
 62
   7
 10
0.0
 20
0.0
 30
0.0
 70
   128
 71
   94
 72
   167
 73
   168
  0
VERTEX
  8
Triangle_Set_ncl1_7
 62
   7
 10
0.0
 20
0.0
 30
0.0
 70
   128
 71
   168
 72
   93
 73
   94
  0
VERTEX
  8
Triangle_Set_ncl1_7
 62
   7
 10
0.0
 20
0.0
 30
0.0
 70
   128
 71
   93
 72
   168
 73
   169
  0
VERTEX
  8
Triangle_Set_ncl1_7
 62
   7
 10
0.0
 20
0.0
 30
0.0
 70
   128
 71
   145
 72
   166
 73
   139
  0
VERTEX
  8
Triangle_Set_ncl1_7
 62
   7
 10
0.0
 20
0.0
 30
0.0
 70
   128
 71
   166
 72
   145
 73
   170
  0
VERTEX
  8
Triangle_Set_ncl1_7
 62
   7
 10
0.0
 20
0.0
 30
0.0
 70
   128
 71
   170
 72
   167
 73
   166
  0
VERTEX
  8
Triangle_Set_ncl1_7
 62
   7
 10
0.0
 20
0.0
 30
0.0
 70
   128
 71
   167
 72
   170
 73
   171
  0
VERTEX
  8
Triangle_Set_ncl1_7
 62
   7
 10
0.0
 20
0.0
 30
0.0
 70
   128
 71
   147
 72
   170
 73
   145
  0
VERTEX
  8
Triangle_Set_ncl1_7
 62
   7
 10
0.0
 20
0.0
 30
0.0
 70
   128
 71
   170
 72
   147
 73
   172
  0
VERTEX
  8
Triangle_Set_ncl1_7
 62
   7
 10
0.0
 20
0.0
 30
0.0
 70
   128
 71
   172
 72
   171
 73
   170
  0
VERTEX
  8
Triangle_Set_ncl1_7
 62
   7
 10
0.0
 20
0.0
 30
0.0
 70
   128
 71
   171
 72
   172
 73
   173
  0
VERTEX
  8
Triangle_Set_ncl1_7
 62
   7
 10
0.0
 20
0.0
 30
0.0
 70
   128
 71
   171
 72
   168
 73
   167
  0
VERTEX
  8
Triangle_Set_ncl1_7
 62
   7
 10
0.0
 20
0.0
 30
0.0
 70
   128
 71
   168
 72
   171
 73
   174
  0
VERTEX
  8
Triangle_Set_ncl1_7
 62
   7
 10
0.0
 20
0.0
 30
0.0
 70
   128
 71
   174
 72
   169
 73
   168
  0
VERTEX
  8
Triangle_Set_ncl1_7
 62
   7
 10
0.0
 20
0.0
 30
0.0
 70
   128
 71
   169
 72
   174
 73
   175
  0
VERTEX
  8
Triangle_Set_ncl1_7
 62
   7
 10
0.0
 20
0.0
 30
0.0
 70
   128
 71
   173
 72
   174
 73
   171
  0
VERTEX
  8
Triangle_Set_ncl1_7
 62
   7
 10
0.0
 20
0.0
 30
0.0
 70
   128
 71
   174
 72
   173
 73
   176
  0
VERTEX
  8
Triangle_Set_ncl1_7
 62
   7
 10
0.0
 20
0.0
 30
0.0
 70
   128
 71
   176
 72
   175
 73
   174
  0
VERTEX
  8
Triangle_Set_ncl1_7
 62
   7
 10
0.0
 20
0.0
 30
0.0
 70
   128
 71
   175
 72
   176
 73
   177
  0
VERTEX
  8
Triangle_Set_ncl1_7
 62
   7
 10
0.0
 20
0.0
 30
0.0
 70
   128
 71
   169
 72
   92
 73
   93
  0
VERTEX
  8
Triangle_Set_ncl1_7
 62
   7
 10
0.0
 20
0.0
 30
0.0
 70
   128
 71
   92
 72
   169
 73
   178
  0
VERTEX
  8
Triangle_Set_ncl1_7
 62
   7
 10
0.0
 20
0.0
 30
0.0
 70
   128
 71
   178
 72
   91
 73
   92
  0
VERTEX
  8
Triangle_Set_ncl1_7
 62
   7
 10
0.0
 20
0.0
 30
0.0
 70
   128
 71
   91
 72
   178
 73
   90
  0
VERTEX
  8
Triangle_Set_ncl1_7
 62
   7
 10
0.0
 20
0.0
 30
0.0
 70
   128
 71
   175
 72
   178
 73
   169
  0
VERTEX
  8
Triangle_Set_ncl1_7
 62
   7
 10
0.0
 20
0.0
 30
0.0
 70
   128
 71
   178
 72
   175
 73
   179
  0
VERTEX
  8
Triangle_Set_ncl1_7
 62
   7
 10
0.0
 20
0.0
 30
0.0
 70
   128
 71
   179
 72
   90
 73
   178
  0
VERTEX
  8
Triangle_Set_ncl1_7
 62
   7
 10
0.0
 20
0.0
 30
0.0
 70
   128
 71
   90
 72
   179
 73
   89
  0
VERTEX
  8
Triangle_Set_ncl1_7
 62
   7
 10
0.0
 20
0.0
 30
0.0
 70
   128
 71
   177
 72
   179
 73
   175
  0
VERTEX
  8
Triangle_Set_ncl1_7
 62
   7
 10
0.0
 20
0.0
 30
0.0
 70
   128
 71
   179
 72
   177
 73
   180
  0
VERTEX
  8
Triangle_Set_ncl1_7
 62
   7
 10
0.0
 20
0.0
 30
0.0
 70
   128
 71
   180
 72
   89
 73
   179
  0
VERTEX
  8
Triangle_Set_ncl1_7
 62
   7
 10
0.0
 20
0.0
 30
0.0
 70
   128
 71
   89
 72
   180
 73
   88
  0
VERTEX
  8
Triangle_Set_ncl1_7
 62
   7
 10
0.0
 20
0.0
 30
0.0
 70
   128
 71
   159
 72
   172
 73
   147
  0
VERTEX
  8
Triangle_Set_ncl1_7
 62
   7
 10
0.0
 20
0.0
 30
0.0
 70
   128
 71
   172
 72
   159
 73
   181
  0
VERTEX
  8
Triangle_Set_ncl1_7
 62
   7
 10
0.0
 20
0.0
 30
0.0
 70
   128
 71
   181
 72
   173
 73
   172
  0
VERTEX
  8
Triangle_Set_ncl1_7
 62
   7
 10
0.0
 20
0.0
 30
0.0
 70
   128
 71
   173
 72
   181
 73
   182
  0
VERTEX
  8
Triangle_Set_ncl1_7
 62
   7
 10
0.0
 20
0.0
 30
0.0
 70
   128
 71
   161
 72
   181
 73
   159
  0
VERTEX
  8
Triangle_Set_ncl1_7
 62
   7
 10
0.0
 20
0.0
 30
0.0
 70
   128
 71
   181
 72
   161
 73
   183
  0
VERTEX
  8
Triangle_Set_ncl1_7
 62
   7
 10
0.0
 20
0.0
 30
0.0
 70
   128
 71
   183
 72
   182
 73
   181
  0
VERTEX
  8
Triangle_Set_ncl1_7
 62
   7
 10
0.0
 20
0.0
 30
0.0
 70
   128
 71
   182
 72
   183
 73
   184
  0
VERTEX
  8
Triangle_Set_ncl1_7
 62
   7
 10
0.0
 20
0.0
 30
0.0
 70
   128
 71
   182
 72
   176
 73
   173
  0
VERTEX
  8
Triangle_Set_ncl1_7
 62
   7
 10
0.0
 20
0.0
 30
0.0
 70
   128
 71
   176
 72
   182
 73
   185
  0
VERTEX
  8
Triangle_Set_ncl1_7
 62
   7
 10
0.0
 20
0.0
 30
0.0
 70
   128
 71
   185
 72
   177
 73
   176
  0
VERTEX
  8
Triangle_Set_ncl1_7
 62
   7
 10
0.0
 20
0.0
 30
0.0
 70
   128
 71
   177
 72
   185
 73
   186
  0
VERTEX
  8
Triangle_Set_ncl1_7
 62
   7
 10
0.0
 20
0.0
 30
0.0
 70
   128
 71
   184
 72
   185
 73
   182
  0
VERTEX
  8
Triangle_Set_ncl1_7
 62
   7
 10
0.0
 20
0.0
 30
0.0
 70
   128
 71
   185
 72
   184
 73
   187
  0
VERTEX
  8
Triangle_Set_ncl1_7
 62
   7
 10
0.0
 20
0.0
 30
0.0
 70
   128
 71
   187
 72
   186
 73
   185
  0
VERTEX
  8
Triangle_Set_ncl1_7
 62
   7
 10
0.0
 20
0.0
 30
0.0
 70
   128
 71
   186
 72
   187
 73
   188
  0
VERTEX
  8
Triangle_Set_ncl1_7
 62
   7
 10
0.0
 20
0.0
 30
0.0
 70
   128
 71
   165
 72
   183
 73
   161
  0
VERTEX
  8
Triangle_Set_ncl1_7
 62
   7
 10
0.0
 20
0.0
 30
0.0
 70
   128
 71
   183
 72
   165
 73
   189
  0
VERTEX
  8
Triangle_Set_ncl1_7
 62
   7
 10
0.0
 20
0.0
 30
0.0
 70
   128
 71
   189
 72
   184
 73
   183
  0
VERTEX
  8
Triangle_Set_ncl1_7
 62
   7
 10
0.0
 20
0.0
 30
0.0
 70
   128
 71
   184
 72
   189
 73
   190
  0
VERTEX
  8
Triangle_Set_ncl1_7
 62
   7
 10
0.0
 20
0.0
 30
0.0
 70
   128
 71
   116
 72
   189
 73
   165
  0
VERTEX
  8
Triangle_Set_ncl1_7
 62
   7
 10
0.0
 20
0.0
 30
0.0
 70
   128
 71
   189
 72
   116
 73
   117
  0
VERTEX
  8
Triangle_Set_ncl1_7
 62
   7
 10
0.0
 20
0.0
 30
0.0
 70
   128
 71
   117
 72
   190
 73
   189
  0
VERTEX
  8
Triangle_Set_ncl1_7
 62
   7
 10
0.0
 20
0.0
 30
0.0
 70
   128
 71
   190
 72
   117
 73
   118
  0
VERTEX
  8
Triangle_Set_ncl1_7
 62
   7
 10
0.0
 20
0.0
 30
0.0
 70
   128
 71
   190
 72
   187
 73
   184
  0
VERTEX
  8
Triangle_Set_ncl1_7
 62
   7
 10
0.0
 20
0.0
 30
0.0
 70
   128
 71
   187
 72
   190
 73
   191
  0
VERTEX
  8
Triangle_Set_ncl1_7
 62
   7
 10
0.0
 20
0.0
 30
0.0
 70
   128
 71
   191
 72
   188
 73
   187
  0
VERTEX
  8
Triangle_Set_ncl1_7
 62
   7
 10
0.0
 20
0.0
 30
0.0
 70
   128
 71
   188
 72
   191
 73
   192
  0
VERTEX
  8
Triangle_Set_ncl1_7
 62
   7
 10
0.0
 20
0.0
 30
0.0
 70
   128
 71
   118
 72
   191
 73
   190
  0
VERTEX
  8
Triangle_Set_ncl1_7
 62
   7
 10
0.0
 20
0.0
 30
0.0
 70
   128
 71
   191
 72
   118
 73
   119
  0
VERTEX
  8
Triangle_Set_ncl1_7
 62
   7
 10
0.0
 20
0.0
 30
0.0
 70
   128
 71
   119
 72
   192
 73
   191
  0
VERTEX
  8
Triangle_Set_ncl1_7
 62
   7
 10
0.0
 20
0.0
 30
0.0
 70
   128
 71
   192
 72
   119
 73
   120
  0
VERTEX
  8
Triangle_Set_ncl1_7
 62
   7
 10
0.0
 20
0.0
 30
0.0
 70
   128
 71
   186
 72
   180
 73
   177
  0
VERTEX
  8
Triangle_Set_ncl1_7
 62
   7
 10
0.0
 20
0.0
 30
0.0
 70
   128
 71
   180
 72
   186
 73
   193
  0
VERTEX
  8
Triangle_Set_ncl1_7
 62
   7
 10
0.0
 20
0.0
 30
0.0
 70
   128
 71
   193
 72
   88
 73
   180
  0
VERTEX
  8
Triangle_Set_ncl1_7
 62
   7
 10
0.0
 20
0.0
 30
0.0
 70
   128
 71
   88
 72
   193
 73
   87
  0
VERTEX
  8
Triangle_Set_ncl1_7
 62
   7
 10
0.0
 20
0.0
 30
0.0
 70
   128
 71
   188
 72
   193
 73
   186
  0
VERTEX
  8
Triangle_Set_ncl1_7
 62
   7
 10
0.0
 20
0.0
 30
0.0
 70
   128
 71
   193
 72
   188
 73
   194
  0
VERTEX
  8
Triangle_Set_ncl1_7
 62
   7
 10
0.0
 20
0.0
 30
0.0
 70
   128
 71
   194
 72
   87
 73
   193
  0
VERTEX
  8
Triangle_Set_ncl1_7
 62
   7
 10
0.0
 20
0.0
 30
0.0
 70
   128
 71
   87
 72
   194
 73
   86
  0
VERTEX
  8
Triangle_Set_ncl1_7
 62
   7
 10
0.0
 20
0.0
 30
0.0
 70
   128
 71
   192
 72
   194
 73
   188
  0
VERTEX
  8
Triangle_Set_ncl1_7
 62
   7
 10
0.0
 20
0.0
 30
0.0
 70
   128
 71
   194
 72
   192
 73
   195
  0
VERTEX
  8
Triangle_Set_ncl1_7
 62
   7
 10
0.0
 20
0.0
 30
0.0
 70
   128
 71
   195
 72
   86
 73
   194
  0
VERTEX
  8
Triangle_Set_ncl1_7
 62
   7
 10
0.0
 20
0.0
 30
0.0
 70
   128
 71
   86
 72
   195
 73
   85
  0
VERTEX
  8
Triangle_Set_ncl1_7
 62
   7
 10
0.0
 20
0.0
 30
0.0
 70
   128
 71
   120
 72
   195
 73
   192
  0
VERTEX
  8
Triangle_Set_ncl1_7
 62
   7
 10
0.0
 20
0.0
 30
0.0
 70
   128
 71
   195
 72
   120
 73
   121
  0
VERTEX
  8
Triangle_Set_ncl1_7
 62
   7
 10
0.0
 20
0.0
 30
0.0
 70
   128
 71
   121
 72
   85
 73
   195
  0
VERTEX
  8
Triangle_Set_ncl1_7
 62
   7
 10
0.0
 20
0.0
 30
0.0
 70
   128
 71
   85
 72
   121
 73
   84
  0
VERTEX
  8
Triangle_Set_ncl1_7
 62
   7
 10
0.0
 20
0.0
 30
0.0
 70
   128
 71
   1
 72
   5
 73
   219
  0
VERTEX
  8
Triangle_Set_ncl1_7
 62
   7
 10
0.0
 20
0.0
 30
0.0
 70
   128
 71
   16
 72
   17
 73
   228
  0
VERTEX
  8
Triangle_Set_ncl1_7
 62
   7
 10
0.0
 20
0.0
 30
0.0
 70
   128
 71
   15
 72
   16
 73
   227
  0
VERTEX
  8
Triangle_Set_ncl1_7
 62
   7
 10
0.0
 20
0.0
 30
0.0
 70
   128
 71
   14
 72
   15
 73
   226
  0
VERTEX
  8
Triangle_Set_ncl1_7
 62
   7
 10
0.0
 20
0.0
 30
0.0
 70
   128
 71
   225
 72
   13
 73
   14
  0
VERTEX
  8
Triangle_Set_ncl1_7
 62
   7
 10
0.0
 20
0.0
 30
0.0
 70
   128
 71
   12
 72
   13
 73
   225
  0
VERTEX
  8
Triangle_Set_ncl1_7
 62
   7
 10
0.0
 20
0.0
 30
0.0
 70
   128
 71
   2
 72
   1
 73
   53
  0
VERTEX
  8
Triangle_Set_ncl1_7
 62
   7
 10
0.0
 20
0.0
 30
0.0
 70
   128
 71
   220
 72
   7
 73
   221
  0
VERTEX
  8
Triangle_Set_ncl1_7
 62
   7
 10
0.0
 20
0.0
 30
0.0
 70
   128
 71
   17
 72
   18
 73
   228
  0
VERTEX
  8
Triangle_Set_ncl1_7
 62
   7
 10
0.0
 20
0.0
 30
0.0
 70
   128
 71
   232
 72
   54
 73
   233
  0
VERTEX
  8
Triangle_Set_ncl1_7
 62
   7
 10
0.0
 20
0.0
 30
0.0
 70
   128
 71
   223
 72
   10
 73
   11
  0
VERTEX
  8
Triangle_Set_ncl1_7
 62
   7
 10
0.0
 20
0.0
 30
0.0
 70
   128
 71
   19
 72
   20
 73
   230
  0
VERTEX
  8
Triangle_Set_ncl1_7
 62
   7
 10
0.0
 20
0.0
 30
0.0
 70
   128
 71
   58
 72
   57
 73
   234
  0
VERTEX
  8
Triangle_Set_ncl1_7
 62
   7
 10
0.0
 20
0.0
 30
0.0
 70
   128
 71
   20
 72
   21
 73
   231
  0
VERTEX
  8
Triangle_Set_ncl1_7
 62
   7
 10
0.0
 20
0.0
 30
0.0
 70
   128
 71
   60
 72
   59
 73
   211
  0
VERTEX
  8
Triangle_Set_ncl1_7
 62
   7
 10
0.0
 20
0.0
 30
0.0
 70
   128
 71
   62
 72
   61
 73
   210
  0
VERTEX
  8
Triangle_Set_ncl1_7
 62
   7
 10
0.0
 20
0.0
 30
0.0
 70
   128
 71
   231
 72
   3
 73
   196
  0
VERTEX
  8
Triangle_Set_ncl1_7
 62
   7
 10
0.0
 20
0.0
 30
0.0
 70
   128
 71
   64
 72
   63
 73
   209
  0
VERTEX
  8
Triangle_Set_ncl1_7
 62
   7
 10
0.0
 20
0.0
 30
0.0
 70
   128
 71
   66
 72
   65
 73
   208
  0
VERTEX
  8
Triangle_Set_ncl1_7
 62
   7
 10
0.0
 20
0.0
 30
0.0
 70
   128
 71
   67
 72
   66
 73
   208
  0
VERTEX
  8
Triangle_Set_ncl1_7
 62
   7
 10
0.0
 20
0.0
 30
0.0
 70
   128
 71
   69
 72
   68
 73
   207
  0
VERTEX
  8
Triangle_Set_ncl1_7
 62
   7
 10
0.0
 20
0.0
 30
0.0
 70
   128
 71
   71
 72
   70
 73
   206
  0
VERTEX
  8
Triangle_Set_ncl1_7
 62
   7
 10
0.0
 20
0.0
 30
0.0
 70
   128
 71
   73
 72
   72
 73
   205
  0
VERTEX
  8
Triangle_Set_ncl1_7
 62
   7
 10
0.0
 20
0.0
 30
0.0
 70
   128
 71
   205
 72
   74
 73
   73
  0
VERTEX
  8
Triangle_Set_ncl1_7
 62
   7
 10
0.0
 20
0.0
 30
0.0
 70
   128
 71
   204
 72
   76
 73
   75
  0
VERTEX
  8
Triangle_Set_ncl1_7
 62
   7
 10
0.0
 20
0.0
 30
0.0
 70
   128
 71
   196
 72
   3
 73
   197
  0
VERTEX
  8
Triangle_Set_ncl1_7
 62
   7
 10
0.0
 20
0.0
 30
0.0
 70
   128
 71
   83
 72
   3
 73
   4
  0
VERTEX
  8
Triangle_Set_ncl1_7
 62
   7
 10
0.0
 20
0.0
 30
0.0
 70
   128
 71
   21
 72
   3
 73
   231
  0
VERTEX
  8
Triangle_Set_ncl1_7
 62
   7
 10
0.0
 20
0.0
 30
0.0
 70
   128
 71
   75
 72
   74
 73
   204
  0
VERTEX
  8
Triangle_Set_ncl1_7
 62
   7
 10
0.0
 20
0.0
 30
0.0
 70
   128
 71
   77
 72
   76
 73
   203
  0
VERTEX
  8
Triangle_Set_ncl1_7
 62
   7
 10
0.0
 20
0.0
 30
0.0
 70
   128
 71
   237
 72
   236
 73
   201
  0
VERTEX
  8
Triangle_Set_ncl1_7
 62
   7
 10
0.0
 20
0.0
 30
0.0
 70
   128
 71
   78
 72
   202
 73
   236
  0
VERTEX
  8
Triangle_Set_ncl1_7
 62
   7
 10
0.0
 20
0.0
 30
0.0
 70
   128
 71
   197
 72
   3
 73
   198
  0
VERTEX
  8
Triangle_Set_ncl1_7
 62
   7
 10
0.0
 20
0.0
 30
0.0
 70
   128
 71
   80
 72
   79
 73
   236
  0
VERTEX
  8
Triangle_Set_ncl1_7
 62
   7
 10
0.0
 20
0.0
 30
0.0
 70
   128
 71
   198
 72
   3
 73
   199
  0
VERTEX
  8
Triangle_Set_ncl1_7
 62
   7
 10
0.0
 20
0.0
 30
0.0
 70
   128
 71
   237
 72
   80
 73
   236
  0
VERTEX
  8
Triangle_Set_ncl1_7
 62
   7
 10
0.0
 20
0.0
 30
0.0
 70
   128
 71
   199
 72
   3
 73
   200
  0
VERTEX
  8
Triangle_Set_ncl1_7
 62
   7
 10
0.0
 20
0.0
 30
0.0
 70
   128
 71
   235
 72
   81
 73
   237
  0
VERTEX
  8
Triangle_Set_ncl1_7
 62
   7
 10
0.0
 20
0.0
 30
0.0
 70
   128
 71
   200
 72
   3
 73
   201
  0
VERTEX
  8
Triangle_Set_ncl1_7
 62
   7
 10
0.0
 20
0.0
 30
0.0
 70
   128
 71
   78
 72
   77
 73
   203
  0
VERTEX
  8
Triangle_Set_ncl1_7
 62
   7
 10
0.0
 20
0.0
 30
0.0
 70
   128
 71
   202
 72
   78
 73
   203
  0
VERTEX
  8
Triangle_Set_ncl1_7
 62
   7
 10
0.0
 20
0.0
 30
0.0
 70
   128
 71
   72
 72
   71
 73
   206
  0
VERTEX
  8
Triangle_Set_ncl1_7
 62
   7
 10
0.0
 20
0.0
 30
0.0
 70
   128
 71
   203
 72
   76
 73
   204
  0
VERTEX
  8
Triangle_Set_ncl1_7
 62
   7
 10
0.0
 20
0.0
 30
0.0
 70
   128
 71
   70
 72
   69
 73
   206
  0
VERTEX
  8
Triangle_Set_ncl1_7
 62
   7
 10
0.0
 20
0.0
 30
0.0
 70
   128
 71
   204
 72
   74
 73
   205
  0
VERTEX
  8
Triangle_Set_ncl1_7
 62
   7
 10
0.0
 20
0.0
 30
0.0
 70
   128
 71
   68
 72
   67
 73
   207
  0
VERTEX
  8
Triangle_Set_ncl1_7
 62
   7
 10
0.0
 20
0.0
 30
0.0
 70
   128
 71
   205
 72
   72
 73
   206
  0
VERTEX
  8
Triangle_Set_ncl1_7
 62
   7
 10
0.0
 20
0.0
 30
0.0
 70
   128
 71
   65
 72
   64
 73
   208
  0
VERTEX
  8
Triangle_Set_ncl1_7
 62
   7
 10
0.0
 20
0.0
 30
0.0
 70
   128
 71
   206
 72
   69
 73
   207
  0
VERTEX
  8
Triangle_Set_ncl1_7
 62
   7
 10
0.0
 20
0.0
 30
0.0
 70
   128
 71
   63
 72
   62
 73
   209
  0
VERTEX
  8
Triangle_Set_ncl1_7
 62
   7
 10
0.0
 20
0.0
 30
0.0
 70
   128
 71
   207
 72
   67
 73
   208
  0
VERTEX
  8
Triangle_Set_ncl1_7
 62
   7
 10
0.0
 20
0.0
 30
0.0
 70
   128
 71
   61
 72
   60
 73
   210
  0
VERTEX
  8
Triangle_Set_ncl1_7
 62
   7
 10
0.0
 20
0.0
 30
0.0
 70
   128
 71
   208
 72
   64
 73
   209
  0
VERTEX
  8
Triangle_Set_ncl1_7
 62
   7
 10
0.0
 20
0.0
 30
0.0
 70
   128
 71
   59
 72
   58
 73
   211
  0
VERTEX
  8
Triangle_Set_ncl1_7
 62
   7
 10
0.0
 20
0.0
 30
0.0
 70
   128
 71
   209
 72
   62
 73
   210
  0
VERTEX
  8
Triangle_Set_ncl1_7
 62
   7
 10
0.0
 20
0.0
 30
0.0
 70
   128
 71
   56
 72
   233
 73
   234
  0
VERTEX
  8
Triangle_Set_ncl1_7
 62
   7
 10
0.0
 20
0.0
 30
0.0
 70
   128
 71
   210
 72
   60
 73
   211
  0
VERTEX
  8
Triangle_Set_ncl1_7
 62
   7
 10
0.0
 20
0.0
 30
0.0
 70
   128
 71
   56
 72
   55
 73
   233
  0
VERTEX
  8
Triangle_Set_ncl1_7
 62
   7
 10
0.0
 20
0.0
 30
0.0
 70
   128
 71
   211
 72
   58
 73
   212
  0
VERTEX
  8
Triangle_Set_ncl1_7
 62
   7
 10
0.0
 20
0.0
 30
0.0
 70
   128
 71
   212
 72
   234
 73
   233
  0
VERTEX
  8
Triangle_Set_ncl1_7
 62
   7
 10
0.0
 20
0.0
 30
0.0
 70
   128
 71
   213
 72
   1
 73
   214
  0
VERTEX
  8
Triangle_Set_ncl1_7
 62
   7
 10
0.0
 20
0.0
 30
0.0
 70
   128
 71
   214
 72
   1
 73
   215
  0
VERTEX
  8
Triangle_Set_ncl1_7
 62
   7
 10
0.0
 20
0.0
 30
0.0
 70
   128
 71
   220
 72
   219
 73
   6
  0
VERTEX
  8
Triangle_Set_ncl1_7
 62
   7
 10
0.0
 20
0.0
 30
0.0
 70
   128
 71
   215
 72
   1
 73
   216
  0
VERTEX
  8
Triangle_Set_ncl1_7
 62
   7
 10
0.0
 20
0.0
 30
0.0
 70
   128
 71
   221
 72
   7
 73
   8
  0
VERTEX
  8
Triangle_Set_ncl1_7
 62
   7
 10
0.0
 20
0.0
 30
0.0
 70
   128
 71
   216
 72
   1
 73
   217
  0
VERTEX
  8
Triangle_Set_ncl1_7
 62
   7
 10
0.0
 20
0.0
 30
0.0
 70
   128
 71
   6
 72
   7
 73
   220
  0
VERTEX
  8
Triangle_Set_ncl1_7
 62
   7
 10
0.0
 20
0.0
 30
0.0
 70
   128
 71
   217
 72
   1
 73
   218
  0
VERTEX
  8
Triangle_Set_ncl1_7
 62
   7
 10
0.0
 20
0.0
 30
0.0
 70
   128
 71
   5
 72
   6
 73
   219
  0
VERTEX
  8
Triangle_Set_ncl1_7
 62
   7
 10
0.0
 20
0.0
 30
0.0
 70
   128
 71
   218
 72
   1
 73
   219
  0
VERTEX
  8
Triangle_Set_ncl1_7
 62
   7
 10
0.0
 20
0.0
 30
0.0
 70
   128
 71
   9
 72
   10
 73
   222
  0
VERTEX
  8
Triangle_Set_ncl1_7
 62
   7
 10
0.0
 20
0.0
 30
0.0
 70
   128
 71
   8
 72
   9
 73
   222
  0
VERTEX
  8
Triangle_Set_ncl1_7
 62
   7
 10
0.0
 20
0.0
 30
0.0
 70
   128
 71
   11
 72
   12
 73
   224
  0
VERTEX
  8
Triangle_Set_ncl1_7
 62
   7
 10
0.0
 20
0.0
 30
0.0
 70
   128
 71
   221
 72
   8
 73
   222
  0
VERTEX
  8
Triangle_Set_ncl1_7
 62
   7
 10
0.0
 20
0.0
 30
0.0
 70
   128
 71
   222
 72
   10
 73
   223
  0
VERTEX
  8
Triangle_Set_ncl1_7
 62
   7
 10
0.0
 20
0.0
 30
0.0
 70
   128
 71
   223
 72
   11
 73
   224
  0
VERTEX
  8
Triangle_Set_ncl1_7
 62
   7
 10
0.0
 20
0.0
 30
0.0
 70
   128
 71
   224
 72
   12
 73
   225
  0
VERTEX
  8
Triangle_Set_ncl1_7
 62
   7
 10
0.0
 20
0.0
 30
0.0
 70
   128
 71
   225
 72
   14
 73
   226
  0
VERTEX
  8
Triangle_Set_ncl1_7
 62
   7
 10
0.0
 20
0.0
 30
0.0
 70
   128
 71
   226
 72
   15
 73
   227
  0
VERTEX
  8
Triangle_Set_ncl1_7
 62
   7
 10
0.0
 20
0.0
 30
0.0
 70
   128
 71
   18
 72
   19
 73
   229
  0
VERTEX
  8
Triangle_Set_ncl1_7
 62
   7
 10
0.0
 20
0.0
 30
0.0
 70
   128
 71
   227
 72
   16
 73
   228
  0
VERTEX
  8
Triangle_Set_ncl1_7
 62
   7
 10
0.0
 20
0.0
 30
0.0
 70
   128
 71
   228
 72
   18
 73
   229
  0
VERTEX
  8
Triangle_Set_ncl1_7
 62
   7
 10
0.0
 20
0.0
 30
0.0
 70
   128
 71
   229
 72
   19
 73
   230
  0
VERTEX
  8
Triangle_Set_ncl1_7
 62
   7
 10
0.0
 20
0.0
 30
0.0
 70
   128
 71
   230
 72
   20
 73
   231
  0
VERTEX
  8
Triangle_Set_ncl1_7
 62
   7
 10
0.0
 20
0.0
 30
0.0
 70
   128
 71
   53
 72
   1
 73
   54
  0
VERTEX
  8
Triangle_Set_ncl1_7
 62
   7
 10
0.0
 20
0.0
 30
0.0
 70
   128
 71
   83
 72
   82
 73
   3
  0
VERTEX
  8
Triangle_Set_ncl1_7
 62
   7
 10
0.0
 20
0.0
 30
0.0
 70
   128
 71
   55
 72
   54
 73
   232
  0
VERTEX
  8
Triangle_Set_ncl1_7
 62
   7
 10
0.0
 20
0.0
 30
0.0
 70
   128
 71
   55
 72
   232
 73
   233
  0
VERTEX
  8
Triangle_Set_ncl1_7
 62
   7
 10
0.0
 20
0.0
 30
0.0
 70
   128
 71
   213
 72
   212
 73
   233
  0
VERTEX
  8
Triangle_Set_ncl1_7
 62
   7
 10
0.0
 20
0.0
 30
0.0
 70
   128
 71
   213
 72
   233
 73
   1
  0
VERTEX
  8
Triangle_Set_ncl1_7
 62
   7
 10
0.0
 20
0.0
 30
0.0
 70
   128
 71
   54
 72
   1
 73
   233
  0
VERTEX
  8
Triangle_Set_ncl1_7
 62
   7
 10
0.0
 20
0.0
 30
0.0
 70
   128
 71
   57
 72
   56
 73
   234
  0
VERTEX
  8
Triangle_Set_ncl1_7
 62
   7
 10
0.0
 20
0.0
 30
0.0
 70
   128
 71
   212
 72
   58
 73
   234
  0
VERTEX
  8
Triangle_Set_ncl1_7
 62
   7
 10
0.0
 20
0.0
 30
0.0
 70
   128
 71
   82
 72
   81
 73
   235
  0
VERTEX
  8
Triangle_Set_ncl1_7
 62
   7
 10
0.0
 20
0.0
 30
0.0
 70
   128
 71
   82
 72
   235
 73
   237
  0
VERTEX
  8
Triangle_Set_ncl1_7
 62
   7
 10
0.0
 20
0.0
 30
0.0
 70
   128
 71
   202
 72
   201
 73
   236
  0
VERTEX
  8
Triangle_Set_ncl1_7
 62
   7
 10
0.0
 20
0.0
 30
0.0
 70
   128
 71
   79
 72
   78
 73
   236
  0
VERTEX
  8
Triangle_Set_ncl1_7
 62
   7
 10
0.0
 20
0.0
 30
0.0
 70
   128
 71
   81
 72
   80
 73
   237
  0
VERTEX
  8
Triangle_Set_ncl1_7
 62
   7
 10
0.0
 20
0.0
 30
0.0
 70
   128
 71
   82
 72
   237
 73
   3
  0
VERTEX
  8
Triangle_Set_ncl1_7
 62
   7
 10
0.0
 20
0.0
 30
0.0
 70
   128
 71
   201
 72
   3
 73
   237
  0
VERTEX
  8
Triangle_Set_ncl1_7
 62
   7
 10
0.0
 20
0.0
 30
0.0
 70
   128
 71
   214
 72
   212
 73
   213
  0
VERTEX
  8
Triangle_Set_ncl1_7
 62
   7
 10
0.0
 20
0.0
 30
0.0
 70
   128
 71
   212
 72
   214
 73
   238
  0
VERTEX
  8
Triangle_Set_ncl1_7
 62
   7
 10
0.0
 20
0.0
 30
0.0
 70
   128
 71
   215
 72
   238
 73
   214
  0
VERTEX
  8
Triangle_Set_ncl1_7
 62
   7
 10
0.0
 20
0.0
 30
0.0
 70
   128
 71
   238
 72
   215
 73
   239
  0
VERTEX
  8
Triangle_Set_ncl1_7
 62
   7
 10
0.0
 20
0.0
 30
0.0
 70
   128
 71
   238
 72
   211
 73
   212
  0
VERTEX
  8
Triangle_Set_ncl1_7
 62
   7
 10
0.0
 20
0.0
 30
0.0
 70
   128
 71
   211
 72
   238
 73
   240
  0
VERTEX
  8
Triangle_Set_ncl1_7
 62
   7
 10
0.0
 20
0.0
 30
0.0
 70
   128
 71
   239
 72
   240
 73
   238
  0
VERTEX
  8
Triangle_Set_ncl1_7
 62
   7
 10
0.0
 20
0.0
 30
0.0
 70
   128
 71
   240
 72
   239
 73
   241
  0
VERTEX
  8
Triangle_Set_ncl1_7
 62
   7
 10
0.0
 20
0.0
 30
0.0
 70
   128
 71
   216
 72
   239
 73
   215
  0
VERTEX
  8
Triangle_Set_ncl1_7
 62
   7
 10
0.0
 20
0.0
 30
0.0
 70
   128
 71
   239
 72
   216
 73
   242
  0
VERTEX
  8
Triangle_Set_ncl1_7
 62
   7
 10
0.0
 20
0.0
 30
0.0
 70
   128
 71
   217
 72
   242
 73
   216
  0
VERTEX
  8
Triangle_Set_ncl1_7
 62
   7
 10
0.0
 20
0.0
 30
0.0
 70
   128
 71
   242
 72
   217
 73
   243
  0
VERTEX
  8
Triangle_Set_ncl1_7
 62
   7
 10
0.0
 20
0.0
 30
0.0
 70
   128
 71
   242
 72
   241
 73
   239
  0
VERTEX
  8
Triangle_Set_ncl1_7
 62
   7
 10
0.0
 20
0.0
 30
0.0
 70
   128
 71
   241
 72
   242
 73
   244
  0
VERTEX
  8
Triangle_Set_ncl1_7
 62
   7
 10
0.0
 20
0.0
 30
0.0
 70
   128
 71
   243
 72
   244
 73
   242
  0
VERTEX
  8
Triangle_Set_ncl1_7
 62
   7
 10
0.0
 20
0.0
 30
0.0
 70
   128
 71
   244
 72
   243
 73
   245
  0
VERTEX
  8
Triangle_Set_ncl1_7
 62
   7
 10
0.0
 20
0.0
 30
0.0
 70
   128
 71
   218
 72
   243
 73
   217
  0
VERTEX
  8
Triangle_Set_ncl1_7
 62
   7
 10
0.0
 20
0.0
 30
0.0
 70
   128
 71
   243
 72
   218
 73
   246
  0
VERTEX
  8
Triangle_Set_ncl1_7
 62
   7
 10
0.0
 20
0.0
 30
0.0
 70
   128
 71
   219
 72
   246
 73
   218
  0
VERTEX
  8
Triangle_Set_ncl1_7
 62
   7
 10
0.0
 20
0.0
 30
0.0
 70
   128
 71
   246
 72
   219
 73
   220
  0
VERTEX
  8
Triangle_Set_ncl1_7
 62
   7
 10
0.0
 20
0.0
 30
0.0
 70
   128
 71
   246
 72
   245
 73
   243
  0
VERTEX
  8
Triangle_Set_ncl1_7
 62
   7
 10
0.0
 20
0.0
 30
0.0
 70
   128
 71
   245
 72
   246
 73
   247
  0
VERTEX
  8
Triangle_Set_ncl1_7
 62
   7
 10
0.0
 20
0.0
 30
0.0
 70
   128
 71
   220
 72
   247
 73
   246
  0
VERTEX
  8
Triangle_Set_ncl1_7
 62
   7
 10
0.0
 20
0.0
 30
0.0
 70
   128
 71
   247
 72
   220
 73
   221
  0
VERTEX
  8
Triangle_Set_ncl1_7
 62
   7
 10
0.0
 20
0.0
 30
0.0
 70
   128
 71
   240
 72
   210
 73
   211
  0
VERTEX
  8
Triangle_Set_ncl1_7
 62
   7
 10
0.0
 20
0.0
 30
0.0
 70
   128
 71
   210
 72
   240
 73
   248
  0
VERTEX
  8
Triangle_Set_ncl1_7
 62
   7
 10
0.0
 20
0.0
 30
0.0
 70
   128
 71
   241
 72
   248
 73
   240
  0
VERTEX
  8
Triangle_Set_ncl1_7
 62
   7
 10
0.0
 20
0.0
 30
0.0
 70
   128
 71
   248
 72
   241
 73
   249
  0
VERTEX
  8
Triangle_Set_ncl1_7
 62
   7
 10
0.0
 20
0.0
 30
0.0
 70
   128
 71
   248
 72
   209
 73
   210
  0
VERTEX
  8
Triangle_Set_ncl1_7
 62
   7
 10
0.0
 20
0.0
 30
0.0
 70
   128
 71
   209
 72
   248
 73
   250
  0
VERTEX
  8
Triangle_Set_ncl1_7
 62
   7
 10
0.0
 20
0.0
 30
0.0
 70
   128
 71
   249
 72
   250
 73
   248
  0
VERTEX
  8
Triangle_Set_ncl1_7
 62
   7
 10
0.0
 20
0.0
 30
0.0
 70
   128
 71
   250
 72
   249
 73
   251
  0
VERTEX
  8
Triangle_Set_ncl1_7
 62
   7
 10
0.0
 20
0.0
 30
0.0
 70
   128
 71
   244
 72
   249
 73
   241
  0
VERTEX
  8
Triangle_Set_ncl1_7
 62
   7
 10
0.0
 20
0.0
 30
0.0
 70
   128
 71
   249
 72
   244
 73
   252
  0
VERTEX
  8
Triangle_Set_ncl1_7
 62
   7
 10
0.0
 20
0.0
 30
0.0
 70
   128
 71
   245
 72
   252
 73
   244
  0
VERTEX
  8
Triangle_Set_ncl1_7
 62
   7
 10
0.0
 20
0.0
 30
0.0
 70
   128
 71
   252
 72
   245
 73
   253
  0
VERTEX
  8
Triangle_Set_ncl1_7
 62
   7
 10
0.0
 20
0.0
 30
0.0
 70
   128
 71
   252
 72
   251
 73
   249
  0
VERTEX
  8
Triangle_Set_ncl1_7
 62
   7
 10
0.0
 20
0.0
 30
0.0
 70
   128
 71
   251
 72
   252
 73
   254
  0
VERTEX
  8
Triangle_Set_ncl1_7
 62
   7
 10
0.0
 20
0.0
 30
0.0
 70
   128
 71
   253
 72
   254
 73
   252
  0
VERTEX
  8
Triangle_Set_ncl1_7
 62
   7
 10
0.0
 20
0.0
 30
0.0
 70
   128
 71
   254
 72
   253
 73
   255
  0
VERTEX
  8
Triangle_Set_ncl1_7
 62
   7
 10
0.0
 20
0.0
 30
0.0
 70
   128
 71
   250
 72
   208
 73
   209
  0
VERTEX
  8
Triangle_Set_ncl1_7
 62
   7
 10
0.0
 20
0.0
 30
0.0
 70
   128
 71
   208
 72
   250
 73
   256
  0
VERTEX
  8
Triangle_Set_ncl1_7
 62
   7
 10
0.0
 20
0.0
 30
0.0
 70
   128
 71
   251
 72
   256
 73
   250
  0
VERTEX
  8
Triangle_Set_ncl1_7
 62
   7
 10
0.0
 20
0.0
 30
0.0
 70
   128
 71
   256
 72
   251
 73
   257
  0
VERTEX
  8
Triangle_Set_ncl1_7
 62
   7
 10
0.0
 20
0.0
 30
0.0
 70
   128
 71
   256
 72
   207
 73
   208
  0
VERTEX
  8
Triangle_Set_ncl1_7
 62
   7
 10
0.0
 20
0.0
 30
0.0
 70
   128
 71
   207
 72
   256
 73
   258
  0
VERTEX
  8
Triangle_Set_ncl1_7
 62
   7
 10
0.0
 20
0.0
 30
0.0
 70
   128
 71
   257
 72
   258
 73
   256
  0
VERTEX
  8
Triangle_Set_ncl1_7
 62
   7
 10
0.0
 20
0.0
 30
0.0
 70
   128
 71
   258
 72
   257
 73
   259
  0
VERTEX
  8
Triangle_Set_ncl1_7
 62
   7
 10
0.0
 20
0.0
 30
0.0
 70
   128
 71
   254
 72
   257
 73
   251
  0
VERTEX
  8
Triangle_Set_ncl1_7
 62
   7
 10
0.0
 20
0.0
 30
0.0
 70
   128
 71
   257
 72
   254
 73
   260
  0
VERTEX
  8
Triangle_Set_ncl1_7
 62
   7
 10
0.0
 20
0.0
 30
0.0
 70
   128
 71
   255
 72
   260
 73
   254
  0
VERTEX
  8
Triangle_Set_ncl1_7
 62
   7
 10
0.0
 20
0.0
 30
0.0
 70
   128
 71
   260
 72
   255
 73
   261
  0
VERTEX
  8
Triangle_Set_ncl1_7
 62
   7
 10
0.0
 20
0.0
 30
0.0
 70
   128
 71
   260
 72
   259
 73
   257
  0
VERTEX
  8
Triangle_Set_ncl1_7
 62
   7
 10
0.0
 20
0.0
 30
0.0
 70
   128
 71
   259
 72
   260
 73
   262
  0
VERTEX
  8
Triangle_Set_ncl1_7
 62
   7
 10
0.0
 20
0.0
 30
0.0
 70
   128
 71
   261
 72
   262
 73
   260
  0
VERTEX
  8
Triangle_Set_ncl1_7
 62
   7
 10
0.0
 20
0.0
 30
0.0
 70
   128
 71
   262
 72
   261
 73
   263
  0
VERTEX
  8
Triangle_Set_ncl1_7
 62
   7
 10
0.0
 20
0.0
 30
0.0
 70
   128
 71
   247
 72
   253
 73
   245
  0
VERTEX
  8
Triangle_Set_ncl1_7
 62
   7
 10
0.0
 20
0.0
 30
0.0
 70
   128
 71
   253
 72
   247
 73
   264
  0
VERTEX
  8
Triangle_Set_ncl1_7
 62
   7
 10
0.0
 20
0.0
 30
0.0
 70
   128
 71
   221
 72
   264
 73
   247
  0
VERTEX
  8
Triangle_Set_ncl1_7
 62
   7
 10
0.0
 20
0.0
 30
0.0
 70
   128
 71
   264
 72
   221
 73
   222
  0
VERTEX
  8
Triangle_Set_ncl1_7
 62
   7
 10
0.0
 20
0.0
 30
0.0
 70
   128
 71
   264
 72
   255
 73
   253
  0
VERTEX
  8
Triangle_Set_ncl1_7
 62
   7
 10
0.0
 20
0.0
 30
0.0
 70
   128
 71
   255
 72
   264
 73
   265
  0
VERTEX
  8
Triangle_Set_ncl1_7
 62
   7
 10
0.0
 20
0.0
 30
0.0
 70
   128
 71
   222
 72
   265
 73
   264
  0
VERTEX
  8
Triangle_Set_ncl1_7
 62
   7
 10
0.0
 20
0.0
 30
0.0
 70
   128
 71
   265
 72
   222
 73
   223
  0
VERTEX
  8
Triangle_Set_ncl1_7
 62
   7
 10
0.0
 20
0.0
 30
0.0
 70
   128
 71
   265
 72
   261
 73
   255
  0
VERTEX
  8
Triangle_Set_ncl1_7
 62
   7
 10
0.0
 20
0.0
 30
0.0
 70
   128
 71
   261
 72
   265
 73
   266
  0
VERTEX
  8
Triangle_Set_ncl1_7
 62
   7
 10
0.0
 20
0.0
 30
0.0
 70
   128
 71
   223
 72
   266
 73
   265
  0
VERTEX
  8
Triangle_Set_ncl1_7
 62
   7
 10
0.0
 20
0.0
 30
0.0
 70
   128
 71
   266
 72
   223
 73
   224
  0
VERTEX
  8
Triangle_Set_ncl1_7
 62
   7
 10
0.0
 20
0.0
 30
0.0
 70
   128
 71
   266
 72
   263
 73
   261
  0
VERTEX
  8
Triangle_Set_ncl1_7
 62
   7
 10
0.0
 20
0.0
 30
0.0
 70
   128
 71
   263
 72
   266
 73
   267
  0
VERTEX
  8
Triangle_Set_ncl1_7
 62
   7
 10
0.0
 20
0.0
 30
0.0
 70
   128
 71
   224
 72
   267
 73
   266
  0
VERTEX
  8
Triangle_Set_ncl1_7
 62
   7
 10
0.0
 20
0.0
 30
0.0
 70
   128
 71
   267
 72
   224
 73
   225
  0
VERTEX
  8
Triangle_Set_ncl1_7
 62
   7
 10
0.0
 20
0.0
 30
0.0
 70
   128
 71
   258
 72
   206
 73
   207
  0
VERTEX
  8
Triangle_Set_ncl1_7
 62
   7
 10
0.0
 20
0.0
 30
0.0
 70
   128
 71
   206
 72
   258
 73
   268
  0
VERTEX
  8
Triangle_Set_ncl1_7
 62
   7
 10
0.0
 20
0.0
 30
0.0
 70
   128
 71
   259
 72
   268
 73
   258
  0
VERTEX
  8
Triangle_Set_ncl1_7
 62
   7
 10
0.0
 20
0.0
 30
0.0
 70
   128
 71
   268
 72
   259
 73
   269
  0
VERTEX
  8
Triangle_Set_ncl1_7
 62
   7
 10
0.0
 20
0.0
 30
0.0
 70
   128
 71
   268
 72
   205
 73
   206
  0
VERTEX
  8
Triangle_Set_ncl1_7
 62
   7
 10
0.0
 20
0.0
 30
0.0
 70
   128
 71
   205
 72
   268
 73
   270
  0
VERTEX
  8
Triangle_Set_ncl1_7
 62
   7
 10
0.0
 20
0.0
 30
0.0
 70
   128
 71
   269
 72
   270
 73
   268
  0
VERTEX
  8
Triangle_Set_ncl1_7
 62
   7
 10
0.0
 20
0.0
 30
0.0
 70
   128
 71
   270
 72
   269
 73
   271
  0
VERTEX
  8
Triangle_Set_ncl1_7
 62
   7
 10
0.0
 20
0.0
 30
0.0
 70
   128
 71
   262
 72
   269
 73
   259
  0
VERTEX
  8
Triangle_Set_ncl1_7
 62
   7
 10
0.0
 20
0.0
 30
0.0
 70
   128
 71
   269
 72
   262
 73
   272
  0
VERTEX
  8
Triangle_Set_ncl1_7
 62
   7
 10
0.0
 20
0.0
 30
0.0
 70
   128
 71
   263
 72
   272
 73
   262
  0
VERTEX
  8
Triangle_Set_ncl1_7
 62
   7
 10
0.0
 20
0.0
 30
0.0
 70
   128
 71
   272
 72
   263
 73
   273
  0
VERTEX
  8
Triangle_Set_ncl1_7
 62
   7
 10
0.0
 20
0.0
 30
0.0
 70
   128
 71
   272
 72
   271
 73
   269
  0
VERTEX
  8
Triangle_Set_ncl1_7
 62
   7
 10
0.0
 20
0.0
 30
0.0
 70
   128
 71
   271
 72
   272
 73
   274
  0
VERTEX
  8
Triangle_Set_ncl1_7
 62
   7
 10
0.0
 20
0.0
 30
0.0
 70
   128
 71
   273
 72
   274
 73
   272
  0
VERTEX
  8
Triangle_Set_ncl1_7
 62
   7
 10
0.0
 20
0.0
 30
0.0
 70
   128
 71
   274
 72
   273
 73
   275
  0
VERTEX
  8
Triangle_Set_ncl1_7
 62
   7
 10
0.0
 20
0.0
 30
0.0
 70
   128
 71
   270
 72
   204
 73
   205
  0
VERTEX
  8
Triangle_Set_ncl1_7
 62
   7
 10
0.0
 20
0.0
 30
0.0
 70
   128
 71
   204
 72
   270
 73
   276
  0
VERTEX
  8
Triangle_Set_ncl1_7
 62
   7
 10
0.0
 20
0.0
 30
0.0
 70
   128
 71
   271
 72
   276
 73
   270
  0
VERTEX
  8
Triangle_Set_ncl1_7
 62
   7
 10
0.0
 20
0.0
 30
0.0
 70
   128
 71
   276
 72
   271
 73
   277
  0
VERTEX
  8
Triangle_Set_ncl1_7
 62
   7
 10
0.0
 20
0.0
 30
0.0
 70
   128
 71
   276
 72
   203
 73
   204
  0
VERTEX
  8
Triangle_Set_ncl1_7
 62
   7
 10
0.0
 20
0.0
 30
0.0
 70
   128
 71
   203
 72
   276
 73
   278
  0
VERTEX
  8
Triangle_Set_ncl1_7
 62
   7
 10
0.0
 20
0.0
 30
0.0
 70
   128
 71
   277
 72
   278
 73
   276
  0
VERTEX
  8
Triangle_Set_ncl1_7
 62
   7
 10
0.0
 20
0.0
 30
0.0
 70
   128
 71
   278
 72
   277
 73
   279
  0
VERTEX
  8
Triangle_Set_ncl1_7
 62
   7
 10
0.0
 20
0.0
 30
0.0
 70
   128
 71
   274
 72
   277
 73
   271
  0
VERTEX
  8
Triangle_Set_ncl1_7
 62
   7
 10
0.0
 20
0.0
 30
0.0
 70
   128
 71
   277
 72
   274
 73
   280
  0
VERTEX
  8
Triangle_Set_ncl1_7
 62
   7
 10
0.0
 20
0.0
 30
0.0
 70
   128
 71
   275
 72
   280
 73
   274
  0
VERTEX
  8
Triangle_Set_ncl1_7
 62
   7
 10
0.0
 20
0.0
 30
0.0
 70
   128
 71
   280
 72
   275
 73
   281
  0
VERTEX
  8
Triangle_Set_ncl1_7
 62
   7
 10
0.0
 20
0.0
 30
0.0
 70
   128
 71
   280
 72
   279
 73
   277
  0
VERTEX
  8
Triangle_Set_ncl1_7
 62
   7
 10
0.0
 20
0.0
 30
0.0
 70
   128
 71
   279
 72
   280
 73
   282
  0
VERTEX
  8
Triangle_Set_ncl1_7
 62
   7
 10
0.0
 20
0.0
 30
0.0
 70
   128
 71
   281
 72
   282
 73
   280
  0
VERTEX
  8
Triangle_Set_ncl1_7
 62
   7
 10
0.0
 20
0.0
 30
0.0
 70
   128
 71
   282
 72
   281
 73
   283
  0
VERTEX
  8
Triangle_Set_ncl1_7
 62
   7
 10
0.0
 20
0.0
 30
0.0
 70
   128
 71
   267
 72
   273
 73
   263
  0
VERTEX
  8
Triangle_Set_ncl1_7
 62
   7
 10
0.0
 20
0.0
 30
0.0
 70
   128
 71
   273
 72
   267
 73
   284
  0
VERTEX
  8
Triangle_Set_ncl1_7
 62
   7
 10
0.0
 20
0.0
 30
0.0
 70
   128
 71
   225
 72
   284
 73
   267
  0
VERTEX
  8
Triangle_Set_ncl1_7
 62
   7
 10
0.0
 20
0.0
 30
0.0
 70
   128
 71
   284
 72
   225
 73
   226
  0
VERTEX
  8
Triangle_Set_ncl1_7
 62
   7
 10
0.0
 20
0.0
 30
0.0
 70
   128
 71
   284
 72
   275
 73
   273
  0
VERTEX
  8
Triangle_Set_ncl1_7
 62
   7
 10
0.0
 20
0.0
 30
0.0
 70
   128
 71
   275
 72
   284
 73
   285
  0
VERTEX
  8
Triangle_Set_ncl1_7
 62
   7
 10
0.0
 20
0.0
 30
0.0
 70
   128
 71
   226
 72
   285
 73
   284
  0
VERTEX
  8
Triangle_Set_ncl1_7
 62
   7
 10
0.0
 20
0.0
 30
0.0
 70
   128
 71
   285
 72
   226
 73
   227
  0
VERTEX
  8
Triangle_Set_ncl1_7
 62
   7
 10
0.0
 20
0.0
 30
0.0
 70
   128
 71
   285
 72
   281
 73
   275
  0
VERTEX
  8
Triangle_Set_ncl1_7
 62
   7
 10
0.0
 20
0.0
 30
0.0
 70
   128
 71
   281
 72
   285
 73
   286
  0
VERTEX
  8
Triangle_Set_ncl1_7
 62
   7
 10
0.0
 20
0.0
 30
0.0
 70
   128
 71
   227
 72
   286
 73
   285
  0
VERTEX
  8
Triangle_Set_ncl1_7
 62
   7
 10
0.0
 20
0.0
 30
0.0
 70
   128
 71
   286
 72
   227
 73
   228
  0
VERTEX
  8
Triangle_Set_ncl1_7
 62
   7
 10
0.0
 20
0.0
 30
0.0
 70
   128
 71
   286
 72
   283
 73
   281
  0
VERTEX
  8
Triangle_Set_ncl1_7
 62
   7
 10
0.0
 20
0.0
 30
0.0
 70
   128
 71
   283
 72
   286
 73
   287
  0
VERTEX
  8
Triangle_Set_ncl1_7
 62
   7
 10
0.0
 20
0.0
 30
0.0
 70
   128
 71
   228
 72
   287
 73
   286
  0
VERTEX
  8
Triangle_Set_ncl1_7
 62
   7
 10
0.0
 20
0.0
 30
0.0
 70
   128
 71
   287
 72
   228
 73
   229
  0
VERTEX
  8
Triangle_Set_ncl1_7
 62
   7
 10
0.0
 20
0.0
 30
0.0
 70
   128
 71
   278
 72
   202
 73
   203
  0
VERTEX
  8
Triangle_Set_ncl1_7
 62
   7
 10
0.0
 20
0.0
 30
0.0
 70
   128
 71
   202
 72
   278
 73
   288
  0
VERTEX
  8
Triangle_Set_ncl1_7
 62
   7
 10
0.0
 20
0.0
 30
0.0
 70
   128
 71
   279
 72
   288
 73
   278
  0
VERTEX
  8
Triangle_Set_ncl1_7
 62
   7
 10
0.0
 20
0.0
 30
0.0
 70
   128
 71
   288
 72
   279
 73
   289
  0
VERTEX
  8
Triangle_Set_ncl1_7
 62
   7
 10
0.0
 20
0.0
 30
0.0
 70
   128
 71
   288
 72
   201
 73
   202
  0
VERTEX
  8
Triangle_Set_ncl1_7
 62
   7
 10
0.0
 20
0.0
 30
0.0
 70
   128
 71
   201
 72
   288
 73
   200
  0
VERTEX
  8
Triangle_Set_ncl1_7
 62
   7
 10
0.0
 20
0.0
 30
0.0
 70
   128
 71
   289
 72
   200
 73
   288
  0
VERTEX
  8
Triangle_Set_ncl1_7
 62
   7
 10
0.0
 20
0.0
 30
0.0
 70
   128
 71
   200
 72
   289
 73
   199
  0
VERTEX
  8
Triangle_Set_ncl1_7
 62
   7
 10
0.0
 20
0.0
 30
0.0
 70
   128
 71
   282
 72
   289
 73
   279
  0
VERTEX
  8
Triangle_Set_ncl1_7
 62
   7
 10
0.0
 20
0.0
 30
0.0
 70
   128
 71
   289
 72
   282
 73
   290
  0
VERTEX
  8
Triangle_Set_ncl1_7
 62
   7
 10
0.0
 20
0.0
 30
0.0
 70
   128
 71
   283
 72
   290
 73
   282
  0
VERTEX
  8
Triangle_Set_ncl1_7
 62
   7
 10
0.0
 20
0.0
 30
0.0
 70
   128
 71
   290
 72
   283
 73
   291
  0
VERTEX
  8
Triangle_Set_ncl1_7
 62
   7
 10
0.0
 20
0.0
 30
0.0
 70
   128
 71
   290
 72
   199
 73
   289
  0
VERTEX
  8
Triangle_Set_ncl1_7
 62
   7
 10
0.0
 20
0.0
 30
0.0
 70
   128
 71
   199
 72
   290
 73
   198
  0
VERTEX
  8
Triangle_Set_ncl1_7
 62
   7
 10
0.0
 20
0.0
 30
0.0
 70
   128
 71
   291
 72
   198
 73
   290
  0
VERTEX
  8
Triangle_Set_ncl1_7
 62
   7
 10
0.0
 20
0.0
 30
0.0
 70
   128
 71
   198
 72
   291
 73
   197
  0
VERTEX
  8
Triangle_Set_ncl1_7
 62
   7
 10
0.0
 20
0.0
 30
0.0
 70
   128
 71
   287
 72
   291
 73
   283
  0
VERTEX
  8
Triangle_Set_ncl1_7
 62
   7
 10
0.0
 20
0.0
 30
0.0
 70
   128
 71
   291
 72
   287
 73
   292
  0
VERTEX
  8
Triangle_Set_ncl1_7
 62
   7
 10
0.0
 20
0.0
 30
0.0
 70
   128
 71
   229
 72
   292
 73
   287
  0
VERTEX
  8
Triangle_Set_ncl1_7
 62
   7
 10
0.0
 20
0.0
 30
0.0
 70
   128
 71
   292
 72
   229
 73
   230
  0
VERTEX
  8
Triangle_Set_ncl1_7
 62
   7
 10
0.0
 20
0.0
 30
0.0
 70
   128
 71
   292
 72
   197
 73
   291
  0
VERTEX
  8
Triangle_Set_ncl1_7
 62
   7
 10
0.0
 20
0.0
 30
0.0
 70
   128
 71
   197
 72
   292
 73
   196
  0
VERTEX
  8
Triangle_Set_ncl1_7
 62
   7
 10
0.0
 20
0.0
 30
0.0
 70
   128
 71
   230
 72
   196
 73
   292
  0
VERTEX
  8
Triangle_Set_ncl1_7
 62
   7
 10
0.0
 20
0.0
 30
0.0
 70
   128
 71
   196
 72
   230
 73
   231
  0
VERTEX
  8
Triangle_Set_ncl1_7
 62
   7
 10
0.0
 20
0.0
 30
0.0
 70
   128
 71
   2
 72
   53
 73
   52
  0
VERTEX
  8
Triangle_Set_ncl1_7
 62
   7
 10
0.0
 20
0.0
 30
0.0
 70
   128
 71
   53
 72
   54
 73
   51
  0
VERTEX
  8
Triangle_Set_ncl1_7
 62
   7
 10
0.0
 20
0.0
 30
0.0
 70
   128
 71
   54
 72
   55
 73
   50
  0
VERTEX
  8
Triangle_Set_ncl1_7
 62
   7
 10
0.0
 20
0.0
 30
0.0
 70
   128
 71
   55
 72
   56
 73
   49
  0
VERTEX
  8
Triangle_Set_ncl1_7
 62
   7
 10
0.0
 20
0.0
 30
0.0
 70
   128
 71
   56
 72
   57
 73
   63
  0
VERTEX
  8
Triangle_Set_ncl1_7
 62
   7
 10
0.0
 20
0.0
 30
0.0
 70
   128
 71
   57
 72
   58
 73
   62
  0
VERTEX
  8
Triangle_Set_ncl1_7
 62
   7
 10
0.0
 20
0.0
 30
0.0
 70
   128
 71
   58
 72
   59
 73
   61
  0
VERTEX
  8
Triangle_Set_ncl1_7
 62
   7
 10
0.0
 20
0.0
 30
0.0
 70
   128
 71
   59
 72
   60
 73
   61
  0
VERTEX
  8
Triangle_Set_ncl1_7
 62
   7
 10
0.0
 20
0.0
 30
0.0
 70
   128
 71
   58
 72
   61
 73
   62
  0
VERTEX
  8
Triangle_Set_ncl1_7
 62
   7
 10
0.0
 20
0.0
 30
0.0
 70
   128
 71
   57
 72
   62
 73
   63
  0
VERTEX
  8
Triangle_Set_ncl1_7
 62
   7
 10
0.0
 20
0.0
 30
0.0
 70
   128
 71
   56
 72
   63
 73
   64
  0
VERTEX
  8
Triangle_Set_ncl1_7
 62
   7
 10
0.0
 20
0.0
 30
0.0
 70
   128
 71
   56
 72
   64
 73
   72
  0
VERTEX
  8
Triangle_Set_ncl1_7
 62
   7
 10
0.0
 20
0.0
 30
0.0
 70
   128
 71
   64
 72
   65
 73
   71
  0
VERTEX
  8
Triangle_Set_ncl1_7
 62
   7
 10
0.0
 20
0.0
 30
0.0
 70
   128
 71
   65
 72
   66
 73
   70
  0
VERTEX
  8
Triangle_Set_ncl1_7
 62
   7
 10
0.0
 20
0.0
 30
0.0
 70
   128
 71
   66
 72
   67
 73
   69
  0
VERTEX
  8
Triangle_Set_ncl1_7
 62
   7
 10
0.0
 20
0.0
 30
0.0
 70
   128
 71
   67
 72
   68
 73
   69
  0
VERTEX
  8
Triangle_Set_ncl1_7
 62
   7
 10
0.0
 20
0.0
 30
0.0
 70
   128
 71
   66
 72
   69
 73
   70
  0
VERTEX
  8
Triangle_Set_ncl1_7
 62
   7
 10
0.0
 20
0.0
 30
0.0
 70
   128
 71
   65
 72
   70
 73
   71
  0
VERTEX
  8
Triangle_Set_ncl1_7
 62
   7
 10
0.0
 20
0.0
 30
0.0
 70
   128
 71
   64
 72
   71
 73
   72
  0
VERTEX
  8
Triangle_Set_ncl1_7
 62
   7
 10
0.0
 20
0.0
 30
0.0
 70
   128
 71
   56
 72
   72
 73
   80
  0
VERTEX
  8
Triangle_Set_ncl1_7
 62
   7
 10
0.0
 20
0.0
 30
0.0
 70
   128
 71
   72
 72
   73
 73
   79
  0
VERTEX
  8
Triangle_Set_ncl1_7
 62
   7
 10
0.0
 20
0.0
 30
0.0
 70
   128
 71
   73
 72
   74
 73
   78
  0
VERTEX
  8
Triangle_Set_ncl1_7
 62
   7
 10
0.0
 20
0.0
 30
0.0
 70
   128
 71
   74
 72
   75
 73
   77
  0
VERTEX
  8
Triangle_Set_ncl1_7
 62
   7
 10
0.0
 20
0.0
 30
0.0
 70
   128
 71
   75
 72
   76
 73
   77
  0
VERTEX
  8
Triangle_Set_ncl1_7
 62
   7
 10
0.0
 20
0.0
 30
0.0
 70
   128
 71
   74
 72
   77
 73
   78
  0
VERTEX
  8
Triangle_Set_ncl1_7
 62
   7
 10
0.0
 20
0.0
 30
0.0
 70
   128
 71
   73
 72
   78
 73
   79
  0
VERTEX
  8
Triangle_Set_ncl1_7
 62
   7
 10
0.0
 20
0.0
 30
0.0
 70
   128
 71
   72
 72
   79
 73
   80
  0
VERTEX
  8
Triangle_Set_ncl1_7
 62
   7
 10
0.0
 20
0.0
 30
0.0
 70
   128
 71
   56
 72
   80
 73
   25
  0
VERTEX
  8
Triangle_Set_ncl1_7
 62
   7
 10
0.0
 20
0.0
 30
0.0
 70
   128
 71
   80
 72
   81
 73
   24
  0
VERTEX
  8
Triangle_Set_ncl1_7
 62
   7
 10
0.0
 20
0.0
 30
0.0
 70
   128
 71
   81
 72
   82
 73
   23
  0
VERTEX
  8
Triangle_Set_ncl1_7
 62
   7
 10
0.0
 20
0.0
 30
0.0
 70
   128
 71
   82
 72
   83
 73
   22
  0
VERTEX
  8
Triangle_Set_ncl1_7
 62
   7
 10
0.0
 20
0.0
 30
0.0
 70
   128
 71
   83
 72
   4
 73
   22
  0
VERTEX
  8
Triangle_Set_ncl1_7
 62
   7
 10
0.0
 20
0.0
 30
0.0
 70
   128
 71
   82
 72
   22
 73
   23
  0
VERTEX
  8
Triangle_Set_ncl1_7
 62
   7
 10
0.0
 20
0.0
 30
0.0
 70
   128
 71
   81
 72
   23
 73
   24
  0
VERTEX
  8
Triangle_Set_ncl1_7
 62
   7
 10
0.0
 20
0.0
 30
0.0
 70
   128
 71
   80
 72
   24
 73
   25
  0
VERTEX
  8
Triangle_Set_ncl1_7
 62
   7
 10
0.0
 20
0.0
 30
0.0
 70
   128
 71
   56
 72
   25
 73
   33
  0
VERTEX
  8
Triangle_Set_ncl1_7
 62
   7
 10
0.0
 20
0.0
 30
0.0
 70
   128
 71
   25
 72
   26
 73
   32
  0
VERTEX
  8
Triangle_Set_ncl1_7
 62
   7
 10
0.0
 20
0.0
 30
0.0
 70
   128
 71
   26
 72
   27
 73
   31
  0
VERTEX
  8
Triangle_Set_ncl1_7
 62
   7
 10
0.0
 20
0.0
 30
0.0
 70
   128
 71
   27
 72
   28
 73
   30
  0
VERTEX
  8
Triangle_Set_ncl1_7
 62
   7
 10
0.0
 20
0.0
 30
0.0
 70
   128
 71
   28
 72
   29
 73
   30
  0
VERTEX
  8
Triangle_Set_ncl1_7
 62
   7
 10
0.0
 20
0.0
 30
0.0
 70
   128
 71
   27
 72
   30
 73
   31
  0
VERTEX
  8
Triangle_Set_ncl1_7
 62
   7
 10
0.0
 20
0.0
 30
0.0
 70
   128
 71
   26
 72
   31
 73
   32
  0
VERTEX
  8
Triangle_Set_ncl1_7
 62
   7
 10
0.0
 20
0.0
 30
0.0
 70
   128
 71
   25
 72
   32
 73
   33
  0
VERTEX
  8
Triangle_Set_ncl1_7
 62
   7
 10
0.0
 20
0.0
 30
0.0
 70
   128
 71
   56
 72
   33
 73
   41
  0
VERTEX
  8
Triangle_Set_ncl1_7
 62
   7
 10
0.0
 20
0.0
 30
0.0
 70
   128
 71
   33
 72
   34
 73
   40
  0
VERTEX
  8
Triangle_Set_ncl1_7
 62
   7
 10
0.0
 20
0.0
 30
0.0
 70
   128
 71
   34
 72
   35
 73
   39
  0
VERTEX
  8
Triangle_Set_ncl1_7
 62
   7
 10
0.0
 20
0.0
 30
0.0
 70
   128
 71
   35
 72
   36
 73
   38
  0
VERTEX
  8
Triangle_Set_ncl1_7
 62
   7
 10
0.0
 20
0.0
 30
0.0
 70
   128
 71
   36
 72
   37
 73
   38
  0
VERTEX
  8
Triangle_Set_ncl1_7
 62
   7
 10
0.0
 20
0.0
 30
0.0
 70
   128
 71
   35
 72
   38
 73
   39
  0
VERTEX
  8
Triangle_Set_ncl1_7
 62
   7
 10
0.0
 20
0.0
 30
0.0
 70
   128
 71
   34
 72
   39
 73
   40
  0
VERTEX
  8
Triangle_Set_ncl1_7
 62
   7
 10
0.0
 20
0.0
 30
0.0
 70
   128
 71
   33
 72
   40
 73
   41
  0
VERTEX
  8
Triangle_Set_ncl1_7
 62
   7
 10
0.0
 20
0.0
 30
0.0
 70
   128
 71
   56
 72
   41
 73
   49
  0
VERTEX
  8
Triangle_Set_ncl1_7
 62
   7
 10
0.0
 20
0.0
 30
0.0
 70
   128
 71
   41
 72
   42
 73
   48
  0
VERTEX
  8
Triangle_Set_ncl1_7
 62
   7
 10
0.0
 20
0.0
 30
0.0
 70
   128
 71
   42
 72
   43
 73
   47
  0
VERTEX
  8
Triangle_Set_ncl1_7
 62
   7
 10
0.0
 20
0.0
 30
0.0
 70
   128
 71
   43
 72
   44
 73
   46
  0
VERTEX
  8
Triangle_Set_ncl1_7
 62
   7
 10
0.0
 20
0.0
 30
0.0
 70
   128
 71
   44
 72
   45
 73
   46
  0
VERTEX
  8
Triangle_Set_ncl1_7
 62
   7
 10
0.0
 20
0.0
 30
0.0
 70
   128
 71
   43
 72
   46
 73
   47
  0
VERTEX
  8
Triangle_Set_ncl1_7
 62
   7
 10
0.0
 20
0.0
 30
0.0
 70
   128
 71
   42
 72
   47
 73
   48
  0
VERTEX
  8
Triangle_Set_ncl1_7
 62
   7
 10
0.0
 20
0.0
 30
0.0
 70
   128
 71
   41
 72
   48
 73
   49
  0
VERTEX
  8
Triangle_Set_ncl1_7
 62
   7
 10
0.0
 20
0.0
 30
0.0
 70
   128
 71
   55
 72
   49
 73
   50
  0
VERTEX
  8
Triangle_Set_ncl1_7
 62
   7
 10
0.0
 20
0.0
 30
0.0
 70
   128
 71
   54
 72
   50
 73
   51
  0
VERTEX
  8
Triangle_Set_ncl1_7
 62
   7
 10
0.0
 20
0.0
 30
0.0
 70
   128
 71
   53
 72
   51
 73
   52
  0
SEQEND
  0
POLYLINE
  8
Triangle_Set_ncl1_8
 62
   40
 66
   1
 10
0.0
 20
0.0
 30
0.0
 70
   64
 71
   4
 72
   2
  0
VERTEX
  8
Triangle_Set_ncl1_8
 10
0.500000
 20
-0.000050
 30
-0.400000
 70
   192
  0
VERTEX
  8
Triangle_Set_ncl1_8
 10
0.800000
 20
-0.000050
 30
-0.400000
 70
   192
  0
VERTEX
  8
Triangle_Set_ncl1_8
 10
0.800000
 20
-0.000050
 30
0.400000
 70
   192
  0
VERTEX
  8
Triangle_Set_ncl1_8
 10
0.500000
 20
-0.000050
 30
0.400000
 70
   192
  0
VERTEX
  8
Triangle_Set_ncl1_8
 62
   40
 10
0.0
 20
0.0
 30
0.0
 70
   128
 71
   2
 72
   1
 73
   3
  0
VERTEX
  8
Triangle_Set_ncl1_8
 62
   40
 10
0.0
 20
0.0
 30
0.0
 70
   128
 71
   3
 72
   1
 73
   4
  0
SEQEND
  0
POLYLINE
  8
Triangle_Set_ncl1_9
 62
   253
 66
   1
 10
0.0
 20
0.0
 30
0.0
 70
   64
 71
   4
 72
   2
  0
VERTEX
  8
Triangle_Set_ncl1_9
 10
0.800000
 20
-0.000050
 30
-0.400000
 70
   192
  0
VERTEX
  8
Triangle_Set_ncl1_9
 10
0.800000
 20
-0.000050
 30
0.400000
 70
   192
  0
VERTEX
  8
Triangle_Set_ncl1_9
 10
0.500000
 20
-0.000050
 30
-0.400000
 70
   192
  0
VERTEX
  8
Triangle_Set_ncl1_9
 10
0.500000
 20
-0.000050
 30
0.400000
 70
   192
  0
VERTEX
  8
Triangle_Set_ncl1_9
 62
   253
 10
0.0
 20
0.0
 30
0.0
 70
   128
 71
   2
 72
   4
 73
   3
  0
VERTEX
  8
Triangle_Set_ncl1_9
 62
   253
 10
0.0
 20
0.0
 30
0.0
 70
   128
 71
   2
 72
   3
 73
   1
  0
SEQEND
  0
ENDSEC
  0
EOF
